<?xml version="1.0" encoding="UTF-8" standalone="no"?>
<svg
   xmlns:dc="http://purl.org/dc/elements/1.1/"
   xmlns:cc="http://creativecommons.org/ns#"
   xmlns:rdf="http://www.w3.org/1999/02/22-rdf-syntax-ns#"
   xmlns:svg="http://www.w3.org/2000/svg"
   xmlns="http://www.w3.org/2000/svg"
   id="svg229"
   version="1.1"
   width="87.554688"
   viewBox="0 0 87.554688 78.979073"
   height="78.979073">
  <metadata
     id="metadata235">
    <rdf:RDF>
      <cc:Work
         rdf:about="">
        <dc:format>image/svg+xml</dc:format>
        <dc:type
           rdf:resource="http://purl.org/dc/dcmitype/StillImage" />
        <dc:title></dc:title>
      </cc:Work>
    </rdf:RDF>
  </metadata>
  <defs
     id="defs233" />
  <g
     transform="translate(6.3981585)"
     id="g227"
     fill-rule="evenodd"
     fill="none">
    <rect
       y="0"
       x="0"
       id="rect209"
       width="72"
       rx="36"
       height="72"
       fill="#79e2f2" />
    <g
       id="g225"
       transform="translate(19,16)">
      <path
         id="path211"
         fill="#6553c0"
         d="M 34,40 H 1 C 0.392,40 0,39.613091 0,39 V 3 C 0,2.3869091 0.392,2 1,2 h 33 c 0.608,0 1,0.3869091 1,1 v 36 c 0,0.613089 -0.392,1 -1,1 z" />
      <path
         id="path213"
         fill="#e6fcff"
         d="M 30.434783,36.521739 H 4.3478261 c -0.48,0 -0.8695652,-0.389565 -0.8695652,-0.869565 V 6.0869565 c 0,-0.48 0.3895652,-0.8695652 0.8695652,-0.8695652 H 30.434783 c 0.48,0 0.869565,0.3895652 0.869565,0.8695652 V 35.652174 c 0,0.479998 -0.389565,0.869565 -0.869565,0.869565 z" />
      <path
         id="path215"
         fill="#998dd9"
         d="m 24.676328,9 h -3.555555 c -0.490667,0 -0.888889,-0.3584 -0.888889,-0.8 0,-1.3232 -1.196444,-2.4 -2.666667,-2.4 -1.470222,0 -2.666666,1.0768 -2.666666,2.4 0,0.4416 -0.398223,0.8 -0.888889,0.8 H 10.454106 C 9.9634396,9 9.5652174,8.6416 9.5652174,8.2 V 0.8 c 0,-0.4416 0.3982222,-0.8 0.8888886,-0.8 h 14.222222 c 0.490667,0 0.888889,0.3584 0.888889,0.8 v 7.4 c 0,0.4416 -0.398222,0.8 -0.888889,0.8 z" />
      <g
         id="g223"
         fill="#403294">
        <path
           id="path217"
           d="M 23.217391,14.782609 H 9.5652174 c -0.4808696,0 -0.8695652,-0.389565 -0.8695652,-0.869565 0,-0.48 0.3886956,-0.869566 0.8695652,-0.869566 H 23.217391 c 0.48087,0 0.869565,0.389566 0.869565,0.869566 0,0.48 -0.388695,0.869565 -0.869565,0.869565 z" />
        <path
           id="path219"
           d="M 25.217391,21.73913 H 9.5652174 c -0.4808696,0 -0.8695652,-0.389565 -0.8695652,-0.869565 C 8.6956522,20.389565 9.0843478,20 9.5652174,20 H 25.217391 c 0.48087,0 0.869565,0.389565 0.869565,0.869565 0,0.48 -0.388695,0.869565 -0.869565,0.869565 z" />
        <path
           id="path221"
           d="M 23.217391,28.695652 H 9.5652174 c -0.4808696,0 -0.8695652,-0.389565 -0.8695652,-0.869565 0,-0.48 0.3886956,-0.869565 0.8695652,-0.869565 H 23.217391 c 0.48087,0 0.869565,0.389565 0.869565,0.869565 0,0.48 -0.388695,0.869565 -0.869565,0.869565 z" />
      </g>
    </g>
  </g>
  <g
     transform="translate(-3.4589844,4.2857143)"
     style="font-style:normal;font-variant:normal;font-weight:normal;font-stretch:normal;font-size:8px;line-height:1.25;font-family:sans-serif;-inkscape-font-specification:'sans-serif Normal';font-variant-ligatures:normal;font-variant-caps:normal;font-variant-numeric:normal;font-variant-east-asian:normal"
     id="text239"
     aria-label="DATAPRACTICES.ORG">
    <path
       d="m 76.669922,68.634766 c -0.401042,0 -0.772136,0.06771 -1.113281,0.203125 -0.338542,0.135416 -0.622396,0.330728 -0.851563,0.585937 -0.239583,0.268229 -0.421875,0.591146 -0.546875,0.96875 -0.125,0.375 -0.1875,0.79948 -0.1875,1.273438 0,0.481771 0.0625,0.910156 0.1875,1.285156 0.127604,0.375 0.308594,0.691407 0.542969,0.949219 0.234375,0.257812 0.518229,0.454427 0.851562,0.589843 0.335938,0.135417 0.708334,0.203125 1.117188,0.203125 0.419271,0 0.791667,-0.06641 1.117187,-0.199218 0.328126,-0.132812 0.61198,-0.330729 0.851563,-0.59375 0.231771,-0.252604 0.411458,-0.567709 0.539062,-0.945313 0.130209,-0.380209 0.195313,-0.809896 0.195313,-1.289062 0,-0.479167 -0.0638,-0.907553 -0.191406,-1.285157 -0.125,-0.377604 -0.30599,-0.696614 -0.542969,-0.957031 -0.231771,-0.252604 -0.514323,-0.446614 -0.847656,-0.582031 -0.33073,-0.138021 -0.704427,-0.207031 -1.121094,-0.207031 z m -32.785156,0.01563 c -0.427084,0 -0.816406,0.06641 -1.167969,0.199218 -0.348959,0.132813 -0.647136,0.325521 -0.894531,0.578125 -0.255209,0.260417 -0.450521,0.579428 -0.585938,0.957032 -0.135417,0.377604 -0.203125,0.805989 -0.203125,1.285156 0,0.505208 0.07031,0.949218 0.210938,1.332031 0.140624,0.380208 0.335937,0.69401 0.585937,0.941406 0.255209,0.252604 0.554688,0.438802 0.898438,0.558594 0.346354,0.117187 0.730469,0.175781 1.152343,0.175781 0.223959,0 0.428386,-0.01823 0.613282,-0.05469 0.1875,-0.03385 0.360677,-0.07552 0.519531,-0.125 0.1875,-0.0599 0.338542,-0.117188 0.453125,-0.171875 0.117187,-0.05469 0.247396,-0.113281 0.390625,-0.175781 v -0.90625 h -0.05469 c -0.283854,0.255208 -0.588541,0.446614 -0.914062,0.574218 -0.325521,0.127604 -0.674479,0.191407 -1.046875,0.191407 -0.270833,0 -0.528646,-0.04557 -0.773438,-0.136719 -0.242187,-0.09375 -0.454427,-0.236979 -0.636718,-0.429688 -0.17448,-0.184896 -0.317709,-0.424479 -0.429688,-0.71875 -0.109375,-0.29427 -0.164062,-0.645833 -0.164062,-1.054687 0,-0.390625 0.04948,-0.734375 0.148437,-1.03125 0.101563,-0.299479 0.242188,-0.546875 0.421875,-0.742188 0.184896,-0.20052 0.394532,-0.347656 0.628906,-0.441406 0.23698,-0.09635 0.502605,-0.144531 0.796875,-0.144531 0.359376,0 0.696615,0.0612 1.011719,0.183594 0.315104,0.122396 0.632812,0.317708 0.953125,0.585937 h 0.05859 v -0.917969 c -0.380209,-0.190104 -0.726563,-0.322916 -1.039063,-0.398437 -0.309895,-0.07552 -0.621093,-0.113281 -0.933593,-0.113281 z m 13.90625,0 c -0.427084,0 -0.816406,0.06641 -1.167969,0.199218 -0.348959,0.132813 -0.647136,0.325521 -0.894531,0.578125 -0.255209,0.260417 -0.450521,0.579428 -0.585938,0.957032 -0.135417,0.377604 -0.203125,0.805989 -0.203125,1.285156 0,0.505208 0.07031,0.949218 0.210938,1.332031 0.140624,0.380208 0.335937,0.69401 0.585937,0.941406 0.255209,0.252604 0.554688,0.438802 0.898438,0.558594 0.346354,0.117187 0.730469,0.175781 1.152343,0.175781 0.223959,0 0.428386,-0.01823 0.613282,-0.05469 0.1875,-0.03385 0.360677,-0.07552 0.519531,-0.125 0.1875,-0.0599 0.338542,-0.117188 0.453125,-0.171875 0.117187,-0.05469 0.247396,-0.113281 0.390625,-0.175781 v -0.90625 h -0.05469 c -0.283854,0.255208 -0.588541,0.446614 -0.914062,0.574218 -0.325521,0.127604 -0.674479,0.191407 -1.046875,0.191407 -0.270833,0 -0.528646,-0.04557 -0.773438,-0.136719 -0.242187,-0.09375 -0.454427,-0.236979 -0.636718,-0.429688 -0.17448,-0.184896 -0.317709,-0.424479 -0.429688,-0.71875 -0.109375,-0.29427 -0.164062,-0.645833 -0.164062,-1.054687 0,-0.390625 0.04948,-0.734375 0.148437,-1.03125 0.101563,-0.299479 0.242188,-0.546875 0.421875,-0.742188 0.184896,-0.20052 0.394532,-0.347656 0.628906,-0.441406 0.23698,-0.09635 0.502605,-0.144531 0.796875,-0.144531 0.359376,0 0.696615,0.0612 1.011719,0.183594 0.315104,0.122396 0.632812,0.317708 0.953125,0.585937 h 0.05859 v -0.917969 c -0.380209,-0.190104 -0.726563,-0.322916 -1.039063,-0.398437 -0.309895,-0.07552 -0.621093,-0.113281 -0.933593,-0.113281 z m 10.097656,0 c -0.632813,0 -1.154948,0.15625 -1.566406,0.46875 -0.411459,0.309896 -0.617188,0.708333 -0.617188,1.195312 0,0.424479 0.123698,0.769532 0.371094,1.035156 0.25,0.263021 0.632813,0.449219 1.148437,0.558594 0.255209,0.05208 0.496094,0.09505 0.722657,0.128906 0.229166,0.03385 0.441406,0.07682 0.636718,0.128907 0.257813,0.06771 0.449219,0.16276 0.574219,0.285156 0.127604,0.122395 0.191406,0.3125 0.191406,0.570312 0,0.29948 -0.134115,0.539063 -0.402343,0.71875 -0.265626,0.179688 -0.638021,0.269532 -1.117188,0.269532 -0.338541,0 -0.700521,-0.06641 -1.085937,-0.199219 -0.385417,-0.132813 -0.72526,-0.321614 -1.019532,-0.566406 h -0.05469 v 0.96875 c 0.346354,0.153646 0.686198,0.269531 1.019531,0.347656 0.335937,0.07813 0.713541,0.117187 1.132813,0.117187 0.390624,0 0.723958,-0.04687 1,-0.140625 0.278645,-0.09375 0.522135,-0.223958 0.730468,-0.390625 0.190105,-0.153646 0.33724,-0.341146 0.441407,-0.5625 0.10677,-0.221354 0.160156,-0.445312 0.160156,-0.671875 10e-7,-0.416666 -0.109375,-0.740885 -0.328125,-0.972656 -0.21875,-0.231771 -0.544271,-0.404948 -0.976563,-0.519531 -0.213541,-0.05469 -0.473958,-0.10807 -0.78125,-0.160156 -0.307291,-0.05208 -0.54427,-0.09635 -0.710937,-0.132813 -0.315104,-0.07292 -0.535156,-0.178385 -0.660156,-0.316406 -0.125,-0.138021 -0.1875,-0.328125 -0.1875,-0.570313 0,-0.270833 0.125,-0.492187 0.375,-0.664062 0.252604,-0.171875 0.585937,-0.257813 1,-0.257813 0.377604,0 0.746094,0.0625 1.105468,0.1875 0.36198,0.122396 0.653646,0.277344 0.875,0.464844 h 0.05469 v -0.914062 c -0.263021,-0.114584 -0.565104,-0.210938 -0.90625,-0.289063 -0.341146,-0.07813 -0.716146,-0.117187 -1.125,-0.117187 z m 20.992187,0 c -0.947916,0 -1.69401,0.269531 -2.238281,0.808593 -0.541667,0.536459 -0.8125,1.269532 -0.8125,2.199219 0,0.507813 0.07292,0.951823 0.21875,1.332031 0.145833,0.377604 0.352865,0.692708 0.621094,0.945313 0.265625,0.25 0.587239,0.4375 0.964844,0.5625 0.377604,0.125 0.792969,0.1875 1.246093,0.1875 0.351563,0 0.714844,-0.05339 1.089844,-0.160156 0.377604,-0.109375 0.72526,-0.23698 1.042969,-0.382813 v -2.496094 h -2.324219 v 0.679688 h 1.558594 v 1.425781 c -0.1875,0.07812 -0.40625,0.141926 -0.65625,0.191406 -0.247396,0.04948 -0.496094,0.07422 -0.746094,0.07422 -0.682291,0 -1.221354,-0.208333 -1.617187,-0.625 -0.395834,-0.419271 -0.59375,-1.005208 -0.59375,-1.757812 0,-0.713542 0.188802,-1.278646 0.566406,-1.695313 0.380208,-0.419271 0.895833,-0.628906 1.546875,-0.628906 0.289063,0 0.546875,0.02734 0.773437,0.08203 0.229167,0.05208 0.433594,0.11849 0.613282,0.199219 0.148437,0.06771 0.299479,0.152343 0.453125,0.253906 0.153645,0.101563 0.270833,0.183594 0.351562,0.246094 h 0.07031 v -0.917969 c -0.398438,-0.190104 -0.770834,-0.324218 -1.117188,-0.402344 -0.34375,-0.08073 -0.680989,-0.121093 -1.011719,-0.121093 z M 3.4589844,68.755859 v 5.816407 h 1.46875 c 0.5338541,0 0.9635416,-0.03646 1.2890625,-0.109375 0.328125,-0.07292 0.625,-0.191407 0.890625,-0.355469 0.3828124,-0.236979 0.6888021,-0.570313 0.9179687,-1 0.2317709,-0.429688 0.3476563,-0.908855 0.3476563,-1.4375 0,-0.565105 -0.1106771,-1.053386 -0.3320313,-1.464844 C 7.8196615,69.793619 7.5110677,69.464192 7.1152344,69.216797 6.8834635,69.073568 6.5996093,68.961589 6.2636719,68.880859 c -0.3333334,-0.08333 -0.7838542,-0.125 -1.3515625,-0.125 z m 7.6093746,0 -2.1171871,5.816407 h 0.7851562 l 0.5703129,-1.621094 h 2.515625 l 0.570312,1.621094 h 0.824219 l -2.117188,-5.816407 z m 3.25,0 v 0.6875 h 2.078125 v 5.128907 h 0.773438 v -5.128907 h 2.078125 v -0.6875 z m 7.15625,0 -2.117187,5.816407 h 0.785156 l 0.570313,-1.621094 h 2.515625 l 0.570312,1.621094 h 0.824219 l -2.117188,-5.816407 z m 4.03125,0 v 5.816407 h 0.773438 v -2.167969 h 0.773437 c 0.416667,0 0.761719,-0.04948 1.035157,-0.148438 0.273437,-0.101562 0.510416,-0.252604 0.710937,-0.453125 0.161459,-0.161458 0.286459,-0.351562 0.375,-0.570312 0.09115,-0.221355 0.136719,-0.460938 0.136719,-0.71875 0,-0.338542 -0.0612,-0.61849 -0.183594,-0.839844 -0.119791,-0.221354 -0.290364,-0.406249 -0.511719,-0.554687 -0.1875,-0.124998 -0.402344,-0.216145 -0.644531,-0.273438 -0.242187,-0.05989 -0.53776,-0.08984 -0.886719,-0.08984 z m 4.828125,0 v 5.816407 h 0.773438 v -2.3125 h 1.089844 l 1.945312,2.3125 h 1.003906 l -2.1875,-2.542969 c 0.369792,-0.143229 0.660157,-0.355469 0.871094,-0.636719 0.210937,-0.283854 0.316406,-0.635416 0.316406,-1.054687 0,-0.309896 -0.0599,-0.565104 -0.179687,-0.765625 -0.117187,-0.203125 -0.28125,-0.371094 -0.492188,-0.503907 -0.1875,-0.117184 -0.398437,-0.197914 -0.632812,-0.242187 -0.234375,-0.04687 -0.527344,-0.07031 -0.878906,-0.07031 z m 7,0 -2.117187,5.816407 h 0.785156 l 0.570313,-1.621094 h 2.515625 l 0.570312,1.621094 h 0.824219 l -2.117188,-5.816407 z m 8.84375,0 v 0.6875 h 2.078125 v 5.128907 h 0.773438 v -5.128907 h 2.078125 v -0.6875 z m 5.472657,0 v 0.59375 h 0.761718 v 4.628907 h -0.761718 v 0.59375 h 2.296875 v -0.59375 h -0.761719 v -4.628907 h 0.761719 v -0.59375 z m 9.214843,0 v 5.816407 h 3.832032 v -0.6875 h -3.058594 v -2.160157 h 3.058594 v -0.6875 h -3.058594 v -1.59375 h 3.058594 v -0.6875 z m 19.734375,0 v 5.816407 h 0.773438 v -2.3125 h 1.089844 l 1.945312,2.3125 h 1.003906 l -2.1875,-2.542969 c 0.369792,-0.143229 0.660157,-0.355469 0.871094,-0.636719 0.210937,-0.283854 0.316406,-0.635416 0.316406,-1.054687 0,-0.309896 -0.0599,-0.565104 -0.179687,-0.765625 -0.117187,-0.203125 -0.28125,-0.371094 -0.492188,-0.503907 -0.1875,-0.117184 -0.398437,-0.197914 -0.632812,-0.242187 -0.234375,-0.04687 -0.527344,-0.07031 -0.878906,-0.07031 z m -3.925781,0.546875 c 0.585937,0 1.048177,0.205729 1.386719,0.617188 0.338541,0.408854 0.507812,0.990886 0.507812,1.746094 0,0.763021 -0.171875,1.347656 -0.515625,1.753906 -0.341145,0.403645 -0.800781,0.605469 -1.378906,0.605469 -0.578125,0 -1.039062,-0.201824 -1.382812,-0.605469 -0.34375,-0.40625 -0.515625,-0.990885 -0.515625,-1.753906 0,-0.755208 0.167969,-1.33724 0.503906,-1.746094 0.338541,-0.411459 0.803385,-0.617188 1.394531,-0.617188 z M 4.2324219,69.419922 h 0.7265625 c 0.359375,0 0.6679688,0.02604 0.9257812,0.07813 0.2578126,0.04948 0.5013021,0.139322 0.7304688,0.269531 0.3151041,0.179687 0.5520833,0.425782 0.7109375,0.738281 0.1588541,0.3125 0.2382812,0.696615 0.2382812,1.152344 0,0.453125 -0.072917,0.830729 -0.21875,1.132813 -0.1432291,0.302083 -0.3593749,0.545572 -0.6484375,0.730468 -0.2317708,0.148439 -0.4869791,0.250001 -0.765625,0.304688 -0.2760416,0.05469 -0.6002604,0.08203 -0.9726562,0.08203 H 4.2324219 Z m 22.0468751,0 h 0.765625 c 0.244791,0 0.446614,0.01823 0.605469,0.05469 0.161458,0.03385 0.304687,0.09115 0.429687,0.171875 0.143229,0.09375 0.25,0.214844 0.320313,0.363282 0.07031,0.148438 0.105468,0.322916 0.105468,0.523437 0,0.171875 -0.02604,0.326823 -0.07813,0.464844 -0.04948,0.138021 -0.135416,0.269531 -0.257812,0.394531 -0.122396,0.122394 -0.28125,0.212238 -0.476563,0.269531 -0.195312,0.05469 -0.449218,0.08203 -0.761718,0.08203 h -0.652344 z m 4.828125,0 h 0.910156 c 0.208333,0 0.389323,0.01563 0.542969,0.04687 0.153646,0.02864 0.286459,0.08073 0.398437,0.15625 0.135416,0.08854 0.23177,0.197916 0.289063,0.328125 0.05989,0.127604 0.08984,0.274739 0.08984,0.441406 0,0.21875 -0.02864,0.39974 -0.08594,0.542969 -0.05469,0.140625 -0.140625,0.265625 -0.257812,0.375 -0.127605,0.117185 -0.282553,0.197914 -0.464844,0.242187 -0.182292,0.04167 -0.395834,0.0625 -0.640625,0.0625 h -0.78125 z m 50.265625,0 h 0.910156 c 0.208333,0 0.389323,0.01563 0.542969,0.04687 0.153646,0.02864 0.286459,0.08073 0.398437,0.15625 0.135416,0.08854 0.23177,0.197916 0.289063,0.328125 0.05989,0.127604 0.08984,0.274739 0.08984,0.441406 0,0.21875 -0.02864,0.39974 -0.08594,0.542969 -0.05469,0.140625 -0.140625,0.265625 -0.257812,0.375 -0.127605,0.117185 -0.282553,0.197914 -0.464844,0.242187 -0.182292,0.04167 -0.395834,0.0625 -0.640625,0.0625 h -0.78125 z m -69.808594,0.01172 1.019531,2.855468 h -2.042968 z m 10.40625,0 1.019531,2.855468 h -2.042968 z m 15.859375,0 1.019531,2.855468 h -2.042968 z m 33.773438,4.027343 v 1.113282 h 0.933593 v -1.113282 z"
       id="path275" />
  </g>
</svg>
