<?xml version="1.0" encoding="UTF-8" standalone="no"?>
<svg
   xmlns:dc="http://purl.org/dc/elements/1.1/"
   xmlns:cc="http://creativecommons.org/ns#"
   xmlns:rdf="http://www.w3.org/1999/02/22-rdf-syntax-ns#"
   xmlns:svg="http://www.w3.org/2000/svg"
   xmlns="http://www.w3.org/2000/svg"
   version="1.1"
   width="204.19733"
   height="204.45427"
   viewBox="0 0 204.19733 204.45427"
   id="svg3051"
   xml:space="preserve"
   style="overflow:visible">

<metadata
   id="metadata3077">
  <rdf:RDF>
    <cc:Work
   rdf:about="">
      <dc:format>image/svg+xml</dc:format>


      <dc:type
   rdf:resource="http://purl.org/dc/dcmitype/StillImage" />


      <dc:title></dc:title>


    </cc:Work>


  </rdf:RDF>


</metadata>


<defs
   id="defs3075" />


<rect
   width="203.94226"
   height="204.31381"
   x="0.1404705"
   y="0"
   id="rect4417"
   style="fill:#ffffff;fill-opacity:1;stroke:#000000;stroke-width:3.86751;stroke-linecap:round;stroke-linejoin:miter;stroke-miterlimit:4;stroke-dasharray:none;stroke-opacity:1" />


<g
   aria-label="{"
   style="font-style:normal;font-variant:normal;font-weight:normal;font-stretch:normal;font-size:144px;line-height:125%;font-family:'Bitstream Vera Sans Mono';-inkscape-font-specification:'Bitstream Vera Sans Mono';letter-spacing:0px;word-spacing:0px;fill:#000000;fill-opacity:1;stroke:none"
   id="obj-start"
   transform="translate(-1.793283,-1.7524343)">
  <path
   d="m 66.617187,133.55656 v 10.125 h -4.5 q -17.507812,0 -23.484375,-5.20312 -5.90625,-5.20313 -5.90625,-20.74219 v -16.80469 q 0,-10.617183 -3.796875,-14.695308 -3.726562,-4.078125 -13.570312,-4.078125 H 11 V 72.103439 h 4.359375 q 9.914062,0 13.640625,-4.007812 3.726562,-4.007813 3.726562,-14.554688 v -16.875 q 0,-15.539062 5.90625,-20.671875 5.976563,-5.203125 23.484375,-5.203125 h 4.5 v 10.054688 h -4.921875 q -9.84375,0 -12.867187,3.09375 Q 45.875,26.962814 45.875,36.947189 v 17.4375 q 0,11.039063 -3.234375,16.03125 -3.164063,4.992188 -10.898438,6.75 7.804688,1.898438 10.96875,6.890625 Q 45.875,89.048752 45.875,100.0175 v 17.4375 q 0,10.05469 2.953125,13.07813 3.023437,3.02343 12.867187,3.02343 z"
   id="path26" />


</g>



<g
   aria-label="}"
   style="font-style:normal;font-variant:normal;font-weight:normal;font-stretch:normal;font-size:144px;line-height:125%;font-family:'Bitstream Vera Sans Mono';-inkscape-font-specification:'Bitstream Vera Sans Mono';text-align:start;letter-spacing:0px;word-spacing:0px;writing-mode:lr-tb;text-anchor:start;fill:#000000;fill-opacity:1;stroke:none"
   id="obj-end"
   transform="translate(-1.793283,-1.7524343)">
  <path
   d="m 141,133.55656 h 4.78125 q 9.91406,0 12.9375,-3.09375 3.02344,-3.09375 3.02344,-13.00781 v -17.4375 q 0,-10.968748 3.16406,-15.960936 3.16406,-4.992187 10.96875,-6.890625 -7.73438,-1.757812 -10.96875,-6.75 -3.16406,-4.992187 -3.16406,-16.03125 v -17.4375 q 0,-9.914062 -3.02344,-13.007812 -3.02344,-3.09375 -12.9375,-3.09375 H 141 V 10.790939 h 4.35937 q 17.50782,0 23.41407,5.203125 5.90625,5.132813 5.90625,20.671875 v 16.875 q 0,10.546875 3.72656,14.554688 3.79687,4.007812 13.71094,4.007812 h 4.5 v 10.054688 h -4.5 q -9.91407,0 -13.71094,4.078125 -3.72656,4.078125 -3.72656,14.695308 v 16.80469 q 0,15.53906 -5.90625,20.74219 -5.90625,5.20312 -23.41407,5.20312 H 141 Z"
   style="font-style:normal;font-variant:normal;font-weight:normal;font-stretch:normal;font-size:144px;line-height:125%;font-family:'Bitstream Vera Sans Mono';-inkscape-font-specification:'Bitstream Vera Sans Mono';text-align:start;writing-mode:lr-tb;text-anchor:start"
   id="path29" />


</g>



<g
   transform="translate(49.817073,24.542698)"
   id="g3212"
   style="overflow:visible">
  <g
   id="g3186">
    <path
   d="m 84.45,66.836 c -0.636,-0.337 -1.284,-0.624 -1.936,-0.879 l 0.466,-0.038 c 0,0 -4.151,-1.838 -4.514,-15.18 -0.359,-13.344 3.957,-15.62 3.957,-15.62 l -0.62,0.027 C 85.064,33.473 87.869,30.83 89.72,27.342 94.543,18.27 91.092,7.001 82.018,2.177 72.94,-2.641 61.674,0.802 56.854,9.883 54.872,13.608 54.309,17.7 54.935,21.566 L 54.723,21.24 c 0,0 1.093,4.842 -10.258,11.888 -11.349,7.05 -16.469,3.54 -16.469,3.54 l 0.326,0.48 C 27.997,36.947 27.686,36.742 27.347,36.565 18.269,31.741 7,35.188 2.178,44.266 c -4.82,9.077 -1.372,20.341 7.703,25.167 6.766,3.591 14.744,2.59 20.365,-1.914 l -0.122,0.236 c 0,0 4.132,-3.399 16.04,2.994 9.4,5.044 10.796,9.988 10.975,11.846 -0.246,6.893 3.347,13.654 9.847,17.107 9.075,4.825 20.344,1.375 25.164,-7.701 4.824,-9.075 1.378,-20.345 -7.7,-25.165 z m -20.984,2.446 c -1.504,0.532 -5.801,1.121 -14.847,-3.73 -9.797,-5.26 -11.251,-9.654 -11.464,-10.973 0.139,-1.6 0.05,-3.197 -0.223,-4.755 l 0.06,0.09 c 0,0 -0.798,-4.274 10.412,-11.235 10.033,-6.228 14.594,-4.989 15.443,-4.664 0.546,0.371 1.112,0.717 1.706,1.033 1.129,0.6 2.293,1.07 3.472,1.418 1.38,1.314 3.92,5.045 4.184,14.854 0.27,9.883 -2.634,13.694 -4.217,15.042 -1.63,0.738 -3.156,1.723 -4.526,2.92 z"
   id="path3188"
   style="fill:#0c479c" />


    <g
   id="g3190">
      <path
   d="m 62.239,8.1 c -5.415,5.923 -5.529,14.636 -0.312,19.566 -2.579,-2.483 -2.523,-7.651 0.083,-12.597 0.335,-0.443 1.306,-1.49 2.725,-1.014 0.143,0.049 0.237,0.062 0.292,0.053 0.321,0.069 0.65,0.11 0.99,0.095 2.155,-0.098 3.822,-1.921 3.725,-4.077 C 69.698,9.159 69.297,8.303 68.677,7.646 73.679,4.369 79.419,3.994 81.771,6.142 l 0.09,0.006 C 76.488,1.242 67.705,2.119 62.239,8.1 Z"
   id="path3192"
   style="fill:#ffffff" />


    </g>


    <g
   id="g3194">
      <path
   d="M 7.632,62.845 C 7.586,62.798 7.539,62.743 7.491,62.697 c 0.03,0.031 0.059,0.069 0.095,0.102 z"
   id="path3196"
   style="fill:#ffffff" />


      <path
   d="M 7.805,43.13 C 2.389,49.054 2.276,57.765 7.492,62.696 4.914,60.212 4.969,55.044 7.575,50.098 c 0.336,-0.444 1.308,-1.49 2.727,-1.014 0.141,0.049 0.236,0.061 0.292,0.054 0.321,0.069 0.651,0.11 0.99,0.095 2.156,-0.099 3.822,-1.922 3.725,-4.076 -0.045,-0.967 -0.445,-1.824 -1.063,-2.48 4.999,-3.276 10.74,-3.654 13.092,-1.505 l 0.089,0.008 C 22.054,36.271 13.269,37.147 7.805,43.13 Z"
   id="path3198"
   style="fill:#ffffff" />


    </g>


    <g
   id="g3200">
      <path
   d="m 65.256,92.504 c -0.047,-0.048 -0.094,-0.102 -0.141,-0.148 0.029,0.031 0.059,0.069 0.094,0.101 z"
   id="path3202"
   style="fill:#ffffff" />


      <path
   d="m 65.428,72.786 c -5.416,5.926 -5.529,14.639 -0.313,19.569 -2.58,-2.483 -2.523,-7.653 0.082,-12.597 0.336,-0.445 1.307,-1.49 2.727,-1.014 0.143,0.047 0.235,0.061 0.292,0.053 0.32,0.069 0.651,0.11 0.99,0.096 2.154,-0.1 3.82,-1.924 3.723,-4.08 -0.044,-0.966 -0.445,-1.822 -1.063,-2.479 5,-3.275 10.739,-3.652 13.093,-1.504 l 0.088,0.007 c -5.37,-4.907 -14.156,-4.03 -19.619,1.949 z"
   id="path3204"
   style="fill:#ffffff" />


    </g>


  </g>


</g>


<image
   id="image83" />


<rect
   width="204.19733"
   height="53.549866"
   x="0"
   y="150.9044"
   id="rect4927"
   style="fill:#000000;fill-opacity:1;stroke:#000000;stroke-width:3.58657;stroke-linecap:round;stroke-linejoin:miter;stroke-miterlimit:4;stroke-dasharray:none;stroke-opacity:1" />


<g
   aria-label="JSON-LD"
   style="font-style:normal;font-variant:normal;font-weight:bold;font-stretch:normal;font-size:40px;line-height:125%;font-family:Roboto, Arial, Helvetica, sans-serif;-inkscape-font-specification:'Roboto Bold';text-align:start;letter-spacing:0px;word-spacing:0px;writing-mode:lr-tb;text-anchor:start;fill:#ffffff;fill-opacity:1;stroke:none"
   id="text4413"
   transform="translate(-1.793283,-1.7524343)">
  <path
   d="m 55.601562,164.82227 c -2.018229,0 -3.841146,0.33853 -5.46875,1.01562 -1.614583,0.67708 -2.858072,1.62109 -3.730468,2.83203 -0.859375,1.19792 -1.289063,2.5651 -1.289063,4.10156 0,2.95574 1.614584,5.306 4.84375,7.05079 1.184896,0.63802 2.792969,1.28905 4.824219,1.95312 2.03125,0.65104 3.4375,1.27604 4.21875,1.875 0.78125,0.58593 1.171875,1.43229 1.171875,2.53906 0,1.01563 -0.390625,1.8099 -1.171875,2.38282 -0.78125,0.5599 -1.868489,0.83984 -3.261719,0.83984 -3.75,0 -5.625,-1.56901 -5.625,-4.70703 h -5.878906 c 0,1.83593 0.46875,3.45051 1.40625,4.84375 0.950521,1.39322 2.324219,2.49349 4.121094,3.30078 1.796875,0.79427 3.789062,1.19141 5.976562,1.19141 3.151042,0 5.657552,-0.69662 7.519531,-2.08985 1.86198,-1.40625 2.792969,-3.33985 2.792969,-5.80078 0,-2.21354 -0.761719,-4.06249 -2.285156,-5.54687 -1.523438,-1.48438 -3.951823,-2.72787 -7.285156,-3.73047 -1.809896,-0.54688 -3.183594,-1.13282 -4.121094,-1.75782 -0.924479,-0.625 -1.386719,-1.39973 -1.386719,-2.32421 0,-0.98958 0.397136,-1.78386 1.191406,-2.38282 0.794271,-0.61198 1.907552,-0.91797 3.339844,-0.91797 1.484375,0 2.636719,0.36459 3.457032,1.09375 0.820312,0.71615 1.230468,1.72526 1.230468,3.02735 h 5.859375 c 0,-1.70574 -0.442708,-3.22917 -1.328125,-4.57031 -0.872396,-1.34115 -2.102865,-2.37631 -3.691406,-3.10547 -1.588542,-0.74219 -3.398438,-1.11328 -5.429688,-1.11328 z m 25.683594,0 c -2.369792,0 -4.479167,0.57291 -6.328125,1.71875 -1.835937,1.13281 -3.261718,2.76692 -4.277343,4.90234 -1.002605,2.12239 -1.503907,4.58333 -1.503907,7.38281 v 1.40625 c 0.01302,2.73438 0.527344,5.15625 1.542969,7.26563 1.015625,2.09636 2.447916,3.71094 4.296875,4.84375 1.848958,1.13281 3.951823,1.69922 6.308594,1.69922 2.382812,0 4.492187,-0.57292 6.328125,-1.71875 1.848958,-1.14584 3.268229,-2.77344 4.257812,-4.88282 0.989584,-2.10937 1.484375,-4.5638 1.484375,-7.36328 v -1.26953 c 0,-2.78646 -0.507812,-5.24089 -1.523437,-7.36328 -1.002604,-2.13542 -2.428386,-3.76953 -4.277344,-4.90234 -1.835938,-1.14584 -3.938802,-1.71875 -6.308594,-1.71875 z m -46.738281,0.39062 v 19.6875 c 0,1.41927 -0.332031,2.51302 -0.996094,3.28125 -0.664062,0.76823 -1.55599,1.15234 -2.675781,1.15234 -1.263021,0 -2.1875,-0.33203 -2.773438,-0.99609 -0.585937,-0.66407 -0.878906,-1.69271 -0.878906,-3.08594 h -5.898437 c 0,2.79948 0.839843,4.96745 2.519531,6.50391 1.679687,1.52343 4.023437,2.28516 7.03125,2.28516 1.835937,0 3.483073,-0.37761 4.941406,-1.13282 1.458334,-0.7552 2.584636,-1.82292 3.378906,-3.20312 0.807292,-1.39324 1.210938,-2.9948 1.210938,-4.80469 v -19.6875 z m 63.144531,0 v 28.4375 h 5.859374 v -18.71094 l 11.40625,18.71094 h 5.85938 v -28.4375 h -5.83985 v 18.75 l -11.42578,-18.75 z m 43.828124,0 v 28.4375 h 18.30078 v -4.70703 h -12.4414 v -23.73047 z m 21.64063,0 v 28.4375 h 8.80859 c 2.48698,-0.013 4.72005,-0.58594 6.69922,-1.71875 1.97917,-1.13281 3.50912,-2.72786 4.58984,-4.78516 1.09376,-2.05729 1.64063,-4.40755 1.64063,-7.05078 v -1.30859 c 0,-2.64323 -0.55339,-5 -1.66016,-7.07031 -1.10677,-2.08334 -2.64974,-3.6849 -4.6289,-4.80469 -1.96615,-1.13281 -4.19922,-1.69922 -6.69922,-1.69922 z m -81.875004,4.45313 c 1.979167,0 3.502605,0.77473 4.570313,2.32421 1.067708,1.54948 1.601562,3.81511 1.601562,6.79688 v 1.38672 c -0.01302,2.95572 -0.546874,5.20833 -1.601562,6.75781 -1.054688,1.53646 -2.565104,2.30469 -4.53125,2.30469 -2.005208,0 -3.541667,-0.80078 -4.609375,-2.40235 -1.067708,-1.60156 -1.601563,-3.85416 -1.601563,-6.75781 v -1.38672 c 0.01302,-2.95572 0.553385,-5.19531 1.621094,-6.71875 1.067708,-1.53646 2.584635,-2.30468 4.550781,-2.30468 z m 87.734374,0.29296 h 2.89063 c 2.30469,0 4.05599,0.7487 5.2539,2.2461 1.19792,1.48437 1.79688,3.67187 1.79688,6.5625 v 1.5039 c -0.026,2.78646 -0.64454,4.92839 -1.85547,6.42579 -1.21094,1.4974 -2.96224,2.24609 -5.25391,2.24609 h -2.83203 z m -43.4375,9.23829 v 4.55078 h 10.99609 v -4.55078 z"
   style="font-style:normal;font-variant:normal;font-weight:bold;font-stretch:normal;font-size:40px;line-height:125%;font-family:Roboto, Arial, Helvetica, sans-serif;-inkscape-font-specification:'Roboto Bold';text-align:start;writing-mode:lr-tb;text-anchor:start"
   id="path44" />


</g>



</svg>
