<?xml version="1.0" encoding="UTF-8" standalone="no"?>
<svg
   xmlns:dc="http://purl.org/dc/elements/1.1/"
   xmlns:cc="http://creativecommons.org/ns#"
   xmlns:rdf="http://www.w3.org/1999/02/22-rdf-syntax-ns#"
   xmlns:svg="http://www.w3.org/2000/svg"
   xmlns="http://www.w3.org/2000/svg"
   xmlns:sodipodi="http://sodipodi.sourceforge.net/DTD/sodipodi-0.dtd"
   xmlns:inkscape="http://www.inkscape.org/namespaces/inkscape"
   inkscape:version="1.0beta1 (fe3e306, 2019-09-17)"
   sodipodi:docname="o-def.svg"
   id="svg16"
   version="1.1"
   fill="none"
   height="168.06836"
   width="240.09778">
  <metadata
     id="metadata22">
    <rdf:RDF>
      <cc:Work
         rdf:about="">
        <dc:format>image/svg+xml</dc:format>
        <dc:type
           rdf:resource="http://purl.org/dc/dcmitype/StillImage" />
        <dc:title></dc:title>
      </cc:Work>
    </rdf:RDF>
  </metadata>
  <defs
     id="defs20" />
  <sodipodi:namedview
     inkscape:current-layer="svg16"
     inkscape:window-maximized="0"
     inkscape:window-y="23"
     inkscape:window-x="57"
     inkscape:cy="-11.428572"
     inkscape:cx="381.95492"
     inkscape:zoom="0.98994949"
     showgrid="false"
     id="namedview18"
     inkscape:window-height="907"
     inkscape:window-width="1600"
     inkscape:pageshadow="2"
     inkscape:pageopacity="0"
     guidetolerance="10"
     gridtolerance="10"
     objecttolerance="10"
     borderopacity="1"
     inkscape:document-rotation="0"
     bordercolor="#666666"
     pagecolor="#ffffff" />
  <path
     inkscape:connector-curvature="0"
     id="path10"
     fill="#007F9E"
     d="m 97.767776,106.751 h -24.423 l 0.532,-2.028 c 6.371,-0.385 7.222,-0.579 8.921,-4.148 L 105.22178,48.609 c -5.096,2.41 -9.207004,6.128 -12.818004,10.177 l -1.326,-1.21 c 2.09,-2.514 6.75,-7.983 15.069004,-11.953 3.932,-1.875 8.55,-2.76 12.945,-2.636 10.403,0.3 15.738,6.586 15.738,15.456 0,17.547 -17.2,28.631 -26.969,28.631 -2.973,0 -7.968004,-1.057 -10.093004,-2.986 -0.851,2.598 -7.324,16.583 -7.324,18.031 0,2.407 4.886,2.598 8.07,2.598 z m 8.500004,-21.5 c 11.572,0 20.811,-20.152 20.811,-28.83 0,-7.713 -4.465,-11.546 -12.764,-10.289 L 98.723776,82.261 c 1.912004,1.636 4.886004,2.99 7.544004,2.99 z m 60.28,-11.28 c -3.821,5.683 -10.833,13.106 -18.794,13.106 -6.158,0 -9.663,-3.953 -9.663,-9.445 0,-11.279 16.139,-34.327 29.63,-34.327 3.821,0 7.432,1.83 7.432,5.69 0,9.352 -19.753,17.158 -26.653,20.434 -1.275,1.74 -2.655,8.101 -2.655,9.836 0,2.506 0.634,4.826 3.821,4.826 6.049,0 12.216,-7.038 15.508,-11.09 z m 3.187,-25.744 c 0,-1.64 -0.535,-3.088 -2.658,-3.088 -1.906,0 -4.245,1.544 -5.514,2.604 -4.997,3.858 -10.093,13.494 -12.216,19.183 6.368,-2.884 20.388,-11.66 20.388,-18.7 z m 5.539,37.797 c 2.018,-5.212 16.669,-33.554 16.669,-36.734 0,-0.582 -0.105,-1.643 -0.635,-1.643 -2.441,0 -7.862,7.908 -11.365,11.569 l -1.587,-0.77 c 3.292,-4.53 11.043,-15.138 17.727,-15.138 2.447,0 2.976,2.124 2.976,3.954 0,4.148 -4.675,12.728 -6.584,16.389 l 0.217,0.194 c 4.245,-6.074 15.393,-20.537 24.314,-20.537 3.292,0 5.204,1.255 5.204,4.34 0,6.169 -15.288,31.235 -15.288,33.648 0,0.478 0.21,0.965 0.848,0.965 2.017,0 9.026,-7.424 10.195,-9.066 l 1.489,1.063 c -2.764,4.148 -12.318,12.82 -17.947,12.82 -1.488,0 -2.763,-1.449 -2.763,-2.891 0,-4.626 15.61,-30.271 15.61,-34.61 0,-0.87 -0.318,-2.025 -1.593,-2.025 -9.66,0 -26.654,29.405 -30.16,38.468 h -7.327 z m -30.716,34.915 c 0,1.182 0.171,2.063 0.815,2.368 0.101,0.134 0.101,0.407 -0.036,0.507 -0.374,0 -0.985,0.101 -1.629,0.269 -2.105,0.475 -4.648,0.917 -6.586,0.917 -4.069,0 -7.905,-1.085 -10.45,-3.723 -2.004,-2.067 -2.989,-4.907 -2.989,-7.753 0,-2.84 0.985,-5.751 3.124,-7.952 2.408,-2.538 6.106,-3.992 10.828,-3.992 1.594,0 3.324,0.27 4.513,0.509 0.779,0.168 1.764,0.303 2.171,0.303 0.035,1.016 0.273,2.741 0.443,5.381 -0.17,0.338 -0.919,0.374 -1.088,0.069 -0.745,-3.282 -3.153,-4.907 -6.516,-4.907 -5.972,0 -8.855,4.297 -8.855,10.048 0,2.709 0.61,5.62 2.443,7.786 1.833,2.164 4.547,2.876 6.55,2.876 1.63,0 2.611,-0.273 3.019,-0.777 0.204,-0.305 0.305,-0.913 0.305,-2.133 v -1.217 c 0,-2.405 -0.032,-2.607 -2.309,-2.98 l -1.22,-0.204 c -0.236,-0.235 -0.236,-0.812 0.031,-0.982 1.324,0.069 2.957,0.101 5.296,0.101 a 80.98,80.98 0 0 0 4.142,-0.101 c 0.339,0.17 0.371,0.747 0.066,0.982 l -0.611,0.105 c -1.255,0.17 -1.459,0.474 -1.459,2.537 v 1.963 z m 7.269,-13.741 c 0,-3.249 -0.032,-3.656 -1.629,-3.824 l -0.88,-0.101 c -0.24,-0.237 -0.24,-0.778 0.032,-0.947 2.138,-0.205 5.025,-0.306 7.808,-0.306 2.644,0 4.953,0.338 6.447,1.152 1.73,0.913 2.985,2.504 2.985,4.939 0,3.116 -2.408,4.672 -4.069,5.348 -0.204,0.101 -0.139,0.37 0,0.573 2.713,4.569 4.408,7.448 6.007,8.765 0.949,0.812 1.934,1.016 2.339,1.051 0.17,0.135 0.17,0.508 0.069,0.678 -0.408,0.101 -1.054,0.2 -2.243,0.2 -3.255,0 -5.022,-1.32 -7.091,-4.465 -0.916,-1.424 -1.866,-3.282 -2.68,-4.601 -0.614,-1.019 -0.985,-1.154 -2.105,-1.154 -1.018,0 -1.054,0.036 -1.054,0.747 v 4.33 c 0,3.587 0.305,3.688 1.899,3.892 l 0.749,0.104 c 0.236,0.235 0.2,0.848 -0.069,0.979 a 103.708,103.708 0 0 0 -9.095,0 c -0.27,-0.131 -0.375,-0.744 -0.066,-0.979 l 0.745,-0.104 c 1.594,-0.204 1.899,-0.305 1.899,-3.892 v -12.385 z m 3.936,4.872 c 0,1.084 0,1.15 1.629,1.15 3.328,0 4.852,-1.625 4.852,-4.838 0,-2.672 -1.73,-5.008 -4.683,-5.008 -1.764,0 -1.8,0.101 -1.8,1.66 v 7.036 z m 39.056,1.284 c 0,6.668 -5.092,11.644 -11.947,11.644 -7.67,0 -12.08,-5.381 -12.08,-11.405 0,-6.903 5.022,-12.013 12.149,-12.013 7.841,0 11.878,5.618 11.878,11.774 z m -19.413,-0.741 c 0,4.673 2.004,11.032 7.805,11.032 3.872,0 6.99,-2.876 6.99,-9.678 0,-5.111 -2.305,-11.032 -7.702,-11.032 -3.391,0 -7.093,2.47 -7.093,9.678 z m 24.165,-5.618 c 0,-3.587 -0.305,-3.69 -1.899,-3.925 l -0.578,-0.105 c -0.236,-0.237 -0.204,-0.812 0.069,-0.947 a 98.39,98.39 0 0 0 8.925,0 c 0.273,0.135 0.305,0.71 0.065,0.947 l -0.745,0.105 c -1.594,0.235 -1.899,0.338 -1.899,3.925 v 7.749 c 0,4.669 1.425,8.594 6.142,8.594 4.447,0 6.28,-3.349 6.28,-8.492 v -4.231 c 0,-2.537 -0.035,-5.682 -0.647,-6.666 -0.306,-0.51 -0.847,-0.745 -1.695,-0.879 l -0.68,-0.105 c -0.305,-0.237 -0.269,-0.846 0.066,-0.947 1.153,0.07 2.444,0.101 3.771,0.101 a 57.59,57.59 0 0 0 3.594,-0.101 c 0.273,0.17 0.339,0.71 0.069,0.947 l -0.745,0.17 c -0.648,0.136 -1.259,0.271 -1.495,0.812 -0.475,1.016 -0.475,3.994 -0.475,6.666 v 4.026 c 0,3.083 -0.476,5.925 -2.243,7.818 -1.764,1.897 -4.309,2.541 -6.652,2.541 -3.189,0 -5.428,-0.678 -6.99,-2.167 -1.524,-1.455 -2.24,-3.823 -2.24,-7.242 v -8.594 z m 25.659,0.203 c 0,-3.079 -0.035,-3.587 -1.458,-3.79 l -1.186,-0.137 c -0.239,-0.237 -0.239,-0.81 0.032,-0.946 2.378,-0.271 4.412,-0.307 7.502,-0.307 3.222,0 5.566,0.475 7.094,1.354 1.764,1.05 2.884,2.842 2.884,5.075 0,5.145 -4.921,6.566 -7.604,6.566 -0.302,0 -0.575,0 -0.847,-0.036 -0.239,-0.2 -0.269,-0.642 -0.104,-0.844 3.088,-0.612 4.207,-2.844 4.207,-5.618 0,-2.743 -1.764,-5.145 -4.848,-5.145 -1.698,0 -1.734,0.101 -1.734,1.423 v 14.787 c 0,3.587 0.306,3.688 1.899,3.857 l 1.258,0.139 c 0.201,0.235 0.167,0.847 -0.069,0.978 a 152.843,152.843 0 0 0 -5.022,-0.101 c -1.494,0 -3.022,0.036 -4.378,0.101 -0.27,-0.131 -0.305,-0.743 -0.069,-0.978 l 0.545,-0.07 c 1.593,-0.238 1.898,-0.338 1.898,-3.926 z M 102.83178,3.859 c 0,-1.422 -0.036,-1.49 -0.918,-1.49 h -1.9 c -3.123004,0 -4.040004,0.374 -5.294004,3.115 -0.238,0.202 -0.951,0.1 -1.086,-0.237 a 55.726,55.726 0 0 0 1.326,-5.109 c 0.067,-0.103 0.202,-0.136 0.372,-0.136 0.137,0 0.272,0.035 0.34,0.136 0.168,0.846 0.642,0.878 2.95,0.878 h 13.846004 c 1.665,0 2.174,-0.101 2.58,-0.88 0.135,-0.067 0.272,-0.136 0.407,-0.136 0.204,0 0.374,0.069 0.442,0.17 -0.339,1.387 -0.613,4.296 -0.511,5.381 -0.167,0.27 -0.744,0.338 -1.049,0.101 -0.444,-2.638 -1.086,-3.283 -4.717,-3.283 h -1.936 c -0.882,0 -0.916,0.068 -0.916,1.49 v 14.619 c 0,3.587 0.305,3.688 1.901,3.858 l 1.221,0.138 c 0.237,0.235 0.205,0.847 -0.068,0.978 a 147.88,147.88 0 0 0 -4.988,-0.1 c -1.496,0 -3.09,0.035 -5.260004,0.1 -0.272,-0.13 -0.307,-0.812 -0.069,-0.978 L 100.93078,22.3 c 1.594,-0.134 1.901,-0.235 1.901,-3.822 V 3.859 Z m 23.244,8.664 c -1.732,0 -1.833,0.066 -1.833,0.982 v 4.975 c 0,3.587 0.305,3.688 1.9,3.857 l 1.017,0.138 c 0.238,0.236 0.203,0.848 -0.067,0.979 a 127.42,127.42 0 0 0 -4.785,-0.1 c -1.494,0 -3.022,0.035 -4.312,0.1 -0.27,-0.131 -0.305,-0.743 -0.067,-0.979 l 0.475,-0.069 c 1.594,-0.238 1.901,-0.338 1.901,-3.926 V 5.89 c 0,-3.586 -0.307,-3.689 -1.901,-3.892 l -0.745,-0.101 c -0.24,-0.17 -0.206,-0.848 0.067,-0.982 1.493,0.069 3.088,0.1 4.582,0.1 1.493,0 3.021,-0.031 4.345,-0.1 0.269,0.134 0.305,0.81 0.067,0.982 l -0.577,0.1 c -1.595,0.204 -1.9,0.307 -1.9,3.894 v 4.097 c 0,0.946 0.101,1.012 1.833,1.012 h 7.941 c 1.731,0 1.832,-0.066 1.832,-1.012 V 5.89 c 0,-3.587 -0.306,-3.69 -1.901,-3.893 l -0.745,-0.101 c -0.238,-0.17 -0.204,-0.848 0.067,-0.982 1.562,0.069 3.09,0.1 4.582,0.1 1.493,0 3.021,-0.031 4.376,-0.1 0.272,0.134 0.306,0.81 0.07,0.982 l -0.611,0.1 c -1.593,0.204 -1.9,0.307 -1.9,3.894 v 12.59 c 0,3.587 0.307,3.688 1.9,3.891 l 0.747,0.104 c 0.238,0.236 0.204,0.848 -0.067,0.979 a 103.91,103.91 0 0 0 -9.097,0 c -0.27,-0.131 -0.303,-0.743 -0.067,-0.979 l 0.745,-0.104 c 1.595,-0.203 1.901,-0.304 1.901,-3.891 v -4.975 c 0,-0.916 -0.101,-0.982 -1.832,-0.982 z m 22.41,-6.634 c 0,-3.587 -0.305,-3.69 -1.903,-3.925 l -0.541,-0.069 c -0.238,-0.237 -0.204,-0.847 0.068,-0.982 1.29,0.07 2.883,0.101 4.378,0.101 h 6.482 c 2.171,0 4.139,-0.032 4.579,-0.1 0.136,0.574 0.339,3.248 0.545,4.703 -0.137,0.27 -0.813,0.338 -1.087,0.136 -0.541,-1.963 -1.052,-2.81 -2.138,-3.08 -0.779,-0.238 -1.798,-0.305 -2.715,-0.305 h -2.273 c -1.459,0 -1.459,0.067 -1.459,1.998 v 5.719 c 0,0.877 0.035,0.913 0.814,0.913 h 1.628 c 2.953,0 3.529,-0.035 3.769,-1.49 l 0.236,-1.149 c 0.272,-0.237 0.916,-0.237 1.086,0.034 -0.034,0.913 -0.101,2.132 -0.101,3.383 0,1.287 0.067,2.47 0.101,3.557 -0.17,0.236 -0.814,0.236 -1.086,0.032 l -0.236,-1.352 c -0.238,-1.424 -0.815,-1.49 -3.769,-1.49 h -1.629 c -0.779,0 -0.815,0.066 -0.815,0.913 v 4.297 c 0,1.729 0.069,2.944 0.577,3.521 0.406,0.475 0.985,0.744 3.835,0.744 4.31,0.069 5.056,-0.914 6.245,-3.653 0.305,-0.239 0.883,-0.134 1.086,0.204 -0.203,1.42 -0.951,3.992 -1.425,4.903 -1.493,-0.065 -4.41,-0.1 -8.382,-0.1 h -3.868 c -1.495,0 -3.564,0.035 -5.092,0.1 -0.27,-0.13 -0.305,-0.743 -0.067,-0.978 l 1.254,-0.138 c 1.598,-0.17 1.903,-0.27 1.903,-3.858 z"
     clip-rule="evenodd"
     fill-rule="evenodd" />
  <path
     inkscape:connector-curvature="0"
     id="path12"
     fill="#009181"
     d="m 68.018776,22.568 c -8.098,-3.44 -15.176,-1.78 -19.32,3.811 0,0 -0.063,0.076 -0.012,0.115 0.047,0.028 0.102,-0.032 0.102,-0.032 1.75,-1.77 7.084,-6.141 14.976,-3.426 8.86,3.053 10.045,13.549 9.682,19.082 -1.409,21.173 -18.272,62.981 -43.31,64.579 a 26.265,26.265 0 0 1 -13.33,-2.443 26.229,26.229 0 0 1 -10.3299996,-8.763 c 0,0 -0.041,-0.08 -0.09,-0.057 -0.05,0.025 -0.018,0.099 -0.018,0.099 3.6609996,9.009 13.6849996,14.761 24.9129996,14.997 30.87,0.665 54.276,-32.84 52.663,-60.552 -0.975,-16.723 -9.516,-24.688 -15.925,-27.41 z"
     clip-rule="evenodd"
     fill-rule="evenodd" />
  <path
     inkscape:connector-curvature="0"
     id="path14"
     fill="#009181"
     d="m 14.657776,98.49 c 10.43,4.196 17.13,-1.082 18.5,-2.314 0,0 0.048,-0.032 0.016,-0.074 -0.035,-0.044 -0.09,0 -0.09,0 -11.747,5.727 -22.347,-0.757 -22.972,-15.178 -0.8729996,-20.177 19.295,-67.438 44.441,-67.73 9.549,-0.112 15.945,3.23 20.955,8.597 0,0 0.067,0.083 0.118,0.042 0.051,-0.045 -0.003,-0.121 -0.003,-0.121 -2.7,-4.96 -11.082,-12.014 -23.193,-12.014 C 22.535776,9.7 -0.98522358,39.66 0.03177642,70.495 0.60777642,87.832 7.7417764,95.717 14.656776,98.49 Z"
     clip-rule="evenodd"
     fill-rule="evenodd" />
  <g
     transform="translate(-0.90222358)"
     style="font-style:normal;font-weight:normal;font-size:40px;line-height:1.25;font-family:sans-serif;fill:#000000;fill-opacity:1;stroke:none"
     id="text26"
     aria-label="O-DEF">
    <path
       d="m 73.320312,137.77539 c -2.005208,0 -3.860677,0.33855 -5.566406,1.01563 -1.692708,0.67708 -3.111979,1.65364 -4.257812,2.92968 -1.197917,1.34115 -2.109375,2.95573 -2.734375,4.84375 -0.625,1.875 -0.9375,3.9974 -0.9375,6.36719 0,2.40885 0.3125,4.55078 0.9375,6.42578 0.63802,1.875 1.542968,3.45704 2.714843,4.7461 1.171875,1.28906 2.591146,2.27213 4.257813,2.94921 1.679688,0.67708 3.541667,1.01563 5.585937,1.01563 2.096355,0 3.958334,-0.33203 5.585938,-0.99609 1.640625,-0.66406 3.059896,-1.65365 4.257812,-2.96875 1.158855,-1.26302 2.057292,-2.83855 2.695313,-4.72657 0.651042,-1.90104 0.976563,-4.04948 0.976563,-6.44531 -10e-7,-2.39583 -0.319011,-4.53775 -0.957032,-6.42578 -0.625,-1.88802 -1.529948,-3.48308 -2.714844,-4.78516 -1.158854,-1.26302 -2.571614,-2.23307 -4.238281,-2.91015 -1.653646,-0.6901 -3.522135,-1.03516 -5.605469,-1.03516 z m 37.851568,0.60547 v 29.08203 h 7.34374 c 2.66928,0 4.81771,-0.18229 6.44532,-0.54687 1.64062,-0.36458 3.125,-0.95703 4.45312,-1.77735 1.91406,-1.1849 3.44401,-2.85156 4.58985,-5 1.15886,-2.14844 1.73828,-4.54427 1.73828,-7.1875 0,-2.82552 -0.55339,-5.26692 -1.66016,-7.32422 -1.10677,-2.05729 -2.64974,-3.70442 -4.62891,-4.9414 -1.15885,-0.71615 -2.57812,-1.27604 -4.25781,-1.67969 -1.66666,-0.41667 -3.91927,-0.625 -6.75781,-0.625 z m 30.85937,0 v 29.08203 h 19.16016 v -3.4375 h -15.29297 v -10.80078 h 15.29297 v -3.4375 h -15.29297 v -7.96875 h 15.29297 v -3.4375 z m 25.3125,0 v 29.08203 h 3.86719 v -14.00391 h 12.63672 v -3.4375 h -12.63672 v -8.20312 h 14.70703 v -3.4375 z m -94.003906,2.73437 c 2.929687,0 5.240885,1.02865 6.933594,3.08594 1.692708,2.04427 2.539062,4.95442 2.539062,8.73047 0,3.8151 -0.859375,6.73828 -2.578125,8.76953 -1.705729,2.01823 -4.003906,3.02735 -6.894531,3.02735 -2.890625,0 -5.195313,-1.00912 -6.914063,-3.02735 -1.71875,-2.03125 -2.578125,-4.95443 -2.578125,-8.76953 0,-3.77605 0.839844,-6.6862 2.519532,-8.73047 1.692707,-2.05729 4.016926,-3.08594 6.972656,-3.08594 z m 41.699216,0.58594 h 3.63282 c 1.79688,0 3.33984,0.13021 4.6289,0.39063 1.28906,0.2474 2.50651,0.69661 3.65234,1.34765 1.57553,0.89844 2.76042,2.12891 3.55469,3.69141 0.79428,1.5625 1.19141,3.48307 1.19141,5.76172 0,2.26562 -0.36458,4.15364 -1.09375,5.66406 -0.71615,1.51041 -1.79688,2.72786 -3.24219,3.65234 -1.15885,0.74219 -2.43489,1.25 -3.82812,1.52344 -1.38021,0.27344 -3.0013,0.41016 -4.86328,0.41016 h -3.63282 z M 92.050781,152.9707 v 3.53516 h 12.187499 v -3.53516 z"
       inkscape:original="M 73.320312 137.77539 C 71.315104 137.77539 69.459635 138.11394 67.753906 138.79102 C 66.061198 139.4681 64.641927 140.44466 63.496094 141.7207 C 62.298177 143.06185 61.386719 144.67643 60.761719 146.56445 C 60.136719 148.43945 59.824219 150.56185 59.824219 152.93164 C 59.824219 155.34049 60.136719 157.48242 60.761719 159.35742 C 61.399739 161.23242 62.304687 162.81446 63.476562 164.10352 C 64.648437 165.39258 66.067708 166.37565 67.734375 167.05273 C 69.414063 167.72981 71.276042 168.06836 73.320312 168.06836 C 75.416667 168.06836 77.278646 167.73633 78.90625 167.07227 C 80.546875 166.40821 81.966146 165.41862 83.164062 164.10352 C 84.322917 162.8405 85.221354 161.26497 85.859375 159.37695 C 86.510417 157.47591 86.835938 155.32747 86.835938 152.93164 C 86.835937 150.53581 86.516927 148.39389 85.878906 146.50586 C 85.253906 144.61784 84.348958 143.02278 83.164062 141.7207 C 82.005208 140.45768 80.592448 139.48763 78.925781 138.81055 C 77.272135 138.12045 75.403646 137.77539 73.320312 137.77539 z M 111.17188 138.38086 L 111.17188 167.46289 L 118.51562 167.46289 C 121.1849 167.46289 123.33333 167.2806 124.96094 166.91602 C 126.60156 166.55144 128.08594 165.95899 129.41406 165.13867 C 131.32812 163.95377 132.85807 162.28711 134.00391 160.13867 C 135.16277 157.99023 135.74219 155.5944 135.74219 152.95117 C 135.74219 150.12565 135.1888 147.68425 134.08203 145.62695 C 132.97526 143.56966 131.43229 141.92253 129.45312 140.68555 C 128.29427 139.9694 126.875 139.40951 125.19531 139.00586 C 123.52865 138.58919 121.27604 138.38086 118.4375 138.38086 L 111.17188 138.38086 z M 142.03125 138.38086 L 142.03125 167.46289 L 161.19141 167.46289 L 161.19141 164.02539 L 145.89844 164.02539 L 145.89844 153.22461 L 161.19141 153.22461 L 161.19141 149.78711 L 145.89844 149.78711 L 145.89844 141.81836 L 161.19141 141.81836 L 161.19141 138.38086 L 142.03125 138.38086 z M 167.34375 138.38086 L 167.34375 167.46289 L 171.21094 167.46289 L 171.21094 153.45898 L 183.84766 153.45898 L 183.84766 150.02148 L 171.21094 150.02148 L 171.21094 141.81836 L 185.91797 141.81836 L 185.91797 138.38086 L 167.34375 138.38086 z M 73.339844 141.11523 C 76.269531 141.11523 78.580729 142.14388 80.273438 144.20117 C 81.966146 146.24544 82.8125 149.15559 82.8125 152.93164 C 82.8125 156.74674 81.953125 159.66992 80.234375 161.70117 C 78.528646 163.7194 76.230469 164.72852 73.339844 164.72852 C 70.449219 164.72852 68.144531 163.7194 66.425781 161.70117 C 64.707031 159.66992 63.847656 156.74674 63.847656 152.93164 C 63.847656 149.15559 64.6875 146.24544 66.367188 144.20117 C 68.059895 142.14388 70.384114 141.11523 73.339844 141.11523 z M 115.03906 141.70117 L 118.67188 141.70117 C 120.46876 141.70117 122.01172 141.83138 123.30078 142.0918 C 124.58984 142.3392 125.80729 142.78841 126.95312 143.43945 C 128.52865 144.33789 129.71354 145.56836 130.50781 147.13086 C 131.30209 148.69336 131.69922 150.61393 131.69922 152.89258 C 131.69922 155.1582 131.33464 157.04622 130.60547 158.55664 C 129.88932 160.06705 128.80859 161.2845 127.36328 162.20898 C 126.20443 162.95117 124.92839 163.45898 123.53516 163.73242 C 122.15495 164.00586 120.53386 164.14258 118.67188 164.14258 L 115.03906 164.14258 L 115.03906 141.70117 z M 92.050781 152.9707 L 92.050781 156.50586 L 104.23828 156.50586 L 104.23828 152.9707 L 92.050781 152.9707 z "
       inkscape:radius="0"
       sodipodi:type="inkscape:offset"
       id="path36" />
  </g>
</svg>
