<?xml version="1.0" encoding="UTF-8" standalone="no"?>
<svg
   xmlns:dc="http://purl.org/dc/elements/1.1/"
   xmlns:cc="http://creativecommons.org/ns#"
   xmlns:rdf="http://www.w3.org/1999/02/22-rdf-syntax-ns#"
   xmlns:svg="http://www.w3.org/2000/svg"
   xmlns="http://www.w3.org/2000/svg"
   xmlns:sodipodi="http://sodipodi.sourceforge.net/DTD/sodipodi-0.dtd"
   xmlns:inkscape="http://www.inkscape.org/namespaces/inkscape"
   inkscape:version="1.0beta1 (fe3e306, 2019-09-17)"
   height="59.46875"
   width="78.314453"
   sodipodi:docname="schemaorg.svg"
   id="svg32"
   viewBox="0 0 78.314453 59.46875"
   overflow="visible"
   version="1.1"
   xml:space="preserve"><metadata
   id="metadata38">
  <rdf:RDF>
    <cc:Work
       rdf:about="">
      <dc:format>image/svg+xml</dc:format>
      <dc:type
         rdf:resource="http://purl.org/dc/dcmitype/StillImage" />
      <dc:title></dc:title>
    </cc:Work>
  </rdf:RDF>
</metadata>
<defs
   id="defs36" />
<sodipodi:namedview
   inkscape:current-layer="svg32"
   inkscape:window-maximized="0"
   inkscape:window-y="23"
   inkscape:window-x="57"
   inkscape:cy="-20.408781"
   inkscape:cx="125.61911"
   inkscape:zoom="2.8"
   showgrid="false"
   id="namedview34"
   inkscape:window-height="907"
   inkscape:window-width="1600"
   inkscape:pageshadow="2"
   inkscape:pageopacity="0"
   guidetolerance="10"
   gridtolerance="10"
   objecttolerance="10"
   borderopacity="1"
   inkscape:document-rotation="0"
   bordercolor="#666666"
   pagecolor="#ffffff" />

  <g
   transform="translate(3.8417969)"
   id="g30"
   image-rendering="optimizeQuality"
   text-rendering="geometricPrecision"
   shape-rendering="geometricPrecision">
    <g
   id="g28"
   image-rendering="optimizeQuality"
   text-rendering="geometricPrecision"
   shape-rendering="geometricPrecision">
      <g
   id="Background">
      </g>

      <g
   id="Guides">
      </g>

      <g
   id="Foreground">
        <rect
   y="0"
   x="0"
   id="rect12"
   height="48"
   clip-rule="evenodd"
   fill="#FFFFFF"
   width="72"
   fill-rule="evenodd" />

        <g
   id="g16">
          <path
   inkscape:connector-curvature="0"
   id="path14"
   fill="#005A9C"
   d="m 18.117,8.006 5.759,19.58 5.759,-19.58 h 4.17 11.444 V 9.952 L 39.37,20.08 c 2.065,0.663 3.627,1.868 4.686,3.615 1.059,1.748 1.589,3.799 1.589,6.155 0,2.914 -0.775,5.363 -2.324,7.348 -1.549,1.985 -3.555,2.978 -6.017,2.978 -1.854,0 -3.469,-0.589 -4.845,-1.767 -1.377,-1.178 -2.396,-2.773 -3.058,-4.786 l 3.256,-1.35 c 0.477,1.218 1.106,2.178 1.887,2.879 0.781,0.702 1.701,1.052 2.76,1.052 1.112,0 2.052,-0.622 2.82,-1.866 0.768,-1.245 1.152,-2.74 1.152,-4.489 0,-1.933 -0.411,-3.429 -1.231,-4.488 -0.954,-1.244 -2.45,-1.867 -4.489,-1.867 h -1.588 v -1.906 l 5.56,-9.612 h -6.712 l -0.382,0.65 -8.163,27.548 H 23.874 L 17.916,20.237 11.959,40.174 H 11.562 L 2.032,8.006 h 4.17 l 5.759,19.58 3.892,-13.185 -1.906,-6.395 z" />

        </g>

        <path
   inkscape:connector-curvature="0"
   id="path18"
   fill-rule="evenodd"
   d="m 66.92,8.006 c -0.819,0 -1.554,0.295 -2.111,0.861 -0.591,0.6 -0.92,1.376 -0.92,2.178 0,0.802 0.313,1.545 0.887,2.128 0.583,0.591 1.334,0.912 2.145,0.912 0.793,0 1.562,-0.321 2.161,-0.903 0.574,-0.557 0.887,-1.3 0.887,-2.136 0,-0.811 -0.321,-1.57 -0.878,-2.136 C 68.507,8.318 67.747,8.006 66.92,8.006 Z m 2.643,3.065 c 0,0.701 -0.271,1.351 -0.768,1.832 -0.524,0.507 -1.174,0.777 -1.892,0.777 -0.675,0 -1.342,-0.278 -1.84,-0.785 -0.498,-0.507 -0.777,-1.157 -0.777,-1.849 0,-0.692 0.287,-1.368 0.802,-1.891 0.481,-0.49 1.131,-0.751 1.84,-0.751 0.726,0 1.376,0.271 1.883,0.785 0.49,0.489 0.752,1.147 0.752,1.882 z M 67.004,9.264 h -1.3 v 3.445 h 0.65 V 11.24 h 0.642 l 0.701,1.469 h 0.726 l -0.769,-1.57 c 0.498,-0.102 0.785,-0.439 0.785,-0.929 0,-0.625 -0.472,-0.946 -1.435,-0.946 z m -0.118,0.422 c 0.608,0 0.886,0.169 0.886,0.591 0,0.405 -0.278,0.549 -0.87,0.549 h -0.549 v -1.14 z"
   clip-rule="evenodd" />

      </g>

      <g
   id="Calque_1">
        <g
   id="g25">
          <path
   inkscape:connector-curvature="0"
   id="path21"
   d="m 61.807,7.825 0.676,4.107 -2.391,4.575 c 0,0 -0.918,-1.941 -2.443,-3.015 -1.285,-0.905 -2.122,-1.102 -3.431,-0.832 -1.681,0.347 -3.587,2.357 -4.419,4.835 -0.995,2.965 -1.005,4.4 -1.04,5.718 -0.056,2.113 0.277,3.362 0.277,3.362 0,0 -1.452,-2.686 -1.438,-6.62 0.009,-2.808 0.451,-5.354 1.75,-7.867 1.143,-2.209 2.842,-3.535 4.35,-3.691 1.559,-0.161 2.791,0.59 3.743,1.403 1,0.854 2.01,2.721 2.01,2.721 z" />

          <path
   inkscape:connector-curvature="0"
   id="path23"
   d="m 62.102,31.063 c 0,0 -1.057,1.889 -1.715,2.617 -0.659,0.728 -1.837,2.01 -3.292,2.651 -1.455,0.641 -2.218,0.762 -3.656,0.624 -1.437,-0.138 -2.772,-0.97 -3.24,-1.317 -0.468,-0.347 -1.664,-1.369 -2.34,-2.322 -0.676,-0.953 -1.733,-2.859 -1.733,-2.859 0,0 0.589,1.91 0.958,2.721 0.212,0.467 0.864,1.894 1.789,3.136 0.863,1.159 2.539,3.154 5.086,3.604 2.547,0.451 4.297,-0.693 4.73,-0.97 0.433,-0.277 1.346,-1.042 1.924,-1.66 0.603,-0.645 1.174,-1.468 1.49,-1.962 0.231,-0.36 0.607,-1.092 0.607,-1.092 z" />

        </g>

      </g>

    </g>

  </g>

<g
   transform="translate(3.8417969)"
   style="font-style:normal;font-weight:normal;font-size:40px;line-height:1.25;font-family:sans-serif;fill:#000000;fill-opacity:1;stroke:none"
   id="text42"
   aria-label="Schema.org">
  <path
     d="m 12.558594,46.583984 v 10.13086 h 1.222656 v -5.429688 c 0.334201,-0.256076 0.684245,-0.467882 1.048828,-0.632812 0.364582,-0.16493 0.714628,-0.246094 1.048828,-0.246094 0.32552,0 0.588976,0.04557 0.792969,0.136719 0.203993,0.0868 0.360243,0.220052 0.46875,0.402343 0.104169,0.164931 0.175784,0.396268 0.214844,0.691407 0.03906,0.290797 0.05859,0.603299 0.05859,0.9375 v 4.140625 h 1.22461 v -4.720703 c 0,-0.889755 -0.206815,-1.571833 -0.619141,-2.044922 -0.412325,-0.47309 -1.011287,-0.708985 -1.796875,-0.708985 -0.429686,0 -0.847874,0.08963 -1.255859,0.267578 C 14.558812,49.685763 14.163194,49.933161 13.78125,50.25 V 46.583984 Z M -0.14453125,46.84375 c -1.05468485,0 -1.92361285,0.260418 -2.60937495,0.78125 -0.6857622,0.516492 -1.0292969,1.180558 -1.0292969,1.992188 0,0.707463 0.2068153,1.283855 0.6191406,1.726562 0.4166656,0.438367 1.0546896,0.747396 1.9140625,0.929688 0.42534612,0.0868 0.82552179,0.158417 1.203125,0.214843 0.38194348,0.05642 0.73698001,0.128039 1.0625,0.214844 0.4296865,0.112847 0.7486982,0.27257 0.9570312,0.476563 0.2126731,0.203992 0.3183594,0.519532 0.3183594,0.949218 0,0.499131 -0.2228744,0.89974 -0.6699218,1.199219 -0.4427073,0.299478 -1.06467221,0.449219 -1.8632813,0.449219 -0.56423467,0 -1.1662342,-0.110678 -1.8085937,-0.332032 C -2.6931407,55.223958 -3.2595499,54.907985 -3.75,54.5 h -0.091797 v 1.615234 c 0.5772555,0.256076 1.1436646,0.449871 1.6992188,0.580078 0.5598944,0.130209 1.18988892,0.195313 1.88867185,0.195313 0.65104002,0 1.20594731,-0.07813 1.66601565,-0.234375 0.4644085,-0.156249 0.8695755,-0.374566 1.2167968,-0.652344 0.3168395,-0.256075 0.5627175,-0.568577 0.7363282,-0.9375 0.1779509,-0.368922 0.2675781,-0.741537 0.2675781,-1.11914 0,-0.694443 -0.1822926,-1.23481 -0.546875,-1.621094 C 2.7213551,51.939888 2.1775155,51.651909 1.4570312,51.460938 1.1011293,51.369792 0.66840148,51.280165 0.15625,51.193359 c -0.51215149,-0.0868 -0.90776982,-0.159936 -1.1855469,-0.220703 -0.5251723,-0.121527 -0.8912766,-0.297309 -1.0996093,-0.527344 -0.2083329,-0.230034 -0.3125,-0.547527 -0.3125,-0.951171 0,-0.451388 0.2083344,-0.820965 0.625,-1.107422 0.4210059,-0.286458 0.97591317,-0.429688 1.66601558,-0.429688 0.62933868,0 1.24284002,0.104168 1.84179682,0.3125 0.6032971,0.203993 1.0900618,0.462892 1.4589844,0.775391 h 0.091797 V 47.521484 C 2.8038206,47.330512 2.2990437,47.169271 1.7304688,47.039062 1.1618938,46.908855 0.53689064,46.84375 -0.14453125,46.84375 Z M 24.015625,49.240234 c -1.059025,0 -1.913413,0.350045 -2.564453,1.048828 -0.646699,0.698783 -0.970703,1.642798 -0.970703,2.832032 0,1.202254 0.338543,2.129776 1.015625,2.785156 0.677081,0.65104 1.619577,0.976563 2.826172,0.976562 0.473088,0 0.923829,-0.05859 1.353515,-0.175781 0.429687,-0.117186 0.851347,-0.261936 1.263672,-0.435547 V 54.9375 H 26.875 c -0.212673,0.190971 -0.570748,0.386285 -1.074219,0.585938 -0.49913,0.195312 -0.997397,0.292968 -1.492187,0.292968 -0.373263,0 -0.714845,-0.05208 -1.027344,-0.15625 -0.308159,-0.104166 -0.575087,-0.260417 -0.800781,-0.46875 -0.234374,-0.212672 -0.420139,-0.484592 -0.554688,-0.814453 -0.134548,-0.334201 -0.201172,-0.724828 -0.201172,-1.171875 h 5.357422 v -0.664062 c 0,-1.054685 -0.266928,-1.868491 -0.800781,-2.441407 -0.529513,-0.572915 -1.284725,-0.859375 -2.265625,-0.859375 z m 8.503906,0 c -0.429686,0 -0.836806,0.08963 -1.21875,0.267578 -0.377602,0.177951 -0.756728,0.425349 -1.138672,0.742188 V 49.441406 H 28.9375 v 7.273438 h 1.224609 v -5.429688 c 0.334201,-0.256076 0.667753,-0.467882 1.001953,-0.632812 0.338541,-0.16493 0.675565,-0.246094 1.009766,-0.246094 0.351562,0 0.620009,0.04709 0.806641,0.142578 0.186631,0.09114 0.329861,0.229384 0.429687,0.416016 0.09115,0.17361 0.149742,0.406467 0.175782,0.697265 0.03038,0.286458 0.04687,0.59093 0.04687,0.91211 v 4.140625 h 1.222657 v -4.65625 c 0,-0.130208 -0.003,-0.260417 -0.01172,-0.390625 -0.0087,-0.134549 -0.02018,-0.251737 -0.0332,-0.351563 0.342881,-0.264756 0.686416,-0.48112 1.029297,-0.65039 0.342881,-0.173611 0.684462,-0.259766 1.027344,-0.259766 0.351561,0 0.621962,0.04709 0.808593,0.142578 0.186632,0.09549 0.329861,0.237197 0.429688,0.423828 0.09115,0.173611 0.149741,0.404515 0.175781,0.695313 0.03038,0.290797 0.04492,0.59375 0.04492,0.90625 v 4.140625 h 1.224609 v -4.720703 c 0,-0.868054 -0.192275,-1.543621 -0.574219,-2.025391 -0.377602,-0.48611 -0.965062,-0.728516 -1.763671,-0.728516 -0.464409,0 -0.900609,0.09266 -1.308594,0.279297 -0.407985,0.182291 -0.858725,0.481772 -1.353516,0.898438 -0.16927,-0.368923 -0.428169,-0.656902 -0.77539,-0.865235 -0.342882,-0.208333 -0.761069,-0.3125 -1.25586,-0.3125 z m 25.097657,0 c -1.028644,0 -1.847441,0.345054 -2.455079,1.035157 -0.603296,0.685762 -0.904296,1.621748 -0.904297,2.80664 0,1.184894 0.301001,2.118926 0.904297,2.804688 0.607638,0.685762 1.426435,1.029297 2.455079,1.029297 1.019962,0 1.833768,-0.343535 2.441406,-1.029297 0.607637,-0.685762 0.910156,-1.619794 0.910156,-2.804688 0,-1.184892 -0.302519,-2.120878 -0.910156,-2.80664 -0.607638,-0.690103 -1.421444,-1.035157 -2.441406,-1.035157 z m 13.671874,0 c -0.399304,0 -0.801433,0.08615 -1.205078,0.259766 -0.403644,0.169271 -0.747179,0.408638 -1.029296,0.716797 -0.303819,0.329861 -0.544705,0.722006 -0.722657,1.177734 -0.17361,0.451388 -0.259765,0.990236 -0.259765,1.615235 0,1.14149 0.253907,2.026911 0.761718,2.65625 0.512152,0.624998 1.20226,0.9375 2.070313,0.9375 0.520832,0 0.949002,-0.07162 1.283203,-0.214844 0.338541,-0.147569 0.691624,-0.368925 1.060547,-0.664063 v 0.664063 c 0,0.295138 -0.03255,0.562066 -0.09766,0.800781 -0.0651,0.238715 -0.174263,0.442058 -0.326172,0.611328 -0.15191,0.177951 -0.363282,0.318143 -0.636719,0.417969 -0.273437,0.09983 -0.61849,0.148438 -1.035156,0.148438 -0.434027,0 -0.868708,-0.05859 -1.302735,-0.175782 -0.434026,-0.112847 -0.75152,-0.207031 -0.951171,-0.285156 h -0.06445 v 1.25 c 0.355902,0.09982 0.715496,0.174476 1.080078,0.226562 0.368923,0.05643 0.746529,0.08594 1.132813,0.08594 1.163191,0 2.026043,-0.289932 2.585937,-0.867188 0.559895,-0.577255 0.839844,-1.482207 0.839844,-2.714843 v -6.445313 h -1.146484 l -0.07813,0.3125 c -0.316839,-0.17361 -0.61784,-0.300347 -0.904297,-0.382812 -0.282117,-0.08681 -0.633682,-0.13086 -1.054688,-0.13086 z m -26.894531,0.02539 c -0.438367,0 -0.88455,0.03906 -1.335937,0.117187 -0.451388,0.07812 -0.796442,0.149738 -1.035156,0.214844 v 1.244141 h 0.06641 c 0.421006,-0.16059 0.827692,-0.282769 1.222656,-0.365235 0.394965,-0.0868 0.753039,-0.128906 1.074219,-0.128906 0.264756,0 0.518664,0.01606 0.761719,0.05078 0.243054,0.03472 0.451389,0.103298 0.625,0.203124 0.182291,0.104167 0.322482,0.247397 0.417968,0.429688 0.09983,0.182291 0.148438,0.411676 0.148438,0.689453 v 0.189453 c -0.711804,0.03472 -1.377388,0.08681 -1.998047,0.15625 -0.620658,0.06944 -1.152996,0.201173 -1.595703,0.396485 -0.438367,0.195312 -0.776911,0.463759 -1.015625,0.80664 -0.234375,0.338541 -0.351563,0.784724 -0.351563,1.335938 0,0.672741 0.227866,1.226129 0.683594,1.660156 0.455728,0.434027 1.012588,0.650391 1.667969,0.650391 0.355902,0 0.664931,-0.03407 0.929687,-0.103516 0.264756,-0.0651 0.499133,-0.148221 0.703125,-0.248047 0.173611,-0.07813 0.352865,-0.182292 0.535157,-0.3125 0.186631,-0.134548 0.332899,-0.238715 0.441406,-0.3125 v 0.775391 h 1.21875 v -4.935547 c 0,-0.468749 -0.07162,-0.860895 -0.214844,-1.177735 -0.143229,-0.316839 -0.351563,-0.575737 -0.625,-0.77539 -0.277777,-0.203992 -0.608291,-0.347222 -0.990234,-0.429688 -0.377604,-0.0868 -0.821833,-0.130859 -1.333985,-0.130859 z m -35.7421872,0.0078 c -1.0720459,0 -1.9364166,0.338542 -2.5917969,1.015624 -0.65104,0.677082 -0.9765625,1.609595 -0.9765625,2.798829 0,0.638019 0.086155,1.196398 0.2597656,1.673828 0.1736107,0.477429 0.4194887,0.871094 0.7363281,1.183593 0.3124992,0.312499 0.6885862,0.546876 1.1269531,0.703126 0.438367,0.151909 0.9201403,0.228515 1.4453126,0.228515 0.4123253,0 0.79948,-0.0536 1.1640624,-0.162109 0.3689228,-0.108507 0.7580308,-0.261719 1.1660158,-0.457032 v -1.347656 h -0.06445 c -0.09115,0.07379 -0.214845,0.163412 -0.371094,0.267578 -0.156249,0.09983 -0.324002,0.195964 -0.501953,0.28711 -0.2039925,0.104164 -0.4333775,0.188799 -0.6894532,0.253906 -0.2560758,0.06511 -0.5084642,0.09766 -0.7558594,0.09766 -0.7118038,0 -1.265192,-0.234375 -1.6601563,-0.703125 -0.390624,-0.473088 -0.5859375,-1.148656 -0.5859375,-2.02539 0,-0.902776 0.2003048,-1.586373 0.5996094,-2.050782 0.4036448,-0.468748 0.9520417,-0.703125 1.6464844,-0.703125 0.3776032,0 0.7632388,0.07813 1.1582031,0.234375 0.3993045,0.15625 0.7868905,0.379124 1.1601565,0.669922 h 0.06445 V 49.878906 C 10.648221,49.709636 10.278645,49.566406 9.875,49.449219 9.4756954,49.332031 9.0690094,49.273438 8.6523438,49.273438 Z m 54.2187502,0.167968 v 7.273438 h 1.222656 v -5.164063 c 0.32552,-0.264756 0.664063,-0.479601 1.015625,-0.644531 0.351561,-0.169271 0.716147,-0.253906 1.09375,-0.253906 0.234375,0 0.436199,0.0115 0.605469,0.0332 0.17361,0.01737 0.352865,0.0484 0.535156,0.0918 h 0.06445 v -1.257813 c -0.190971,-0.03038 -0.334201,-0.04991 -0.429687,-0.05859 -0.09549,-0.01302 -0.250218,-0.01953 -0.462891,-0.01953 -0.386283,0 -0.765409,0.08312 -1.138672,0.248047 -0.368923,0.16059 -0.797093,0.435548 -1.283203,0.826172 V 49.441406 Z M 23.951172,50.25 c 0.65104,0 1.134332,0.175782 1.451172,0.527344 0.321186,0.351561 0.483948,0.847875 0.488281,1.490234 h -4.166016 c 0.05208,-0.572915 0.27192,-1.053169 0.658203,-1.439453 C 22.773436,50.441841 23.295791,50.25 23.951172,50.25 Z m 33.666016,0.04492 c 0.65538,0 1.166233,0.229384 1.535156,0.689453 0.368922,0.455728 0.554687,1.155819 0.554687,2.097656 0,0.920137 -0.187283,1.613282 -0.560547,2.082031 -0.368922,0.464408 -0.878256,0.697266 -1.529296,0.697266 -0.659721,0 -1.174047,-0.234376 -1.542969,-0.703125 -0.368923,-0.473089 -0.554688,-1.164715 -0.554688,-2.076172 0,-0.941837 0.182293,-1.641928 0.546875,-2.097656 0.368923,-0.460069 0.886721,-0.689453 1.550782,-0.689453 z m 13.886718,0.04492 c 0.277778,0 0.554255,0.03255 0.832032,0.09766 0.282117,0.06076 0.586589,0.164931 0.912109,0.3125 v 3.964844 c -0.299478,0.230034 -0.629992,0.415799 -0.990235,0.554687 -0.355901,0.134548 -0.710504,0.201172 -1.066406,0.201172 -0.66406,0 -1.139323,-0.209854 -1.425781,-0.630859 -0.286457,-0.421006 -0.429687,-1.039498 -0.429687,-1.855469 0,-0.859373 0.191841,-1.51541 0.578124,-1.966797 0.386285,-0.451388 0.917103,-0.677734 1.589844,-0.677734 z m -25.164062,2.558594 v 2.02539 c -0.303819,0.234374 -0.632379,0.436198 -0.988282,0.605469 -0.355901,0.16493 -0.75,0.248047 -1.179687,0.248047 -0.516492,0 -0.900608,-0.104168 -1.152344,-0.3125 -0.251735,-0.212674 -0.376953,-0.528647 -0.376953,-0.945313 0,-0.368922 0.109159,-0.656901 0.326172,-0.865234 0.217013,-0.212673 0.500001,-0.368924 0.851562,-0.46875 0.295139,-0.08247 0.695749,-0.146053 1.199219,-0.189453 0.507812,-0.04341 0.94705,-0.07596 1.320313,-0.09766 z m 4.03125,1.960937 v 1.855469 h 1.554687 v -1.855469 z"
     inkscape:original="M 12.558594 46.583984 L 12.558594 56.714844 L 13.78125 56.714844 L 13.78125 51.285156 C 14.115451 51.02908 14.465495 50.817274 14.830078 50.652344 C 15.19466 50.487414 15.544706 50.40625 15.878906 50.40625 C 16.204426 50.40625 16.467882 50.451823 16.671875 50.542969 C 16.875868 50.629774 17.032118 50.763021 17.140625 50.945312 C 17.244794 51.110243 17.316409 51.34158 17.355469 51.636719 C 17.394529 51.927516 17.414062 52.240018 17.414062 52.574219 L 17.414062 56.714844 L 18.638672 56.714844 L 18.638672 51.994141 C 18.638672 51.104386 18.431857 50.422308 18.019531 49.949219 C 17.607206 49.476129 17.008244 49.240234 16.222656 49.240234 C 15.79297 49.240234 15.374782 49.329861 14.966797 49.507812 C 14.558812 49.685763 14.163194 49.933161 13.78125 50.25 L 13.78125 46.583984 L 12.558594 46.583984 z M -0.14453125 46.84375 C -1.1992161 46.84375 -2.0681441 47.104168 -2.7539062 47.625 C -3.4396684 48.141492 -3.7832031 48.805558 -3.7832031 49.617188 C -3.7832031 50.324651 -3.5763878 50.901043 -3.1640625 51.34375 C -2.7473969 51.782117 -2.1093729 52.091146 -1.25 52.273438 C -0.82465388 52.360239 -0.42447821 52.431855 -0.046875 52.488281 C 0.33506848 52.544705 0.69010501 52.61632 1.015625 52.703125 C 1.4453115 52.815972 1.7643232 52.975695 1.9726562 53.179688 C 2.1853293 53.38368 2.2910156 53.69922 2.2910156 54.128906 C 2.2910156 54.628037 2.0681412 55.028646 1.6210938 55.328125 C 1.1783865 55.627603 0.55642159 55.777344 -0.2421875 55.777344 C -0.80642217 55.777344 -1.4084217 55.666666 -2.0507812 55.445312 C -2.6931407 55.223958 -3.2595499 54.907985 -3.75 54.5 L -3.8417969 54.5 L -3.8417969 56.115234 C -3.2645414 56.37131 -2.6981323 56.565105 -2.1425781 56.695312 C -1.5826837 56.825521 -0.95268918 56.890625 -0.25390625 56.890625 C 0.39713377 56.890625 0.95204106 56.8125 1.4121094 56.65625 C 1.8765179 56.500001 2.2816849 56.281684 2.6289062 56.003906 C 2.9457457 55.747831 3.1916237 55.435329 3.3652344 55.066406 C 3.5431853 54.697484 3.6328125 54.324869 3.6328125 53.947266 C 3.6328125 53.252823 3.4505199 52.712456 3.0859375 52.326172 C 2.7213551 51.939888 2.1775155 51.651909 1.4570312 51.460938 C 1.1011293 51.369792 0.66840148 51.280165 0.15625 51.193359 C -0.35590149 51.106557 -0.75151982 51.033423 -1.0292969 50.972656 C -1.5544692 50.851129 -1.9205735 50.675347 -2.1289062 50.445312 C -2.3372391 50.215278 -2.4414062 49.897785 -2.4414062 49.494141 C -2.4414062 49.042753 -2.2330718 48.673176 -1.8164062 48.386719 C -1.3954003 48.100261 -0.84049303 47.957031 -0.15039062 47.957031 C 0.47894806 47.957031 1.0924494 48.061199 1.6914062 48.269531 C 2.2947033 48.473524 2.781468 48.732423 3.1503906 49.044922 L 3.2421875 49.044922 L 3.2421875 47.521484 C 2.8038206 47.330512 2.2990437 47.169271 1.7304688 47.039062 C 1.1618938 46.908855 0.53689064 46.84375 -0.14453125 46.84375 z M 24.015625 49.240234 C 22.9566 49.240234 22.102212 49.590279 21.451172 50.289062 C 20.804473 50.987845 20.480469 51.93186 20.480469 53.121094 C 20.480469 54.323348 20.819012 55.25087 21.496094 55.90625 C 22.173175 56.55729 23.115671 56.882813 24.322266 56.882812 C 24.795354 56.882812 25.246095 56.824219 25.675781 56.707031 C 26.105468 56.589845 26.527128 56.445095 26.939453 56.271484 L 26.939453 54.9375 L 26.875 54.9375 C 26.662327 55.128471 26.304252 55.323785 25.800781 55.523438 C 25.301651 55.71875 24.803384 55.816406 24.308594 55.816406 C 23.935331 55.816406 23.593749 55.764323 23.28125 55.660156 C 22.973091 55.55599 22.706163 55.399739 22.480469 55.191406 C 22.246095 54.978734 22.06033 54.706814 21.925781 54.376953 C 21.791233 54.042752 21.724609 53.652125 21.724609 53.205078 L 27.082031 53.205078 L 27.082031 52.541016 C 27.082031 51.486331 26.815103 50.672525 26.28125 50.099609 C 25.751737 49.526694 24.996525 49.240234 24.015625 49.240234 z M 32.519531 49.240234 C 32.089845 49.240234 31.682725 49.329861 31.300781 49.507812 C 30.923179 49.685763 30.544053 49.933161 30.162109 50.25 L 30.162109 49.441406 L 28.9375 49.441406 L 28.9375 56.714844 L 30.162109 56.714844 L 30.162109 51.285156 C 30.49631 51.02908 30.829862 50.817274 31.164062 50.652344 C 31.502603 50.487414 31.839627 50.40625 32.173828 50.40625 C 32.52539 50.40625 32.793837 50.453342 32.980469 50.548828 C 33.1671 50.639973 33.31033 50.778212 33.410156 50.964844 C 33.501304 51.138454 33.559898 51.371311 33.585938 51.662109 C 33.616318 51.948567 33.632812 52.253039 33.632812 52.574219 L 33.632812 56.714844 L 34.855469 56.714844 L 34.855469 52.058594 C 34.855469 51.928386 34.85243 51.798177 34.84375 51.667969 C 34.83507 51.53342 34.823567 51.416232 34.810547 51.316406 C 35.153428 51.05165 35.496963 50.835286 35.839844 50.666016 C 36.182725 50.492405 36.524306 50.40625 36.867188 50.40625 C 37.218749 50.40625 37.48915 50.453342 37.675781 50.548828 C 37.862413 50.644314 38.005642 50.786025 38.105469 50.972656 C 38.196616 51.146267 38.25521 51.377171 38.28125 51.667969 C 38.31163 51.958766 38.326172 52.261719 38.326172 52.574219 L 38.326172 56.714844 L 39.550781 56.714844 L 39.550781 51.994141 C 39.550781 51.126087 39.358506 50.45052 38.976562 49.96875 C 38.59896 49.48264 38.0115 49.240234 37.212891 49.240234 C 36.748482 49.240234 36.312282 49.332899 35.904297 49.519531 C 35.496312 49.701822 35.045572 50.001303 34.550781 50.417969 C 34.381511 50.049046 34.122612 49.761067 33.775391 49.552734 C 33.432509 49.344401 33.014322 49.240234 32.519531 49.240234 z M 57.617188 49.240234 C 56.588544 49.240234 55.769747 49.585288 55.162109 50.275391 C 54.558813 50.961153 54.257813 51.897139 54.257812 53.082031 C 54.257812 54.266925 54.558813 55.200957 55.162109 55.886719 C 55.769747 56.572481 56.588544 56.916016 57.617188 56.916016 C 58.63715 56.916016 59.450956 56.572481 60.058594 55.886719 C 60.666231 55.200957 60.96875 54.266925 60.96875 53.082031 C 60.96875 51.897139 60.666231 50.961153 60.058594 50.275391 C 59.450956 49.585288 58.63715 49.240234 57.617188 49.240234 z M 71.289062 49.240234 C 70.889758 49.240234 70.487629 49.326389 70.083984 49.5 C 69.68034 49.669271 69.336805 49.908638 69.054688 50.216797 C 68.750869 50.546658 68.509983 50.938803 68.332031 51.394531 C 68.158421 51.845919 68.072266 52.384767 68.072266 53.009766 C 68.072266 54.151256 68.326173 55.036677 68.833984 55.666016 C 69.346136 56.291014 70.036244 56.603516 70.904297 56.603516 C 71.425129 56.603516 71.853299 56.531901 72.1875 56.388672 C 72.526041 56.241103 72.879124 56.019747 73.248047 55.724609 L 73.248047 56.388672 C 73.248047 56.68381 73.215497 56.950738 73.150391 57.189453 C 73.085287 57.428168 72.976128 57.631511 72.824219 57.800781 C 72.672309 57.978732 72.460937 58.118924 72.1875 58.21875 C 71.914063 58.318576 71.56901 58.367188 71.152344 58.367188 C 70.718317 58.367188 70.283636 58.308593 69.849609 58.191406 C 69.415583 58.078559 69.098089 57.984375 68.898438 57.90625 L 68.833984 57.90625 L 68.833984 59.15625 C 69.189886 59.256073 69.54948 59.330726 69.914062 59.382812 C 70.282985 59.439239 70.660591 59.46875 71.046875 59.46875 C 72.210066 59.46875 73.072918 59.178818 73.632812 58.601562 C 74.192707 58.024307 74.472656 57.119355 74.472656 55.886719 L 74.472656 49.441406 L 73.326172 49.441406 L 73.248047 49.753906 C 72.931208 49.580296 72.630207 49.453559 72.34375 49.371094 C 72.061633 49.284288 71.710068 49.240234 71.289062 49.240234 z M 44.394531 49.265625 C 43.956164 49.265625 43.509981 49.304688 43.058594 49.382812 C 42.607206 49.460934 42.262152 49.53255 42.023438 49.597656 L 42.023438 50.841797 L 42.089844 50.841797 C 42.51085 50.681207 42.917536 50.559028 43.3125 50.476562 C 43.707465 50.389757 44.065539 50.347656 44.386719 50.347656 C 44.651475 50.347656 44.905383 50.363718 45.148438 50.398438 C 45.391492 50.43316 45.599827 50.501736 45.773438 50.601562 C 45.955729 50.705729 46.09592 50.848959 46.191406 51.03125 C 46.291232 51.213541 46.339844 51.442926 46.339844 51.720703 L 46.339844 51.910156 C 45.62804 51.944879 44.962456 51.996962 44.341797 52.066406 C 43.721139 52.13585 43.188801 52.267579 42.746094 52.462891 C 42.307727 52.658203 41.969183 52.92665 41.730469 53.269531 C 41.496094 53.608072 41.378906 54.054255 41.378906 54.605469 C 41.378906 55.27821 41.606772 55.831598 42.0625 56.265625 C 42.518228 56.699652 43.075088 56.916016 43.730469 56.916016 C 44.086371 56.916016 44.3954 56.881944 44.660156 56.8125 C 44.924912 56.747396 45.159289 56.664279 45.363281 56.564453 C 45.536892 56.486328 45.716146 56.382161 45.898438 56.251953 C 46.085069 56.117405 46.231337 56.013238 46.339844 55.939453 L 46.339844 56.714844 L 47.558594 56.714844 L 47.558594 51.779297 C 47.558594 51.310548 47.486979 50.918402 47.34375 50.601562 C 47.200521 50.284723 46.992187 50.025825 46.71875 49.826172 C 46.440973 49.62218 46.110459 49.47895 45.728516 49.396484 C 45.350912 49.309679 44.906683 49.265625 44.394531 49.265625 z M 8.6523438 49.273438 C 7.5802979 49.273438 6.7159272 49.61198 6.0605469 50.289062 C 5.4095069 50.966144 5.0839844 51.898657 5.0839844 53.087891 C 5.0839844 53.72591 5.1701393 54.284289 5.34375 54.761719 C 5.5173607 55.239148 5.7632387 55.632813 6.0800781 55.945312 C 6.3925773 56.257811 6.7686643 56.492188 7.2070312 56.648438 C 7.6453982 56.800347 8.1271715 56.876953 8.6523438 56.876953 C 9.0646691 56.876953 9.4518238 56.82335 9.8164062 56.714844 C 10.185329 56.606337 10.574437 56.453125 10.982422 56.257812 L 10.982422 54.910156 L 10.917969 54.910156 C 10.826823 54.983941 10.703124 55.073568 10.546875 55.177734 C 10.390626 55.277561 10.222873 55.373698 10.044922 55.464844 C 9.8409295 55.569008 9.6115445 55.653643 9.3554688 55.71875 C 9.099393 55.783857 8.8470046 55.816406 8.5996094 55.816406 C 7.8878056 55.816406 7.3344174 55.582031 6.9394531 55.113281 C 6.5488291 54.640193 6.3535156 53.964625 6.3535156 53.087891 C 6.3535156 52.185115 6.5538204 51.501518 6.953125 51.037109 C 7.3567698 50.568361 7.9051667 50.333984 8.5996094 50.333984 C 8.9772126 50.333984 9.3628482 50.41211 9.7578125 50.568359 C 10.157117 50.724609 10.544703 50.947483 10.917969 51.238281 L 10.982422 51.238281 L 10.982422 49.878906 C 10.648221 49.709636 10.278645 49.566406 9.875 49.449219 C 9.4756954 49.332031 9.0690094 49.273438 8.6523438 49.273438 z M 62.871094 49.441406 L 62.871094 56.714844 L 64.09375 56.714844 L 64.09375 51.550781 C 64.41927 51.286025 64.757813 51.07118 65.109375 50.90625 C 65.460936 50.736979 65.825522 50.652344 66.203125 50.652344 C 66.4375 50.652344 66.639324 50.663847 66.808594 50.685547 C 66.982204 50.702914 67.161459 50.733944 67.34375 50.777344 L 67.408203 50.777344 L 67.408203 49.519531 C 67.217232 49.489151 67.074002 49.469617 66.978516 49.460938 C 66.88303 49.447917 66.728298 49.441406 66.515625 49.441406 C 66.129342 49.441406 65.750216 49.524523 65.376953 49.689453 C 65.00803 49.850043 64.57986 50.125001 64.09375 50.515625 L 64.09375 49.441406 L 62.871094 49.441406 z M 23.951172 50.25 C 24.602212 50.25 25.085504 50.425782 25.402344 50.777344 C 25.72353 51.128905 25.886292 51.625219 25.890625 52.267578 L 21.724609 52.267578 C 21.776693 51.694663 21.996529 51.214409 22.382812 50.828125 C 22.773436 50.441841 23.295791 50.25 23.951172 50.25 z M 57.617188 50.294922 C 58.272568 50.294922 58.783421 50.524306 59.152344 50.984375 C 59.521266 51.440103 59.707031 52.140194 59.707031 53.082031 C 59.707031 54.002168 59.519748 54.695313 59.146484 55.164062 C 58.777562 55.62847 58.268228 55.861328 57.617188 55.861328 C 56.957467 55.861328 56.443141 55.626952 56.074219 55.158203 C 55.705296 54.685114 55.519531 53.993488 55.519531 53.082031 C 55.519531 52.140194 55.701824 51.440103 56.066406 50.984375 C 56.435329 50.524306 56.953127 50.294922 57.617188 50.294922 z M 71.503906 50.339844 C 71.781684 50.339844 72.058161 50.372393 72.335938 50.4375 C 72.618055 50.498264 72.922527 50.602431 73.248047 50.75 L 73.248047 54.714844 C 72.948569 54.944878 72.618055 55.130643 72.257812 55.269531 C 71.901911 55.404079 71.547308 55.470703 71.191406 55.470703 C 70.527346 55.470703 70.052083 55.260849 69.765625 54.839844 C 69.479168 54.418838 69.335938 53.800346 69.335938 52.984375 C 69.335938 52.125002 69.527779 51.468965 69.914062 51.017578 C 70.300347 50.56619 70.831165 50.339844 71.503906 50.339844 z M 46.339844 52.898438 L 46.339844 54.923828 C 46.036025 55.158202 45.707465 55.360026 45.351562 55.529297 C 44.995661 55.694227 44.601562 55.777344 44.171875 55.777344 C 43.655383 55.777344 43.271267 55.673176 43.019531 55.464844 C 42.767796 55.25217 42.642578 54.936197 42.642578 54.519531 C 42.642578 54.150609 42.751737 53.86263 42.96875 53.654297 C 43.185763 53.441624 43.468751 53.285373 43.820312 53.185547 C 44.115451 53.103079 44.516061 53.039494 45.019531 52.996094 C 45.527343 52.952687 45.966581 52.920137 46.339844 52.898438 z M 50.371094 54.859375 L 50.371094 56.714844 L 51.925781 56.714844 L 51.925781 54.859375 L 50.371094 54.859375 z "
     inkscape:radius="0"
     sodipodi:type="inkscape:offset"
     style="font-style:normal;font-variant:normal;font-weight:normal;font-stretch:normal;font-size:13.3333px;font-family:sans-serif;-inkscape-font-specification:'sans-serif Normal';font-variant-ligatures:normal;font-variant-caps:normal;font-variant-numeric:normal;font-variant-east-asian:normal"
     id="path62" />
</g>
</svg>
