<svg xmlns="http://www.w3.org/2000/svg" role="img" viewBox="-2.61 -0.86 213.72 186.97"><title>Amundsen logo</title><path fill="#ea0b8c" fill-rule="evenodd" d="M5.43663 5.85676h30.06v80.674c0 12.767 5.84 20.372 10.458 23.632-4.889 4.346-19.829 8.149-30.966-1.087-6.566-5.444-9.552-14.396-9.552-22.817zm187.863 67.014v-8.478h9.168v-29.743h-10.068a39.67028 39.67028 0 00-78.434 8.42v69.459a25.27411 25.27411 0 0019.999-5.354c6.565-5.445 9.551-14.396 9.551-22.817v-2.559h15.013v-29.743h-15.013v-8.986h.036a10.08051 10.08051 0 0120.161 0v29.801a39.674 39.674 0 0039.676 39.658v-29.587a10.08642 10.08642 0 01-10.08899-10.07101zm-113.848-38.221v43.651a4.59425 4.59425 0 01-9.186 0v-43.651h-29.744v51.338c0 9.235 3.132 20.915 17.385 24.718 14.268 3.807 22.545-4.074 22.545-4.074-.754 5.192-5.644 8.995-13.521 9.81-5.96.616-13.582-1.358-17.384-2.988v27.199a63.29 63.29 0 0029.963 1.834c18.199-3.531 29.685-18.742 29.685-38.979v-68.858z" data-name="logo standard"/><path d="M11.99051 152.35156h6.89209l10.314 29.15137h-6.6055l-1.92383-5.99219H9.93192l-1.97608 5.99219H1.58426zm-.40137 18.13574H19.055l-3.68261-11.4707zM59.347 160.02539a6.264 6.264 0 012.51172 1.9375 6.197 6.197 0 011.22608 2.76856 19.15017 19.15017 0 01.19775 3.18457l-.03955 13.58691h-5.7749v-13.72559a4.50238 4.50238 0 00-.39551-2.0166 2.81085 2.81085 0 00-2.76855-1.5039 3.24082 3.24082 0 00-3.22413 1.93847 6.08819 6.08819 0 00-.45459 2.47266v12.835H44.949V168.668a7.21061 7.21061 0 00-.39551-2.78906 2.76206 2.76206 0 00-2.78858-1.5625 3.32837 3.32837 0 00-3.24316 1.5625 6.01436 6.01436 0 00-.45508 2.65039v12.97363h-5.71581v-21.51761h5.47852v3.14453a9.07654 9.07654 0 011.97754-2.39258 6.76813 6.76813 0 014.25244-1.2666 6.72782 6.72782 0 013.99463 1.08789 6.33632 6.33632 0 011.85937 2.59082 7.15981 7.15981 0 012.749-2.78808 8.38239 8.38239 0 013.876-.89063 7.5048 7.5048 0 012.80864.55469zm14.73384-.0791v12.99316a6.828 6.828 0 00.43311 2.76856 2.99316 2.99316 0 003.01074 1.6416 3.93373 3.93373 0 003.936-2.334 8.4932 8.4932 0 00.55079-3.34179v-11.72753h5.71582v21.55664h-5.47849V178.457c-.05273.06641-.18408.26367-.39453.59375a3.95957 3.95957 0 01-.749.87012 7.8311 7.8311 0 01-2.5542 1.62207 8.7076 8.7076 0 01-2.88916.43457q-4.77246 0-6.4292-3.44141a13.19471 13.19471 0 01-.92676-5.59668v-12.99313zm36.50781 1.23535q2.11671 1.75049 2.11719 5.80469v14.5166h-5.77539v-13.11231a6.02536 6.02536 0 00-.45117-2.61035 3.17167 3.17167 0 00-3.1416-1.66113 3.89314 3.89314 0 00-3.90674 2.43262 8.41185 8.41185 0 00-.54932 3.28222v11.66895H93.2449v-21.51758h5.4585v3.14453a9.53239 9.53239 0 012.04834-2.39258 7.09066 7.09066 0 014.3916-1.30566 8.26365 8.26365 0 015.44531 1.75zm18.78907-.88964a6.8534 6.8534 0 012.47265 2.38281v-10.28419h5.71485v29.11231h-5.47754v-2.98633a7.941 7.941 0 01-2.749 2.78809 7.72136 7.72136 0 01-3.83691.87109 8.01067 8.01067 0 01-6.3584-3.05566 11.73435 11.73435 0 01-2.581-7.8418q0-5.51806 2.541-8.68262a8.26912 8.26912 0 016.79395-3.16406 6.95745 6.95745 0 013.4804.86036zm1.38476 15.35645a7.86477 7.86477 0 001.2461-4.60742q0-3.95508-1.99805-5.65625a4.29849 4.29849 0 00-2.84766-1.02832 3.9584 3.9584 0 00-3.6289 1.86816 8.65888 8.65888 0 00-1.15723 4.63867 8.57226 8.57226 0 001.17676 4.77539 3.98047 3.98047 0 003.56933 1.79 4.16094 4.16094 0 003.63965-1.78024zm16.2959-1.02833a3.75241 3.75241 0 00.77539 2.13672q1.05323 1.12645 3.89453 1.12695a5.97115 5.97115 0 002.65332-.49414 1.58519 1.58519 0 00.9834-1.4834 1.60169 1.60169 0 00-.792-1.44434 32.38931 32.38931 0 00-5.89746-1.70019 12.25563 12.25563 0 01-5.17676-2.27442 4.93117 4.93117 0 01-1.50293-3.87695 6.71541 6.71541 0 012.34863-5.13183 9.4435 9.4435 0 016.60938-2.14551 12.14832 12.14832 0 016.58984 1.61133q2.54736 1.61278 2.92383 5.56738h-5.63672a3.33246 3.33246 0 00-.61426-1.7207 3.87622 3.87622 0 00-3.17382-1.14649 4.56178 4.56178 0 00-2.627.57324 1.6501 1.6501 0 00-.78418 1.34473 1.47132 1.47132 0 00.834 1.4043 36.01627 36.01627 0 005.88476 1.5625 10.79576 10.79576 0 015.04883 2.39258 5.43348 5.43348 0 011.66113 4.05468 6.547 6.547 0 01-2.38769 5.23145q-2.3877 2.02587-7.38184 2.02637-5.09327 0-7.52051-2.14551a6.97557 6.97557 0 01-2.42773-5.46875zm32.20313-14.23731a8.76325 8.76325 0 013.72558 3.18848 10.59451 10.59451 0 011.7168 4.457 27.50515 27.50515 0 01.18652 4.27832h-15.70117q.13183 3.24317 2.25488 4.54883a5.72 5.72 0 003.10742.81055 4.37651 4.37651 0 004.29-2.47168h5.75391a7.03636 7.03636 0 01-2.08887 3.8955q-2.89746 3.145-8.11035 3.14454a11.75054 11.75054 0 01-7.59375-2.65235q-3.28857-2.65137-3.28906-8.62988 0-5.60157 2.96973-8.59082a10.39338 10.39338 0 017.709-2.98926 12.26532 12.26532 0 015.06936 1.01077zm-8.43262 4.86914a5.8536 5.8536 0 00-1.501 3.33692h9.71094a4.7093 4.7093 0 00-1.50195-3.40723 4.94012 4.94012 0 00-3.34278-1.16211 4.47125 4.47125 0 00-3.36521 1.23247zm34.29492-4.07031q2.1167 1.75049 2.11719 5.80469v14.5166h-5.77539v-13.11231a6.02536 6.02536 0 00-.45117-2.61035 3.17167 3.17167 0 00-3.14161-1.66113 3.89208 3.89208 0 00-3.90625 2.43262 8.39333 8.39333 0 00-.5498 3.28222v11.66895h-5.63672v-21.51758h5.459v3.14453a9.53191 9.53191 0 012.04786-2.39258 7.09066 7.09066 0 014.3916-1.30566 8.26365 8.26365 0 015.44529 1.75z"/></svg>