<svg xmlns="http://www.w3.org/2000/svg" role="img" viewBox="-6.89 -2.39 488.28 411.78"><title>Analytics Zoo logo</title><defs><clipPath id="clip-path"><path fill="none" d="M-2.852-20.031H478.21v344.19H-2.852z"/></clipPath><style>.cls-2{clip-path:url(#clip-path)}.cls-3{fill:#2d82c4}</style></defs><path d="M33.74855 335.05972L53.144 386.927H41.30356l-3.92273-11.55H17.9849l-4.06771 11.55H2.43945l19.61365-51.8673zm.65363 31.81823l-6.53772-19.03275H27.719l-6.75544 19.0328zm31.96273-17.5073v5.23h.21771a11.83756 11.83756 0 015.085-4.7577 14.71241 14.71241 0 016.39274-1.48957 17.53905 17.53905 0 016.7918 1.1259 10.09292 10.09292 0 014.17729 3.12364 12.10555 12.10555 0 012.14272 4.86729 30.31559 30.31559 0 01.61774 6.35686v23.1H81.47444v-21.21188q0-4.64763-1.45272-6.93678-1.45392-2.28818-5.15773-2.28866-4.21415 0-6.10181 2.50589-1.89033 2.50638-1.88863 8.245V386.927H56.55808v-37.55635zm32.83358 11.54999a11.98249 11.98249 0 011.8159-6.02908 12.36725 12.36725 0 014.06819-3.85 17.74039 17.74039 0 015.55728-2.07047 31.622 31.622 0 016.21091-.61774 42.35693 42.35693 0 015.73863.39954 17.59955 17.59955 0 015.3032 1.56231 10.45561 10.45561 0 013.92272 3.23225 9.03563 9.03563 0 011.52546 5.485v19.54095a39.17408 39.17408 0 00.29044 4.86632 8.77675 8.77675 0 001.01681 3.4873h-10.46045a14.556 14.556 0 01-.47228-1.77953 15.28215 15.28215 0 01-.25408-1.85227 13.44508 13.44508 0 01-5.81136 3.55907 23.33374 23.33374 0 01-6.82865 1.01729 18.46032 18.46032 0 01-5.01227-.65363 11.48052 11.48052 0 01-4.06771-2.03458 9.45225 9.45225 0 01-2.72409-3.48633 11.78393 11.78393 0 01-.98093-5.01275 10.94888 10.94888 0 011.12591-5.26684 9.41 9.41 0 012.90592-3.305 13.0452 13.0452 0 014.06771-1.85227 43.58947 43.58947 0 014.61273-.98044q2.32453-.36366 4.57684-.58186a27.40252 27.40252 0 003.99546-.65363 6.94735 6.94735 0 002.76-1.27137 2.79063 2.79063 0 00.94456-2.43316 5.46868 5.46868 0 00-.545-2.65135 4.005 4.005 0 00-1.45272-1.52546 5.713 5.713 0 00-2.10635-.72635 17.35992 17.35992 0 00-2.57911-.18135 7.82891 7.82891 0 00-4.79455 1.30725 5.83424 5.83424 0 00-2.03361 4.35816zm23.82682 7.62823a4.62127 4.62127 0 01-1.63455.9077 16.68964 16.68964 0 01-2.10635.545q-1.12736.21673-2.36091.36269-1.23647.14692-2.47.36367a18.7342 18.7342 0 00-2.28818.58089 6.78661 6.78661 0 00-1.96136.98044 4.66228 4.66228 0 00-1.34411 1.5623 5.01866 5.01866 0 00-.50816 2.39728 4.84646 4.84646 0 00.50816 2.32454 3.88892 3.88892 0 001.38047 1.4886 5.81516 5.81516 0 002.0341.76321 12.94974 12.94974 0 002.39679.2182 9.111 9.111 0 004.72183-1.01729 6.80725 6.80725 0 002.47-2.43413 7.79059 7.79059 0 00.98092-2.86858 19.88844 19.88844 0 00.18135-2.32455zm28.91134-33.48915V386.927h-10.31547v-51.8673zm22.00995 63.0546q-2.97915 1.96087-8.28089 1.96088-1.59867 0-3.16-.10862-1.563-.1091-3.16-.25408v-8.49908q1.45247.144 2.97817.29a21.52028 21.52028 0 003.0509.07273 4.01368 4.01368 0 003.015-1.59818 5.15184 5.15184 0 00.98044-3.05091 6.19281 6.19281 0 00-.43591-2.32454l-13.14817-35.23183h10.96909l8.49909 25.71545h.14546l8.20864-25.71545h10.67818l-15.69091 42.20546a12.70916 12.70916 0 01-4.64909 6.53817zm44.45727-48.74367v6.9009h-7.555v18.59635q0 2.61548.87183 3.4873.87206.87135 3.48681.87183.87207 0 1.67092-.07273a13.96075 13.96075 0 001.52545-.2182v7.9909a24.74086 24.74086 0 01-2.90544.29093q-1.59939.07128-3.12363.07274a30.07224 30.07224 0 01-4.54048-.32779 10.69234 10.69234 0 01-3.77726-1.2704 6.72349 6.72349 0 01-2.57911-2.68821 9.59276 9.59276 0 01-.94407-4.57635v-22.15637h-6.24729v-6.9009h6.24728v-11.25906h10.315v11.25906zm5.2295-5.81088v-8.5h10.31547v8.5zm10.31547 5.81088V386.927h-10.31547v-37.55635zm26.07766 6.75543a7.24388 7.24388 0 00-4.14093 1.12688 8.95379 8.95379 0 00-2.72312 2.90544 12.56934 12.56934 0 00-1.48957 3.92273 21.25212 21.25212 0 00-.4364 4.24954 20.38111 20.38111 0 00.4364 4.14093 12.81555 12.81555 0 001.41587 3.81314 8.15544 8.15544 0 002.65136 2.79682 7.29455 7.29455 0 004.06916 1.09 7.55984 7.55984 0 005.70226-2.07047 9.80489 9.80489 0 002.50589-5.55776h9.95181q-1.01826 7.48277-5.81088 11.40549-4.79456 3.92176-12.27732 3.92273a20.53728 20.53728 0 01-7.7349-1.41684 17.12007 17.12007 0 01-5.99319-3.95861 17.97845 17.97845 0 01-3.85-6.06592 21.01046 21.01046 0 01-1.381-7.73685 25.02346 25.02346 0 011.27041-8.09954 18.221 18.221 0 013.74138-6.4645 17.1193 17.1193 0 016.03-4.25051 20.49562 20.49562 0 018.13639-1.52545 23.551 23.551 0 016.42765.87182 17.2032 17.2032 0 015.52189 2.65136 13.71591 13.71591 0 015.70226 10.715h-10.09719q-1.01826-6.46446-7.62823-6.46543zm32.43404 21.46592a6.02628 6.02628 0 001.7805 1.96185 7.61966 7.61966 0 002.50589 1.12591 11.78659 11.78659 0 002.94229.36366 10.9521 10.9521 0 002.28769-.255 7.74342 7.74342 0 002.17908-.79909 4.93921 4.93921 0 001.635-1.45272 3.81748 3.81748 0 00.65362-2.28769q0-2.32455-3.08775-3.4873a61.99039 61.99039 0 00-8.6077-2.32455q-2.25327-.50767-4.395-1.19864a14.97046 14.97046 0 01-3.81411-1.81638 8.80755 8.80755 0 01-2.68724-2.8327 8.01774 8.01774 0 01-1.0173-4.17681 11.29594 11.29594 0 011.41684-5.95634 10.43831 10.43831 0 013.74138-3.66865 16.39543 16.39543 0 015.23-1.88912 32.29552 32.29552 0 015.95634-.545 29.79049 29.79049 0 015.92046.58186 15.69225 15.69225 0 015.12137 1.96088 11.77355 11.77355 0 013.74138 3.66865 12.33259 12.33259 0 011.77953 5.775h-9.80634q-.21819-2.97768-2.25278-4.03134a10.29289 10.29289 0 00-4.79358-1.05317 17.77192 17.77192 0 00-1.88912.10861 6.3112 6.3112 0 00-1.85227.47228 3.81358 3.81358 0 00-1.41683 1.05317 2.78224 2.78224 0 00-.5809 1.85227 2.82558 2.82558 0 001.01729 2.25181 7.8381 7.8381 0 002.65136 1.41684 33.09362 33.09362 0 003.74041.98044q2.10634.4364 4.2864.94456a44.1835 44.1835 0 014.395 1.23452 14.49453 14.49453 0 013.81314 1.925 9.31339 9.31339 0 012.68821 2.97914 8.74245 8.74245 0 011.01729 4.394 11.4087 11.4087 0 01-5.37545 10.24274 15.92184 15.92184 0 01-5.485 2.1432 31.99885 31.99885 0 01-6.28315.61774 31.13727 31.13727 0 01-6.39274-.65363 16.8775 16.8775 0 01-5.55777-2.18 12.446 12.446 0 01-3.99449-4.03135 12.61445 12.61445 0 01-1.70777-6.28315h9.80728a5.64706 5.64706 0 00.68954 2.8685zm76.09318-32.94317H342.911v-9.58911h40.82548v9.00821l-27.82277 33.27h28.54913v9.58907h-43.73092v-9.00724zm21.71999 15.3641a17.17626 17.17626 0 0110.02454-10.24273 21.441 21.441 0 017.99092-1.41684 21.73448 21.73448 0 018.02681 1.41684 17.10642 17.10642 0 0110.06042 10.24273 23.07365 23.07365 0 011.38095 8.17227 22.77377 22.77377 0 01-1.38095 8.13639 17.6396 17.6396 0 01-3.92273 6.21042 17.08248 17.08248 0 01-6.13769 3.95958 22.266 22.266 0 01-8.02681 1.38 21.96443 21.96443 0 01-7.99092-1.38 17.13947 17.13947 0 01-6.10181-3.95958 17.61225 17.61225 0 01-3.92273-6.21042 22.73123 22.73123 0 01-1.38095-8.13639 23.03033 23.03033 0 011.38095-8.17227zm9.37091 12.56728a11.69269 11.69269 0 001.4886 3.85 7.93035 7.93035 0 002.79683 2.72409 8.53144 8.53144 0 004.35912 1.01729 8.73232 8.73232 0 004.394-1.01729 7.84112 7.84112 0 002.83368-2.72409 11.7142 11.7142 0 001.4886-3.85 21.96992 21.96992 0 00.43639-4.395 22.516 22.516 0 00-.43639-4.43089 11.31853 11.31853 0 00-1.4886-3.85 8.26 8.26 0 00-2.83368-2.72409 8.499 8.499 0 00-4.394-1.05415 7.93658 7.93658 0 00-7.156 3.77824 11.29849 11.29849 0 00-1.4886 3.85 22.516 22.516 0 00-.4364 4.43089 21.96992 21.96992 0 00.43645 4.395zm35.01266-12.56728a17.17626 17.17626 0 0110.02454-10.24273 21.441 21.441 0 017.99092-1.41684 21.73448 21.73448 0 018.02681 1.41684A17.10642 17.10642 0 01470.76 360.01293a23.07365 23.07365 0 011.38095 8.17227 22.77377 22.77377 0 01-1.38095 8.13639 17.6396 17.6396 0 01-3.92273 6.21042 17.0824 17.0824 0 01-6.13769 3.95958 22.266 22.266 0 01-8.02681 1.38 21.96443 21.96443 0 01-7.99092-1.38A17.13947 17.13947 0 01438.58 382.532a17.61225 17.61225 0 01-3.92273-6.21042 22.73123 22.73123 0 01-1.381-8.13639 23.03033 23.03033 0 011.38101-8.17226zm9.37091 12.56728a11.69269 11.69269 0 001.4886 3.85 7.93035 7.93035 0 002.79683 2.72409 8.53144 8.53144 0 004.35912 1.01729 8.73232 8.73232 0 004.394-1.01729 7.84112 7.84112 0 002.83368-2.72409 11.7142 11.7142 0 001.4886-3.85 21.96992 21.96992 0 00.43639-4.395 22.516 22.516 0 00-.43639-4.43089 11.31853 11.31853 0 00-1.4886-3.85 8.26 8.26 0 00-2.83368-2.72409 8.499 8.499 0 00-4.394-1.05415 7.93658 7.93658 0 00-7.15595 3.77824 11.29849 11.29849 0 00-1.4886 3.85 22.516 22.516 0 00-.4364 4.43089 21.96992 21.96992 0 00.4364 4.395z"/><g class="cls-2"><g class="cls-2"><path d="M227.13188 262.58172c-85.91479 7.92442-175.46268-4.559-188.0065-71.70032-6.135-33.09864 8.965-68.198 28.96636-90.01285V89.21842c-36.03333 31.6011-55.55961 71.58959-44.312 118.82218 14.36743 60.58558 91.20043 94.89392 208.511 83.50141 46.43351-4.50064 107.158-19.43167 149.40481-42.63534v-32.93962c-38.342 22.84538-101.74552 41.71547-154.56365 46.61467M453.46026 88.43139c-20.3797-99.4952-213.56314-105.80132-338.08963-30.00092v8.37329C239.75623 2.85479 416.19106 3.24528 432.2553 94.89655c5.39029 30.319-11.6884 61.906-42.19855 80.0917v23.78336c36.70156-13.46367 74.34715-57.00478 63.40351-110.34022" class="cls-3"/><path d="M374.74833 73.94279H352.223v100.3265c0 11.75884 5.68418 21.9839 22.52537 23.6183zm-268.22361 36.63152H83.95709l-.01209 65.54716c0 11.79909 5.7023 22.01208 22.57971 23.61629zM83.956 76.994h22.497v21.352H83.956zm157.47529 121.70656c-18.23406 0-25.94916-12.67265-25.94916-25.15608v-87.0319h22.33213v24.06113h16.815v18.03679h-16.815v43.55318c0 5.09039 2.41335 7.92645 7.72113 7.92645h9.09389v18.61043h-13.198M282.52 161.62138c0 11.42673 7.14747 19.82416 19.78994 19.82416 9.907 0 14.79011-2.74748 20.51054-8.39743l13.7978 13.14565c-8.84428 8.73963-18.11528 14.05143-34.47339 14.05143-21.37 0-41.8443-11.66423-41.8443-45.66462 0-29.069 17.89185-45.50157 41.34915-45.50157 23.84778 0 37.553 19.23642 37.553 44.48712v8.05526H282.52m18.15153-34.07285c-7.64267 0-13.516 3.93706-16.00386 9.24686a23.04583 23.04583 0 00-2.14767 9.5991h34.415c-.43677-9.5991-4.78847-18.846-16.26347-18.846M167.1745 128.6101c6.54766 0 9.269 3.2366 9.269 8.49205V198.831h22.33615v-61.85967c0-12.53378-6.67851-26.37386-26.29132-26.37386l-46.13763-.02214V198.831h22.34218v-70.2209zm231.81105-36.74101a8.96312 8.96312 0 118.99727-8.963 8.91809 8.91809 0 01-8.99727 8.963m0-16.43057a7.45051 7.45051 0 107.48766 7.46752 7.53038 7.53038 0 00-7.48766-7.46752m3.97329 12.83971h-1.67466a.3787.3787 0 01-.34217-.22342l-2.26441-3.8505a.67259.67259 0 00-.318-.17714h-1.0386v3.83843a.39285.39285 0 01-.37639.41263H395.435a.41194.41194 0 01-.37841-.41263V78.182c0-.5656.18919-.79908.68435-.86954.54346-.05837 1.95847-.12882 2.74949-.12882 2.79378 0 4.43422.82123 4.43422 3.41372v.18921a2.71582 2.71582 0 01-2.01683 2.86222l2.357 4.01555a.70773.70773 0 01.06038.2838.31923.31923 0 01-.36634.33011m-2.16978-7.68089c0-1.08288-.67231-1.423-2.11146-1.423h-1.42709v3.07153c.22544 0 1.23989.0463 1.42709.0463 1.43915 0 2.11146-.479 2.11146-1.50558z" class="cls-3"/></g></g></svg>