<svg xmlns="http://www.w3.org/2000/svg" role="img" viewBox="0.02 -14.98 1142.96 425.96"><title>Apache Mesos logo</title><defs><style>.cls-2{fill:#024561}.cls-3{isolation:isolate}</style></defs><g id="layer1"><g id="g826"><path fill="#34a9d8" d="M149.71325 369.39892c-19.3966-11.20658-35.26635-20.80659-35.26635-21.33342 0-1.08067 70.28662-42.02142 71.18676-41.46507.78134.48289.74441 82.30983-.03727 82.793-.33909.20958-16.48637-8.78795-35.883-19.9945zm45.60682 19.91025c-.24858-.24864-.45207-18.89845-.45207-41.444 0-37.64663.09733-40.99191 1.19248-40.99191 1.05371 0 66.32783 37.34237 69.89154 39.98391 1.24472.92262 1.281 1.15852.3212 2.08944-.95779.929-62.53161 36.70366-68.24841 39.65264-1.2389.63912-2.456.95858-2.70474.70994zm-86.24422-50.62832c-1.17784-2.20079-1.04257-79.48177.14175-81.05177.80564-1.06778 4.64712.972 36.07565 19.156 24.21243 14.00891 35.11111 20.68721 34.97218 21.42966-.1529.81649-45.32562 27.73672-67.76356 40.383-2.64185 1.489-2.67313 1.48973-3.426.08315zm126.91374-19.03c-19.23455-11.1956-35.06586-20.84361-35.18083-21.44-.14476-.75235 10.56225-7.306 34.972-21.40578 31.20241-18.02347 35.28274-20.18917 36.08239-19.15122.696.90342.90155 10.15407.90155 40.56419 0 30.3957-.20582 39.66737-.90155 40.59116-.80596 1.07031-4.61067-.96164-35.87356-19.15836zm-172.7525-.58942c-19.04137-11.0848-34.62078-20.50767-34.62078-20.93982 0-.75509 69.11478-41.01568 70.41108-41.01568.35639 0 .63359 17.98071.63359 41.11214 0 32.43942-.19034 41.1-.90164 41.05481-.49582-.03162-16.48088-9.1267-35.52225-20.21146zm218.18286-20.81216c0-34.60634.15948-41.2116.99048-41.01593.54475.12841 16.60833 9.15888 35.69679 20.068 22.36216 12.78012 34.64424 20.19542 34.53185 20.84868-.16223.94232-67.1655 40.20358-69.95685 40.99191-1.19156.33652-1.26219-1.95283-1.26219-40.8927zm-258.9344-50.17133V206.593l3.426 1.77811c10.9258 5.67043 67.61864 39.22659 67.61864 40.02308 0 .9555-68.44441 41.106-70.143 41.14692-.71113.01635-.90164-8.7445-.90164-41.46317zm126.58213 21.34987C130.02631 258.391 114.4469 248.931 114.4469 248.40547c0-1.11053 70.22023-41.93708 71.146-41.36488.34092.21072.62 18.86442.62 41.45269 0 38.646-.07438 41.06755-1.2622 41.03552-.6942-.01909-16.84165-9.06417-35.88302-20.10099zm45.80032-20.93453c0-22.63565.28285-41.24434.6301-41.45893 1.14655-.70868 71.13593 40.00856 71.13593 41.38431 0 1.14892-68.46862 41.08265-70.50367 41.12062-1.18765.0218-1.26219-2.404-1.26219-41.046zm127.664 21.00633c-20.45548-11.72-34.98134-20.4702-34.98134-21.07205 0-.77065 52.9447-31.94657 68.74748-40.48118 1.37875-.74461 1.78539-.719 2.333.14667.72943 1.15309.9677 78.45231.2475 80.3288-.24067.62752-.64649 1.13628-.90155 1.13066-.25515-.00545-16.20543-9.02947-35.44513-20.053zm458.27809-8.77061a61.17516 61.17516 0 01-19.482-9.61045c-4.26144-3.141-8.20059-7.434-8.20059-8.93721 0-.7264 8.20675-8.8772 8.93817-8.8772a29.56047 29.56047 0 014.083 3.27986c9.27777 8.24 17.034 11.48169 26.28775 10.98711 15.01653-.80264 24.02509-11.65868 20.3019-24.46575-2.29353-7.8897-8.72071-12.85969-23.18692-17.93-17.32079-6.07075-24.69795-11.45033-29.418-21.45208-2.14528-4.546-2.29744-5.3854-2.25543-12.448.05042-8.50857 1.402-13.12536 5.64435-19.28134 2.84-4.12109 9.84912-9.09087 15.0394-10.66353 9.39964-2.84813 22.4174-1.89475 31.34251 2.29539 4.16377 1.95481 12.46478 7.81525 12.46478 8.8 0 .9493-7.28922 10.19429-8.03762 10.19429a20.18384 20.18384 0 01-4.25354-2.47722 29.1369 29.1369 0 00-18.3626-5.74517c-5.30351-.0218-7.03574.26168-9.466 1.54247-5.86688 3.09213-9.06845 8.682-9.19624 16.05635-.06489 3.73545.27354 5.3092 1.6641 7.7437 2.41532 4.22816 5.45624 6.11055 17.05682 10.5583 5.52138 2.11695 11.82411 4.74607 14.00591 5.84246 16.9698 8.52754 24.81433 21.63585 22.45217 37.518a29.76713 29.76713 0 01-9.05689 18.08707c-7.07151 7.068-15.87774 10.44113-27.07042 10.369a52.411 52.411 0 01-11.29461-1.38605zm138.44984.63489a76.90473 76.90473 0 01-18.896-6.88C884.837 245.46841 873.69 230.154 870.28641 213.16162c-1.46942-7.33589-1.08524-21.78222.75905-28.54292 1.79828-6.59211 7.02982-16.74052 11.4955-22.29955 21.56068-26.83973 59.43461-31.16493 86.25354-9.85009a65.52972 65.52972 0 0121.75156 33.03011c2.13488 7.8991 2.14778 22.75166.02725 30.5924-6.12362 22.63423-25.46435 40.6513-48.35657 45.04689a84.1822 84.1822 0 01-22.956.22545zm21.982-14.729a48.153 48.153 0 0031.08632-25.06033c6.77434-14.10462 6.66477-28.05013-.33161-42.22426a44.949 44.949 0 00-19.57484-20.17557c-7.94985-4.136-13.41233-5.46136-22.22364-5.39215-12.78007.10033-22.36956 4.18046-31.78259 13.52261-9.71311 9.64015-13.986 19.8807-14.00716 33.57077-.01364 8.37063 1.22867 13.56137 5.16857 21.607 5.51522 11.26281 16.97862 20.48554 29.55811 23.78062a52.09465 52.09465 0 0022.10676.37125zm114.00289 14.14284a65.222 65.222 0 01-17.49192-7.94011c-4.40785-3.03273-9.82325-8.5765-9.82325-10.05624 0-.67531 1.94482-3.15236 4.32179-5.50458l4.32189-4.2768 2.71048 2.552c11.06782 10.42045 22.40954 14.19384 33.55314 11.16319 8.98472-2.44352 14.19941-8.464 14.82527-17.11634.44458-6.14641-1.2956-10.53638-5.90474-14.89545-4.53689-4.2908-7.55011-5.9059-17.283-9.26353-16.82467-5.8042-25.2562-11.64163-29.556-20.46255-3.58043-7.34516-3.79914-18.24114-.5385-26.83028 1.74354-4.59275 6.73162-10.59179 11.09963-13.34919 10.2447-6.4672 27.10906-6.85442 39.22963-.90073 4.87905 2.39661 11.74067 7.47928 11.74067 8.69679 0 1.03941-6.43709 9.32931-7.58672 9.77052-.50943.19546-2.50184-.77648-4.42749-2.16-9.77051-7.01938-22.81451-8.147-30.42972-2.63053-4.05221 2.93539-6.60218 8.43024-6.60218 14.22678a22.86507 22.86507 0 00.98808 6.93449c1.6393 3.92343 6.34332 7.28207 14.38169 10.26846 12.38349 4.6007 18.55349 7.42091 23.65463 10.81212 9.41706 6.26042 14.62228 13.97933 15.90614 23.58716 2.43354 18.21149-7.90039 33.51016-25.42579 37.64116a51.7049 51.7049 0 01-21.66371-.26634zm-590.11834-.522c-.27787-.2779-.50523-18.46472-.50523-40.41524 0-33.57792.1589-39.91 1.00188-39.91.551 0 3.96237 3.957 7.58073 8.79337l6.57892 8.79338-.18784 31.41717-.18785 31.41717-6.88774.20474c-3.78824.1126-7.1151-.0218-7.393-.30053zm111.07485 0c-.27786-.2779-.50523-18.78929-.50523-41.13651s-.24342-40.63038-.54091-40.62926c-.2975.00146-3.36979 3.97709-6.82726 8.83551s-12.806 17.11-20.77459 27.22574c-20.49915 26.02266-19.39361 24.75535-20.67053 23.69565-1.87174-1.55345-39.87312-51.5009-51.31305-67.44378l-10.94846-15.25815v-9.80583c0-5.714.286-9.80586.68534-9.80586.99414 0 2.91164 2.41586 33.77671 42.55465 15.4047 20.03315 28.29492 36.42393 28.645 36.42393s13.8015-17.0933 29.892-37.98507 29.88065-38.66966 30.64486-39.50633 1.6586-1.25208 1.98754-.9231.51513 28.33074.41372 62.22617l-.18427 61.62805-6.88774.20474c-3.78824.1126-7.11509-.0218-7.393-.30054zm61.13431-.44512c-.18918-.49586-.26006-27.51628-.15757-60.04536l.18619-59.14377h73.56913v13.704l-29.21128.36064-29.21121.36063v37.50581l25.96554.36064 25.96555.36063v13.704l-25.96555.36064-25.96554.36064-.19217 19.29386-.19218 19.29385h30.27956c29.19831 0 30.30627.04988 31.02621 1.3951.80929 1.51222.99548 8.78252.292 11.40736l-.43493 1.62283h-37.805c-29.57966 0-37.87975-.19629-38.149-.9016zM64.3136 219.91966c-18.80594-10.88066-34.64973-20.2403-35.2086-20.7991-.87386-.87385-.77719-1.16606.69016-2.08833 6.063-3.81058 68.50031-39.461 69.11111-39.461.9063 0 1.08233 81.21538.1772 81.77472-.31746.19629-15.96409-8.54559-34.77-19.42626zm44.44029 18.73493c-.57619-1.50162-.55007-78.06646.02745-80.2226.31048-1.15928.79948-1.52907 1.61294-1.21972.64207.24425 16.676 9.42019 35.6309 20.39116 22.86971 13.23688 34.395 20.29479 34.26005 20.98033-.21 1.06678-68.58484 41.21173-70.19178 41.21173a1.714 1.714 0 01-1.33972-1.1409zm126.859-18.92344c-23.64656-13.70684-34.61412-20.44254-34.61412-21.258 0-.81657 11.05192-7.5789 34.98133-21.40395 19.2397-11.11564 35.187-20.21226 35.43823-20.21475.25132-.00217.65256.72581.89173 1.61838.57029 2.128.58634 78.69764.01639 80.18179a1.68451 1.68451 0 01-1.26876 1.1409c-.45706 0-16.40742-9.02894-35.44513-20.06434zm45.80689-21.0478c0-29.51216.22462-41.11215.7964-41.11215 1.76334 0 70.61456 40.068 70.43512 40.98981-.178.91449-69.17917 41.23452-70.56615 41.23452-.39849 0-.66537-16.48882-.66537-41.11214zm-258.9344-50.14674c0-39.13716.06922-41.38265 1.26219-40.93337 2.0823.78426 68.2539 39.21378 69.391 40.29919.65955.6296.79382 1.24165.36056 1.6433-1.32326 1.22684-68.499 39.88643-69.75153 40.142-1.19048.24288-1.26219-2.097-1.26219-41.15116zm127.30341 21.27408c-19.04137-11.05059-34.62079-20.51433-34.62079-21.03054 0-1.22629 68.81179-41.15715 70.0838-40.66906.80347.30831.9404 7.43223.7865 40.90483-.1208 26.26608-.44026 40.594-.90763 40.70908-.39666.09758-16.30068-8.8638-35.342-19.91439zm45.91579 19.3231c-1.01095-1.01091-1.19264-78.93-.18785-80.51627a1.344 1.344 0 011.36552-.72127c.40631.14746 16.18338 9.19386 35.06037 20.103 21.42582 12.38216 34.25556 20.20464 34.14575 20.81918-.09676.54142-15.43066 9.80038-34.07537 20.57548s-34.25324 19.81281-34.68567 20.08381a1.41932 1.41932 0 01-1.62292-.344zm126.8273-19.24386c-19.23978-11.02975-35.06086-20.50447-35.158-21.05495-.11231-.63688 12.17635-8.08387 33.78711-20.47507 18.68-10.71079 34.60672-19.77816 35.3928-20.1497 1.032-.48779 1.61135-.38759 2.0848.36064.72219 1.1414.95322 78.45764.23993 80.31636-.24068.62748-.64649 1.122-.90156 1.0988-.25515-.02179-16.20543-9.06637-35.44513-20.09612zM64.31343 120.385C45.5075 109.50427 29.6637 100.14469 29.10482 99.58588c-.87385-.87385-.77718-1.16668.69016-2.093 5.65025-3.56641 67.521-39.01145 68.579-39.28815 1.22359-.32 1.28665 1.66555 1.28665 40.45659 0 22.43619-.25973 40.95362-.57736 41.14987-.31746.19629-15.96409-8.54559-34.77-19.42626zm45.20467 19.395c-.26439-.26443-.48086-18.76492-.48086-41.11214 0-33.62788.16789-40.6313.97369-40.6313.75538 0 61.08139 34.55477 68.89215 39.46153 1.45.91087 1.55686 1.22118.71162 2.06637-.7662.76616-68.94988 40.69639-69.492 40.69639a2.14572 2.14572 0 01-.60448-.48085zm127.14068-19.37859c-18.79-10.89423-34.619-20.26305-35.1755-20.81956-.86836-.86836-.76986-1.16407.69432-2.08434 6.4246-4.03819 67.31865-38.963 68.45165-39.25937 1.39239-.36409 1.4141.25843 1.4141 40.42327 0 22.43619-.2747 40.96281-.61046 41.17038s-15.98414-8.53619-34.77411-19.43042zm44.761-21.33681c0-40.40343.02729-41.18922 1.398-40.8307 3.18.83158 70.00976 39.87848 69.83264 40.80137-.16763.87386-69.34139 41.22558-70.67163 41.22558-.30752-.00004-.55901-18.53835-.55901-41.19629zM149.48264 70.29977c-19.20159-11.10654-35.083-20.36451-35.29164-20.57324-.20881-.20881.088-.83641.65938-1.3948 1.3582-1.32724 68.36472-40.16812 70.06184-40.61195 1.24206-.32482 1.30046 1.52812 1.30046 41.2168 0 32.945-.18835 41.55689-.909 41.55689-.49994 0-16.61944-9.08717-35.82104-20.1937zm45.88851 19.73531c-.84857-.84852-.60614-81.61719.24674-82.14417.94507-.58409 71.37669 40.0947 71.37669 41.22466 0 .69782-66.6309 39.72329-70.00035 40.99892a1.74156 1.74156 0 01-1.62292-.07932z" id="path830"/><path d="M149.942 368.483c-18.92723-10.9413-34.41313-20.12782-34.41313-20.4145 0-.522 68.59083-40.474 69.487-40.474.26172 0 .47569 18.17591.47569 40.39089s-.25573 40.39087-.5682 40.39087-16.0541-8.95199-34.98136-19.89326zm46.1281 19.41243c-.70348-.70339-.58917-79.42753.1158-79.86327.82826-.51193 69.00546 39.03866 69.00546 40.03112 0 .58738-67.48471 40.313-68.48251 40.313a1.89716 1.89716 0 01-.63872-.48088zm-86.31144-89.60022c0-22.25741.196-40.468.43543-40.468.23959 0 15.98505 8.9912 34.99015 19.98052 27.29154 15.78074 34.36338 20.16314 33.64427 20.84927-.98217.93728-66.1548 38.98756-67.97288 39.68525-.974.37376-1.09714-4.12083-1.09714-40.047zm126.94269 20.76327c-18.44638-10.72968-33.95092-19.90722-34.45456-20.39464-.73026-.70672 6.08967-4.93043 33.68436-20.86141 19.03006-10.98641 34.778-19.97529 34.99548-19.97529s.39541 18.17588.39541 40.39087-.24342 40.38143-.54091 40.36986c-.2975-.0109-15.6334-8.7998-34.07978-19.52946zm-86.55184-50.07928c-18.843-10.90434-34.35373-20.10274-34.4682-20.441-.19567-.578 66.82466-39.84949 68.86253-40.351.77419-.19055.94773 7.16888.94773 40.21055 0 22.24406-.24342 40.43554-.54092 40.42555-.29749-.01089-15.95793-8.93987-34.80114-19.84421zm45.901 19.362c-.73109-.73113-.54424-79.42358.18968-79.87719.73276-.45285 68.77959 38.75061 69.14056 39.83361.16223.48676-54.49623 32.64833-68.4286 40.26408a.83642.83642 0 01-.90164-.22054zm588.201-27.71749c-5.03446-.83683-13.50318-4.256-18.57067-7.49766-5.18171-3.31471-11.11073-8.85959-11.11073-10.39091 0-1.15721 6.36179-7.98841 7.43946-7.98841a36.3166 36.3166 0 015.32164 4.0582c13.56841 11.51043 30.35793 13.09928 40.87193 3.86777 4.4779-3.93162 5.85266-7.31235 5.86272-14.41738.00815-5.401-.22786-6.53317-1.97889-9.51178-3.61271-6.14558-9.94122-10.182-23.153-14.76729-15.168-5.26419-23.30855-11.03457-27.52415-19.51037-1.77532-3.56944-2.11932-5.233-2.37264-11.47424-.34392-8.47405.84515-13.74407 4.34-19.23509 7.67066-12.05222 25.963-16.57634 42.92245-10.61557 4.50752 1.58427 13.73545 7.37753 14.36513 9.01841.43892 1.14381-6.01014 9.96027-6.88865 9.41736-.30648-.18947-2.26524-1.4938-4.3527-2.8985-10.469-7.04514-25.94849-7.17745-32.23233-.27553-4.56234 5.011-6.49623 13.88757-4.28631 19.67421 1.32026 3.457 5.56747 7.7709 9.2855 9.43134 1.27184.56795 6.924 2.83015 12.56053 5.02714a141.125 141.125 0 0114.78592 6.63678c5.91622 3.44495 12.64064 10.34421 15.35679 15.756 2.06225 4.109 2.16316 4.73434 2.14935 13.32714-.01364 7.734-.253 9.61237-1.69271 13.21143-2.0551 5.13745-8.60091 12.37925-13.69635 15.15251-7.502 4.08307-17.84033 5.59388-27.40228 4.00445zm136.789.08178c-12.57059-1.99811-23.408-7.67477-33.0363-17.30486-8.97211-8.97357-13.07673-16.0457-16.37614-28.21547-1.75161-6.46055-1.71925-22.20526.06-29.124 2.85375-11.09872 10.9501-24.38023 18.97141-31.12117a65.36 65.36 0 0127.99884-13.99235c5.56274-1.16478 18.239-1.16478 23.8018 0a62.27835 62.27835 0 0147.27224 45.75281c1.93293 8.062 1.90955 20.32852-.054 28.521-5.03517 21.004-21.79982 38.00242-43.47094 44.07724-5.98926 1.67886-18.91009 2.40114-25.16615 1.40674zm21.41926-13.4746c12.28083-3.03253 24.79719-13.20249 30.51212-24.7922a48.151 48.151 0 00-.34346-44.16751c-4.04156-7.80393-13.15793-16.684-21.15287-20.60459-15.85053-7.77286-32.7789-6.55634-47.45551 3.41042-8.77329 5.95781-16.42015 16.83682-19.336 27.5086-2.0041 7.33514-1.7 18.97469.68775 26.32618a47.78512 47.78512 0 0012.07194 19.78436 46.36649 46.36649 0 0045.016 12.53474zm115.30534 13.12557a61.38618 61.38618 0 01-17.33044-6.96182c-4.567-2.73345-11.78368-9.21994-11.78368-10.59145 0-1.07988 6.38842-8.05659 7.3772-8.05659.37861 0 2.84954 1.80174 5.49106 4.00388 14.71654 12.26861 32.45163 13.303 42.24406 2.4639 3.63-4.018 4.75352-6.95054 4.74869-12.39506-.00819-6.26916-.9869-9.22448-4.32088-13.012-4.18232-4.7514-8.518-7.2267-20.38359-11.6373-13.62639-5.06516-18.40116-7.65456-22.91467-12.427-5.21-5.50882-7.2975-10.46966-7.75082-18.41938-1.13041-19.82708 11.205-32.39951 31.93288-32.54655 11.076-.07849 20.384 3.06709 27.76167 9.38209l2.94384 2.51981-1.94159 2.62642c-1.06789 1.44451-2.75873 3.51445-3.75758 4.59986l-1.81592 1.97345-2.40313-1.83294c-10.772-8.21619-26.71561-9.1204-33.91269-1.92332-3.81382 3.81387-5.528 8.22118-5.582 14.35187-.04118 4.62611.18373 5.49314 2.14636 8.29456 2.75191 3.92775 7.45123 6.76606 17.00441 10.27037 23.52376 8.629 33.6854 17.72539 36.10359 32.31872 1.63136 9.8453-1.86512 21.13328-8.64691 27.91507-8.34116 8.34112-22.19233 11.91443-35.20988 9.08336zm-591.91573-.82046c-.77185-.77182-.62019-78.16306.15324-78.16306.363 0 3.44982 3.76512 6.8597 8.36685l6.19974 8.36686-.1881 30.76182-.1881 30.76182-6.165.20636c-3.39066.11339-6.393-.02179-6.67168-.30053zm111.0583-.01635c-.28784-.28785-.50032-19.03821-.4722-41.6675.03053-24.48829-.21779-41.23381-.61321-41.36563-.36538-.12183-3.75022 4.09244-7.52191 9.36495s-12.00821 16.10169-18.30345 24.06481-13.71791 17.44538-16.49477 21.07172-5.37339 6.59394-5.77013 6.59477c-.87319.00217-36.48046-46.50649-51.33984-67.05743l-10.67024-14.75713-.25024-8.9158c-.20174-7.19217-.06431-8.8539.71188-8.59567 1.01794.33872 4.85318 5.22273 39.12563 49.8252 13.61608 17.72007 21.89645 27.90638 22.5728 27.76873.58759-.11967 14.426-17.5568 30.75226-38.74936s30.09154-38.66583 30.5897-38.82951c.72286-.23743.86844 11.97822.72128 60.53054l-.18452 60.82812-6.16488.20636c-3.39067.11339-6.4004-.02916-6.68824-.317zm61.14929-.43019c-.18918-.49587-.26006-27.19171-.15757-59.32409l.18643-58.42249h72.1265v12.26154l-29.30954.18839-29.30953.18839-.43285 1.61484c-.564 2.1041-.56413 34.303-.00025 36.407l.4326 1.61393 26.064.18918 26.064.18918v12.26153l-26.064.18918-26.064.18918-.4326 1.61393c-.238.88766-.437 9.62384-.44242 19.41378-.00815 15.22884.15374 17.96349 1.1236 18.93322.99389.9939 4.81159 1.13341 31.01439 1.13341h29.881v12.26154h-37.1678c-29.06994 0-37.24274-.19654-37.51179-.9016zm-528.29845-60.48319c0-37.32282.09268-40.43255 1.191-40.011.65506.25132 16.41948 9.25842 35.03225 20.01571 27.25644 15.753 33.65591 19.73091 32.88888 20.4437-.94955.88247-68.24541 40.01963-68.81312 40.01963-.1644-.00001-.29901-18.21063-.29901-40.46804zm126.72489 20.66915c-18.56617-10.8115-34.08485-19.98544-34.486-20.38659-.49167-.49158 10.32864-7.11406 33.19553-20.31708 18.65868-10.77323 34.42078-19.778 35.02692-20.01064.98059-.37628 1.10213 4.03994 1.10213 40.04512 0 22.25741-.24342 40.43616-.54092 40.39719s-15.73148-8.91659-34.29766-19.728zM149.62989 69.3923c-18.73206-10.80762-33.96006-19.97482-33.8401-20.37148.26339-.86957 67.51349-39.97653 68.8-40.0081.71062-.01635.90163 8.453.90163 40.0081 0 31.54562-.19117 40.02935-.90163 40.026-.49585-.00218-16.22779-8.84689-34.9599-19.65452zm45.95922-20.28738c0-31.61745.19117-40.11163.90164-40.10156 1.27384.01909 68.56412 39.14057 68.82959 40.01746.22.72639-65.64732 39.1305-68.30515 39.82553-1.40795.36821-1.42608-.13602-1.42608-39.74143z" class="cls-2" id="path828"/><g id="text836" class="cls-3"><g class="cls-3"><path d="M460.62305 100.63623l15.68457-40.84082h5.82226l16.71533 40.84082h-6.15673l-4.76416-12.36914h-17.07715l-4.48535 12.36914zm11.78418-16.771h13.8457l-4.26221-11.31054q-1.95044-5.15332-2.89746-8.46924a52.042 52.042 0 01-2.20068 7.80078zm30.11477 28.10938V71.05029h4.56885V74.895a11.26343 11.26343 0 013.64941-3.38525 10.03091 10.03091 0 014.93116-1.12793 11.694 11.694 0 016.686 1.95019 11.96884 11.96884 0 014.374 5.50195 20.098 20.098 0 011.47656 7.78663 19.77734 19.77734 0 01-1.62989 8.17627 12.38793 12.38793 0 01-11.269 7.50781 9.4378 9.4378 0 01-4.499-1.0586 10.23818 10.23818 0 01-3.27344-2.67431v14.40283zm4.541-25.96436q0 5.71143 2.3125 8.44141a7.0888 7.0888 0 005.59961 2.73 7.24824 7.24824 0 005.72461-2.82764q2.38257-2.82714 2.38232-8.76123 0-5.65575-2.32617-8.46923a7.00576 7.00576 0 00-5.55811-2.814 7.2222 7.2222 0 00-5.66894 2.99512q-2.46607 2.99488-2.46582 8.70557zm46.49657 10.97657a18.674 18.674 0 01-5.36279 3.34277 15.50115 15.50115 0 01-5.52979.9751q-4.87573 0-7.49414-2.38184a7.86031 7.86031 0 01-2.61865-6.08691 8.099 8.099 0 01.98877-3.97022 8.18648 8.18648 0 012.59131-2.8833 12.18109 12.18109 0 013.60742-1.64355 35.82875 35.82875 0 014.45752-.752 45.81215 45.81215 0 008.94238-1.72753q.02784-1.03053.02783-1.30909 0-3.06445-1.42041-4.31836a8.39676 8.39676 0 00-5.71142-1.69922 8.85732 8.85732 0 00-5.22315 1.23975 7.57351 7.57351 0 00-2.49365 4.3877l-4.9028-.66842a12.15247 12.15247 0 012.20068-5.08447 9.64589 9.64589 0 014.42969-2.981 19.75772 19.75772 0 016.71387-1.04443 17.77345 17.77345 0 016.15674.8916 8.12 8.12 0 013.48242 2.24218 7.89653 7.89653 0 011.56006 3.41309 28.26 28.26 0 01.25048 4.62451v6.686a71.01914 71.01914 0 00.32032 8.84521 11.15275 11.15275 0 001.26757 3.55176h-5.2373a10.62792 10.62792 0 01-1.00296-3.64933zm-.418-11.19922a36.77735 36.77735 0 01-8.19043 1.89453 18.941 18.941 0 00-4.37353 1.00293 4.35864 4.35864 0 00-1.978 1.62939 4.43324 4.43324 0 00.82178 5.7251 6.53153 6.53153 0 004.44336 1.3374 10.33918 10.33918 0 005.1538-1.26757 7.80631 7.80631 0 003.31543-3.46876 12.111 12.111 0 00.80762-5.01416zM585.29 89.79932l4.93164.64062a12.78971 12.78971 0 01-4.1377 7.98145 12.04861 12.04861 0 01-8.17578 2.8833 12.70277 12.70277 0 01-9.76465-3.96973q-3.69139-3.96972-3.6914-11.38037a20.5961 20.5961 0 011.58789-8.38525 11.0728 11.0728 0 014.8335-5.39063 14.33523 14.33523 0 017.062-1.79687 12.27681 12.27681 0 017.88379 2.4375 11.18245 11.18245 0 013.92871 6.92285l-4.876.75244a8.09638 8.09638 0 00-2.46484-4.48535 6.38158 6.38158 0 00-4.27637-1.5044 7.782 7.782 0 00-6.15674 2.71631q-2.36785 2.71581-2.36805 8.59424 0 5.96191 2.28466 8.66406a7.43214 7.43214 0 005.96192 2.70215 7.02662 7.02662 0 004.93066-1.81055 8.98543 8.98543 0 002.50676-5.57177zm9.22074 10.83691V59.79541h5.01465v14.65381a11.20534 11.20534 0 018.85938-4.06738 11.94265 11.94265 0 015.71093 1.29541 7.60647 7.60647 0 013.46875 3.57959 16.508 16.508 0 011.04493 6.63037v18.749h-5.01465v-18.749q0-3.761-1.62989-5.47412a6.06262 6.06262 0 00-4.61132-1.71338 8.13283 8.13283 0 00-4.19239 1.15625 6.53158 6.53158 0 00-2.7998 3.13427 14.40455 14.40455 0 00-.83594 5.46v16.186zm51.98535-9.52783l5.18164.64111a12.64275 12.64275 0 01-4.541 7.04785 13.65057 13.65057 0 01-8.46875 2.50733q-6.4922 0-10.29395-3.99756-3.80272-3.99756-3.80273-11.21289 0-7.46631 3.84473-11.58936a13.01173 13.01173 0 019.97265-4.123 12.65069 12.65069 0 019.69531 4.03955q3.76026 4.0393 3.76075 11.36621 0 .446-.02832 1.3374h-22.06349q.27833 4.875 2.75781 7.46582a8.20874 8.20874 0 006.18457 2.59082 7.66843 7.66843 0 004.708-1.44873 9.61835 9.61835 0 003.09278-4.62455zm-16.46484-8.10694h16.52051a10.02018 10.02018 0 00-1.89453-5.59912 7.6859 7.6859 0 00-6.21289-2.89746 7.9684 7.9684 0 00-5.8086 2.312 9.1527 9.1527 0 00-2.60449 6.18458z" class="cls-2"/></g></g><g id="text840" class="cls-3"><g class="cls-3"><path d="M1103.39258 120.42725v-10.66114h-3.98242v-1.42675h9.58105v1.42675h-3.999v10.66114zm7.19042 0v-12.08789h2.4082l2.86133 8.55908q.3955 1.19531.57715 1.78906.20508-.65991.64258-1.9375l2.89453-8.41064h2.15234v12.08789h-1.542v-10.11719l-3.5127 10.11719h-1.44336l-3.49609-10.29053v10.29053z" class="cls-2"/></g></g></g></g></svg>