<svg xmlns="http://www.w3.org/2000/svg" role="img" viewBox="-8.78 -20.78 1652.56 533.56"><title>Apache Toree logo</title><defs><style>.cls-1{fill:#e90000}</style></defs><path d="M23.39064 11.38384h505.696v470.08347h-505.696zM55.90189 448.42h440.28565V44.65241H55.90189z" class="cls-1"/><path d="M479.30019 74.30523c-9.93838 15.10508-18.24068 28.33374-27.30654 41.01655-1.94514 2.72119-6.49238 4.15569-10.11685 5.00337-15.34114 3.588-30.74045 6.97143-46.21507 9.92336-6.61568 1.262-9.73312 4.1299-8.79828 11.06414 1.745 12.94361 3.2806 25.91545 5.0425 39.98691h46.31692v21.52294h-51.3274c0 36.38938-.584 71.71018.16576 107.00268.73626 34.65437-3.96671 69.48666 4.42579 104.93037h-33.11957c4.67545-69.98023.79428-139.90587 2.436-210.74547h-158.5144c1.64264 70.01063-2.37616 139.91157 2.49552 210.70091h-33.79215c1.9376-7.62067 5.13552-14.42529 5.17318-21.24731.34172-61.91034.13736-123.82356.03565-185.73591-.0018-1.09154-.71145-2.18184-1.456-4.323h-49.9038v-21.503h45.011c2.2926-13.45435 4.45619-25.99812 6.55983-38.5519 1.371-8.18207-1.86932-12.42719-10.40169-13.34639-6.22885-.671-12.31943-3.802-18.47255-3.80474-34.54365-.01538-48.89029-24.33006-62.61043-51.68087 28.06349 6.32568 55.23473 12.54229 82.46087 18.50837a78.91876 78.91876 0 0016.33328 1.93192c50.86763.27433 101.77181-.76186 152.593.85537 37.15878 1.18245 72.929-4.46543 108.52061-13.73557 10.56193-2.75096 21.29982-4.82651 34.46482-7.77273zm-183.80178 58.96208v47.7234H355.324l6.99927-47.7234zm-92.98645.03275c0 9.18042-.97968 17.53753.28762 25.53868 1.165 7.3553 4.74907 14.32738 7.52972 22.212h56.19418v-47.75068z" class="cls-1"/><path d="M695.38745 16.75785l73.91992 188.4956h-19.272l-22.96777-58.60791h-85.8003l-22.7041 58.60791h-19.00778l75.76807-188.4956zM720.99536 131.334L684.56323 34.71l-37.75195 96.624zM870.15405 16.75785a69.88256 69.88256 0 0122.9668 3.56445 48.40326 48.40326 0 0117.6875 10.55957 46.74743 46.74743 0 0111.35351 17.02832 61.46219 61.46219 0 013.959 22.7041 61.45487 61.45487 0 01-3.959 22.7041 46.67793 46.67793 0 01-11.35351 17.02735 48.33831 48.33831 0 01-17.6875 10.56054 69.883 69.883 0 01-22.9668 3.56348h-65.7373v80.78369H786.4646V16.75785zm-3.96094 92.40039q18.74122 0 30.35938-9.50391 11.61621-9.50391 11.61719-29.04 0-19.53514-11.61719-29.04-11.61913-9.50389-30.35938-9.5039h-61.77636v77.08789zM1008.489 16.75785l73.91993 188.4956h-19.27149l-22.96875-58.60791H954.3689l-22.70411 58.60791H912.657l75.76758-188.4956zm25.6084 114.57617L997.66479 34.71l-37.752 96.624zM1229.58667 54.378a53.161 53.161 0 00-13.2002-14.38769 58.97748 58.97748 0 00-17.16015-8.84473 63.52724 63.52724 0 00-19.668-3.03515q-18.74853 0-32.208 7.12793a63.80732 63.80732 0 00-22.04394 18.876 81.28475 81.28475 0 00-12.67188 26.53125 114.19075 114.19075 0 000 60.58887 81.047 81.047 0 0012.67188 26.6626 63.76615 63.76615 0 0022.04394 18.876q13.46339 7.1294 32.208 7.12891a57.28839 57.28839 0 0023.75976-4.752 56.32751 56.32751 0 0018.21583-12.93653 66.38551 66.38551 0 0012.4082-19.13964 79.84521 79.84521 0 006.07226-23.62745h17.95215a101.73657 101.73657 0 01-8.18457 31.41553 77.11339 77.11339 0 01-16.36719 23.75977 69.535 69.535 0 01-23.6289 15.04785 82.91612 82.91612 0 01-30.22754 5.28027q-22.17627 0-38.94043-8.05273a80.78367 80.78367 0 01-27.85156-21.51563 91.46121 91.46121 0 01-16.63184-31.15185 123.69973 123.69973 0 01-5.54394-37.22364 123.73682 123.73682 0 015.54394-37.22363 92.97226 92.97226 0 0116.63184-31.28418 80.14234 80.14234 0 0127.85156-21.64844q16.7622-8.04931 38.94043-8.05175a88.42281 88.42281 0 0126.26758 3.96 76.15422 76.15422 0 0123.23242 11.748 68.57031 68.57031 0 0117.42383 19.13965 64.46856 64.46856 0 018.84375 26.13672h-17.95117a60.36393 60.36393 0 00-7.78806-19.40431zm73.78613-37.62015v81.83984h111.93653V16.75785h17.95117v188.4956h-17.95117v-91.34326H1303.3728v91.34326h-17.95215V16.75785zm298.05469 0v15.3125h-112.2002v68.11133h105.07227v15.3125h-105.07227v74.44775h113.52051v15.31152h-131.47265V16.75785zM605.03931 300.65384v-39.60058h175.5v39.60058H716.3396v174.59961h-47.1001V300.65384zm197.99804 23.84961a107.02119 107.02119 0 0120.70065-35.84961 94.66589 94.66589 0 0133.15039-24q19.64355-8.69823 44.25-8.70019 24.89648 0 44.39843 8.70019a95.01843 95.01843 0 0133 24 107.04687 107.04687 0 0120.70118 35.84961 133.88213 133.88213 0 017.19922 44.54981 129.39931 129.39931 0 01-7.19922 43.65039 104.25578 104.25578 0 01-20.70118 35.25 95.11366 95.11366 0 01-33 23.5498q-19.50293 8.5503-44.39843 8.54981-24.60352 0-44.25-8.54981a94.76939 94.76939 0 01-33.15039-23.5498 104.23089 104.23089 0 01-20.70069-35.25 129.36314 129.36314 0 01-7.20019-43.65039 133.84475 133.84475 0 017.20023-44.54981zm43.0503 70.79981a70.802 70.802 0 0010.05078 22.95019 51.41947 51.41947 0 0018 16.34961q11.09472 6.15234 27 6.15039 15.89648 0 27-6.15039a51.52131 51.52131 0 0018-16.34961 70.92439 70.92439 0 0010.04883-22.95019 109.04722 109.04722 0 003.15039-26.25 117.25917 117.25917 0 00-3.15039-27.29981 72.34523 72.34523 0 00-10.04883-23.5498 51.05025 51.05025 0 00-18-16.5q-11.10352-6.145-27-6.15039-15.90528 0-27 6.15039a50.95078 50.95078 0 00-18 16.5 72.2224 72.2224 0 00-10.05078 23.5498 117.25863 117.25863 0 00-3.15039 27.29981 109.04672 109.04672 0 003.15039 26.25zm307.95019-134.25a68.988 68.988 0 0125.9502 4.65039 59.82585 59.82585 0 0119.7998 12.75 55.41988 55.41988 0 0112.59961 18.75 60.1638 60.1638 0 014.35059 22.95019q0 18.89941-7.9502 32.69922-7.95264 13.80322-25.95019 21v.60059a36.38675 36.38675 0 0114.40039 7.34961 40.81174 40.81174 0 019.2998 11.70019 54.54406 54.54406 0 015.25 14.84961 129.991 129.991 0 012.25 16.2002q.29444 5.105.59961 12 .29591 6.90526 1.04981 14.10058a93.91958 93.91958 0 002.40039 13.64942 31.37766 31.37766 0 004.95019 10.95019h-47.10058a82.968 82.968 0 01-4.79981-24.2998q-.89942-14.09766-2.70019-27-2.40381-16.79736-10.19922-24.60059-7.80469-7.79736-25.5-7.7998h-47.10059v83.70019h-47.09961V261.05326zm-16.7998 96.90039q16.1997 0 24.2998-7.2002 8.09913-7.1997 8.09961-23.40039 0-15.59472-8.09961-22.64941-8.10059-7.04591-24.2998-7.04981h-51.60059v60.29981zm278.0957-96.90039v39.60058h-113.10059v45.89942H1406.033v36.60058h-103.79985v52.5h115.5v39.59961h-162.59961V261.05326zm194.39844 0v39.60058h-113.10059v45.89942h103.79981v36.60058h-103.79981v52.5h115.5v39.59961H1449.532V261.05326z"/></svg>