<svg xmlns="http://www.w3.org/2000/svg" role="img" viewBox="-7.45 -7.20 374.40 153.15"><title>Apache ORC logo</title><defs><style>.cls-1{fill:#62d05d}</style></defs><g id="layer1"><path id="path8099" d="M197.5343 50.77724a36.15743 36.15743 0 00-36.29444 36.01885v.00017a36.1574 36.1574 0 0036.29422 36.01907h.00022a36.15744 36.15744 0 0036.29443-36.01885v-.0002a36.15742 36.15742 0 00-36.29426-36.019h-.00017zm-.02636 6.57419a29.48633 29.48633 0 0129.59863 29.37271v.00034a29.48631 29.48631 0 01-29.59829 29.37305h-.00034a29.48633 29.48633 0 01-29.59864-29.3727v-.00035a29.48632 29.48632 0 0129.59829-29.373z" class="cls-1"/><g id="g8046"><path id="path8048" fill="#050704" d="M57.71526 138.10353c-27.8618-4.91959-49.10577-24.89982-56.219-52.87482-1.995-7.84579-1.995-23.65417 0-31.5C7.49282 30.1453 23.33714 12.25108 45.32882 4.22513A69.80753 69.80753 0 01132.44776 40.383c8.2245 17.57527 8.2245 40.61615 0 58.19146a70.6988 70.6988 0 01-46.5867 38.39916c-8.37294 2.0265-20.34583 2.50718-28.1458 1.12991zm19.5429-34.30416c7.90512-12.45288 7.81827-12.11351 4.74608-18.53978C79.99 81.04642 71.534 72.47873 69.38992 72.47873c-4.03308 0-14.949 13.75125-14.949 18.832 0 1.06451 1.3998 4.09717 3.11068 6.73925s4.90955 7.58818 7.10816 10.9913 4.30024 6.18746 4.67024 6.18746 3.93769-5.1432 7.92817-11.42933zM46.092 86.135a46.725 46.725 0 014.56706-9.766c3.28933-5.08923 11.34235-13.41639 15.87639-16.41686l2.85424-1.88883 3.67616 2.69857c8.96383 6.58 17.66952 18.16286 19.66726 26.16705.49079 1.96638 1.19636 3.76317 1.568 3.99284.62278.38487 20.41945-9.50979 21.93213-10.962.7823-.751-3.59733-10.31413-7.11653-15.53916-1.32128-1.9618-4.46073-6.08565-6.97653-9.16407-4.53949-5.55471-4.577-5.64005-4.94917-11.25l-.375-5.65286-6.18558-.21768-6.18543-.2177-7.14557-4.84471c-3.9301-2.66458-7.5898-4.84471-8.13269-4.84471s-3.99394 2.10937-7.66893 4.68752L54.816 37.60389l-6.75.375-6.75.375-.375 6.0353c-.37172 5.98253-.40857 6.07432-4.21654 10.5C29.289 63.53067 21.48214 77.05 22.45836 79.594c.347.9043 20.02475 11.46938 21.597 11.59559.2693.02267 1.18566-2.25284 2.03658-5.05435z"/><path id="path8056" fill="#62d05d" stroke="#62d05d" stroke-linecap="round" stroke-linejoin="round" stroke-width=".2" d="M67.31134 112.49089c-2.73084-3.71511-10.126-15.27489-11.45095-17.89958a10.50653 10.50653 0 01-1.13592-3.543c0-1.60244 2.40207-6.442 4.7275-9.52484 2.47231-3.27752 6.81208-7.58269 8.406-8.339 1.23763-.5873 1.486-.59547 2.54738-.08392 3.18074 1.53268 9.57924 8.66181 11.83251 13.18355 1.76309 3.53808 1.83879 5.37539.3422 8.30835-1.91106 3.74521-12.73849 20.45559-13.25416 20.45559a25.669 25.669 0 01-2.01456-2.557z"/><g id="text8060"><path id="path8158" d="M192.25173 37.95593l-2.08781-4.73061h-10.069l-2.06138 4.73061h-2.24638l8.29837-18.49955h2.19347l8.272 18.49955zM180.967 31.26967h8.35123l-4.202-9.51408z" class="cls-1"/><path id="path8160" d="M204.74552 23.97557a6.62741 6.62741 0 013.46205.89854 6.16717 6.16717 0 012.37852 2.51063 7.63194 7.63194 0 01.84569 3.64708 7.73131 7.73131 0 01-.84569 3.64707 6.08273 6.08273 0 01-2.32566 2.48421 6.78356 6.78356 0 01-3.46206.87211 6.48585 6.48585 0 01-3.25063-.79283 5.85073 5.85073 0 01-2.1671-2.27279v8.11336h-2.06138v-19.0281h2.06138v2.98633a5.66243 5.66243 0 012.1671-2.24635 6.21526 6.21526 0 013.19778-.81926zm-.37 12.23613a5.00556 5.00556 0 002.56351-.6607 4.77743 4.77743 0 001.77068-1.87641 5.63821 5.63821 0 00.63429-2.69559 5.5821 5.5821 0 00-.63427-2.66924 4.55289 4.55289 0 00-1.77068-1.87637 4.85645 4.85645 0 00-2.56351-.68717 4.906 4.906 0 00-2.58994.68717 4.59313 4.59313 0 00-1.77068 1.84994 6.0454 6.0454 0 000 5.3913 4.77736 4.77736 0 001.77068 1.87641 5.0572 5.0572 0 002.58993.66066z" class="cls-1"/><path id="path8162" d="M223.68856 37.95593v-2.16708a5.93377 5.93377 0 01-5.10059 2.24636 5.37354 5.37354 0 01-2.48423-.555 4.07241 4.07241 0 01-1.665-1.50638 4.023 4.023 0 01-.58141-2.14065 3.43913 3.43913 0 011.37424-2.88067 6.15787 6.15787 0 013.83205-1.11h4.572v-.87212a3.0491 3.0491 0 00-.9514-2.40492 3.97081 3.97081 0 00-2.77494-.87212 7.6615 7.6615 0 00-4.41345 1.61209l-.87212-1.45352a13.17687 13.17687 0 012.72208-1.42714 8.86137 8.86137 0 012.95993-.44927 5.59911 5.59911 0 013.93776 1.26853 4.57918 4.57918 0 011.42709 3.51493l.02643 9.19703zm-4.70418-1.63852a5.35025 5.35025 0 003.01279-.81926 3.92786 3.92786 0 001.66495-2.32564v-1.69138h-4.33418q-3.54134 0-3.54133 2.27279a2.30632 2.30632 0 00.87211 1.87641 3.6538 3.6538 0 002.32566.68712z" class="cls-1"/><path id="path8164" d="M239.99915 27.464a5.73592 5.73592 0 00-4.14915-1.63849 5.006 5.006 0 00-2.56352.66069 4.64887 4.64887 0 00-1.74425 1.85 5.4842 5.4842 0 00-.63427 2.6692 5.69556 5.69556 0 00.63427 2.7221 4.69428 4.69428 0 001.74425 1.82351 5.00562 5.00562 0 002.56352.6607 6.36681 6.36681 0 002.4578-.44928 4.93283 4.93283 0 001.85-1.34781l1.18925 1.21568a6.48545 6.48545 0 01-2.37852 1.77065 7.7908 7.7908 0 01-3.19778.63427 7.18353 7.18353 0 01-3.56776-.87211 6.52642 6.52642 0 01-2.45781-2.48421 7.59636 7.59636 0 01-.87211-3.67346 7.38837 7.38837 0 01.87211-3.62064 6.47548 6.47548 0 012.45781-2.51064 7.10854 7.10854 0 013.56776-.89854 7.84491 7.84491 0 013.01279.555 6.6601 6.6601 0 012.35209 1.50638z" class="cls-1"/><path id="path8166" d="M252.699 23.97557a5.14171 5.14171 0 013.8849 1.45357 5.41672 5.41672 0 011.40068 3.96416v8.5627h-2.06137v-8.03411a3.9284 3.9284 0 00-1.05712-2.90705 3.83813 3.83813 0 00-2.88065-1.05711 4.46876 4.46876 0 00-3.46205 1.45357 5.40976 5.40976 0 00-1.24212 3.72631v6.81845h-2.06137V18.3465h2.06137v8.827q1.37427-3.14491 5.41773-3.1978z" class="cls-1"/><path id="path8168" d="M268.08294 23.97557a5.93847 5.93847 0 014.96845 2.11426 8.171 8.171 0 011.53282 5.682h-11.364a5.17008 5.17008 0 001.63853 3.30351 4.89572 4.89572 0 003.4092 1.2421 6.27849 6.27849 0 002.37852-.44927 5.881 5.881 0 001.92924-1.32139l1.1364 1.18925a6.80331 6.80331 0 01-2.4578 1.7178 8.26032 8.26032 0 01-3.14492.58141 7.38835 7.38835 0 01-3.62062-.87211 6.33919 6.33919 0 01-2.43138-2.48421 7.59634 7.59634 0 01-.87212-3.67346 7.38841 7.38841 0 01.87212-3.62064 6.29275 6.29275 0 012.43138-2.51063 7.161 7.161 0 013.5942-.89855zm4.65132 6.1577a4.54979 4.54979 0 00-1.37426-3.22422 4.484 4.484 0 00-3.27706-1.21568 4.72877 4.72877 0 00-3.32992 1.21568 4.83048 4.83048 0 00-1.53282 3.22422z" class="cls-1"/></g><path id="path2429" d="M68.835 28.3177a34.87877 34.87877 0 00-3.97633 2.31408c-3.39033 2.20247-6.62531 4.6395-9.99689 6.86566-.27708.18725-.64474.07609-.96035.13893-4.18611.25557-8.375.46384-12.56176.70751a7.72081 7.72081 0 00-.1084 1.14935c-.20008 2.84531-.30821 5.70056-.60247 8.53634a7.50309 7.50309 0 01-1.32068 3.63452c-1.37565 1.92327-3.01982 3.63359-4.46937 5.4995a103.39623 103.39623 0 00-8.08621 11.80122 50.83513 50.83513 0 00-3.91274 7.912 6.24569 6.24569 0 00-.46166 2.4419c.08838.52291.65357.732 1.02579 1.02423 2.91605 1.85506 5.96437 3.49134 8.99872 5.14221 3.37007 1.79719 6.75314 3.57658 10.21633 5.189a6.40661 6.40661 0 001.38112.50585c.31559-.06585.3903-.4592.539-.69908 1.10477-2.51716 1.72671-5.21557 2.83955-7.72923a38.83171 38.83171 0 014.99256-8.75232 86.57927 86.57927 0 019.218-9.98913 40.48991 40.48991 0 015.61579-4.47817c.73161-.47865 1.44923-.98489 2.21048-1.41459a84.4736 84.4736 0 017.59625 5.898 65.51945 65.51945 0 0111.224 13.26474 38.56092 38.56092 0 014.02 8.10824 33.56822 33.56822 0 001.75839 5.19779c.12052.176.28293.50117.53575.33061a57.04269 57.04269 0 005.521-2.39649c4.65451-2.23775 9.27446-4.55407 13.79089-7.06015a17.95565 17.95565 0 002.45683-1.55638 9.29307 9.29307 0 00-.82827-3.24492 74.72523 74.72523 0 00-4.90885-9.92887 83.07812 83.07812 0 00-6.17646-8.65238c-1.6252-2.11059-3.37434-4.1236-4.96751-6.25884a9.09653 9.09653 0 01-1.87462-4.09044c-.31288-2.04312-.35525-4.12059-.51774-6.18149-.07463-1.05108-.12846-2.10464-.23179-3.15306a3.77243 3.77243 0 00-.84256-.07751c-3.84536-.15791-7.69275-.26242-11.53794-.42411-3.598-2.42266-7.1546-4.90867-10.81329-7.23951a38.32507 38.32507 0 00-4.119-2.33564.59774.59774 0 00-.66559.00056z" class="cls-1"/></g><path id="path8097" d="M247.36774 122.022c-.20694-.5395-.28822-15.99969-.18065-34.356l.19559-33.375h6.75l.1036 16.32538c5.19071-7.03143 12.60843-16.2788 25.658-16.99321l4.23839-.08221v6.68242a29.55217 29.55217 0 00-28.15021 19.22743c-1.4033 3.76913-1.09244 7.71511-1.44837 24.34017l-.40142 18.75-3.19436.231c-2.11634.15307-3.32133-.1-3.5706-.75z" class="cls-1"/><path id="path8099-3" d="M318.847 50.77722a36.15742 36.15742 0 00-36.29443 36.01885v.00019a36.1574 36.1574 0 0036.29421 36.01907h.00022a36.37248 36.37248 0 0029.9707-15.76465l-5.502-3.84521a29.6401 29.6401 0 01-54.0937-16.48066v-.00033a29.48633 29.48633 0 0129.5983-29.373h.00033a29.69653 29.69653 0 0122.16455 9.9624l5.31885-4.04442A36.412 36.412 0 00318.847 50.77722z" class="cls-1"/><g id="text8137"><path id="path8171" d="M348.7213 48.32031v5.89608h-1.17722v-5.89608h-2.115v-1.07744h5.40722v1.07744z" class="cls-1"/><path id="path8173" d="M353.28567 54.21639h-1.17721v-6.97354h1.83566l2.105 4.37967 2.105-4.37967h1.82568v6.97354h-1.17721v-5.44714l-2.43425 4.83857H355.71l-2.42427-4.83857z" class="cls-1"/></g></g></svg>