<svg xmlns="http://www.w3.org/2000/svg" role="img" xmlns:xlink="http://www.w3.org/1999/xlink" viewBox="-3.48 -3.48 181.09 30.59"><title>Apache Ranger logo</title><defs><linearGradient id="a"><stop offset="0" stop-color="#5890c5"/><stop offset=".159" stop-color="#004f9f"/><stop offset="1" stop-color="#accffc"/></linearGradient><linearGradient id="b" x1="-180.674" x2="-181.209" y1="85.991" y2="104.833" gradientUnits="userSpaceOnUse" xlink:href="#a"/></defs><path d="M-267.97917 98.18693h-6.15184l-.73205 1.69529q-.35961.84764-.35961 1.3999 0 .73205.59078 1.07882.34676.20548 1.70813.30823v.47519h-5.79223v-.47519q.93755-.14127 1.54117-.77059.60363-.64215 1.4898-2.63283l6.22889-13.89621h.24402l6.28027 14.2815q.89902 2.02921 1.47695 2.55578.43667.39813 1.23294.46235v.47519h-8.42506v-.47519h.34676q1.0146 0 1.42558-.28255.28255-.20549.28255-.59078 0-.23118-.0771-.47519-.0257-.11559-.38529-.96324zm-.43667-.95039l-2.5943-5.99771-2.67136 5.99771zm14.03749 4.68773v4.46939q0 .92471.14128 1.25863.15411.33392.46235.48803.30823.15412 1.20725.15412v.47519h-6.84537v-.47519q.79628-.0257 1.18157-.44951.25686-.29539.25686-1.52833V93.64048q0-1.27146-.29539-1.61823-.29539-.3596-1.14304-.41097v-.4752h5.03449v1.5797q.62931-.9247 1.28431-1.33568.93755-.60362 2.04205-.60362 1.32284 0 2.40166.8348 1.09166.8348 1.65676 2.31175.56509 1.46411.56509 3.1594 0 1.82372-.59078 3.3392-.57794 1.50264-1.69529 2.29891-1.1045.78343-2.46587.78343-.98892 0-1.8494-.43667-.64216-.33392-1.34853-1.14303zm0-1.29715q1.10451 1.56686 2.36313 1.56686.69353 0 1.14303-.73206.66785-1.07882.66785-4.10979 0-3.10802-.73206-4.25106-.48804-.75774-1.31-.75774-1.29715 0-2.13195 1.8751zm16.61895.7449q-2.19617 1.9393-3.94283 1.9393-1.02744 0-1.70813-.66784-.68068-.68068-.68068-1.69528 0-1.37421 1.18157-2.46588 1.18156-1.1045 5.15007-2.92822v-1.20725q0-1.36136-.15412-1.70813-.14127-.3596-.55225-.61647-.41098-.2697-.9247-.2697-.8348 0-1.37421.37245-.33392.23117-.33392.5394 0 .26971.35961.66785.48803.55225.48803 1.06597 0 .62932-.47519 1.07882-.46235.43667-1.22009.43667-.80912 0-1.36137-.48804-.53941-.48804-.53941-1.14303 0-.9247.73206-1.7595.73205-.84765 2.04205-1.29716 1.30999-.4495 2.72273-.4495 1.70813 0 2.69705.73205 1.00176.71921 1.29715 1.56686.1798.5394.1798 2.47871v4.66204q0 .82196.0642 1.04029.0642.20549.19264.30823.12843.10275.29539.10275.33392 0 .68069-.4752l.38529.30824q-.64215.95039-1.33568 1.38705-.68068.42382-1.55401.42382-1.02745 0-1.60539-.47519-.57794-.48804-.70637-1.46411zm0-.93755v-4.01988q-1.55401.91186-2.31175 1.95215-.50088.69352-.50088 1.3999 0 .59077.42382 1.04028.32107.34677.89901.34677.64216 0 1.4898-.71922zm16.32356-.38529l.39814.30823q-.84765 1.59255-2.11911 2.37597-1.25862.77059-2.68421.77059-2.40165 0-3.84008-1.81087-1.43842-1.81088-1.43842-4.35381 0-2.45303 1.30999-4.31528 1.5797-2.24753 4.35381-2.24753 1.86224 0 2.9539.93754 1.10451.93754 1.10451 2.09342 0 .73206-.44951 1.16872-.43666.43667-1.15588.43667-.75774 0-1.25862-.50088-.48804-.50088-.60362-1.7852-.0771-.8091-.37245-1.13018-.29539-.32108-.69353-.32108-.61647 0-1.05313.655-.66784.98892-.66784 3.03097 0 1.69528.53941 3.2493.53941 1.54117 1.47695 2.29891.70637.55225 1.6696.55225.62931 0 1.19441-.29539.5651-.29539 1.33568-1.11735zm6.7683-14.32004v6.94811q.98892-1.04029 1.81088-1.46411.82196-.43667 1.70813-.43667 1.13019 0 1.92646.64216.80912.64215 1.06598 1.51548.2697.86049.2697 2.91538v4.68773q0 1.37421.25686 1.72097.25686.33392 1.04029.42382v.46235h-6.08762v-.46235q.64216-.0899.96323-.51372.23118-.33392.23118-1.63107v-5.35557q0-1.4898-.11559-1.86225-.11559-.38529-.39813-.59078-.26971-.21833-.61647-.21833-.51373 0-1.00176.3596-.48804.34677-1.05314 1.23294v6.43439q0 1.28431.19265 1.60538.24402.43667 1.00176.53941v.46235h-6.08762v-.46235q.75774-.0771 1.07882-.48803.21833-.28255.21833-1.65676V88.33629q0-1.36137-.25686-1.69529-.24402-.33392-1.04029-.43666v-.4752zm19.90678 10.98084h-6.5885q.11559 2.38881 1.27147 3.77587.88617 1.06597 2.13195 1.06597.77059 0 1.3999-.42382.62931-.43667 1.34852-1.55401l.43666.28254q-.97607 1.99068-2.15763 2.82548-1.18157.82196-2.73558.82196-2.67136 0-4.04557-2.05489-1.10451-1.65676-1.10451-4.10979 0-3.00528 1.61823-4.77763 1.63107-1.78519 3.8144-1.78519 1.82372 0 3.1594 1.50264 1.34852 1.4898 1.45126 4.43087zm-3.15939-.86049q0-2.06773-.23118-2.83832-.21833-.77058-.69353-1.16872-.2697-.23117-.71921-.23117-.66784 0-1.09166.655-.75774 1.14303-.75774 3.1337v.44951zm17.32531-.64215v4.88037q0 1.41274.16696 1.78519.17981.3596.61647.57794.43667.21833 1.63107.21833v.47519h-8.9131v-.47519q1.20725 0 1.63107-.21833.43667-.23118.60363-.59078.1798-.35961.1798-1.77235V88.7858q0-1.41274-.1798-1.77235-.16696-.37245-.60363-.59078-.43666-.21833-1.63107-.21833v-.4752h8.09114q3.1594 0 4.62351.43667 1.46412.43666 2.38882 1.61823.9247 1.16872.9247 2.74842 0 1.92646-1.38705 3.18508-.88618.79627-2.47872 1.1944l4.18685 5.89498q.82195 1.14304 1.16872 1.42558.52656.39814 1.22009.43667v.47519h-5.484l-5.61242-7.93702zm0-8.54065v7.62879h.73206q1.78519 0 2.67136-.32108.88617-.33392 1.38705-1.18156.51373-.86049.51373-2.2347 0-1.99067-.93755-2.94106-.9247-.9504-2.99244-.9504zm19.53434 14.70533q-2.19617 1.9393-3.94283 1.9393-1.02745 0-1.70813-.66784-.68068-.68068-.68068-1.69528 0-1.37421 1.18156-2.46588 1.18156-1.1045 5.15008-2.92822v-1.20725q0-1.36136-.15412-1.70813-.14128-.3596-.55225-.61647-.41098-.2697-.92471-.2697-.8348 0-1.37421.37245-.33392.23117-.33392.5394 0 .26971.35961.66785.48804.55225.48804 1.06597 0 .62932-.4752 1.07882-.46235.43667-1.22009.43667-.80911 0-1.36137-.48804-.53941-.48804-.53941-1.14303 0-.9247.73206-1.7595.73206-.84765 2.04205-1.29716 1.30999-.4495 2.72273-.4495 1.70813 0 2.69705.73205 1.00176.71921 1.29715 1.56686.17981.5394.17981 2.47871v4.66204q0 .82196.0642 1.04029.0642.20549.19265.30823.12843.10275.29539.10275.33392 0 .68068-.4752l.38529.30824q-.64215.95039-1.33568 1.38705-.68068.42382-1.55401.42382-1.02745 0-1.60538-.47519-.57794-.48804-.70637-1.46411zm0-.93755v-4.01988q-1.55402.91186-2.31176 1.95215-.50088.69352-.50088 1.3999 0 .59077.42382 1.04028.32108.34677.89902.34677.64215 0 1.4898-.71922zm11.43034-9.29839v1.55401q.9247-1.00176 1.77234-1.45126.84765-.46235 1.82372-.46235 1.16872 0 1.93931.655.77058.64215 1.02744 1.60538.20549.73205.20549 2.81263v4.67488q0 1.38706.24402 1.73382.25686.33392 1.05313.42382v.46235h-6.07478v-.46235q.68069-.0899.97608-.56509.20549-.32108.20549-1.59255v-5.34272q0-1.47695-.11559-1.86225-.11559-.38529-.39814-.59078-.2697-.21833-.60362-.21833-1.10451 0-2.05489 1.5797v6.43438q0 1.34853.24402 1.70813.25686.35961.93754.44951v.46235h-6.07478v-.46235q.75774-.0771 1.07882-.48803.21833-.28255.21833-1.66961v-6.78114q0-1.36137-.25686-1.69529-.24402-.33392-1.04029-.43666v-.4752zm17.4409.14127h4.04557v1.41274h-2.29891q.62931.62932.87333 1.14304.30823.69353.30823 1.45127 0 1.2843-.71921 2.2347-.70637.93754-1.9393 1.47695-1.2201.52656-2.17048.52656-.0771 0-1.54117-.06422-.57794 0-.97608.3853-.38529.37245-.38529.89902 0 .46234.34676.75773.35961.2954 1.15588.2954l2.22185-.0257q2.69705 0 3.71165.59078 1.45127.82196 1.45127 2.53009 0 1.09165-.66784 1.97783-.66784.89901-1.7595 1.32283-1.65676.62932-3.8144.62932-1.61822 0-2.95391-.32107-1.33568-.30825-1.91361-.87334-.57794-.55224-.57794-1.16871 0-.59078.43666-1.06598.44951-.46235 1.65676-.78343-1.6696-.82195-1.6696-2.28606 0-.88618.68068-1.72098.68069-.8348 2.15764-1.45127-1.72097-.62931-2.49156-1.65676-.77058-1.02744-.77058-2.37597 0-1.7595 1.43842-3.0438 1.43843-1.29716 3.69881-1.29716 1.19441 0 2.46587.50088zm-2.22185.2954q-.7449 0-1.25862.75774-.51373.7449-.51373 3.10802 0 1.91362.50088 2.63284.51373.70636 1.20725.70636.77059 0 1.28431-.70636.51372-.70637.51372-2.74842 0-2.29892-.57793-3.13372-.41098-.61646-1.15588-.61646zm-.75774 13.34396q-1.31 0-1.73382.21833-.73206.39814-.73206 1.07882 0 .655.75775 1.18156.75774.53941 2.85116.53941 1.78519 0 2.79979-.47519 1.02745-.47519 1.02745-1.33568 0-.32108-.19265-.53941-.34676-.38529-1.05313-.52657-.69353-.14127-3.72449-.14127zm18.59679-8.20673h-6.58851q.11559 2.38881 1.27147 3.77587.88617 1.06597 2.13195 1.06597.77059 0 1.3999-.42382.62931-.43667 1.34852-1.55401l.43667.28254q-.97608 1.99068-2.15764 2.82548-1.18157.82196-2.73558.82196-2.67136 0-4.04557-2.05489-1.10451-1.65676-1.10451-4.10979 0-3.00528 1.61823-4.77763 1.63107-1.78519 3.8144-1.78519 1.82372 0 3.1594 1.50264 1.34852 1.4898 1.45127 4.43087zm-3.1594-.86049q0-2.06773-.23118-2.83832-.21833-.77058-.69353-1.16872-.2697-.23117-.71921-.23117-.66784 0-1.09166.655-.75774 1.14303-.75774 3.1337v.44951zm9.6323-4.7134v2.72273q1.19441-1.86225 2.09343-2.46588.89901-.61646 1.73381-.61646.71922 0 1.14304.4495.43666.43667.43666 1.24578 0 .86049-.42382 1.33568-.41098.4752-1.00176.4752-.68068 0-1.18156-.43667-.50088-.43666-.59079-.48804-.12843-.07706-.29539-.07706-.37245 0-.70637.28255-.52656.43667-.79627 1.24578-.41098 1.24578-.41098 2.74842v2.76127l.0129.7192q0 .73206.0899.93755.15412.34677.44951.51373.30823.1541 1.02744.19264v.46235h-6.48575v-.46235q.78342-.0642 1.05313-.42382.28255-.37245.28255-1.9393V93.679q0-1.02745-.10275-1.31-.12843-.3596-.37245-.52656-.24402-.16696-.86048-.23118v-.4752z" fill="url(#b)" stroke="#000" stroke-width=".2" transform="translate(278.816 -85.27)"/></svg>