<svg xmlns="http://www.w3.org/2000/svg" role="img" viewBox="-6.23 -6.23 324.22 98.22"><title>Apache Ambari logo</title><path fill="#ffcc23" d="M42.96332-.00026A42.96358 42.96358 0 00.00005 42.963a42.96358 42.96358 0 0016.95297 34.12815c-1.79658-1.54341-3.8251-3.56107-3.8251-3.85248 0-.69043 2.70008-5.64853 4.11758-7.5613 3.06206-4.13188 6.20264-6.86018 14.52057-12.6137 8.91793-6.16856 12.6938-9.50887 14.35106-12.69586.7396-1.42229.83339-1.83403.83354-3.66386.00015-1.87413-.06345-2.13741-.69867-2.89233-.98774-1.17386-.91675-2.07637.2589-3.29851.5266-.54741 1.17332-1.31137 1.43764-1.69809.26433-.38671 1.0973-.97614 1.85105-1.30948.75375-.33334 1.37046-.72002 1.37046-.85938 0-.13934.29636-2.67798.65836-5.64151l.65836-5.38831-.65836-.94981c-.362-.52236-.65836-1.20752-.65836-1.5229 0-1.574 1.51593-2.80312 3.04374-2.46755 1.72229.37827 2.40066 2.69741 1.20871 4.1336l-.59944.72192.70486 5.61671c.38757 3.08933.7145 5.64256.72657 5.67355.01207.031.66352.35985 1.44746.73071.89623.42398 1.60394.97155 1.90686 1.47536.26497.4407.88762 1.22519 1.38338 1.74356 1.08542 1.13494 1.11292 1.53317.19895 2.85203-.6336.91429-.70143 1.22685-.69866 3.20497.0025 1.81209.10837 2.39109.6103 3.34088 1.82463 3.45273 4.9576 6.27831 13.17335 11.87989 3.04982 2.07939 8.19634 5.78469 8.75295 6.29316a42.96358 42.96358 0 002.89802-15.37942A42.96358 42.96358 0 0042.96332-.00026zM51.4 36.62024c-.7103.0298-.9958.59201-.9958 1.88309 0 .73418.10932 1.66769.24287 2.07481.13356.40712.36768 1.22841.52039 1.82521.25856 1.01054.58017 1.34736.8542.894.06367-.10532.15677-1.62796.20671-3.38325.09016-3.16854.08665-3.19192-.49764-3.27474-.11923-.0169-.22926-.0234-.33073-.0191zm4.4328.007c-.11514-.002-.2349.002-.35346.0134l-.86248.0822-.07235 2.92075c-.11607 4.66643.19664 4.73088 1.45004.29869.5081-1.79671.73193-2.99911.58498-3.14606-.09812-.0981-.4013-.1623-.74673-.16898zm2.04949 5.59087c-.17012-.003-.43635.48273-.59118 1.07953-.15482.59681-.38818 1.4872-.51883 1.97868-.13065.49149-.23848.96221-.23926 1.04645-.0028.3058 1.54055 2.27273 1.78335 2.27273.13718 0 .53851-.57068.89194-1.26814.35343-.69744.64285-1.54613.64285-1.88567 0-.72646-1.52017-3.21537-1.96887-3.22358zm-9.12916.91726c-.19951-.004-.47726.31647-1.1193 1.16685-.58273.77183-1.05938 1.54048-1.05938 1.70791 0 .61983 1.2981 2.84065 1.66037 2.84065.20628 0 .6795-.46037 1.05161-1.02267.65739-.99337.66725-1.06589.35192-2.55179-.1785-.8411-.46399-1.72006-.63459-1.95336-.08544-.11685-.15994-.1857-.25063-.18759zm4.5961 2.91404c-.14525.004-.78144.88244-1.41334 1.95233-1.53625 2.60102-4.45563 5.67466-6.72466 7.07916-1.0055.62238-3.7814 2.18411-6.16861 3.47058-2.38722 1.28647-5.31712 2.98761-6.51072 3.78013-2.6097 1.73274-6.81015 5.84097-8.66614 8.47597-1.31192 1.8626-3.8442 6.6627-3.8442 7.2869 0 .17079-.16169.44434-.35916.60823-.10313.0856-.21893.11432-.37879.0749a42.96358 42.96358 0 005.9402 3.2706c.06777-.52054.86113-1.31671 1.85054-1.7818 1.04966-.49339 1.14172-.61076 1.06919-1.36116-.10387-1.0748-.8842-1.20531-1.93219-.32349-.93603.78764-1.1236.80177-1.73322.12815-.44273-.48921-.4467-.56869-.05994-1.20612.6422-1.0584 1.87928-1.58957 3.70106-1.58957 1.49043 0 1.60496-.0422 1.75545-.64182.20616-.8214-.22834-1.34279-1.6154-1.93735-.8517-.36508-1.08883-.60065-1.08883-1.08262 0-1.58291 1.93958-1.5098 3.73001.14056.62218.57349 1.20046.97356 1.28468.88935.52383-.52383-1.21644-3.23027-2.60295-4.04833-.9584-.56548-1.17376-1.43885-.49402-2.00298.3159-.26218.66596-.19463 1.93218.37362 1.73435.77834 6.69322 1.44271 7.17475.96118.69728-.69728-1.1028-2.09858-2.69595-2.09858-1.4492 0-2.13971-1.04614-1.2666-1.91926.53945-.53944 2.23564-.34846 4.00855.45165l1.24075.56017.6103-.70952c.33558-.39015.6103-.99501.6103-1.34462 0-.62193-1.00841-1.88929-1.50327-1.88929-.33627 0-.58802-.85333-.39791-1.34875.08425-.21956.32333-.46439.53123-.54415.63872-.2451 2.35333.82518 3.0794 1.92236.66222 1.00069.72843 1.03472 1.7234.87695 1.3866-.21986 1.8614-.69653 1.46504-1.47123-.16431-.32115-.44274-.78519-.61857-1.03094-.42759-.59761.02036-1.31413.88677-1.41852.45487-.0548.8056.12447 1.18287.60409.60192.76523 1.09025 2.27666.89762 2.77864-.1467.38229 1.60497 1.50587 2.06964 1.32757.56091-.21524 1.49-3.63869 1.32137-4.86895-.17338-1.26495.18384-1.7724 1.15083-1.63401.47656.0682.65698.36312.98857 1.61541.72146 2.72469 2.83768 6.24928 3.7543 6.25285.696.003 1.59576-.84013 1.59576-1.495 0-.26193-.22971-.76849-.51056-1.12552-.82085-1.04354-.51446-1.97249.6501-1.97249.72463 0 1.3169.69144 1.8898 2.20555.44355 1.1723.52641 1.24545 1.48931 1.31827.85153.0644 1.10836-.0363 1.55908-.60927.29678-.3773.5395-.88598.5395-1.13068 0-.61602.62281-1.07378 1.32602-.9741.82984.11764.94952 1.6891.2222 2.92179-.63625 1.07838-.6639 1.52249-.108 1.73581.58487.22443 1.51005-.44681 2.26601-1.64434.66993-1.06122 1.36091-1.29456 1.90222-.64234.47666.57436.06885 1.857-.94775 2.98224-.49655.54963-.82623 1.07548-.73277 1.16893.09346.0935 1.14605.0491 2.33887-.0987 1.55815-.19305 2.62642-.50079 3.79512-1.094 1.87506-.95173 2.54149-.94445 2.65462.03.06022.51873-.1248.83098-.79685 1.34358-1.2261.93519-2.57208 3.52236-2.39624 4.60592.02424.14935.03233.27589.02687.39843a42.96358 42.96358 0 005.21208-6.66213c-.22859-.0864-1.19016-.7852-2.24534-1.63708-1.12679-.90972-3.80061-2.68276-5.94227-3.94033-7.0562-4.14335-9.15076-5.49066-11.38639-7.32513-2.04592-1.67881-4.5116-4.43826-5.57588-6.23993-.2454-.41542-.56478-.75178-.71004-.74776zm8.44238 1.26917c-.24072 0-1.42419 2.57618-1.4273 3.10678-.003.51956 1.99642 2.24307 2.61018 2.25.2772.003.68474-.47338 1.0914-1.27589.50018-.98708.58914-1.3933.38758-1.76992-.27086-.5061-2.34969-2.31097-2.66186-2.31097zm-17.15244.58446c-.37812-.11971-2.6603 1.92355-2.6603 2.38176 0 .5107 1.23613 2.90629 1.49965 2.90629.11787 0 .73302-.39622 1.36736-.88057.63434-.48436 1.22655-1.07102 1.31568-1.30328.17372-.45271-1.05404-2.95594-1.52239-3.1042zm22.10511 3.56464c-.4697.0785-1.6184 2.40571-1.42989 2.89698.17716.46167 1.71495 1.40417 2.15078 1.31827.18559-.0366.64502-.61981 1.02112-1.29605l.68368-1.22938-1.02112-.87695c-.5617-.4823-1.19393-.84801-1.40457-.81285zm-26.85727.31988c-.51108-.009-2.24844 1.38653-2.24844 1.85621 0 .43681 1.16222 2.35542 1.42678 2.35542.07244 0 .58407-.25817 1.1374-.57413.57989-.33112 1.00707-.76806 1.0082-1.03146.0023-.51139-.88774-2.36765-1.2392-2.58486-.02228-.0138-.05067-.0206-.08474-.0212zm31.3092 2.89801c-.38478.0116-.6411.35499-1.02165 1.09089-.61649 1.19216-.46397 1.61539.8413 2.33319 1.32757.73006 1.60117.65584 2.25619-.61081.57527-1.11247.44945-1.4578-.82579-2.26653-.57384-.36392-.95078-.55578-1.25005-.54674zm-35.88773.34313c-.2678-.009-.61375.20057-1.25006.62167-1.06543.70507-1.21319 1.16817-.71933 2.25206.3658.80285.96006.82278 2.26807.076 1.14647-.65463 1.25675-1.17095.48215-2.25878-.32317-.45384-.51305-.68177-.78083-.69091zm40.5417 2.50269c-.13545 0-1.44642 2.1793-1.44642 2.4045 0 .28425 2.43595 1.92342 2.86753 1.9296.26296.004.6564-.41485.97255-1.03456.43242-.84761.47163-1.11214.21135-1.42575-.32598-.39278-2.38501-1.87379-2.605-1.87379zm-45.07528.51056c-.34463 0-2.5833 1.78819-2.5833 2.06344 0 .46419.8203 1.51102 1.1839 1.51102.19751 0 .81592-.30259 1.3746-.67231.55869-.36973 1.01596-.83509 1.01596-1.03404 0-.49379-.7292-1.86811-.99116-1.86811zm50.9788 3.27112c-.16257.12647-.34832.13146-.64027.10232-.62061-.0619-.80067.0676-1.1684.83871-.53285 1.11739-.54466 1.50639-.0584 1.90996.12735.10569.20462.18994.23358.28991a42.96358 42.96358 0 001.63349-3.1409zm-55.6245.30334c-.34807 0-2.53319 2.05091-2.53319 2.37764 0 .3562 1.03699 1.4521 1.37408 1.4521.14514 0 .69944-.42518 1.23197-.94516.5325-.51999.96841-1.12662.96841-1.34772 0-.49555-.70548-1.53686-1.04128-1.53686zm26.63557.89504l-1.20354 2.5523c-2.7733 5.88193-3.3975 8.31985-2.68459 10.47998.35712 1.0821 2.40493 3.43442 2.99 3.43442.30853 0 .35769-.5175.29197-3.06287-.06805-2.63575-.01696-3.12443.36484-3.50624.34316-.34316.54383-.38062.88573-.16537.59367.37378.75892 1.27404.79478 4.32997.01662 1.41595.10689 2.65092.2005 2.74453.44984.44985.93429.0453 1.5131-1.26348 2.32674-5.26117 1.67546-10.0721-1.9141-14.13971zm-6.70398 1.88516c-.91345-.0171-1.90851.16683-2.71353.55655-1.8298.88579-3.22386 2.85559-2.80086 3.9579.23052.60073.98728.33135 1.18907-.42323.6577-2.45931 3.41145-3.71429 5.72678-2.61018.72691.34664.96678.36842 1.22112.11007.2527-.25668.17183-.44674-.39998-.94206-.47764-.41374-1.30915-.63194-2.2226-.64905zm15.04766 1.37149c-.91867.0425-1.83993.29278-2.33164.69143-.86727.70313-.41687.87115.9927.37052 1.59005-.56474 2.81717-.35017 3.78685.66197.7117.74286 1.40095 1.00226 1.40095.5271 0-.55215-1.39014-1.8203-2.29133-2.09031-.45614-.13666-1.00633-.18622-1.55753-.16071zm-39.17849.24649c-.419-.0277-.90527.31753-1.49706 1.03973-.5072.61898-.92191 1.30489-.92191 1.52446 0 .3616 1.16163 1.43557 1.57406 1.45521.0934.005.60227-.58169 1.1312-1.30225.9115-1.2417.94206-1.34499.58756-1.97869-.26285-.46987-.54796-.71694-.87385-.73846zm23.72052 1.51723c-.7328.027-1.401.50702-1.79007 1.32291-.50935 1.0681-.32487 1.44649 1.19114 2.44171 1.4467.94971 1.77795.96551 1.77974.0858.00076-.38617.12045-1.13116.26613-1.65571.32367-1.16544.0013-1.9051-.93224-2.1394-.17337-.0435-.3456-.0615-.5147-.0553zm15.71325 1.12654c-.34634-.009-.73382.0525-1.08675.19999-.81702.34137-.9369.50199-.9369 1.25573 0 1.5033.3766 1.55774 1.9358.28009.62044-.50839 1.1281-1.02793 1.1281-1.15445 0-.35117-.463-.56572-1.04025-.58136zm10.28051.62115c-.74524-.004-1.98234.12977-3.28145.37621-4.13716.78482-7.01555 2.85253-8.55814 6.14898-.7323 1.56487-1.2981 4.70513-.848 4.70513.1087 0 1.44627-1.20652 2.97242-2.68097 1.52615-1.47446 2.9382-2.68046 3.13831-2.68046.42793 0 1.16634.68197 1.16634 1.07746 0 .1515-1.11904 1.33314-2.48719 2.62568-2.22119 2.09845-2.44856 2.39252-2.1332 2.77657a42.96358 42.96358 0 008.88008-5.7335c.1248-.60238.42874-1.7139.82837-2.98535.57189-1.81953 1.03973-3.38116 1.03973-3.47058 0-.10557-.27012-.15705-.71727-.15917zm-37.15897 1.3162c-.56.002-.67644.0946-.67644.31161 0 .71162 2.03157 5.52467 2.91455 6.905 1.56007 2.43878 3.47496 3.93843 5.69836 4.46226 1.38813.32703 2.05398.31958 2.26756-.0253.10695-.17372-.0045-.41947-.262-.57464-.24736-.14912-1.12965-.77073-1.96009-1.38131-1.62167-1.19236-1.96814-2.07319-1.01596-2.58279.66565-.35624.59463-.38181 1.81798.64027 1.3291 1.11042 2.94387 2.06665 3.87987 2.29702.6464.15909.70176.11302.70176-.58084 0-1.10027-.87562-3.46598-1.757-4.747-2.10007-3.05236-4.5897-4.2007-10.05106-4.63538-.7257-.0578-1.22152-.0899-1.55753-.0889zm-16.2698.26975c-.02852-.003-.05286-.001-.07287.005-.39349.11632-1.67701 2.73318-1.68723 3.4401-.005.36032.24727.70488.69401.94723.96231.52206 1.02835.50653 1.55856-.36535.25645-.42169.62275-1.24032.8139-1.81953.33903-1.02726.32987-1.06877-.37051-1.67121-.34555-.29722-.7363-.51716-.93586-.53589zm14.67403 4.79351c-1.12175 0-2.65022 2.524-2.6541 4.38319-.003 1.48327.36406 1.6358.56947.23668.11143-.75894.4437-1.76996.73846-2.24689.29477-.47694.80997-1.04697 1.14515-1.26659.69345-.45437.81197-1.10639.20102-1.10639zm1.3162 2.68097c-.41952.005-.91391.52139-1.16582 1.28468-.47937 1.45251-.22212 1.74641 1.34772 1.53995.73482-.0966 1.42045-.25885 1.52394-.3607.18736-.1844-.93455-2.05206-1.43144-2.3828-.08497-.0566-.17759-.0823-.2744-.0811zm19.2629 3.53622c-2.53214-.038-4.8589.78379-6.62646 2.37298-.98452.88517-1.39916 1.36543-1.22008 1.58388a42.96358 42.96358 0 003.30832-.36897c.2131-.14342.42482-.33076.68937-.59531 1.0356-1.03559 2.43236-1.55029 4.20542-1.55029.78173 0 1.73085.22342 2.31976.48162a42.96358 42.96358 0 002.04174-.67799l-.21756-.1478c-.55959-.37975-1.64414-.75202-2.7187-.93327-.60186-.10152-1.19746-.15608-1.7818-.16485zm-25.55244.45992c-.22927-.004-.47952.10274-.72915.32866-.06714.0608-.13038.10823-.19327.14883a42.96358 42.96358 0 001.88722.68885c-.0323-.0786-.06274-.16182-.0894-.25477-.16895-.58907-.49327-.90466-.8754-.91157zm8.477.86713c-1.80309.0101-2.51386.14057-3.92792.72089-.4192.17203-.74222.2964-1.01493.38653a42.96358 42.96358 0 0011.25771 1.60352c-.0025-.0385-.005-.077-.01137-.12195-.05842-.41047-.61405-.83039-2.09082-1.58027-1.89526-.96238-2.13811-1.02035-4.21266-1.00872z"/><path d="M106.13236 32.62257l-2.66704 9.5165q-.03036.09091.03036.18184.0606.09092.15153.09092h5.03102q.09097 0 .15153-.09092.0606-.09093.03036-.18185l-2.66705-9.5165q0-.0303-.03036-.0303t-.03036.0303zm-7.8496 18.36623q-.63645 0-1.00013-.51523-.36369-.51522-.15154-1.12137l6.27362-18.85115q.27276-.72737.87891-1.18198.63645-.45461 1.39413-.45461h1.09107q.78799 0 1.39413.4546.63646.45462.87891 1.182l6.27362 18.85114q.21215.60615-.15154 1.12137-.36368.51523-1.00014.51523h-1.09106q-.72738 0-1.36383-.45461-.60615-.48492-.8183-1.2123l-.96983-3.42472q-.03036-.24246-.33338-.24246h-6.84945q-.27277 0-.33339.24246l-.96983 3.42473q-.18184.72737-.81829 1.21229-.60615.4546-1.36384.4546zm23.71075-9.9408v4.1218q0 1.21229 1.03045 2.15181 1.06076.93953 2.45489.93953 1.60629 0 2.54582-1.30321.93952-1.30322.93952-3.84903 0-5.15225-3.48534-5.15225-1.39413 0-2.45489.93953-1.03045.93953-1.03045 2.15182zm-2.27305 16.6084q-.69707 0-1.2123-.51522-.51522-.51522-.51522-1.21229V36.95651q0-.69707.51522-1.21229.51523-.51523 1.2123-.51523h.36369q.72738 0 1.2426.51523.51522.48492.54553 1.2123v.21214q0 .0303.03036.0303.03025 0 .06061-.0303 1.09106-1.21229 2.18212-1.72751 1.09107-.51523 2.54582-.51523 2.84889 0 4.54609 2.15182 1.69721 2.12151 1.69721 6.03116 0 3.78841-1.78813 6.00084-1.75782 2.18213-4.45517 2.18213-2.63674 0-4.5764-1.90936-.03025-.0303-.06062-.0303-.03036 0-.03036.0303v6.54638q0 .69707-.51522 1.2123-.48491.51522-1.18199.51522zm23.92952-14.24443q-4.33395 0-4.33395 2.66704 0 .96984.54554 1.57598.57584.60615 1.45475.60615 1.72752 0 2.78827-1.06076 1.06076-1.09106 1.06076-2.97011v-.54553q0-.27277-.27277-.27277zm-3.42473 7.8799q-2.0609 0-3.42472-1.33352-1.33352-1.36383-1.33352-3.51565 0-2.63674 2.00028-4.09149 2.03059-1.45475 6.18269-1.45475h1.2426q.27277 0 .27277-.27276v-.24246q0-1.39414-.66677-1.93967-.66676-.57584-2.36397-.57584-1.75782 0-4.30364.63646-.54552.15153-1.00014-.18185-.4546-.36369-.4546-.93953 0-.69706.4243-1.2426.4243-.57583 1.09106-.69706 2.30335-.51523 4.33394-.51523 3.87934 0 5.42502 1.39414 1.54567 1.39414 1.54567 4.87948v8.06174q0 .69707-.51522 1.2123-.48492.51522-1.182.51522h-.33337q-.72738 0-1.2426-.48492-.51523-.51522-.54554-1.2426v-.4243q0-.0303-.03036-.0303-.0606 0-.0606.0303-1.84875 2.4549-5.06133 2.4549zm19.74664 0q-3.75812 0-5.7887-2.0609-2.0306-2.0912-2.0306-6.12207 0-3.97026 1.93967-6.06147 1.96998-2.1215 5.57656-2.1215 1.60628 0 3.09134.21214.69706.09093 1.15168.63646.45461.54553.45461 1.2729 0 .60615-.48493.96984-.4546.36369-1.06075.24246-1.18198-.24246-2.63673-.24246-1.90936 0-2.8489 1.2123-.93952 1.21228-.93952 3.87933 0 2.72765 1.00015 3.90964 1.00013 1.18198 3.09134 1.18198 1.48506 0 2.57612-.27276.57584-.15154 1.03045.21215.48492.36369.48492.93953 0 .72737-.45461 1.2729-.4243.54554-1.12138.66676-1.54567.27277-3.03072.27277zm10.48065-.30307q-.69708 0-1.2123-.51523-.48491-.51522-.48491-1.21229V29.98583q0-.69707.48491-1.2123.51522-.51522 1.2123-.51522h.60614q.69707 0 1.2123.51523.51522.51522.51522 1.21229v7.0313q0 .0303.03024.0303.03037 0 .06061-.0303 2.12151-2.0912 4.66733-2.0912 2.75797 0 4.00057 1.57597 1.24259 1.57598 1.24259 5.3947v7.36468q0 .69707-.51522 1.2123-.51522.51522-1.2123.51522h-.48491q-.69707 0-1.21229-.51523-.51523-.51522-.51523-1.21229v-6.75853q0-2.63674-.57584-3.48534-.54552-.8486-2.0912-.8486-1.2123 0-2.30336 1.09106-1.09106 1.09106-1.09106 2.33366v7.66775q0 .69707-.51522 1.2123-.51523.51522-1.2123.51522zm22.80814-13.2443q-1.54567 0-2.39427.87891-.8183.8486-1.03045 2.75797 0 .24246.24246.24246h5.94023q.24245 0 .24245-.24246-.12122-3.63688-3.00042-3.63688zm.75769 13.54737q-3.97025 0-6.12208-2.0609-2.12151-2.0912-2.12151-6.12207 0-4.00057 1.90936-6.09177 1.90936-2.0912 5.51594-2.0912 6.72822 0 6.91006 7.63744.03036.72737-.51523 1.21229-.54552.48491-1.2729.48491h-8.2739q-.27276 0-.21215.27277.21216 2.03059 1.33352 2.97012 1.15168.90922 3.3338.90922 1.36383 0 3.03074-.45461.54552-.15154 1.00014.18184.48491.33338.48491.90922 0 .69707-.4243 1.2426-.39399.51522-1.06075.63645-1.69721.3637-3.51565.3637zm25.8848-18.6693l-2.66704 9.5165q-.03036.09091.03036.18184.0606.09092.15153.09092h5.03102q.09097 0 .15153-.09092.0606-.09093.03036-.18185l-2.66704-9.5165q0-.0303-.03025-.0303-.03036 0-.03036.0303zm-7.84959 18.36623q-.63644 0-1.00013-.51523-.3637-.51522-.15155-1.12137l6.27362-18.85115q.27277-.72737.87891-1.18198.63646-.45461 1.39414-.45461h1.09106q.788 0 1.39413.4546.63646.45462.87893 1.182l6.2736 18.85114q.21215.60615-.15153 1.12137-.36369.51523-1.00014.51523h-1.09106q-.72738 0-1.36383-.45461-.60615-.48492-.8183-1.2123l-.96983-3.42472q-.03037-.24246-.3334-.24246h-6.84944q-.27277 0-.33338.24246l-.96984 3.42473q-.18184.72737-.81829 1.21229-.60615.4546-1.36384.4546zm21.40739 0q-.69707 0-1.2123-.51523-.48492-.51522-.48492-1.21229V36.95651q0-.69707.48492-1.21229.51523-.51523 1.2123-.51523h.4243q.69707 0 1.18199.48492.51522.48492.54552 1.18199v.21215q0 .0303.03036.0303.0606 0 .0606-.0303 1.78814-2.18213 4.03088-2.18213 1.36384 0 2.18213.51523.8486.51522 1.48506 1.81843 0 .0303.06061.0303.03036 0 .0606-.0303 1.90937-2.33366 4.30365-2.33366 2.5155 0 3.60656 1.36383 1.12137 1.36383 1.12137 4.69763v8.2739q0 .69707-.51522 1.2123-.48491.51522-1.18199.51522h-.51522q-.69706 0-1.2123-.51523-.51521-.51522-.51521-1.21229v-7.66775q0-2.21243-.4243-2.9095-.42431-.69707-1.6366-.69707-.788 0-1.57598.72738-.78799.72737-.78799 1.45475v9.0922q0 .69706-.51523 1.21228-.51522.51523-1.21229.51523h-.51523q-.69706 0-1.21228-.51523-.48492-.51522-.48492-1.21229v-7.66775q0-2.18213-.45461-2.8792-.4243-.72737-1.6366-.72737-.78798 0-1.57598.72738-.78799.72737-.78799 1.45475v9.0922q0 .69706-.51522 1.21228-.51523.51523-1.2123.51523zm27.25717-9.9408v4.1218q0 1.21229 1.03045 2.15181 1.03044.93953 2.45489.93953 1.60629 0 2.54582-1.2729.93953-1.30322.93953-3.87934 0-5.15225-3.48535-5.15225-1.42445 0-2.45489.93953-1.03045.93953-1.03045 2.15182zm-2.27305 9.9408q-.69707 0-1.21229-.51523-.51523-.51522-.51523-1.21229V29.98583q0-.69707.51523-1.2123.51522-.51522 1.21229-.51522h.60614q.69708 0 1.2123.51523.51523.51522.51523 1.21229v6.81915q0 .0303.03036.0303t.0606-.0303q1.96999-1.87906 4.54611-1.87906 2.8489 0 4.5461 2.15182 1.7275 2.12151 1.7275 6.03116 0 3.78841-1.78811 6.00084-1.78814 2.18213-4.48549 2.18213-2.75797 0-4.75825-2.24274-.03036-.0303-.0606-.0303-.03037 0-.03037.0303l-.03025.21215q-.03036.72738-.54553 1.2426-.48492.48492-1.21229.48492zm23.95556-7.57683q-4.33394 0-4.33394 2.66704 0 .96984.54553 1.57598.57584.60615 1.45475.60615 1.72752 0 2.78827-1.06076 1.06076-1.09106 1.06076-2.97011v-.54553q0-.27277-.27277-.27277zm-3.42472 7.8799q-2.0609 0-3.42473-1.33352-1.33352-1.36383-1.33352-3.51565 0-2.63674 2.00028-4.09149 2.03059-1.45475 6.18269-1.45475h1.2426q.27277 0 .27277-.27276v-.24246q0-1.39414-.66677-1.93967-.66676-.57584-2.36397-.57584-1.75782 0-4.30363.63646-.54553.15153-1.00015-.18185-.4546-.36369-.4546-.93953 0-.69706.4243-1.2426.4243-.57583 1.09106-.69706 2.30336-.51523 4.33394-.51523 3.87934 0 5.42502 1.39414 1.54567 1.39414 1.54567 4.87948v8.06174q0 .69707-.51522 1.2123-.48492.51522-1.182.51522h-.33337q-.72738 0-1.2426-.48492-.51522-.51522-.54554-1.2426v-.4243q0-.0303-.03036-.0303-.0606 0-.0606.0303-1.84875 2.4549-5.06132 2.4549zm14.7156-.30307q-.69707 0-1.21229-.51523-.51522-.51522-.51522-1.21229V36.95651q0-.69707.51522-1.21229.51522-.51523 1.2123-.51523h.60614q.69707 0 1.2123.51523.51522.51522.51522 1.2123v1.2729q0 .0303.03036.0303.0606 0 .0606-.0303.87892-1.2123 2.30336-1.96998 1.42445-.78799 3.12166-.96983.63645-.06062 1.09106.4243.45461.45461.45461 1.09107 0 .63645-.45461 1.09106-.45461.4546-1.09106.51522-5.3644.4243-5.3644 5.45532v5.3947q0 .69707-.51523 1.2123-.51522.51522-1.21228.51522zm15.58933 0q-.69707 0-1.2123-.51523-.51521-.51522-.51521-1.21229V36.95651q0-.69707.51522-1.21229.51522-.51523 1.2123-.51523h.78798q.69706 0 1.2123.51523.51522.51522.51522 1.2123v12.30476q0 .69707-.51522 1.2123-.51524.51522-1.2123.51522zm0-19.0936q-.69707 0-1.2123-.51523-.51521-.51523-.51521-1.2123v-.18184q0-.69707.51522-1.2123.51522-.51522 1.2123-.51522h.78798q.69706 0 1.2123.51523.51522.51522.51522 1.21229v.18184q0 .69707-.51522 1.2123-.51524.51522-1.2123.51522z" fill="#767876" stroke-width=".5"/></svg>