<svg xmlns="http://www.w3.org/2000/svg" role="img" viewBox="85.34 28.34 970.32 224.32"><title>Apiary logo</title><path fill="#ff9d16" d="M203.75542 61.47446h31.53615l.73728-.03723.7159-.10922.69105-.17777.6624-.24242.63043-.3037.59386-.36086.00065-.00036.00072-.0005.5544-.41451.51199-.46541.46533-.51214.41516-.55512.3613-.59443.30362-.63036.24242-.66254.17777-.69099.10922-.71604.03708-.73584.00015-.00136-.00015-.00152-.03708-.73584-.10922-.7159-.17777-.69105-.24242-.66254-.30363-.63036-.3613-.5945-.41515-.55513-.46447-.5112-.00072-.00086-.00079-.00065-.51134-.46476-.5544-.41457-.00072-.0005-.00065-.00037-.59386-.36079-.63043-.30377-.6624-.24242-.69106-.1777-.7159-.10922-.73583-.03715-.00144-.00008h-32.1606v.00137H171.5946l-1.45325.14652-1.35353.4202-1.22479.66477-1.06726.88056-.88041 1.06711-.66485 1.22487-.42012 1.35352-.14645 1.45325.14645 1.45325.42012 1.35353.66485 1.22479.88041 1.06711 1.06726.88056 1.2248.66485 1.35352.4202 1.45325.14637zm-24.3748 19.83888l3.4974-4.239 4.23878-3.49733 4.86547-2.64067 5.37624-1.66904 5.77231-.5819 5.77224.5819 5.37653 1.66904 4.86519 2.64067 4.23878 3.49733 3.49762 4.239.9735 1.79366h26.87624l.73728-.0373.71597-.10922.69091-.17777.66247-.24235.63036-.3037.59465-.3613.55498-.41493.5122-.46548.46534-.51206.41436-.55426.00072-.00093.00065-.00101.3605-.5935.30363-.63021.24242-.66255.17777-.69105.10922-.71604.0373-.73721-.0373-.73728-.10922-.71597-.17777-.69091-.24242-.66262-.30363-.63043-.3605-.59328-.00065-.00122-.00072-.00087-.41436-.55411-.46534-.51214-.5122-.4654-.55498-.41516-.59465-.36115-.62971-.3034-.00058-.00022-.00043-.00015-.66211-.24242-.69091-.17762-.71597-.1093-.73591-.03708-.00137-.00007H153.78066v.001h-1.6254l-1.45325.14653-1.35353.42019-1.22486.66492-1.06719.88049-.88049 1.06718-.66477 1.22486-.4202 1.35346-.14644 1.45318.14645 1.45324.42019 1.35353.66477 1.22487.8805 1.06718 1.06718.88049 1.22486.66477 1.35353.4202 1.45325.14644h26.25127zm-3.8006 23.4265l-.50918-1.64017-.58176-5.77253.58176-5.7723.38405-1.23704h-9.11139v.00086h-26.75095l-1.45325.14652-1.35352.4202-1.22487.66477-1.06718.88049-.88049 1.06718-.66478 1.22487-.42019 1.35353-.14645 1.45317.14645 1.45325.4202 1.35346.66477 1.22486.88049 1.06718 1.06718.8805 1.22487.66491 1.35352.4202 1.45325.14637zm91.71353-.00037l.73728-.03722.71597-.1093.69106-.17755.66247-.2425.63043-.3037.59443-.36114.55505-.41516.51206-.46533.46541-.51214.41508-.55512.36115-.59457.3037-.6303.24257-.66254.17762-.69105.1093-.71597.03708-.73577.00007-.00144-.00007-.00151-.03708-.73584-.1093-.7159-.17762-.69105-.24257-.66247-.3037-.63036-.36115-.59458-.41508-.55498-.4654-.5122-.51207-.46534-.55433-.41458-.00065-.0005-.00072-.00043-.59378-.3608-.63043-.30362-.66247-.24257-.69106-.17762-.71597-.1093-.73728-.03722H230.8067l.38405 1.23703.58204 5.77231-.58204 5.77253-.50904 1.6398zm-64.16438 21.22942l-5.77066-.58162-5.37624-1.6691-4.86547-2.6406-4.23878-3.4974-3.4974-4.23907-.97373-1.79388h-3.0713v.00064H130.6004l-1.45325.14645-1.35353.42012-1.22479.66492-1.06711.88049-.88056 1.06718-.66485 1.2248-.42019 1.3536-.14652 1.45324.14652 1.4531.4202 1.35354.66484 1.22493.88056 1.06711 1.06711.8805 1.2248.66477 1.35352.42019 1.45325.14652zm73.89367-.03715l.71597-.1093.69098-.17762.66255-.24264.63043-.30363.59393-.36079.00057-.00029.0008-.00065.55432-.4145.51192-.4654.46548-.512.41515-.5552.36123-.59457.30362-.63021.24243-.66262.1777-.69106.10922-.71582.03708-.73584.00028-.00151-.00028-.00137-.03708-.73591-.10923-.71583-.1777-.6912-.24242-.66254-.30362-.63029-.36123-.5945-.41515-.55512-.46548-.51214-.51192-.46533-.55433-.4145-.00079-.00066-.00057-.00028-.59393-.3608-.63043-.3037-.66255-.24249-.69098-.1777-.71597-.10922-.73706-.0373h-48.43102l-.97358 1.79389-3.49762 4.23907-4.23878 3.4974-4.86519 2.6406-5.37653 1.6691-5.77065.58162h73.15337zm-73.26742 22.07275h79.74116l.73706-.03715.71582-.1093h.00015l.00029-.00007.6907-.17755.66246-.24257.6303-.3037.59464-.36115.5552-.41508.51198-.4654.46534-.51207.41515-.5552.36108-.5945.30305-.62906.00065-.00123.00043-.0013.242-.66117.17776-.69105.10922-.7159.03723-.73728-.03723-.73728-.10922-.71597-.17777-.69105-.24177-.66075-.00065-.00187-.00087-.00173-.30283-.62856-.36108-.59457-.41515-.55505-.46534-.51207-.51199-.4654-.55519-.41516-.59465-.36115-.63029-.30355-.66247-.24264-.6907-.17755-.00028-.00007h-.00015l-.71582-.1093-.7357-.03708-.00144-.00014H182.54624v.00028H123.3896l-1.4531.14652-1.35353.42012-1.22494.66492-1.06711.8805-.88049 1.06718-.66477 1.22479-.4202 1.3536-.14652 1.4531.14652 1.45325.4202 1.35353.66477 1.22486.88049 1.06719 1.06711.88048 1.22494.66478 1.35353.4202 1.4531.14644zm85.92164 21.59539l.7159-.1093.69098-.1777.66254-.24249.63043-.30348.5945-.3613.55513-.41515.51199-.4654.4654-.512.41516-.55504.36115-.59458.3037-.63036.2425-.66254.17754-.69113.1093-.71583.03715-.73735-.03715-.7372-.1093-.71605-.17755-.69105-.2425-.66247-.30369-.63036-.36115-.59444-.41515-.55519-.46541-.51213-.512-.46534-.55432-.4145-.0008-.00065-.00057-.00029-.59393-.36086-.63043-.30363-.66254-.24257-.69099-.17762-.7159-.10915-.73713-.03737H117.94626l-1.45325.14652-1.3536.4202-1.22472.66477-1.06719.88049-.88063 1.06725-.66477 1.2248-.42005 1.35352-.1466 1.45318.1466 1.45325.42005 1.35352.66477 1.2248.88063 1.06725 1.06719.88042 1.22472.66492 1.3536.42019 1.45325.14645h61.3985l.66017-1.21637 3.49769-4.23878 4.23878-3.49762 4.86511-2.64067 5.37653-1.66882 5.77224-.58205 5.77238.58205 5.37617 1.66882 4.86547 2.64067 4.23879 3.49762 3.4974 4.23878.66038 1.21658h60.77405zm-114.34155 17.0378l-.22212-2.20314.58205-5.7723.56326-1.8147h-61.63287l-1.45325.1466-1.35352.42012-1.2248.66484-1.06725.88056-.88049 1.06712-.66478 1.22486-.42019 1.35346-.14645 1.45317.14645 1.45332.4202 1.35353.66477 1.22486.88049 1.06712 1.06725.88056 1.2248.66477 1.35352.4202 1.45325.14644h60.70968zm117.66197 4.59467l.71597-.10922.69105-.17777.6624-.2425.63036-.30348.5945-.3613.5552-.41507.51192-.46541.46548-.512.415-.55518.36123-.59465.30377-.63022.24235-.66247.17784-.69113.10908-.7159.03723-.73735-.03723-.7372-.10908-.71604-.17784-.69106-.24235-.66247-.30377-.63029-.36122-.5945-.41501-.55512-.46548-.512-.51192-.46555-.5552-.415-.5945-.3613-.63036-.30363-.6624-.24235-.69105-.17784-.71597-.10915-.73714-.03737h-61.00826l.56318 1.8144.58176 5.77231v6.83504h59.86332zm-117.66197 7.4214H112.1319l-1.45318.1466-1.35353.42011-1.22486.66492-1.06719.8805-.88041 1.0671-.66485 1.22487-.4202 1.3536-.14651 1.4531.14652 1.45325.42019 1.35353.66485 1.22486.88041 1.06719 1.06719.88048 1.22486.66478 1.35353.4202 1.45318.14644h63.20361zM295.49134 213.039l.71604-.10944.69099-.17762.66197-.24243.00057-.00007.00058-.00036.62964-.30326.59457-.36115.55512-.41516.512-.4654.46533-.51207.41523-.55519.36122-.5945.30298-.62914.00064-.00122.00044-.0013.24199-.6611.17762-.69106.10937-.71604.03715-.7372-.03715-.73736-.10937-.7159-.17762-.69105-.242-.66125-.00043-.0013-.00064-.001-.30298-.62928-.36122-.59458-.41523-.55505-.46533-.51213-.512-.46534-.55512-.41515-.59457-.36115-.62964-.30341-.00058-.00022-.00057-.00007-.66197-.2425-.69099-.17762-.71604-.1093-.7372-.03722h-62.35712v14.42167h62.35712zm-120.15583 6.8665h-63.91605l-1.45325.14645-1.35353.42019-1.22486.66492-1.06719.88041-.88049 1.06726-.66477 1.2248-.4202 1.35352-.14644 1.45325.14645 1.45317.42019 1.35353.66477 1.2248.8805 1.06725 1.06718.88049 1.22486.66477 1.35353.4202 1.45325.14652h63.91605zm120.86842 14.38538l.7159-.10937.69105-.17762.66247-.24257.63029-.30362.59465-.36115.55497-.41516.51214-.4654.4654-.512.41509-.55512.36115-.5945.3037-.63036.2425-.66254.17762-.69099.10922-.71597.0373-.73735-.0373-.7372-.10922-.71597-.17763-.69113-.2425-.66247-.30369-.6303-.36115-.5945-.41508-.55512-.46541-.51199-.51214-.46555-.55497-.415-.59465-.36123-.63029-.3037-.66247-.24235-.69106-.17784-.7159-.10915-.73576-.03723-.00158-.00007h-63.06956v14.42167h63.06956z"/><path fill="#ff9d16" d="M629.13047 61.47446h31.53607l.73736-.03723.71582-.10922.69113-.17777.66247-.24242.63029-.3037.59393-.36086.00064-.00036.0008-.0005.55425-.41451.51207-.46541.4654-.51214.41508-.55512.36123-.59443.30377-.63036.24235-.66254.17777-.69099.10922-.71604.03715-.73584.00007-.00136-.00007-.00152-.03715-.73584-.10922-.7159-.17777-.69105-.24235-.66254-.30377-.63036-.36123-.5945-.41508-.55513-.46454-.5112-.00072-.00086-.00072-.00065-.51149-.46476-.55425-.41457-.0008-.0005-.00064-.00037-.59393-.36079-.63029-.30377-.66247-.24242-.69113-.1777-.71582-.10922-.73577-.03715-.00159-.00008h-32.16052v.00137h-31.53636l-1.45325.14652-1.35353.4202-1.22486.66477-1.06712.88056-.88056 1.06711-.66477 1.22487-.4202 1.35352-.14644 1.45325.14645 1.45325.42019 1.35353.66477 1.22479.88056 1.06711 1.06712.88056 1.22486.66485 1.35353.4202 1.45325.14637zm-24.3748 19.83888l3.49725-4.239 4.23907-3.49733 4.86519-2.64089 5.37624-1.66882 5.7726-.5819 5.77224.5819 5.37624 1.66882 4.86525 2.64089 4.239 3.49733 3.4974 4.239.97344 1.79366h26.87638l.7372-.0373.71605-.10922.69098-.17777.6624-.24235.63036-.3037.59458-.3613.55504-.41493.51221-.46548.46541-.51206.41429-.55426.00065-.00093.00072-.00101.36057-.5935.30363-.63021.24235-.66255.17784-.69105.10915-.71604.03737-.73721-.03737-.73728-.10915-.71597-.17784-.69091-.24235-.66262-.30363-.63043-.36057-.59328-.00072-.00122-.00065-.00087-.41429-.55411-.4654-.51214-.51222-.4654-.55504-.41516-.59458-.36115-.62971-.3034-.0005-.00022-.00044-.00015-.66211-.24242-.69098-.17762-.71604-.1093-.73577-.03708-.00144-.00007h-100.9502v.001h-1.62554l-1.45325.14653-1.35345.42019-1.22487.66492-1.0671.88049-.88057 1.06718-.66485 1.22486-.42012 1.35346-.14644 1.45318.14644 1.45324.42012 1.35353.66485 1.22487.88056 1.06718 1.06711.88049 1.22487.66477 1.35345.4202 1.45325.14644h26.25142zm-3.8006 23.4265l-.50925-1.64046-.58184-5.77224.58184-5.7723.38404-1.23704h-9.11138v.00086h-26.75095l-1.45325.14652-1.35353.4202-1.22479.66477-1.06711.88049-.88056 1.06718-.66485 1.22487-.4202 1.35353-.14644 1.45317.14645 1.45325.42019 1.35346.66485 1.22486.88056 1.06718 1.06711.8805 1.2248.66491 1.35352.4202 1.45325.14637zm91.71353-.00037l.7372-.03722.71605-.1093.69105-.17755.66248-.2425.63036-.3037.59443-.36114.55512-.41516.51199-.46533.46555-.51214.41494-.55512.3613-.59457.30369-.6303.24242-.66254.17777-.69105.10915-.71597.03716-.73577.00014-.00144-.00014-.00151-.03716-.73584-.10915-.7159-.17777-.69105-.24242-.66247-.3037-.63036-.3613-.59458-.41493-.55498-.46555-.5122-.512-.46534-.55432-.41458-.00072-.0005-.00058-.00043-.59392-.3608-.63036-.30362-.66248-.24257-.69105-.17762-.71604-.1093-.73721-.03722h-36.48672l.38405 1.23703.58176 5.77231-.58176 5.77224-.50919 1.6401zm-64.16424 21.22942l-5.77094-.58183-5.37624-1.6689-4.86519-2.6406-4.23907-3.49768-3.49726-4.23878-.97365-1.79388h-3.07138v.00064h-44.73518l-1.45318.14645-1.35353.42012-1.22493.66492-1.06711.88049-.8805 1.06718-.66484 1.2248-.4202 1.3536-.14651 1.45324.14652 1.4531.42019 1.35354.66485 1.22493.88049 1.06711 1.0671.8805 1.22494.66477 1.35353.42019 1.45318.14652zm73.8936-.03715l.7159-.1093.69105-.17762.66247-.24264.6305-.30363.5938-.36079.00071-.00029.00065-.00065.5544-.4145.512-.4654.4654-.512.41515-.5552.36115-.59457.30363-.63021.2425-.66262.17769-.69106.10915-.71582.03723-.73584.00014-.00151-.00014-.00137-.03723-.73591-.10915-.71583-.1777-.6912-.2425-.66254-.30362-.63029-.36115-.5945-.41515-.55512-.4654-.51214-.512-.46533-.5544-.4145-.00065-.00066-.00072-.00028-.59378-.3608-.6305-.3037-.66248-.24249-.69105-.1777-.7159-.10922-.73706-.0373h-48.4311l-.97365 1.79389-3.4974 4.23878-4.239 3.49769-4.86525 2.6406-5.37624 1.66889-5.77066.58183h73.1533zm-73.26749 22.07275h79.74108l.73707-.03715.7159-.1093h.00014l.00036-.00007.69062-.17755.66254-.24257.63022-.3037.59458-.36115.55519-.41508.51206-.4654.46541-.51207.41508-.5552.36115-.5945.3029-.62906.0008-.00123.00043-.0013.24192-.66117.17784-.69105.10915-.7159.03723-.73728-.03723-.73728-.10915-.71597-.17784-.69105-.24185-.66075-.0005-.00187-.00094-.00173-.30276-.62856-.36115-.59457-.41508-.55505-.4654-.51207-.51207-.4654-.5552-.41516-.59457-.36115-.63022-.30355-.66254-.24264-.69062-.17755-.00036-.00007h-.00015l-.7159-.1093-.73555-.03708-.00158-.00014h-100.9502v.00028h-59.15663l-1.45318.14652-1.35353.42012-1.22493.66492-1.06704.8805-.88056 1.06718-.66478 1.22479-.42019 1.3536-.14652 1.4531.14652 1.45325.4202 1.35353.66477 1.22486.88056 1.06719 1.06704.88048 1.22493.66478 1.35353.4202 1.45318.14644zm85.9217 21.59539l.71583-.1093.69106-.1777.66247-.24249.63036-.30348.5945-.3613.5552-.41515.51206-.4654.46533-.512.41516-.55504.36115-.59458.30362-.63036.24257-.66254.17755-.69113.10923-.71583.0373-.73735-.0373-.7372-.10923-.71605-.17755-.69105-.24257-.66247-.30362-.63036-.36115-.59444-.41516-.55519-.46533-.51213-.51207-.46534-.5544-.4145-.00079-.00065-.00057-.00029-.59393-.36086-.63036-.30363-.66247-.24257-.69106-.17762-.71582-.10915-.73721-.03737H543.3213l-1.45324.14652-1.35353.4202-1.22487.66477-1.06718.88049-.88049 1.06725-.66485 1.2248-.42012 1.35352-.14652 1.45318.14652 1.45325.42012 1.35352.66485 1.2248.88049 1.06725 1.06718.88042 1.22487.66492 1.35353.42019 1.45324.14645h61.39858l.66024-1.21637 3.4974-4.23878 4.23907-3.49762 4.86511-2.64067 5.37624-1.66882 5.77232-.58205 5.7723.58205 5.37646 1.66882 4.86519 2.64067 4.23878 3.49762 3.49769 4.23878.66024 1.21658h60.77405zm-114.34175 17.0362l-.22184-2.20154.58184-5.7723.56318-1.8147h-61.63272l-1.45325.1466-1.35353.42012-1.22486.66484-1.06711.88056-.88056 1.06712-.66478 1.22486-.42012 1.35346-.14652 1.45317.14652 1.45332.42012 1.35353.66478 1.22486.88056 1.06712 1.06711.88056 1.22486.66477 1.35353.4202 1.45325.14644h60.70954zm117.6621 4.59627l.71598-.10922.69098-.17777.66254-.2425.63022-.30348.59465-.3613.55505-.41507.51199-.46541.46548-.512.41508-.55518.36122-.59465.30363-.63022.2425-.66247.17769-.69113.10915-.7159.03722-.73735-.03722-.7372-.10915-.71604-.1777-.69106-.2425-.66247-.30362-.63029-.36122-.5945-.41508-.55512-.46548-.512-.512-.46555-.55504-.415-.59465-.3613-.63022-.30363-.66254-.24235-.69098-.17784-.71597-.10915-.73721-.03737h-61.00834l.56319 1.8144.58205 5.77231v6.83504h59.8631zm-117.6621 7.4214h-63.2034l-1.45318.1466-1.3536.42011-1.22486.66492-1.06719.8805-.88041 1.0671-.66485 1.22487-.4202 1.3536-.14651 1.4531.14652 1.45325.42019 1.35353.66485 1.22486.88041 1.06719 1.06719.88048 1.22486.66478 1.3536.4202 1.45318.14644h63.2034zM720.86646 213.039l.7159-.10944.69106-.17762.66196-.24243.0005-.00007.00066-.00036.62956-.30326.59465-.36115.55505-.41516.51206-.4654.46541-.51207.41515-.55519.36116-.5945.30304-.62914.00058-.00122.00043-.0013.24207-.6611.1777-.69106.10929-.71604.03715-.7372-.03715-.73736-.1093-.7159-.1777-.69105-.24206-.66125-.00043-.0013-.00058-.001-.30304-.62928-.36116-.59458-.41515-.55505-.4654-.51213-.51207-.46534-.55505-.41515-.59465-.36115-.62956-.30341-.00065-.00022-.0005-.00007-.66197-.2425-.69106-.17762-.7159-.1093-.73735-.03722h-62.3569v14.42167h62.3569zm-120.15604 6.8665h-63.91599l-1.45325.14645-1.35352.42019-1.2248.66492-1.0671.88041-.88057 1.06726-.66485 1.2248-.42019 1.35352-.14637 1.45325.14637 1.45317.4202 1.35353.66484 1.2248.88056 1.06725 1.06711.88049 1.2248.66477 1.35352.4202 1.45325.14652h63.91599zm120.86848 14.38538l.71604-.10937.69106-.17762.66247-.24257.63022-.30362.59457-.36115.55505-.41516.51207-.4654.4654-.512.41516-.55512.36122-.5945.30362-.63036.24243-.66254.1777-.69099.10929-.71597.03715-.73735-.03715-.7372-.1093-.71597-.1777-.69113-.24242-.66247-.30362-.6303-.36122-.5945-.41516-.55512-.4654-.51199-.51207-.46555-.55505-.415-.59457-.36123-.63022-.3037-.66247-.24235-.69106-.17784-.71604-.10915-.73576-.03723-.00159-.00007h-63.06933v14.42167h63.06933z"/><path fill="#191919" d="M500.5724 47.26842h-18.7581v187.0596h18.7581zM382.0318 65.50545l5.3134.04579 5.0019.17402 2.38616.15221 2.31048.20499 2.23574.26445 2.16173.33091 2.08843.40414 2.01593.48427 1.94414.57132 1.87323.66521 1.80288.76594 1.73354.87357 1.66486.98799 1.59681 1.10944 1.29089 1.07079 1.2325 1.1569 1.17064 1.23789 1.10542 1.3135 1.03673 1.3837.96458 1.44856.88899 1.50804.81 1.56226.72763 1.61121.64173 1.65456.55239 1.69287.45965 1.72562.36352 1.75306.26388 1.77523.16092 1.792.05436 1.80346-.05133 1.76055-.1517 1.75968-.24862 1.75212-.34215 1.73757-.43221 1.7162-.51883 1.68796-.602 1.65283-.68184 1.61086-.75808 1.56204-.83103 1.50631-.90043 1.44375-.96646 1.37426-1.0291 1.29794-1.08827 1.21472-1.14394 1.1247-1.1962 1.02774-1.61194 1.20405-1.70878 1.07662-1.80504.95594-1.90037.84226-1.99512.7354-2.08886.63548-2.1821.54223-2.27441.45612-2.366.37663-2.45678.3042-2.54693.23854-2.6362.17971-2.72477.12787-2.81247.0828-5.88535.05803-12.50532.08079v18.15617l9.36785-.06106 4.4568-.09007 4.30646-.14199 4.15692-.20296 4.00803-.27332 3.85999-.35258 3.71268-.44122 3.56609-.53884 3.42036-.6457 3.27528-.76176 3.13106-.8869 2.98757-1.02124 2.8448-1.16475 1.36914-.63907 1.33373-.67838 1.29845-.71878 1.26324-.7604 2.43245-1.63857 2.31149-1.78596 2.18556-1.92787 2.05466-2.06453 1.91873-2.19578 1.77797-2.32171 1.63216-2.44239 1.48148-2.55751 1.32573-2.66753 1.16503-2.77207.99944-2.87129.82886-2.96517.65333-3.05367.47275-3.1369.28735-3.2148.09684-3.2873-.0342-1.96524-.1021-1.93838-.1692-1.91067-.23536-1.88193-.30089-1.85242-.36554-1.82189-.42934-1.79056-.4924-1.75817-.55455-1.72505-.61596-1.69092-.67651-1.65593-.73635-1.61993-.79531-1.5832-.85342-1.54541-.9108-1.50675-.96724-1.46721-1.02305-1.42683-1.07791-1.38542-1.13206-1.34309-1.18534-1.30003-1.23775-1.2559-1.28945-1.2109-1.34035-1.16502-1.39032-1.11824-1.43957-1.0705-1.48802-1.02189-1.53562-.97243-1.58241-.92196-1.62835-.8707-1.67357-.81835-1.71792-.76529-1.76148-.71121-1.77372-.61078-1.90123-.56311-2.02788-.51653-2.15381-.47117-2.27895-.42688-2.40343-.3837-2.52705-.3417-2.6499-.30096-5.66546-.48392-6.14793-.3343-6.62415-.19389-7.0943-.06257h-43.24774v187.0596h18.75802V65.50545z"/><path fill="#191919" d="M775.06891 65.50545h38.29788l2.59207.0388 2.50107.11499 2.41077.18972 2.32064.26309 2.23164.3348 2.14272.405 2.05466.4739 1.96697.54094 1.87999.60653 1.79366.67046 1.70763.73325 1.62245.79445 1.5377.85384 1.4536.91188 1.36988.96833 1.28707 1.0232 1.20449 1.07683 1.1227 1.12845 1.0414 1.17915.9607 1.22774.88049 1.2752.80107 1.32083.72187 1.36541.64354 1.40796.5657 1.44907.48838 1.48889.41162 1.5272.33567 1.56362.25984 1.59868.18497 1.63239.1106 1.66442.03664 1.69495-.05119 1.80058-.1522 1.78387-.24992 1.76227-.3443 1.73643-.43618 1.70604-.52452 1.67076-.61027 1.63109-.69235 1.5868-.77206 1.538-.8483 1.48442-.92132 1.42668-.99187 1.36382-1.05883 1.29687-1.1232 1.22508-1.1839 1.14883-1.24221 1.06776-1.566 1.16417-1.6686 1.05271-1.77041.94702-1.87049.84585-1.96992.74938-2.06777.65858-2.16496.57204-2.26037.49075-2.35541.4145-2.44858.3433-2.54116.27677-2.63247.21528-2.72239.15883-2.8111.10743-5.88499.07963-7.5551-.0406-4.95173-.05725v28.19074l59.40209 76.90032h23.1871l-64.84436-83.62167v-3.4367l3.03775-.04802 2.72902-.11319 2.65889-.15991 2.5894-.20736 2.52058-.25596 2.45225-.3047 2.38471-.3549 2.3174-.40557 2.25064-.4572 2.1847-.50954 2.11925-.56275 2.05466-.6169 1.98994-.67154 1.92643-.72713 1.86329-.78365 1.80057-.84089 1.73873-.89899 1.6771-.95774 1.61632-1.01744 1.55592-1.07812 1.4963-1.13933 1.43727-1.20132 1.37859-1.2641 1.32062-1.32819 1.26302-1.39262 1.20636-1.45779 1.14984-1.52402 1.09419-1.59127 1.03903-1.65888.98474-1.72743.93032-1.79683 1.43193-3.00528 1.18152-2.81585.94961-2.70605.3934-1.33668.34222-1.33876.2937-1.35123.24695-1.37333.36331-2.8525.20448-3.06014.06416-3.34728-.03356-1.96516-.1-1.93853-.16568-1.91052-.23112-1.88208-.29556-1.8522-.35906-1.82196-.42242-1.7905-.485-1.75831-.5469-1.72505-.60798-1.69077-.6683-1.65593-.72828-1.62007-.78732-1.58307-.84593-1.5454-.90367-1.50682-.96091-1.46729-1.01715-1.42668-1.07308-1.3855-1.12853-1.34323-1.1826-1.30003-1.23667-1.25568-1.28967-1.21104-1.34222-1.16496-1.394-1.11816-1.4451-1.07071-1.49573-1.0219-1.54541-.97236-1.59444-.92189-1.64304-.8707-1.69078-.81849-1.73793-.76514-1.78445-.71136-1.77653-.61078-1.90951-.56311-2.04063-.51631-2.17072-.47124-2.29868-.42696-2.42532-.38362-2.55067-.34171-2.67415-.30103-5.7132-.48391-6.1897-.3343-6.65352-.1939-7.1056-.06256h-42.98732v187.05967h18.7581zm202.69123 79.4615l59.40058-97.69845h-21.62376l-47.15568 77.1166-47.93746-77.1166h-21.62376l60.18207 97.69845v89.36122h18.75801z"/></svg>