<svg xmlns="http://www.w3.org/2000/svg" role="img" viewBox="-14.92 -14.42 749.84 236.84"><title>Arrow logo</title><path fill="#070707" d="M0 187.408v-21.14481l30.75-30.704c16.9125-16.88719 30.75-31.0604 30.75-31.49596S47.6625 89.42209 30.75 72.49531L0 41.71934V20.85966C0 9.38682.25312.00043.56251.001 1.63765.003 104.25 103.17961 104.25 104.25867c0 1.09474-100.49638 102.201-102.9375 103.56217C.07621 208.51021 0 207.32464 0 187.408zm129.75.25057V166.8171l30.75-30.87583c16.91252-16.98168 30.75-31.314 30.75-31.84949S177.41251 89.2837 160.5 72.375l-30.75-30.7431V20.81593C129.75 9.36716 130.004 0 130.31453 0 131.41528 0 234 103.14726 234 104.25406 234 105.35813 131.40864 208.5 130.31049 208.5c-.30827 0-.56049-9.37864-.56049-20.84145zm-65.25-.325v-20.4165l30.75-30.783C112.1625 119.20339 126 104.85559 126 104.25s-13.8375-14.95337-30.75-31.884L64.5 41.583V21.21077c0-11.20474.27353-20.54132.608-20.748s24.0429 23.06094 52.68549 51.70576L169.871 104.25 118.12505 156c-28.46026 28.4625-52.16874 51.75-52.68546 51.75-.72973 0-.93955-4.55972-.93955-20.41649z"/><path d="M335.27134 137.53855l-7.278-16.90737h-32.807l-7.278 16.90739h-18.58697L303.13613 59.272h16.90737l33.81475 78.2666zM311.64579 82.5616l-9.8533 22.72979h19.59464zm114.67239 2.68726q0 18.81083-14.89193 24.29733l19.81858 27.99234h-21.49812l-17.35525-24.96916h-12.09269v24.96918h-17.46722V59.272h29.67188q18.251 0 25.97689 6.15831 7.83786 6.15834 7.83786 19.8186zm-33.2549 12.20465q8.95755 0 12.20466-2.91121t3.24711-9.18148q0-6.38226-3.35908-8.73363t-11.75678-2.35133h-13.10042v23.17765zm114.60765-12.20465q0 18.81083-14.89193 24.29733l19.81858 27.99234h-21.49812l-17.35526-24.96918h-12.09269v24.96918H444.1843V59.272h29.67188q18.251 0 25.97689 6.15831 7.83784 6.15834 7.83786 19.8186zM474.416 97.45351q8.95755 0 12.20467-2.91121t3.24711-9.18148q0-6.38226-3.35908-8.73363t-11.75679-2.35133h-13.1004v23.17765zm110.1499.55984a25.68355 25.68355 0 00-6.71816-17.91511 22.14967 22.14967 0 00-33.031 0 25.68355 25.68355 0 00-6.71816 17.91511 25.53779 25.53779 0 006.71816 17.80313 22.37758 22.37758 0 0033.031 0 25.53779 25.53779 0 006.71816-17.80313zm5.93437 28.77614q-11.86876 11.53283-29.224 11.53283t-29.224-11.53283q-11.86875-11.6448-11.86875-28.8881t11.86875-28.77613q11.86875-11.64485 29.224-11.64482t29.224 11.64482q11.86878 11.53283 11.86873 28.77613t-11.86873 28.8881zm49.76513-22.50584L654.14961 59.272h18.251l13.77225 45.0117 15.56373-45.0117h18.92283l-27.32052 78.2666h-12.98845l-17.1313-54.41712-17.01936 54.41712h-12.98846L605.8908 59.272h18.92283z"/></svg>