<svg xmlns="http://www.w3.org/2000/svg" role="img" viewBox="8.51 239.51 623.48 163.98"><title>Attunity logo</title><style>svg {enable-background:new 0 0 652 652}</style><style>.st0{fill:#040000}.st2{fill:#f18900}</style><path d="M164.4 331.2h14.8l-7.8-22.6h-.2l-6.8 22.6zm23 23l-4.8-13.1H161l-5.1 13.1H143l24.3-63.7h9.4l23.6 63.7h-12.9zm38.8 0v-51.6h-12.6v-10.5h37.3v10.5h-12.6v51.6zm57.8 0v-51.6h-12.5v-10.5h37.2v10.5h-12.5v51.6zm159.7 1.2L410.9 312h-.2v42.2h-12.1v-63.8h8.8l32.7 43.4h.2v-41.7h12.1v63.3zm32-63.3h12.1v62.1h-12.1zm49.7 62.1v-51.6h-12.5v-10.5h37.2v10.5h-12.6v51.6zm63.3 0v-28.5l-19.3-33.6h14.1l10.9 21.6 11.9-21.6h14.2l-19.6 33.6v28.5z" class="st0"/><path fill="#40b3e3" d="M37.2 294.7s37.8-37.1 57.7-9.6c20 27.5-4.7 70.5-4.7 70.5s10.7-66.2-25.6-66.2c-9.1-.2-17.2 1.5-27.4 5.3m67.8-41.9c4.7 2.8 5.7 10 2.1 15.9-3.6 6-10.3 8.5-15.1 5.7-4.7-2.8-5.7-10-2.1-15.9 3.6-6 10.4-8.6 15.1-5.7"/><path d="M37.8 368.9c4.7 2.8 5.7 10 2.1 15.9-3.6 6-10.3 8.5-15.1 5.7-4.7-2.8-5.7-10-2.1-15.9s10.3-8.5 15.1-5.7" class="st2"/><g><path d="M76.4 310s-31.8 2.3-33.2 23.5c-.8 12.6 10 24.1 25.8 28.4 17.3 4.7 32.2-4.6 32.2-4.6s-14.9 22.2-43.6 15.2c-22.1-5.4-29.4-18.8-31.1-27.7-1.7-9.4-1.2-22.6 14.8-32 15.9-9.3 35.1-2.8 35.1-2.8" class="st2"/><path d="M329.4 292.1h12.1v34.8c0 7.7.7 18.5 11 18.5s11-10.8 11-18.5v-34.8h12.1v37.1c0 15.2-6.4 26.6-23.1 26.6-16.7 0-23.1-11.4-23.1-26.6v-37.1z" class="st0"/></g></svg>