<svg xmlns="http://www.w3.org/2000/svg" role="img" viewBox="-4.03 -4.03 209.82 76.82"><title>Avro logo</title><path fill="#243353" fill-rule="evenodd" d="M.04703.39103C.1783 3.89165 3.07931 6.62936 5.96707 8.27921c8.87357 4.87411 19.18906 5.63593 28.93932 7.59834 4.6366.95241 9.38699 1.6477 13.80586 3.37749 1.22244.57399-.48108.10756-1.0169-.0632-7.95067-1.9134-16.15383-2.35544-24.19522-3.76755-4.90824-.8005-9.71729-2.29355-14.1287-4.60554-.85191-.43187-.46366-.022-.25824.4305 2.26391 3.07037 5.65703 5.05733 9.28372 6.10799 5.97365 1.74215 12.26252 1.82274 18.41948 2.40904 5.1339.39802 10.36273.52361 15.33925 1.89925.4156.35421.56112.79144-.34434.4305-7.90814-1.54501-16.00144-1.09685-24.00155-1.48496-3.18461-.17549-6.31514-1.20733-9.31331-2.04455.08766.41972.96816 1.0691 1.49572 1.67337 4.17326 3.36253 9.85476 3.52085 14.97777 3.47534 6.24148-.0304 12.51207-.42858 18.73523.10255.73925 1.10098-.60982.72669-1.37737.60268-5.85247-.37014-11.68038.32402-17.51491.64663-3.66292.24399-7.34436-.1835-10.86646-1.16316-.75623-.0208.29133.76492.59075 1.13399 3.0501 2.9767 7.68664 2.94381 11.65508 2.53546 4.85697-.33492 9.66028-1.21797 14.50606-1.60333h3.60944c.3162 1.2317-1.34032.48514-2.05394.69137-5.0398.2008-9.9293 1.63124-14.93674 2.16356-2.87765.44704-5.84094.2286-8.66262-.35848-.8098-.29854-.0359.41301.19423.61395 1.94948 2.04696 4.6773 3.39556 7.55339 3.08778 4.9783.0364 9.54143-2.27099 14.30388-3.4064.744-.5134 5.0667-.88272 2.82701.006-4.9395 1.24099-9.52785 3.7154-14.5887 4.47103-1.41396.19054-2.84195.1213-4.2639.1345.54742.59374 1.66632 1.81277 2.60407 2.53958 2.34696 2.2249 6.13808 3.41934 9.01201 1.4473 2.41666-1.59888 4.40338-4.05589 6.46175-5.88069.57652-.71529.41883.17615-.09666.63358-1.45361 2.18806-3.41265 4.09133-4.44433 6.52227-.54393 1.69402-.18812 3.97527 1.4046 1.97353l6.529-5.08672c1.1521-4.10995 4.03898-7.8761 3.55871-12.34982-.22672-3.4119-3.20753-5.84797-6.20617-7.01323-4.68785-1.8489-9.78865-2.16596-14.70337-3.10309-9.70598-1.69345-19.62926-2.69126-28.9632-6.00308C6.2258 5.66919 2.48933 3.84335.2477.55556L.04703.39095zM201.82686.14421c-3.06638 4.69577-8.71509 6.5286-13.81058 8.12393-9.80826 2.77138-19.99169 3.79902-29.99907 5.60636-4.50473.81487-9.38414 1.33179-13.14628 4.17537-3.29566 2.47995-3.34914 7.19674-1.92615 10.71757.83477 2.25694 1.95222 4.46182 2.67388 6.71901l7.86967 6.13118c1.21994-2.9528-1.52227-5.35995-3.01112-7.57749-.62503-1.00278-1.54652-1.98561-2.02305-2.99156.88325.56788 1.94584 1.83144 2.95749 2.7853 2.27208 2.26153 4.98285 5.31633 8.55648 4.46744 2.74018-.57163 4.97298-2.72813 6.82226-4.58405.70328-.54919-.69432-.28733-1.23856-.3444-4.46065.13585-8.65841-1.78113-12.804-3.17976-1.67798-.62035-3.37912-1.20488-5.15433-1.46882-.42717-1.15545 1.39712-.18874 2.0324-.23945 5.24046 1.14698 10.24238 3.5721 15.65803 3.7837 2.97583.0237 6.24805-1.27936 7.9629-3.63042.69531-.6091-1.81765.36766-2.30274.23672-5.03735.70988-9.98029-.75114-14.93977-1.39886-2.83671-.49096-5.7056-.75835-8.58293-.81782-.33519-1.14574 1.07662-.54447 1.74296-.68868 7.39603.0229 14.68205 2.05534 22.0891 1.62081 2.46894-.1211 5.15029-1.33905 6.55593-3.25645.71558-1.11168-2.43521.39227-3.14478.27435-8.81312 1.54507-17.71996-1.16449-26.55451-.0161-.86252-.11739.26425-1.20634.93023-.87167 8.20248-.60609 16.45133.54156 24.63704-.37669 3.47278-.40147 7.15555-1.64269 9.38329-4.43342.52121-.79637-1.72543.33799-2.249.35507-9.58003 2.71671-19.70342.47369-29.37297 2.60833-.71753.10277-1.76639.39679-2.29554.3078.20024-.45962.81124-.65717 1.57057-.76444 10.6727-2.45089 21.85205-1.20144 32.45994-3.98647 3.78668-1.14792 7.65864-3.26099 9.70076-6.69857-1.39994.33671-3.42427 1.6884-5.10333 2.13903-7.63519 3.04099-15.98094 3.117-23.97834 4.57562-3.79665.46322-7.62652 1.13704-11.29229 2.15215.48122-.49059 1.70429-.64953 2.49657-1.03308 5.52623-1.69756 11.27974-2.54113 16.95267-3.61077 8.4946-1.54493 17.38695-2.74636 24.88997-7.32201 2.52784-1.72867 4.91684-4.28833 4.9872-7.48875z"/><path fill="none" stroke="#243353" stroke-width="11.73" d="M105.07738 87.23457l114.23075 197.85348-228.4615-.00001z" transform="matrix(.62034 0 0 .27904 35.724 -15.216)"/><path d="M69.9974 63.06621l-2.28487-5.30789H57.4131l-2.28486 5.30789h-5.83518l10.6158-24.57102h5.30791l10.61581 24.57102zm-7.41701-17.25948l-3.09335 7.1358h6.15154zm22.2588 8.84795l5.8947-34.44184 5.59664-4.41893-9.30567 47.2723h-4.37134l-9.30567-30.21854 5.59664-3.53513zm33.00035-21.34487c0 7.13644-1.46815 11.74539-4.40446 13.82685l5.86158 15.92955h-6.35832l-5.13303-14.20916h-3.57655v14.20916h-5.16613V11.62057l8.7758 1.76757c3.52779.71055 6.15962 6.30721 7.68297 8.64355 1.54543 2.33633 2.31814 6.0957 2.31814 11.27812zm-9.83552 6.94528c1.76619 0 2.96942-.55222 3.60967-1.65667s.96037-2.84608.96037-5.22489c0-2.42129-.0463-5.58692-.61622-8.37424-.42472-2.07711-.42031-2.94138-3.85448-4.82539l-3.8746-2.12563v22.20682zm34.61767 9.84415q0-3.44635-2.19979-5.86614-2.19981-2.41978-5.42618-2.41978-3.1897 0-5.38951 2.41978-2.19979 2.41979-2.19979 5.86614 0 3.40969 2.19979 5.82946 2.19981 2.38312 5.38951 2.38312 3.22637 0 5.42618-2.38312 2.19979-2.41977 2.19979-5.82946zm1.94315 9.42246q-3.88631 3.77633-9.56912 3.77633t-9.56913-3.77633q-3.88631-3.81298-3.88631-9.45913 0-5.64616 3.88631-9.42247 3.88632-3.81299 9.56913-3.81299t9.56912 3.81299q3.88632 3.77631 3.88632 9.42247 0 5.64615-3.88632 9.45913z" fill="#243353" stroke-width="7.634"/><path fill="none" stroke="#243353" stroke-width="3.976" d="M105.07738 87.23457l114.23075 197.85348-228.4615-.00001z" transform="matrix(.7501 0 0 .3374 22.089 -28.006)"/><path d="M189.09132 63.7556v3.04727h-.60842V63.7556h-1.0931v-.55686h2.79462v.55686zm2.359 3.04727h-.60842v-3.60413h.94873l1.08794 2.26354 1.08794-2.26354h.94357v3.60413h-.60842v-2.81524l-1.25809 2.50072h-.34031l-1.25294-2.50072z" fill="#243353" stroke-width=".387"/></svg>