<svg xmlns="http://www.w3.org/2000/svg" role="img" xmlns:xlink="http://www.w3.org/1999/xlink" viewBox="-2.20 -2.20 114.27 50.27"><title>Cloud Information Model (CIM) logo</title><defs><path id="a" d="M0 .023h42.718V46H0z"/></defs><g fill="none" fill-rule="evenodd"><mask id="b" fill="#fff"><use xlink:href="#a"/></mask><path fill="#221F1F" d="M1.91277 32.21945C.63745 29.35903-.00021 26.3002-.00021 23.04263c0-3.25687.63766-6.32096 1.91298-9.19228 1.27496-2.87026 3.00126-5.31317 5.17817-7.32874 2.17657-2.01452 4.75587-3.60135 7.73756-4.76013C17.81018.60271 20.95373.02332 24.25878.02332c3.63752 0 7.052.77778 10.2431 2.333 3.19073 1.55593 5.92945 3.69089 8.21614 6.40489l-8.263 6.92142c-1.33055-1.50325-2.874-2.67221-4.63036-3.50759-1.75706-.83502-3.612-1.25253-5.56588-1.25253-3.38826 0-6.25737 1.15386-8.60594 3.46053-2.34927 2.30738-3.5232 5.19414-3.5232 8.65959 0 3.44543 1.17393 6.3164 3.5232 8.61324 2.34857 2.29719 5.21768 3.44508 8.60594 3.44508 1.95388 0 3.80882-.41224 5.56588-1.23708 1.75636-.82484 3.29981-1.98889 4.63037-3.4925l8.26299 6.92178c-2.2867 2.7147-5.0254 4.8444-8.21615 6.38943-3.19109 1.5454-6.60557 2.3172-10.24309 2.3172-3.30505 0-6.4486-.57903-9.43028-1.73816-2.98169-1.15878-5.56099-2.74033-7.73756-4.74467-2.17691-2.00469-3.9032-4.43672-5.17817-7.2975" mask="url(#b)"/><path fill="#221F1F" d="M45 45h12V1H45zm16 0V1h9.994L85.5 21.011 100.006 1H110v44H98.721V21.689L85.5 39.697 72.279 21.689V45z"/></g></svg>