<svg xmlns="http://www.w3.org/2000/svg" role="img" viewBox="16.55 -3.45 361.66 324.66"><title>Computer Vision Annotation Tool (CVAT) logo</title><defs><style>.cls-1{fill:#0e7dc2}</style></defs><path d="M188.81721 208.035c-68.736 6.34-140.378-3.647-150.413-57.364-4.909-26.48 7.171-54.561 23.174-72.015v-9.32c-28.828 25.284-44.451 57.274-35.452 95.064 11.495 48.47 72.966 75.919 166.819 66.804 37.148-3.6 85.732-15.545 119.53-34.11v-26.353c-30.675 18.276-81.4 33.373-123.658 37.294zm181.074-139.329c-16.305-79.6-170.86-84.646-270.489-24.001v6.699c99.515-51.162 240.671-50.85 253.522 22.475 4.313 24.257-9.35 49.528-33.76 64.078v19.027c29.364-10.771 59.482-45.607 50.726-88.278z" class="cls-1"/><path d="M306.9172 57.115h-18.022v80.266c0 9.407 4.548 17.588 18.022 18.895zM92.32621 86.422h-18.054l-.01 52.44c0 9.44 4.563 17.612 18.065 18.895zm-18.055-26.866h17.998v17.083h-17.998zm125.987 97.371c-14.588 0-20.761-10.139-20.761-20.126V67.17h17.866v19.25h13.453v14.43h-13.453v34.846c0 4.071 1.932 6.34 6.178 6.34h7.275v14.89h-10.558m32.874-29.665c0 9.144 5.717 15.862 15.832 15.862 7.926 0 11.832-2.199 16.409-6.718l11.04 10.516c-7.078 6.991-14.494 11.242-27.581 11.242-17.097 0-33.477-9.332-33.477-36.535 0-23.256 14.313-36.402 33.08-36.402 19.08 0 30.044 15.39 30.044 35.59v6.445h-45.348m14.522-27.26c-6.115 0-10.814 3.15-12.805 7.399a18.45293 18.45293 0 00-1.717 7.68h27.533c-.349-7.68-3.83-15.078-13.011-15.078zm-106.804.85c5.239 0 7.416 2.59 7.416 6.794v49.386h17.869v-49.49c0-10.028-5.343-21.1-21.035-21.1l-36.912-.02v70.61h17.876v-56.18zm185.459-29.394a7.171 7.171 0 11.00507 0zm0-13.146a5.961 5.961 0 105.991 5.975 6.026 6.026 0 00-5.99099-5.975zm3.18 10.273h-1.34a.302.302 0 01-.274-.18l-1.812-3.08a.537.537 0 00-.254-.142h-.83v3.072a.315.315 0 01-.2994.32985l-.00361.00015h-1.207a.329.329 0 01-.302-.33v-7.747c0-.453.15-.64.547-.696q1.09658-.09446 2.198-.104c2.237 0 3.548.658 3.548 2.732v.15a2.173 2.173 0 01-1.613 2.291l1.887 3.213a.57017.57017 0 01.047.227.255.255 0 01-.292.264zm-1.737-6.145c0-.866-.538-1.14-1.689-1.14h-1.141v2.458c.179 0 .99.038 1.141.038 1.151 0 1.69-.384 1.69-1.205z" class="cls-1"/><path d="M115.96643 268.17517A20.59324 20.59324 0 01131.341 262q12.48693 0 18.26089 8.27956a18.04935 18.04935 0 013.42406 9.33h-10.45064a14.24672 14.24672 0 00-2.56006-5.42807q-2.79132-3.25754-8.27614-3.25754a10.19956 10.19956 0 00-8.80936 4.59773q-3.22418 4.59715-3.22389 13.01188 0 8.41585 3.40239 12.60583a10.66217 10.66217 0 008.64569 4.19053q5.37646 0 8.19858-3.59743a15.78561 15.78561 0 002.58857-5.80219h10.38281a22.53053 22.53053 0 01-6.86465 13.30159q-5.52189 5.12411-14.14848 5.12354-10.67424 0-16.78382-6.92226-6.10957-6.95475-6.109-19.06842-.00001-13.09851 6.94848-20.18958zm74.67116-5.22506H201.496L184.44417 312.964h-9.873l-16.91384-50.01384h11.163l10.85787 37.968zm26.26328 0h11.82452l17.69515 50.01389h-11.33293l-3.30087-10.2813h-18.41829l-3.38984 10.2813h-10.93144zm-.68892 31.11422h12.80885l-6.31774-19.67978zm67.78654-31.11422v8.85556h-14.96343V312.964h-10.51854v-41.15833h-15.03073v-8.85556z"/></svg>