<svg xmlns="http://www.w3.org/2000/svg" role="img" viewBox="-1.00 -3.75 441.74 220.74"><title>dash logo</title><defs><style>.cls-2{fill:#516884}</style></defs><path fill="#119cfe" d="M75.57764 140.83336q-30.27867 0-60.55733-.00075c-5.1557-.00049-7.29649-2.15852-7.29664-7.3538q-.00168-60.6669 0-121.33381c.00013-5.19856 2.13948-7.35844 7.29183-7.35862q60.815-.002 121.63.00038c4.97563.00025 7.16734 2.21084 7.16755 7.22458q.00243 60.79576 0 121.59152c-.00021 5.01615-2.19113 7.2286-7.16274 7.22931q-30.53631.00426-61.07267.00119zm-5.99507-55.66487q0-11.97129-.00187-23.94258c-.00356-4.33043-2.3129-6.94525-6.12869-6.96773-3.83918-.02262-6.23684 2.59493-6.23862 6.857q-.01006 24.07131.0001 48.1426c.00184 4.25037 2.41407 6.86884 6.2565 6.839 3.72542-.02892 6.10269-2.62684 6.10894-6.72829q.01845-12.09996.00364-24.2zm49.48763.14806c0-8.15249.012-16.305-.00508-24.45746-.00847-4.04787-2.4665-6.62252-6.23486-6.60091-3.734.02141-6.12563 2.61384-6.128 6.7089q-.01428 24.2-.00022 48.4c.00229 4.10186 2.3827 6.70019 6.1075 6.72966 3.84285.0304 6.25286-2.58778 6.25795-6.83766q.01426-11.97123.00271-23.94253zM44.84 97.58414c0-4.11773.03132-8.23576-.00934-12.35309a5.9503 5.9503 0 00-6.07478-6.23843 5.959 5.959 0 00-6.28022 6.28965q-.04941 12.22433-.00154 24.449c.01327 3.83973 2.53058 6.37668 6.20433 6.367 3.65669-.00964 6.12822-2.56 6.15533-6.4183.02835-4.03178.00635-8.06389.00622-12.09583zm49.48772-.08582c0-4.03194.02244-8.064-.00646-12.09578-.0276-3.85371-2.50557-6.40345-6.16362-6.40993-3.67048-.0065-6.183 2.53323-6.19607 6.37548q-.04147 12.22437.00192 24.449a6.17812 6.17812 0 1012.355.03439c.03995-4.11739.00917-8.23542.00925-12.35316zm-49.48505-61.6292a5.92592 5.92592 0 00-5.96167-6.34868 5.93188 5.93188 0 00-6.41486 5.89268 5.93014 5.93014 0 006.08747 6.4777 5.92361 5.92361 0 006.28906-6.0217zm18.48313 6.0217a5.91262 5.91262 0 006.261-6.04993 6.18941 6.18941 0 10-12.37739-.14189 5.91783 5.91783 0 006.11639 6.19182zm31.0044-6.01053a6.19318 6.19318 0 00-12.37638-.47837 6.19308 6.19308 0 1012.37638.47837zm24.74406-.02823a6.19237 6.19237 0 00-12.3768-.422 6.19227 6.19227 0 1012.3768.422zM38.51749 66.62678a6.18859 6.18859 0 00.39956-12.37015 6.18863 6.18863 0 10-.39956 12.37015zm49.42422 0a6.1908 6.1908 0 10-5.98849-6.31956 5.93 5.93 0 005.98849 6.31956z"/><path d="M180.93093 100.613c0 3.25559.03139 6.25663-.008 9.25676a6.17911 6.17911 0 11-12.35671-.07755q-.03046-30.76769-.00325-61.53541a6.17087 6.17087 0 0111.0765-3.9918c.86007 1.10646 1.37859.97715 2.434.42233 16.19353-8.513 34.64227 2.89054 35.86725 21.48488.39131 5.9398.82239 12.021-.663 17.93939-4.08775 16.28759-20.9918 24.47373-35.30377 16.79254a6.60362 6.60362 0 00-1.04302-.29114zm24.66173-27.62644c0-2.058.1104-4.123-.02014-6.17261-.43914-6.89526-5.75517-12.3628-12.02938-12.47595-6.325-.11408-11.93719 5.10023-12.453 11.99678a91.47944 91.47944 0 00-.011 12.85357c.43518 6.5441 5.64873 11.787 11.59493 12.09139 6.02069.30818 11.15471-4.02377 12.62894-10.60544.57079-2.54868.25991-5.12497.28965-7.68773z" class="cls-2"/><path fill="#516885" d="M304.63222 72.98862c.26442 5.53511-.01038 10.96347-2.504 16.08474-4.96971 10.20662-14.7479 15.90589-25.173 14.57844a24.74131 24.74131 0 01-21.11072-20.40921c-1.323-8.76886-2.12079-17.82674 1.71007-26.33055 4.71315-10.46228 14.55046-16.18279 25.17209-14.95835 10.45 1.20465 19.2626 9.80565 21.45356 20.77945.68266 3.41928.32202 6.84152.452 10.25548zm-12.50216-.04949l.06849-.00007c0-1.97195.09946-3.94985-.018-5.91479-.41016-6.862-5.426-12.3201-11.56679-12.68331-6.25162-.36975-11.80884 4.31846-12.7988 11.28467a51.481 51.481 0 00-.001 14.366c.95152 6.76423 6.21031 11.37686 12.28305 11.28882 6.00687-.08709 11.14377-4.97946 11.98935-11.66255a53.59654 53.59654 0 00.0437-6.67877zm115.61442 2.24951c3.11472-7.24848 5.9508-13.84047 8.77967-20.43557 1.24995-2.91405 2.45144-5.84936 3.73584-8.74807 1.59856-3.60771 5.11629-5.116 8.42381-3.67665 3.36161 1.46293 4.68125 4.94556 3.11268 8.62039-7.194 16.85408-14.26261 33.76469-21.7159 50.50386-4.166 9.3564-11.77511 14.25762-22.08749 14.6177a6.12659 6.12659 0 01-6.39609-6.0193 6.28421 6.28421 0 015.82356-6.36173c7.03329-.72574 11.56852-4.82606 13.17211-11.80758a4.07447 4.07447 0 00-.60287-2.68025q-7.8207-18.31022-15.68358-36.60238c-.27-.6295-.56424-1.24981-.806-1.89-1.34481-3.56133-.00466-7.00522 3.25209-8.38921a6.16366 6.16366 0 018.27122 3.5099c3.77315 8.63093 7.44571 17.30582 11.16509 25.96028.39801.92605.83796 1.83405 1.55586 3.39861z"/><path d="M317.01935 58.3559q0-11.07607.004-22.15216c.00777-4.08508 2.4127-6.67342 6.15823-6.683 3.763-.00965 6.17809 2.56889 6.21235 6.6329.04836 5.73448.04836 5.73436 5.68046 5.73454 2.319.00007 4.63947-.05158 6.95662.01357a6.17557 6.17557 0 01.06573 12.33752q-5.40823.12221-10.82083-.00926c-1.41318-.03415-1.93122.31559-1.91558 1.83456.0768 7.46911-.06551 14.94124.0678 22.40877.13347 7.47567 4.821 12.23629 12.34022 12.84894 3.93834.3209 6.268 2.74755 6.18293 6.44048-.08271 3.59311-2.68536 5.93955-6.61967 5.9681-13.00193.09436-24.27013-11.01761-24.30851-23.99553-.0211-7.12643-.00378-14.25295-.00375-21.37943zm-74.22852 8.3881q-.00027 15.06416-.0028 30.12832c-.00347 4.26294-2.39856 6.8801-6.23912 6.858-3.817-.02193-6.13018-2.63705-6.13111-6.96679q-.0064-30.12831-.00008-60.25661c.00086-4.35206 2.29045-6.95655 6.11178-6.9862 3.92869-.03049 6.2652 2.62554 6.263 7.09493q-.00726 15.06417-.00167 30.12835zm117.53017-.38418q0-15.06412.00381-30.12825c.00475-4.09669 2.39219-6.68875 6.12752-6.71085 3.77668-.02235 6.24275 2.56845 6.24353 6.59778q.006 30.64332-.008 61.28664a6.13162 6.13162 0 01-4.711 6.24266 6.41141 6.41141 0 01-7.0073-3.15042 7.0794 7.0794 0 01-.65815-3.49424q.02516-15.32163.00959-30.64332z" class="cls-2"/><path fill="#fefefe" d="M69.58256 85.16849q0 12.1-.00363 24.2c-.00625 4.10145-2.38352 6.69937-6.10894 6.72829-3.84243.02984-6.25466-2.58863-6.2565-6.839q-.01044-24.07131-.0001-48.1426c.00178-4.26207 2.39944-6.87962 6.23862-6.857 3.81579.02248 6.12513 2.6373 6.12869 6.96773q.00987 11.97129.00186 23.94258zm49.48764.14806q0 11.97129-.00275 23.94257c-.00509 4.24988-2.4151 6.86806-6.25795 6.83766-3.7248-.02947-6.10521-2.6278-6.1075-6.72966q-.01349-24.2.00022-48.4c.00241-4.09506 2.394-6.68749 6.128-6.7089 3.76836-.02161 6.22639 2.553 6.23486 6.60091.01709 8.15242.00512 16.30493.00512 24.45742z"/><path fill="#fdfdfd" d="M44.84008 97.58414c.00005 4.03194.02205 8.064-.00628 12.09579-.02711 3.85831-2.49864 6.40866-6.15533 6.4183-3.67375.00969-6.19106-2.52726-6.20433-6.367q-.04227-12.22437.00154-24.449a5.959 5.959 0 016.28022-6.28965 5.9503 5.9503 0 016.07478 6.23843c.04066 4.11737.00932 8.2354.0094 12.35313zm49.48761-.08582c0 4.11774.03075 8.23577-.00921 12.35312a6.17812 6.17812 0 11-12.355-.03439q-.05035-12.22431-.00192-24.449c.013-3.84225 2.52559-6.382 6.19607-6.37548 3.658.00648 6.136 2.55622 6.16362 6.40993.02893 4.03178.00649 8.06388.00644 12.09582z"/><path fill="#24fbfc" d="M44.84267 35.86912a5.92361 5.92361 0 01-6.289 6.0217 5.93014 5.93014 0 01-6.08747-6.4777 5.93188 5.93188 0 016.4148-5.89268 5.92592 5.92592 0 015.96167 6.34868zm18.48313 6.0217a5.91783 5.91783 0 01-6.11639-6.19182 6.18941 6.18941 0 1112.37735.14185 5.91262 5.91262 0 01-6.26096 6.04997zm31.0044-6.01053a6.19308 6.19308 0 11-12.37638-.47837 6.19318 6.19318 0 0112.37638.47837zm24.74406-.02823a6.19227 6.19227 0 11-12.3768-.422 6.19237 6.19237 0 0112.3768.422zM38.51749 66.62678a6.18863 6.18863 0 11.39956-12.37015 6.18859 6.18859 0 01-.39956 12.37015zm49.42422 0a6.19078 6.19078 0 116.38757-5.92218 5.92159 5.92159 0 01-6.38757 5.92218z"/><path d="M175.05176 163.67871a14.77655 14.77655 0 017.62158 5.67383 19.89637 19.89637 0 013.1875 7.22168 34.54266 34.54266 0 01.85156 7.40332q0 8.92089-3.584 15.11035-4.85742 8.34375-15 8.34375h-19.2827V162.708h19.28272a23.5449 23.5449 0 016.92334.97071zm-17.13376 6.79688v29.18847h8.63086q6.62475 0 9.23779-6.52344a22.97542 22.97542 0 001.42871-8.52636q0-6.82617-2.14258-10.48242-2.14233-3.65625-8.52392-3.65625zm48.20456 16.83984a13.69543 13.69543 0 003.45312-.75879 2.60255 2.60255 0 001.86524-2.458 2.90712 2.90712 0 00-1.43067-2.80664 9.04029 9.04029 0 00-4.19824-.77344q-3.10546 0-4.39746 1.51661a6.261 6.261 0 00-1.23047 3.03418h-8.34375a12.64862 12.64862 0 012.4375-7.12989q3.44385-4.36962 11.82324-4.36914a21.07486 21.07486 0 019.69043 2.1543q4.23633 2.15478 4.23633 8.13184v15.17089q0 1.57764.06055 3.82227a4.80474 4.80474 0 00.51562 2.30664 3.09978 3.09978 0 001.27442 1.001v1.27441h-9.40625a9.61012 9.61012 0 01-.5459-1.88086q-.15234-.88037-.24316-2.00293a17.84213 17.84213 0 01-4.1504 3.30762 12.551 12.551 0 01-6.34765 1.60742 10.953 10.953 0 01-7.46192-2.56348 9.11536 9.11536 0 01-2.94531-7.2666q0-6.0996 4.73731-8.83008a21.18107 21.18107 0 017.64257-2.124zm5.28711 4.03516a9.56255 9.56255 0 01-1.67578.834 14.09161 14.09161 0 01-2.32227.5918l-1.96875.36425a12.94335 12.94335 0 00-3.97461 1.1836 3.94873 3.94873 0 00-2.043 3.6709 3.83585 3.83585 0 001.24805 3.20117 4.74076 4.74076 0 003.03418.98633 9.03589 9.03589 0 005.22266-1.63867q2.38769-1.6377 2.47949-5.97754zm22.87939 5.52246a5.75493 5.75493 0 001.18848 3.27636q1.61572 1.73 5.97558 1.7295a9.14492 9.14492 0 004.07032-.75879 2.54084 2.54084 0 00.293-4.49024q-1.21582-.75732-9.0459-2.60937-5.63819-1.39453-7.94336-3.48926a7.56429 7.56429 0 01-2.30567-5.94727 10.30635 10.30635 0 013.60254-7.873q3.60352-3.293 10.1416-3.293a18.634 18.634 0 0110.10935 2.47362q3.90673 2.47266 4.48535 8.541h-8.64746a5.10436 5.10436 0 00-.94238-2.63965q-1.43115-1.75928-4.86914-1.75977a7.00411 7.00411 0 00-4.03028.87989 2.53072 2.53072 0 00-1.20214 2.06347 2.25459 2.25459 0 001.27832 2.15332q1.27734.69873 9.02832 2.39746a16.56934 16.56934 0 017.74707 3.67188 8.33612 8.33612 0 012.54785 6.21973 10.04221 10.04221 0 01-3.66309 8.02539q-3.66357 3.10986-11.32519 3.11035-7.81348 0-11.53809-3.293a10.70062 10.70062 0 01-3.72363-8.38867zm51.62207-22.33105a9.71255 9.71255 0 014.09375 3.249 8.66571 8.66571 0 011.66114 3.8125 47.01147 47.01147 0 01.30273 6.3916v19.43652h-8.8291V187.292a8.931 8.931 0 00-.90332-4.31347q-1.17482-2.30714-4.458-2.3086a6.11541 6.11541 0 00-5.166 2.29395 10.55973 10.55973 0 00-1.76171 6.5459v17.92187h-8.64747v-44.57227h8.64747v15.77832a10.57078 10.57078 0 014.33593-4.02051 12.19981 12.19981 0 015.18067-1.1377 14.0043 14.0043 0 015.54391 1.06251z"/></svg>