<svg xmlns="http://www.w3.org/2000/svg" role="img" viewBox="-0.29 -0.29 899.08 545.58"><title>deck.gl logo</title><path fill="#010101" d="M133.91066 277.676c40.866 0 72.464-31.605 72.464-78.372V17.285h44.23v294.94h-43.809v-27.39c-19.8 20.644-47.182 32.442-77.944 32.442-63.202 0-111.656-45.925-111.656-115.416V17.333h44.231v181.97c0 47.611 31.176 78.373 72.47 78.373m149.585-260.384h42.552v107.44a106.245 106.245 0 0176.258-32.026c63.202 0 112.914 50.14 112.914 112.5 0 61.937-49.712 112.07-112.914 112.07a107.213 107.213 0 01-76.714-32.019v26.954h-42.158zm115.866 262.492c40.451 0 73.735-33.291 73.735-74.578 0-41.716-33.284-74.578-73.735-74.578a74.58 74.58 0 000 149.156m243.113-186.656c61.93 0 107.44 47.61 107.44 111.656v13.906h-174.83c5.901 34.97 34.97 61.095 71.184 61.095 24.88 0 45.931-10.118 61.938-31.605l30.761 22.752c-21.494 28.653-53.513 45.924-92.7 45.924-64.46 0-114.178-48.032-114.178-112.07 0-60.674 47.61-111.657 110.392-111.657m-66.575 91.856h131.035c-7.16-32.87-33.706-54.778-65.304-54.778s-58.143 21.908-65.731 54.778m288.187-49.72c-27.81 0-48.032 21.487-48.032 54.77v122.19h-42.56V97.344h42.159v26.566c10.532-17.278 27.81-28.232 51.405-28.232h14.741v39.608z"/><path d="M244.55908 419.4502a24.873 24.873 0 018.978 8.65527v-37.34863H274.294v105.72363h-19.895v-10.8457a28.86512 28.86512 0 01-9.9834 10.12793q-5.60231 3.15966-13.9336 3.16015-13.719 0-23.09082-11.09668-9.37353-11.09766-9.373-28.47851 0-20.0376 9.229-31.53028 9.22851-11.49022 24.67139-11.49121a25.24933 25.24933 0 0112.64051 3.12403zm5.02783 55.7705q4.52492-6.46436 4.52491-16.73437 0-14.36426-7.2544-20.542a15.622 15.622 0 00-10.34228-3.73433q-8.97876 0-13.17969 6.78711-4.20117 6.78809-4.20166 16.84277 0 10.84571 4.27344 17.34473 4.27295 6.50244 12.96435 6.5 8.68942-.00004 13.21533-6.46391zm95.05909-55.4414a31.84256 31.84256 0 0113.52832 11.58105 38.48307 38.48307 0 016.23779 16.18555 100.06623 100.06623 0 01.67432 15.53711h-57.01856q.4768 11.78026 8.18652 16.51953a20.79167 20.79167 0 0011.28663 2.94434q6.99389 0 11.36572-3.59083a17.21826 17.21826 0 004.21289-5.38671h20.89844q-.82691 6.96679-7.58887 14.14843-10.519 11.41992-29.45264 11.41993a42.67719 42.67719 0 01-27.57568-9.63184q-11.94654-9.63282-11.94629-31.34277 0-20.3423 10.78467-31.19727 10.78344-10.8545 27.9956-10.85547a44.57411 44.57411 0 0118.41114 3.66895zm-30.62256 17.68261q-4.3396 4.47365-5.45264 12.11817h35.26514q-.55884-8.1504-5.45313-12.37012a17.93849 17.93849 0 00-12.14013-4.2207q-7.8816 0-12.21924 4.47265zm108.97802 8.81446a18.14693 18.14693 0 00-2.95117-7.90039q-3.45776-4.74024-10.72754-4.74024-10.36962 0-14.18408 10.27051-2.01636 5.44482-2.01562 14.4707 0 8.59864 2.01562 13.82715 3.67164 9.769 13.82373 9.76856 7.19971 0 10.22364-3.87891a19.2787 19.2787 0 003.67187-10.05469h20.90039a34.23728 34.23728 0 01-6.75781 17.668q-9.63575 13.43115-28.542 13.43067-18.90894 0-27.82325-11.20411-8.915-11.20458-8.915-29.05468 0-20.14307 9.84864-31.34864 9.84888-11.20458 27.17676-11.2041 14.73779 0 24.1206 6.60742 9.38086 6.60938 11.10742 23.34278zm35.49754-55.30371h20.11133V448.083l25.81836-29.53028h25.45313l-28.06053 29.16408 29.14844 48.76367h-24.91407l-18.96679-33.44824-8.47852 8.81347v24.63477H458.499zm82.39846 84.0332h21.7627v21.47461h-21.7627zm80.68945-56.88379q7.459 3.08788 12.05079 11.34766v-11.27637h19.96679V492.458q0 15.15381-5.09961 22.83984-8.76268 13.21435-33.6123 13.21582-15.01319 0-24.49219-5.88965-9.48047-5.89012-10.48633-17.59668h22.26563a9.21626 9.21626 0 002.80078 5.1709Q608.2837 513.0005 616.11328 513q11.05957 0 14.79492-7.39844 2.4419-4.74022 2.44239-15.94433v-5.02735a24.97674 24.97674 0 01-6.32032 7.541q-6.10546 4.66992-15.873 4.66894-15.082 0-24.09668-10.59375t-9.01367-28.69336q0-17.45361 8.67968-29.33984 8.67921-11.88575 24.60352-11.88672a26.9125 26.9125 0 0110.25679 1.79592zm6.97168 56.12891q4.93506-5.42139 4.93555-17.27344 0-11.13135-4.68555-16.9502a15.28692 15.28692 0 00-12.55078-5.81734q-10.73 0-14.80566 10.12695a36.04484 36.04484 0 00-2.14551 13.28711 30.42033 30.42033 0 002.28809 12.13868q4.14843 9.91113 14.87793 9.91113a15.71472 15.71472 0 0012.08593-5.42287zm65.78711 22.22949H673.876V390.61328h20.4697z"/></svg>