<svg xmlns="http://www.w3.org/2000/svg" role="img" viewBox="42.48 102.73 130.78 76.53"><title>DVC logo</title><path fill="#a5dae6" d="M107.71327 176.78258c-.37136-.09433-.79283-.3539-.9366-.57682-.14378-.22291-3.28594-6.42369-6.98258-13.7795-3.69664-7.3558-6.82348-13.3742-6.94853-13.3742-.12505 0-.71783.61413-1.31728 1.36472-1.61022 2.0162-5.35044 5.16482-7.84187 6.60152-3.24516 1.87134-6.18978 2.98087-10.13648 3.8194-1.67981.35691-2.48568.38176-14.51832.4477l-12.73979.0698-.5993-.4993-.59928-.4993v-53.45671l.61163-.53189.61162-.53188 11.68125.00137c12.88797.00138 14.11318.07684 17.95846 1.10885 4.69453 1.25993 8.56125 3.31989 12.24945 6.52575 3.60502 3.13355 5.88596 6.2802 7.61262 10.50194 1.03935 2.54124 12.60856 26.1509 12.84857 26.22048.10624.0308.24163-.0498.30085-.17915.05923-.12933 2.40931-4.9434 5.2224-10.69795 3.77623-7.72475 5.18146-10.79613 5.36977-11.73654.3915-1.95507 1.76967-5.34707 3.07242-7.56189 4.52847-7.69892 12.62296-13.02136 21.96412-14.44225 2.52134-.38352 7.96616-.38026 10.57274.0062 5.26937.78152 10.13655 2.8857 14.07672 6.08567 1.50113 1.21913 1.60088 1.34753 1.60088 2.06056 0 .83098-.09848.93874-5.38385 5.89074-2.65933 2.49158-2.6858 2.49682-4.8854.96722-1.76761-1.22922-3.77308-2.14658-6.0515-2.76815-1.3475-.36762-1.98332-.4265-4.49867-.41664-2.59208.01018-3.1221.06726-4.6033.49574-5.00663 1.44839-8.9741 5.01358-10.74363 9.6543-.9024 2.36659-1.15063 3.99345-1.01773 6.66995.34225 6.89252 4.96746 12.4635 11.9706 14.4184.83495.23307 2.13148.38265 3.87095.4466 2.20426.08103 2.90756.03541 4.47294-.28999 2.30443-.47906 4.81041-1.4976 6.69772-2.72226 1.80883-1.17374 2.39746-1.21569 3.45627-.24633.41373.37878 2.094 2.01602 3.73392 3.6383 2.83612 2.8056 2.98173 2.9874 2.98256 3.72387.00079.73132-.09289.85236-1.68901 2.18166-3.7858 3.15291-8.97468 5.40425-14.42338 6.25797-2.6587.41658-7.59974.41556-10.14817-.00206-4.22943-.69314-8.14619-2.0714-11.60743-4.08452-2.27397-1.32258-5.74328-4.22302-7.5055-6.27481-1.14428-1.33232-1.41742-1.55724-1.61121-1.32676-.12834.15263-3.1918 6.14588-6.8077 13.31834-4.2513 8.43285-6.72222 13.12283-6.99283 13.2729-.61582.34152-1.58206.44399-2.34912.24913zM70.6994 148.78485c2.36762-.52658 4.77628-1.68898 6.57019-3.17073 2.54612-2.10305 3.90977-4.05056 4.99255-7.1302.53049-1.5088.57096-1.85434.57386-4.89862.00238-2.8248-.06042-3.47419-.4586-4.72118-1.376-4.30905-4.57238-7.8153-8.72285-9.5685-2.73997-1.15739-3.73186-1.30247-9.57274-1.4002l-5.1787-.08664v31.33427h5.09292c4.38082 0 5.3181-.05007 6.70337-.3582z"/><path fill="#66c7d8" d="M107.19531 176.32253c-.18768-.16322-3.42298-6.44772-7.18955-13.96557-3.76656-7.51785-6.91635-13.73585-6.99953-13.81778-.08316-.08193-.66825.49272-1.3002 1.277-4.59921 5.70788-10.76121 9.32344-18.57457 10.89868-1.37406.27702-3.13733.32536-14.17234.38852l-12.60303.07213-.5268-.45812-.52681-.45812V106.91134l.5269-.4582.5269-.4582 12.49832.07106c11.68735.06644 12.6205.09532 14.38148.44477 5.76424 1.14387 10.67277 3.46873 14.73046 6.9769 3.30815 2.86014 5.27574 5.48674 7.0385 9.3959 1.2549 2.78293 13.23475 27.37358 13.40974 27.52576.35985.31294 1.27746-1.35853 5.6408-10.27498 4.45794-9.10974 4.94405-10.20538 5.42528-12.2279 2.79009-11.72637 12.57015-20.42173 25.11554-22.33003 2.52134-.38352 7.96616-.38026 10.57274.0062 5.26937.78151 10.13655 2.8857 14.07672 6.08567 1.50113 1.21912 1.60088 1.34752 1.60088 2.06055 0 .831-.09848.93875-5.38385 5.89074-2.65933 2.4916-2.6858 2.49683-4.8854.96722-1.76761-1.2292-3.77308-2.14656-6.0515-2.76813-1.3475-.36761-1.98332-.4265-4.49867-.41663-2.59208.01017-3.1221.06726-4.6033.49573-5.00663 1.44839-8.9741 5.01359-10.74363 9.6543-.9024 2.36659-1.15063 3.99345-1.01773 6.66996.34225 6.89251 4.96746 12.4635 11.9706 14.41839.83495.23307 2.13148.38265 3.87095.4466 2.20426.08103 2.90756.03541 4.47294-.28999 2.30443-.47905 4.81041-1.4976 6.69772-2.72226 1.80883-1.17373 2.39746-1.21568 3.45627-.24633.41373.37879 2.094 2.01602 3.73392 3.6383 2.83612 2.8056 2.98173 2.9874 2.98256 3.72388.00079.73131-.09289.85236-1.68901 2.18165-3.7858 3.15292-8.97468 5.40426-14.42338 6.25798-2.6587.41657-7.59974.41555-10.14817-.00206-4.22943-.69315-8.14619-2.0714-11.60743-4.08452-2.30075-1.33816-5.72448-4.20985-7.58343-6.36067-.8096-.93672-1.54541-1.63565-1.63515-1.55317-.08973.08248-3.13028 6.03164-6.75677 13.22036-3.6265 7.18872-6.7572 13.22758-6.95711 13.4197-.47608.45747-2.34659.49192-2.85186.05253zm-38.49966-27.00375c2.03263-.22164 4.54339-.9563 6.24509-1.82735 1.69665-.86846 4.41794-3.2692 5.49456-4.84734 1.93256-2.83276 2.7397-5.49341 2.7397-9.03101 0-4.92273-1.47376-8.40985-4.86724-11.51656-2.58066-2.36258-5.5989-3.76156-9.15187-4.24197-.94645-.12797-3.31328-.18991-5.96335-.15606l-4.39405.05612-.05402 15.64872c-.02973 8.6068-.00909 15.75108.0458 15.87618.12672.28894 7.35296.3176 9.90542.03927z"/><path fill="#f08d6a" d="M107.1645 176.28562c-.19097-.18352-3.34497-6.30427-7.00886-13.60165-7.3761-14.69098-7.54669-15.02131-7.55629-14.6327-.01494.60354-2.53808 3.48235-4.71147 5.37557-4.25683 3.70808-8.77413 5.86534-14.71478 7.02712-1.93294.37801-2.61367.40028-14.31832.46848l-12.28889.0716-.52709-.45837-.52708-.45837v-52.984l.52848-.45958.52848-.45958 12.18288.07825c13.33882.08567 13.74184.114 17.61896 1.2384 4.46028 1.29354 8.08378 3.26115 11.5153 6.25298 2.25651 1.96737 4.30498 4.32856 5.41346 6.23988.30471.52542.45303.9553.3296.9553-.12344 0 .0125.18424.30202.40942.31101.24186.96036 1.34025 1.5867 2.68393 3.284 7.04527 12.88077 26.38448 13.09287 26.38448.13742 0 .34107-.10235.45255-.22746.11148-.1251 2.38416-4.69669 5.0504-10.1591 4.39467-9.00348 4.89686-10.13828 5.37351-12.1426 2.78418-11.70745 12.5715-20.40403 25.10947-22.3112 2.52134-.38352 7.96616-.38026 10.57274.0062 5.26937.78151 10.13655 2.8857 14.07672 6.08567 1.50113 1.21912 1.60088 1.34752 1.60088 2.06055 0 .831-.09848.93875-5.38385 5.89074-2.65933 2.4916-2.6858 2.49683-4.8854.96722-1.76761-1.2292-3.77308-2.14656-6.0515-2.76813-1.3475-.36761-1.98332-.4265-4.49867-.41663-2.59208.01017-3.1221.06726-4.6033.49573-5.00663 1.44839-8.9741 5.01359-10.74363 9.6543-.9024 2.36659-1.15063 3.99345-1.01773 6.66996.34225 6.89251 4.96746 12.4635 11.9706 14.41839.83495.23307 2.13148.38265 3.87095.4466 2.20426.08103 2.90756.03541 4.47294-.28999 2.30443-.47905 4.81041-1.4976 6.69772-2.72226 1.80883-1.17373 2.39746-1.21568 3.45627-.24633.41373.37879 2.094 2.01602 3.73392 3.6383 2.83612 2.8056 2.98173 2.9874 2.98256 3.72388.00079.73131-.09289.85236-1.68901 2.18165-3.7858 3.15292-8.97468 5.40426-14.42338 6.25798-2.6587.41657-7.59974.41555-10.14817-.00206-4.22943-.69315-8.14619-2.0714-11.60743-4.08452-2.30075-1.33816-5.72448-4.20985-7.58343-6.36067-.8096-.93672-1.54541-1.63565-1.63515-1.55317-.08973.08248-3.13028 6.03164-6.75677 13.22036-3.6265 7.18872-6.7572 13.22758-6.95711 13.4197-.50262.48297-2.38568.49317-2.88267.0156zm-36.13118-27.12758c4.1883-1.07856 7.56749-3.39581 9.8402-6.74782 2.05703-3.03393 3.01008-7.11716 2.52899-10.83523-.1366-1.05563-.30674-2.05166-.3781-2.2134-.08267-.1873-.04627-.24916.1003-.1704.12655.06802-.3973-1.12633-1.1641-2.65408-.7668-1.52776-1.46694-2.80521-1.55588-2.83878-.08894-.03356-.10704-.13795-.04025-.23196.06682-.09401.04389-.14856-.05101-.12121-.09486.02737-1.01997-.6871-2.05577-1.58766-2.60276-2.2629-4.93515-3.39376-8.25045-4.00024-1.93776-.35448-11.08655-.40008-11.4808-.05722-.34232.29769-.36526 31.09946-.02357 31.65466.2217.36023.36481.3676 5.59719.28784 4.76095-.07256 5.54692-.12749 6.93325-.48449z"/><path fill="#935cd5" d="M107.1645 176.28562c-.19097-.18352-3.34497-6.30427-7.00886-13.60165-7.3761-14.69098-7.54669-15.02131-7.55629-14.6327-.01494.60354-2.53808 3.48235-4.71147 5.37557-4.25683 3.70808-8.77413 5.86534-14.71478 7.02712-1.93294.37801-2.61367.40028-14.31832.46848l-12.28889.0716-.52709-.45837-.52708-.45837v-52.984l.52848-.45958.52848-.45958 12.18288.07825c13.33882.08567 13.74184.114 17.61896 1.2384 4.46028 1.29354 8.08378 3.26115 11.5153 6.25298 2.25651 1.96737 4.30498 4.32856 5.41346 6.23988.30471.52542.45303.9553.3296.9553-.12344 0 .0125.18424.30202.40942.31101.24186.96036 1.34025 1.5867 2.68393 3.284 7.04527 12.88077 26.38448 13.09287 26.38448.13742 0 .34135-.10235.45316-.22746.11182-.1251 2.35961-4.64912 4.99508-10.05339 4.43314-9.09052 4.8-9.77146 4.90152-9.0981l.10974.72785.13262-1.00079c.19077-1.43963 1.15917-5.08385 1.78218-6.7066 4.442-11.5701 16.64358-19.06509 30.17486-18.5353 6.08296.23816 11.09183 1.76589 15.71777 4.79398 2.4258 1.5879 3.7601 2.80297 3.7601 3.42409 0 .5128-.20944.73884-4.35121 4.69591-3.54992 3.39163-3.44496 3.35655-5.5922 1.86854-1.86118-1.28977-3.73678-2.13771-6.07128-2.74477-2.37809-.6184-6.0848-.71002-8.2572-.2041-4.9463 1.15192-8.86585 4.0789-11.20977 8.37108-1.53084 2.80327-2.24779 6.77518-1.77728 9.84614.90489 5.90622 5.08841 10.89483 10.84137 12.92771 5.17683 1.8293 11.34124 1.06302 16.3045-2.02677 1.77776-1.10671 2.1115-1.21923 2.73327-.92152.2567.12291 2.02216 1.76192 3.92326 3.64225 4.23833 4.19204 4.1757 3.99226 1.85475 5.916-5.39773 4.47397-12.71776 6.80762-20.47307 6.52689-5.80927-.21029-10.60218-1.55955-15.41468-4.33943-2.38139-1.37557-6.29481-4.72169-7.98962-6.83142-1.15514-1.43794-1.90922-2.16708-1.42137-1.37436.1233.20034.14119.43038.04065.52235-.09883.0904-3.14682 6.04603-6.77332 13.23476-3.62649 7.18871-6.7572 13.22757-6.95711 13.41969-.50262.48297-2.38568.49317-2.88266.0156zm-36.13118-27.12758c4.1883-1.07856 7.56749-3.39581 9.8402-6.74782 2.05703-3.03393 3.01008-7.11716 2.52899-10.83523-.1366-1.05563-.30674-2.05166-.3781-2.2134-.08267-.1873-.04627-.24916.1003-.1704.12655.06802-.3973-1.12633-1.1641-2.65408-.7668-1.52776-1.46694-2.80521-1.55588-2.83878-.08894-.03356-.10704-.13795-.04025-.23196.06682-.09401.04389-.14856-.05101-.12121-.09486.02737-1.01997-.6871-2.05577-1.58766-2.60276-2.2629-4.93515-3.39376-8.25045-4.00024-1.93776-.35448-11.08655-.40008-11.4808-.05722-.34232.29769-.36526 31.09946-.02357 31.65466.2217.36023.36481.3676 5.59719.28784 4.76095-.07256 5.54692-.12749 6.93325-.48449zm48.4832-10.23898c-.06682-.14515-.11637-.10204-.1264.10994-.0091.19181.0404.29929.1099.23882.0695-.06045.07694-.2174.01652-.34876zm-.20923-1.09177c-.06683-.14516-.11638-.10204-.12642.10994-.0091.19181.04034.29928.1099.23882.06951-.06045.07694-.2174.01653-.34876zm-.20794-1.92197c-.05267-.17514-.0957-.03185-.0957.31843s.04303.49358.0957.31843c.05267-.17514.05267-.46173 0-.63686z"/><path fill="#ed724d" d="M145.2356 161.41137c-6.59668-.89189-12.30702-3.50345-17.00517-7.77712-4.10844-3.73725-6.57719-7.42728-8.0121-11.97572-1.05136-3.33262-1.51553-7.92144-1.07381-10.61579.85788-5.23286 2.65935-9.70894 5.36421-13.32843 6.07767-8.13275 15.87245-12.61333 26.6509-12.19132 6.08296.23816 11.09183 1.76589 15.71777 4.79398 2.4258 1.5879 3.7601 2.80297 3.7601 3.42409 0 .5128-.20944.73884-4.35121 4.69591-3.54992 3.39163-3.44496 3.35655-5.5922 1.86854-1.86118-1.28977-3.73678-2.13771-6.07128-2.74477-2.37809-.6184-6.0848-.71002-8.2572-.2041-4.9463 1.15192-8.86585 4.0789-11.20977 8.37108-1.53084 2.80327-2.24779 6.77518-1.77728 9.84614.90489 5.90622 5.08841 10.89483 10.84137 12.92771 5.17683 1.8293 11.34124 1.06302 16.3045-2.02677 1.77776-1.10671 2.1115-1.21923 2.73327-.92152.2567.12291 2.02216 1.76192 3.92326 3.64225 4.23833 4.19204 4.1757 3.99226 1.85475 5.916-3.9846 3.30267-9.3975 5.58209-14.96206 6.30063-2.66148.34367-6.29275.34334-8.83804-.0007zm-99.1968-.8757l-.52708-.45837v-52.984l.52848-.45958.52848-.45958 12.18288.07825c13.33882.08567 13.74184.114 17.61896 1.2384 4.46028 1.29354 8.08378 3.26115 11.5153 6.25298 2.25651 1.96737 4.30498 4.32856 5.41346 6.23988l.55403.9553h-6.48998c-6.21099 0-6.50797.01568-6.90846.36393-.45702.39743-.53852 1.15744-.20573 1.91862.14324.32763-.45492-.0995-1.83086-1.30738-2.75298-2.41674-5.01808-3.53619-8.41101-4.15686-1.93776-.35448-11.08654-.40008-11.4808-.05722-.384.33394-.3613 31.24239.02333 31.69978.25469.3029.65653.32036 5.59718.24327 6.01781-.0939 7.0689-.2618 10.02498-1.60148 6.4136-2.90657 10.12781-9.53245 9.23058-16.46661-.1366-1.05563-.3046-2.0587-.37335-2.22903-.0871-.21583-.05646-.25455.101-.12775.28482.22932 9.46034 18.5142 9.46155 18.85487.00238.57243-2.55184 3.47918-4.70383 5.35376-4.25683 3.70808-8.77413 5.86534-14.71478 7.02712-1.93294.37801-2.61366.40028-14.31832.46847l-12.28889.07161z"/><path fill="#f26736" d="M145.42403 161.3147c-6.3737-.79898-12.52468-3.59563-17.07383-7.76291-4.3376-3.9735-7.00491-8.39726-8.39089-13.91643-.40457-1.61108-.46897-2.40984-.47308-5.8681-.00396-3.4983.05504-4.23891.46936-5.87253.69355-2.7345 1.41603-4.61008 2.64633-6.86992 4.47582-8.22121 12.87814-13.78962 22.8221-15.1247 2.82172-.37885 7.97161-.23687 10.8805.29997 3.95252.72944 7.9056 2.40649 11.33232 4.80761 3.05284 2.13916 3.32278 2.67324 2.00726 3.97149-3.44395 3.39872-6.42905 6.14454-6.78758 6.2435-.28292.0781-.61765-.01368-.97995-.26868-4.24614-2.98846-7.23607-4.02787-11.64188-4.04712-2.83132-.01238-4.558.32633-7.1123 1.39519-7.78396 3.2572-11.83804 11.9495-9.29512 19.92958.8335 2.61567 2.27108 4.82955 4.45363 6.8586 2.14309 1.99236 4.64606 3.30488 7.78858 4.08422 2.26102.56072 5.92696.55694 8.35189-.0086 2.15043-.50155 4.63478-1.54725 6.48197-2.72836 1.52454-.97481 1.90365-1.08404 2.45108-.70622.18127.1251 1.84703 1.72384 3.7017 3.55275 4.12427 4.06698 4.07616 3.9186 1.86212 5.74363-3.89044 3.2069-9.16435 5.44973-14.6015 6.20956-2.14315.2995-6.79811.34008-8.89271.0775zm-99.38523-.77903l-.52708-.45837v-52.984l.52848-.45958.52848-.45958 12.18288.07825c13.33882.08567 13.74184.114 17.61896 1.2384 4.46028 1.29354 8.08378 3.26115 11.5153 6.25298 2.25651 1.96737 4.30498 4.32856 5.41346 6.23988l.55403.9553h-6.48998c-6.21099 0-6.50797.01568-6.90846.36393-.45702.39743-.53852 1.15744-.20573 1.91862.14324.32763-.45492-.0995-1.83086-1.30738-2.75298-2.41674-5.01808-3.53619-8.41101-4.15686-1.93776-.35448-11.08654-.40008-11.4808-.05722-.384.33394-.3613 31.24239.02333 31.69978.25469.3029.65653.32036 5.59718.24327 6.01781-.0939 7.0689-.2618 10.02498-1.60148 6.4136-2.90657 10.12781-9.53245 9.23058-16.46661-.1366-1.05563-.3046-2.0587-.37335-2.22903-.0871-.21583-.05646-.25455.101-.12775.28482.22932 9.46034 18.5142 9.46155 18.85487.00238.57243-2.55184 3.47918-4.70383 5.35376-4.25683 3.70808-8.77413 5.86534-14.71478 7.02712-1.93294.37801-2.61366.40028-14.31832.46847l-12.28889.07161z"/><path fill="#12acc6" d="M46.0388 160.53567l-.52708-.45837v-52.984l.52848-.45958.52848-.45958 12.18288.07825c13.33882.08567 13.74184.114 17.61896 1.2384 4.46028 1.29354 8.08378 3.26115 11.5153 6.25298 2.25651 1.96737 4.30498 4.32856 5.41346 6.23988l.55403.9553h-6.48998c-6.21099 0-6.50797.01568-6.90846.36393-.45702.39743-.53852 1.15744-.20573 1.91862.14324.32763-.45492-.0995-1.83086-1.30738-2.75298-2.41674-5.01808-3.53619-8.41101-4.15686-1.93776-.35448-11.08654-.40008-11.4808-.05722-.384.33394-.3613 31.24239.02333 31.69978.25469.3029.65653.32036 5.59718.24327 6.01781-.0939 7.0689-.2618 10.02498-1.60148 6.4136-2.90657 10.12781-9.53245 9.23058-16.46661-.1366-1.05563-.3046-2.0587-.37335-2.22903-.0871-.21583-.05646-.25455.101-.12775.28482.22932 9.46034 18.5142 9.46155 18.85487.00238.57243-2.55184 3.47918-4.70383 5.35376-4.25683 3.70808-8.77413 5.86534-14.71478 7.02712-1.93294.37801-2.61366.40028-14.31832.46847l-12.28889.07161z"/></svg>