<svg xmlns="http://www.w3.org/2000/svg" role="img" viewBox="-2.84 -2.84 147.55 39.55"><title>Expero logo</title><path fill="#000" d="M40.5219 14.83492h10.471c-.09438-1.7457-.66965-3.06592-1.72182-3.96371-1.05316-.89678-2.23051-1.34465-3.53107-1.34465-1.30155 0-2.47393.44787-3.51418 1.34465-1.04223.89779-1.60955 2.218-1.70394 3.96371zm13.70103 1.52787v1.16347H40.5219c.18878 1.69684.80378 3.01808 1.84602 3.96371 1.04024.94563 2.61999 1.41794 4.73823 1.41794 2.11725 0 4.07554-.60463 5.87486-1.81798h.17685v3.2003c-1.9881 1.13903-4.32492 1.70905-7.01048 1.70905-2.68557 0-4.83958-.84282-6.46006-2.52745-1.62147-1.68463-2.43121-3.96372-2.43121-6.83624 0-2.87354.72131-5.24322 2.16494-7.10903 1.44363-1.86786 3.54995-2.80127 6.31897-2.80127 2.76803 0 4.87336.93341 6.31798 2.80127 1.44263 1.86581 2.16494 4.1449 2.16494 6.83623zm18.24355-9.2731l-6.9926 9.16317 6.9926 9.38303h-4.04573l-4.86243-6.58278h-.17785l-4.61503 6.58278H54.7197l6.95683-9.16418L54.7197 7.0897h4.04573l4.79288 6.6184h.17685l4.68558-6.6184h4.04573zm10.61309 2.72697c1.75063 0 3.15849.57002 4.22457 1.70906 1.06409 1.14005 1.59663 2.7524 1.59663 4.83707 0 2.08569-.53254 3.69703-1.59663 4.83606-1.06608 1.14005-2.47394 1.70906-4.22457 1.70906-2.13017 0-3.99904-.90899-5.60859-2.72696v-7.63733c1.60955-1.81797 3.47842-2.72696 5.60859-2.72696zm6.47794 13.56457c-1.71586 1.7447-3.72084 2.61805-6.01594 2.61805-2.2961 0-4.2832-.89677-5.96428-2.69133h-.1063V34h-3.23003V7.0897h2.83956l.39046 2.32692h.10631c1.68109-1.79354 3.66819-2.69133 5.96428-2.69133 2.2951 0 4.30008.87336 6.01594 2.61906 1.71586 1.74469 2.57329 4.08586 2.57329 7.01844 0 2.9336-.85743 5.27274-2.5733 7.01844zm7.50725-8.54631c.09439-1.7457.6627-3.06592 1.70394-3.96371 1.04124-.89678 2.21164-1.34465 3.51418-1.34465 1.30056 0 2.47791.44787 3.53207 1.34465 1.05217.89779 1.62544 2.218 1.72083 3.96371H97.06476zm13.70104 1.52787v1.16347H97.06476c.18878 1.69684.80378 3.01808 1.84502 3.96371 1.04124.94563 2.62099 1.41794 4.73923 1.41794 2.11725 0 4.07554-.60463 5.87486-1.81798h.17784v3.2003c-1.98809 1.13903-4.32591 1.70905-7.01147 1.70905-2.68557 0-4.83958-.84282-6.46006-2.52745-1.62048-1.68463-2.43121-3.96372-2.43121-6.83624 0-2.87354.72131-5.24322 2.16494-7.10903 1.44263-1.86786 3.54995-2.80127 6.31897-2.80127 2.76803 0 4.87435.93341 6.31699 2.80127 1.44362 1.86581 2.16593 4.1449 2.16593 6.83623zm12.52965-9.6375h.28316v3.16364h-.28316c-1.39693 0-2.69848.27992-3.90465.83672-1.20617.55882-2.15302 1.33345-2.83956 2.32794v12.5823h-3.23003V7.08969h2.83956l.39047 2.32693v.5456h.07054c1.70394-2.15694 3.9285-3.23693 6.67367-3.23693zm5.51916 14.60182c-1.1714-1.10341-1.75759-2.76463-1.75759-4.98264s.5862-3.87312 1.7576-4.96431c1.17139-1.09018 2.53851-1.63577 4.09938-1.63577 1.56185 0 2.92798.5456 4.10037 1.63577 1.1714 1.09119 1.7556 2.7463 1.7556 4.96431s-.5842 3.87923-1.7556 4.98264c-1.17239 1.1034-2.53852 1.65409-4.10038 1.65409-1.56086 0-2.92798-.55069-4.09938-1.6541zm-4.98761-4.96432c0-2.88473.82862-5.21268 2.48486-6.98281 1.65625-1.76912 3.851-2.6547 6.58425-2.6547s4.93397.88558 6.60213 2.6547C141.16741 11.1501 142 13.47806 142 16.36279c0 2.88576-.8326 5.21268-2.50176 6.9818-1.66817 1.76912-3.86888 2.6547-6.60213 2.6547s-4.928-.88558-6.58425-2.6547c-1.65624-1.76912-2.48486-4.09604-2.48486-6.9818zm-94.97335 9.26903H16.8337l6.02985-3.56572v-7.08155l5.9901 10.64727zM14.42037 7.0846l-5.96229 3.52703L14.43328 0l5.97918 10.62894-5.9921-3.54433zM5.97818 22.0661l6.02886 3.5657H0l5.97818-10.6157v7.05z" fill-rule="evenodd"/></svg>