<svg xmlns="http://www.w3.org/2000/svg" role="img" viewBox="-0.30 -4.80 483.60 404.10"><title>Feast logo</title><path fill="#ea4335" d="M264.495 41.658h5.111l14.57-14.569.715-6.186a65.48545 65.48545 0 00-106.536 31.95 7.92482 7.92482 0 015.111-.306l29.14-4.806s1.482-2.454 2.25-2.3a36.347 36.347 0 0149.74-3.784h-.101z"/><path fill="#4285f4" d="M304.933 52.853a65.64708 65.64708 0 00-19.783-31.899l-20.449 20.448a36.345 36.345 0 0113.342 28.832v3.63a18.1995 18.1995 0 010 36.399h-36.397l-3.631 3.681v21.83l3.631 3.629h36.397a47.33966 47.33966 0 0026.89-86.55z"/><path fill="#34a853" d="M205.194 139.198h36.399v-29.139h-36.399a18.107 18.107 0 01-7.515-1.636l-5.11 1.585-14.673 14.568-1.278 5.114a47.09 47.09 0 0028.576 9.508z"/><path fill="#fbbc05" d="M205.194 44.674a47.33736 47.33736 0 00-28.576 84.86l21.112-21.112a18.2 18.2 0 1124.08-24.08l21.111-21.112a47.286 47.286 0 00-37.727-18.556z"/><path fill="#5f6368" d="M41.848 278.347a31.4599 31.4599 0 01-22.796-9.36 31.28633 31.28633 0 010-45.038 31.469 31.469 0 0122.796-9.534 30.54208 30.54208 0 0121.863 8.809l-6.147 6.252a22.145 22.145 0 00-15.715-6.218 21.89693 21.89693 0 00-16.233 6.908 23.26607 23.26607 0 000 32.604 23.17648 23.17648 0 0032.329.38 18.38 18.38 0 004.732-10.742H41.952v-8.842h29.324a28.11173 28.11173 0 01.345 5.389 27.64 27.64 0 01-7.564 20.379 29.39608 29.39608 0 01-22.209 9.013zm68.179-5.87a21.13683 21.13683 0 01-29.254 0 21.01617 21.01617 0 010-29.358 21.17 21.17 0 0129.254 0 20.97357 20.97357 0 01-.034 29.358zm-22.795-5.769a11.19084 11.19084 0 0015.817.52c.179-.167.352-.341.52-.52a13.26567 13.26567 0 000-17.856 11.36293 11.36293 0 00-16.066-.34 13.19534 13.19534 0 00-.305 18.196zm67.766 5.769a21.13808 21.13808 0 01-29.255 0 21.01869 21.01869 0 010-29.358 21.13617 21.13617 0 0129.255 0 21.01869 21.01869 0 010 29.358zm-22.797-5.769a11.19087 11.19087 0 0015.817.52c.179-.167.353-.341.52-.52a13.26283 13.26283 0 000-17.856 11.36293 11.36293 0 00-16.066-.34 13.19533 13.19533 0 00-.305 18.196h.034zm52.361 30.083a18.09379 18.09379 0 01-11.502-3.66 21.19211 21.19211 0 01-6.7-8.497l7.875-3.28a13.27715 13.27715 0 003.902 5.145 9.83991 9.83991 0 006.459 2.176 10.3599 10.3599 0 008.048-3.108 12.61 12.61 0 002.867-8.979v-2.971h-.311a13.16 13.16 0 01-10.811 4.663 18.74588 18.74588 0 01-13.815-6.01 19.863 19.863 0 01-5.907-14.471 20.069 20.069 0 015.907-14.576 18.719 18.719 0 0113.815-6.044 14.82988 14.82988 0 016.355 1.416 12.76652 12.76652 0 014.49 3.281h.311v-3.281h8.565v36.784a21.444 21.444 0 01-5.492 16.061 19.34294 19.34294 0 01-14.056 5.351zm.622-26.525a10.05254 10.05254 0 007.806-3.455 12.773 12.773 0 003.143-8.841 13.058 13.058 0 00-3.143-9.015 10.02 10.02 0 00-7.806-3.454 10.675 10.675 0 00-8.082 3.454 12.60507 12.60507 0 00-3.455 8.945 12.36306 12.36306 0 003.455 8.842 10.709 10.709 0 008.082 3.524zm34.159-53.536v60.374h-9.015V216.73zm24.73 61.617a19.61772 19.61772 0 01-14.541-5.904 20.005 20.005 0 01-5.838-14.645 20.248 20.248 0 015.63-14.784 18.52 18.52 0 0113.815-5.768 17.46715 17.46715 0 016.907 1.348 16.26 16.26 0 015.285 3.453 24.12313 24.12313 0 013.454 4.181 24.66631 24.66631 0 012.038 4.04l.933 2.348-27.631 11.364a10.359 10.359 0 009.947 6.216 11.771 11.771 0 0010.119-5.698l6.907 4.663a22.76379 22.76379 0 01-6.631 6.286 18.784 18.784 0 01-10.394 2.9zm-11.536-21.172l18.375-7.633a6.365 6.365 0 00-2.867-3.144 9.39925 9.39925 0 00-4.732-1.209 10.67909 10.67909 0 00-7.427 3.282 10.949 10.949 0 00-3.349 8.704zm76.435 21.172a28.45834 28.45834 0 01-28.947-27.963c-.007-.385-.007-.77.003-1.152a28.45772 28.45772 0 0127.791-29.112c.385-.009.769-.012 1.153-.004a25.767 25.767 0 0120.48 9.118l-4.973 4.835a18.791 18.791 0 00-15.474-7.079 21.103 21.103 0 00-15.37 6.146 23.84456 23.84456 0 000 32.191 21.102 21.102 0 0015.37 6.149 21.975 21.975 0 0017.269-8.083l4.975 4.974a27.132 27.132 0 01-9.568 7.287 29.27415 29.27415 0 01-12.709 2.693zm35.643-1.243h-7.149v-55.78h7.149zm11.674-33.572a20.001 20.001 0 0128.185 0 21.80674 21.80674 0 010 29.013 19.99917 19.99917 0 01-28.185 0 21.80377 21.80377 0 010-29.013zm5.318 24.524a12.056 12.056 0 0017.042.47c.161-.151.317-.309.47-.47a15.42213 15.42213 0 000-20.034 12.05639 12.05639 0 00-17.04-.472c-.161.154-.319.311-.472.472a15.32331 15.32331 0 00.035 19.997zm68.007 9.048h-6.906v-5.285h-.208a13.294 13.294 0 01-5.043 4.767 14.09723 14.09723 0 01-7.08 1.9 13.441 13.441 0 01-10.846-4.352 17.274 17.274 0 01-3.695-11.676v-23.485h7.15v22.175q0 10.66951 9.428 10.671a8.77 8.77 0 007.253-3.453 13.0239 13.0239 0 002.799-8.255v-21.138h7.148v38.131zm24.281 1.243a16.778 16.778 0 01-12.779-5.836 22.23742 22.23742 0 010-28.945 16.792 16.792 0 0112.779-5.837 16.22991 16.22991 0 017.806 1.865 13.243 13.243 0 015.181 4.663h.312l-.312-5.284v-17.649h7.15v55.78h-6.908v-5.285h-.312a13.20814 13.20814 0 01-5.181 4.663 16.18988 16.18988 0 01-7.736 1.865zm1.175-6.528a11.40462 11.40462 0 008.6-3.729 16.35095 16.35095 0 000-20.102 11.67366 11.67366 0 00-16.491-.779c-.271.248-.531.508-.777.779a16.24926 16.24926 0 000 20.032 11.39189 11.39189 0 008.668 3.799z"/><path d="M166.00781 341.91406h33.87012v8.34668h-24.00879v10.92481h21.044v8.25h-21.044v19.916h-9.86133zm62.46436 13.02149a14.28645 14.28645 0 016.06982 5.19726 17.26433 17.26433 0 012.79883 7.26172 44.90049 44.90049 0 01.30273 6.97168h-25.584q.21387 5.28661 3.67334 7.41211a9.32237 9.32237 0 005.064 1.32129 7.13281 7.13281 0 006.99023-4.02832h9.37695a11.47076 11.47076 0 01-3.40478 6.34863q-4.72047 5.124-13.21533 5.124a19.14813 19.14813 0 01-12.37305-4.32129q-5.36059-4.32276-5.36035-14.06446 0-9.126 4.83886-13.998a16.93711 16.93711 0 0112.56152-4.87017 20.01029 20.01029 0 018.26123 1.64555zm-13.74024 7.93554a9.5401 9.5401 0 00-2.44677 5.43653h15.82324a7.65867 7.65867 0 00-2.44678-5.54981 8.04267 8.04267 0 00-5.44726-1.89453 7.284 7.284 0 00-5.48243 2.00781zm41.46924 5.11426a14.49715 14.49715 0 003.668-.80566 2.76357 2.76357 0 001.98047-2.61035 3.08741 3.08741 0 00-1.51953-2.98145 9.60864 9.60864 0 00-4.459-.82129q-3.29882 0-4.67089 1.61133a6.64831 6.64831 0 00-1.30665 3.22266h-8.8623a13.43033 13.43033 0 012.58984-7.57325q3.65625-4.64062 12.55762-4.64062a22.389 22.389 0 0110.292 2.28808q4.5 2.28955 4.499 8.63672v16.11328q0 1.67579.06445 4.06055a5.10244 5.10244 0 00.54785 2.44922 3.28485 3.28485 0 001.35352 1.06348v1.35351h-9.99024a10.2311 10.2311 0 01-.58008-1.998q-.16113-.93457-.25781-2.127a18.96688 18.96688 0 01-4.4082 3.5127 13.3235 13.3235 0 01-6.74219 1.708 11.63884 11.63884 0 01-7.92578-2.72266 9.6867 9.6867 0 01-3.12793-7.71875q0-6.47754 5.03223-9.37793a22.48723 22.48723 0 018.11621-2.25586zm5.61524 4.28613a10.24737 10.24737 0 01-1.78028.88672 15.156 15.156 0 01-2.46582.62793l-2.09082.38672a13.74265 13.74265 0 00-4.22168 1.25684 4.19448 4.19448 0 00-2.16992 3.89941 4.07135 4.07135 0 001.3252 3.39942 5.03328 5.03328 0 003.22363 1.04785 9.5968 9.5968 0 005.5459-1.74024q2.53564-1.74022 2.63379-6.34863zm24.2998 5.86524a6.11742 6.11742 0 001.2627 3.48047q1.71679 1.83691 6.34668 1.83691a9.715 9.715 0 004.32324-.80566 2.69913 2.69913 0 00.31152-4.76953q-1.292-.80567-9.6084-2.77149-5.98827-1.48242-8.43652-3.70605a8.03335 8.03335 0 01-2.44922-6.31641 10.94466 10.94466 0 013.82715-8.3623q3.82617-3.49806 10.77051-3.49707 6.5874 0 10.7373 2.626 4.15137 2.62794 4.76465 9.07227h-9.18457a5.42 5.42 0 00-1.002-2.80371q-1.519-1.86768-5.16992-1.86914a7.44562 7.44562 0 00-4.28223.93457 2.68918 2.68918 0 00-1.27637 2.1914 2.396 2.396 0 001.35742 2.28809q1.35645.74268 9.58985 2.5459 5.4873 1.28906 8.22754 3.89941a8.85321 8.85321 0 012.707 6.60645 10.662 10.662 0 01-3.8916 8.52343q-3.89062 3.30469-12.02735 3.30372-8.2998 0-12.25488-3.49707a11.36163 11.36163 0 01-3.95606-8.91016zm25.97461-17.04785v-6.542h4.89844V344.75h9.08789v9.79688h5.7041v6.542h-5.7041v18.5625q0 2.15918.54785 2.69043.54784.53321 3.35156.53222c.2793 0 .57422-.00488.88672-.0166.31055-.00976.61719-.02637.918-.04785v6.86426l-4.35059.16113q-6.50976.22413-8.89453-2.25586a6.715 6.715 0 01-1.54687-4.86621v-21.624z"/></svg>