<svg xmlns="http://www.w3.org/2000/svg" role="img" viewBox="-6.84 -6.84 355.42 296.67"><title>Gaffer logo</title><radialGradient id="a" cx="2242.768" cy="144.334" r="26.645" gradientTransform="matrix(-.7216 -.6923 -.5089 .5305 1807.608 1620.403)" gradientUnits="userSpaceOnUse"><stop offset="0" stop-color="#083e3e"/><stop offset=".284" stop-color="#16564c"/><stop offset=".576" stop-color="#206b56"/><stop offset=".825" stop-color="#26785b"/><stop offset="1" stop-color="#287d5d"/></radialGradient><path fill="url(#a)" d="M125.025 133.597c1.383 1.411 2.884 3.444 4.218 5.744l.013.015.01.027c2.239 3.868 4.001 8.489 3.902 12.208-.015.891-.131 1.729-.379 2.494-2.1.391-4.227-2.086-5.89-3.695 0 0-13.513-11.267-20.167-10.515-.097.009-.192.031-.289.044 0 0-1.262.147-1.492.271-1.221.28-2.397.712-3.533 1.265 6.155-3.58 15.356-7.107 21.941-9.535.647.615 1.249 1.248 1.666 1.677z"/><radialGradient id="b" cx="2184.569" cy="84.609" r="126.353" gradientTransform="matrix(-1 0 0 1 2358.488 0)" gradientUnits="userSpaceOnUse"><stop offset="0" stop-color="#2371b9"/><stop offset=".139" stop-color="#236697"/><stop offset=".336" stop-color="#1e5874"/><stop offset=".525" stop-color="#164d5b"/><stop offset=".704" stop-color="#0f454b"/><stop offset=".867" stop-color="#0a4042"/><stop offset="1" stop-color="#083e3e"/></radialGradient><path fill="url(#b)" d="M171.754 73.767l.118 8.515-1.854 3.239 1.072 1.129 1.71.783 1.98 2.892 1.755 2.755-.095 5.569-2.379 1.275-5.304 1.407-4.278-1.407s-10.709-.123-11.556 0c-.845.122-8.736 0-8.736 0l-20.101 2.837-13.205-1.17-8.079-4.504-2.864-4.254h8.03l4.278-.191 4.206-4.341 1.879-6.211 1.153-5.542 8.12-7.823 5.879-7.408 5.347-4.981 12.402-1.001 10.427 2.991 6.513 4.188 3.58 11.25v.003z"/><path fill="#005A95" d="M131.504 117.413l-12.06-8.967-8.605-6.406-5.201-3.554-6.883-5.203-2.837-13.562 6.843-11.683 5.163-6.272h-9.169l-12.513 4.697-5.622 20.286-1.869 10.788 2.9 8.728 10.728 6.613 7.676 4.535 12.193 3.802 9.972.235z"/><radialGradient id="c" cx="2295.065" cy="64.804" r="76.789" gradientTransform="matrix(-.8471 -.5313 -1.2654 2.0177 2092.266 1169.265)" gradientUnits="userSpaceOnUse"><stop offset="0" stop-color="#010101"/><stop offset=".114" stop-color="#030304"/><stop offset=".171" stop-color="#080a0c"/><stop offset=".215" stop-color="#0f1317"/><stop offset=".253" stop-color="#161d24"/><stop offset=".287" stop-color="#1b2631"/><stop offset=".318" stop-color="#1e3041"/><stop offset=".346" stop-color="#1e3b54"/><stop offset=".372" stop-color="#15476b"/><stop offset=".384" stop-color="#074c77"/><stop offset=".392" stop-color="#0c517f"/><stop offset=".415" stop-color="#185e95"/><stop offset=".438" stop-color="#1f68a6"/><stop offset=".461" stop-color="#226fb3"/><stop offset=".483" stop-color="#2371b9"/><stop offset=".509" stop-color="#226fb3"/><stop offset=".538" stop-color="#1f68a6"/><stop offset=".568" stop-color="#185e94"/><stop offset=".598" stop-color="#0b507d"/><stop offset=".606" stop-color="#074c77"/><stop offset=".613" stop-color="#0f4a71"/><stop offset=".643" stop-color="#1d3e59"/><stop offset=".677" stop-color="#1f3244"/><stop offset=".712" stop-color="#1c2833"/><stop offset=".75" stop-color="#171e25"/><stop offset=".792" stop-color="#101418"/><stop offset=".84" stop-color="#080b0d"/><stop offset=".899" stop-color="#030304"/><stop offset="1" stop-color="#010101"/></radialGradient><path fill="url(#c)" d="M11.166 94.364c.5-.58 1.099-.785.779-1.473-1.111-.637-1.951-.481-2.753-.256-.682.196-1.336.439-2.1.292-.509-.257-.369-5.208 2.469-8.319 1.217-1.332 5.114-4.452 4.944-5.407-.181-1.008-4.105-1.163-5.274-1.698-.701-.603.529-3.261 1.317-4.286.969-1.155 1.857-1.934 2.925-2.969 4.623-4.15-.388-3.356-.87-6.836-.372-2.857 2.368-5.821 4.044-7.75.703-.898 6.029-5.141 5.937-5.941 0-.698-2.813-.988-4.272-1.729-2.424-1.291 1.163-5.872 2.251-7.152.876-1.154 2.674-2.149 4.089-3.17 3.229-2.107 5.123-2.919.757-4.77-1.676-.691-3.979-.3-4.144-.608-.421-.458 1.667-4.224 2.738-5.133 2.047-1.693 3.505-2.255 6.97-3.058 1.474-.341 3.83-.417 4.164-1.512-.117-1.421-3.501-2.542-4.528-3.131 1.072-2.094 6.768-1.994 6.813-2.563.009-1.015-2.037-2.783-4.159-3.729.582-1.768 5.222-3.887 7.728-4.503 2.303-.675 9.737-.374 9.769-.954.433-1.126-3.626-4.977-5.425-6.057.05-.246.41-.476 1.045-.619C52.3-.235 62.249.065 65.533.5c22.554 2.993 37.854 15.641 45.221 23.329-4.481.825-8.87 1.952-13.13 3.376-26.26 9.72-47.812 29.469-60.225 54.716-2.762 5.615-5.074 11.501-6.88 17.611-1.208 4.08-2.182 8.261-2.927 12.526 0 0-4.098 17.314.151 40.152.721 3.958 2.906 12.197 2.99 12.47.777 2.565 1.656 5.086 2.602 7.578-.908-.234-2.208.013-3.366 1.116-1.201-.528 1.191-2.448.602-3.677-.289-.363-1.638.532-2.1.3-1.3-.457 1.651-5.024-1.499-2.926-1.185-1.202 1.091-1.855-.221-3.9-.961-1.501-2.208.328-2.807.014-1.228-.646.063-2.658.182-3.818.138-1.292.435-3.5-2.62-1.301-.465.332-1.712-.965.34-5.968.203-.494-1.286-1.558-2.828-.303-1.879 1.529-.306-3.461-.829-4.118-1.226-1.08-2.149 1.132-3.172.775-1.315-1.196 1.222-5.731.987-6.235-.446-.988-1.635-.36-2.447-.571-1.523-1.202.257-3.487.654-4.574 2.683-7.318-1.831-3.347-1.967-4.59-.354-5.106 4.432-5.178 1.638-6.58-.932-.468-2.163-.258-2.642-.989-1.548-2.443 2.827-6.376 1.264-7.328-.848-.511-3.506.501-3.9-.638-1.552-4.508 4.098-7.963 2.979-10.313-.728-1.019-2.968.789-4.213.016-.53-1.566.231-6.748.912-8.271.793-1.809 2.068-3.059 2.884-4.015z"/><radialGradient id="d" cx="2214.026" cy="157.39" r="291.908" fx="2181.721" fy="156.167" gradientTransform="matrix(-.8695 -.4939 -.5415 .9533 2154.8 1100.909)" gradientUnits="userSpaceOnUse"><stop offset=".044" stop-color="#ebe334"/><stop offset=".094" stop-color="#e7e135"/><stop offset=".147" stop-color="#dcdb39"/><stop offset=".203" stop-color="#c8d23e"/><stop offset=".259" stop-color="#acc643"/><stop offset=".296" stop-color="#96bd46"/><stop offset=".311" stop-color="#90b94c"/><stop offset=".334" stop-color="#7fb05c"/><stop offset=".362" stop-color="#64a272"/><stop offset=".394" stop-color="#339288"/><stop offset=".399" stop-color="#278f8c"/><stop offset=".419" stop-color="#298f81"/><stop offset=".461" stop-color="#2d8f65"/><stop offset=".483" stop-color="#2f8f54"/><stop offset=".606" stop-color="#2f8f54"/><stop offset=".778" stop-color="#489d6c"/><stop offset="1" stop-color="#287d5d"/></radialGradient><path fill="url(#d)" d="M27.229 152.188c.726 3.96 2.918 12.196 3.001 12.469.779 2.564 1.658 5.089 2.608 7.577 11.867 31.042 36.75 55.834 68.19 65.29 1.789.537 5.855 1.726 5.898 1.738 1.147.602 2.237 1.446 2.949 2.374.469.615 1.307 1.798 1.669 2.442 3.429 6.126 6.022 10.963 6.11 11.102.629 1.148 1.336 2.301 2.12 3.447 1.108 1.615 2.361 3.22 3.763 4.794 3.375 3.793 7.574 7.413 12.445 10.568.385.249.771.489 1.158.728 2.743 1.698 5.521 3.143 8.284 4.329 3.206 1.38 6.384 2.411 9.448 3.097 2.399.531 4.727.855 6.941.957.333-.16.59-.389.728-.722-.579.021-1.205-.06-1.853-.19-.24-.021-.412-.05-.592-.117-10.634-2.768-29.159-19.617-32.263-34.509-.721-3.46-.609-6.813.627-9.86.987-2.432 2.329-4.683 3.925-6.771.414-.541.834-1.077 1.28-1.599 7.932-9.228 21.1-14.845 32.5-16.653 7.439-1.178 14.126-.741 18.103 1.387.076.04.059.168.09.249.126-.019.291-.057.559-.134.14-.115.245-.232.305-.366-.899-1.077-1.969-2.043-3.19-2.896-3.104-2.173-7.174-3.596-11.814-4.2-4.353-.569-9.205-.414-14.252.546-2.564.488-5.177 1.174-7.795 2.083-1.812.631-3.554 1.34-5.223 2.117-2.852 1.324-5.481 2.848-7.85 4.516-.941.661-1.845 1.344-2.703 2.052-.5.438-6.34 5.081-7.268 5.692-2.738 2.223-5.822 3.623-9.163 3.974-.083.008-.169.008-.252.015-1.737.156-3.504.167-5.162-.377-4.236-1.386-8.05-3.889-11.292-6.864-7.435-6.824-12.383-19.231-13.95-33.236-.019-.172-.043-.345-.062-.519-1.719-16.365 2.165-31.182 9.336-39.507.838-.973 1.719-1.857 2.643-2.645 1.13-1.021 2.665-2.063 4.449-3.103 6.155-3.579 15.356-7.107 21.942-9.536 4.114-1.518 7.209-2.608 7.886-3.01l.008-.004c.004-.001.014-.009.014-.009 3.485-1.559 6.488-4.328 8.179-6.28 1.099-1.122 3.005-3.875 3.19-4.123.457-.624 10.915-4.012 14.19-6.987 2.656-1.622 11.261-8.483 11.628-9.73 4.396.125 8.424-.873 8.698-6.113.003-.026-.002-.05 0-.077v-.014c.124-3.483-2.832-7.232-4.63-8.607 0 0-.888-.656-1.884-1.534v-.002c.271-.299.525-.66.746-1.12.913-1.898 1.044-6.637.958-8.106-.275-4.759-1.791-11.751-4.714-14.563-1.555-1.496-3.203-2.244-5.127-2.994-2.127-.854-4.254-4.56-6.295-7.7l-.009-.013c-.269-.415-2.158-3.059-2.758-3.64-1.467-1.621-2.108-2.245-4.398-3.743-4.577-2.993-3.293-.997-7.871-8.232l-1.648-2.495c-.551-.748-4.254-4.789-4.552-5.075l-.013-.015-.017-.012c-1.679-1.596-4.368-3.412-6.225-4.254-.442-.187-4.425-1.127-5.821-1.247-3.028-.261-5.695.035-7.681.442-.297.061-2.188.521-2.188.521-1.059.159-2.108.352-3.156.546-4.481.829-8.87 1.958-13.13 3.389-26.249 9.741-47.782 29.509-60.176 54.768-2.757 5.616-5.061 11.505-6.865 17.618-1.203 4.081-2.174 8.264-2.916 12.526.005-.001-4.077 17.32.19 40.15zm89.212-67.705c0 .07-.009.141-.012.21.002.036.007.069.007.105 0 .185-.018.365-.031.545-.221 3.317-2.717 6.005-5.944 6.52-.328.069-2.027.094-2.547-.046-3.233-.659-5.667-3.518-5.667-6.947 0-3.916 3.174-7.09 7.093-7.09 3.01 0 5.576 1.881 6.603 4.527.322.683.491 1.418.498 2.176zm53.281.617c-.367-.749-.683-4.082-1.191-5.738-.703-2.287-2.444-6.196-4.135-7.711-5.586-5.014-10.66-5.536-17.067-4.788-2.019.25-4.29.867-6.058 1.458-2.58.86-6.388 3.061-7.577 4.058-1.689 1.056-5.083 5.235-5.543 5.736l-5.308 7.36c-.55.498-7.702 10.952-16.482 9.854-.135-.094-.217-.14-.259-.165.002-.016-.002-.039-.007-.065.007-.014.009-.031.007-.056 4.936-.126 7.498-1.375 10.882-5.239.732-.873 1.097-1.247 1.831-2.246.641-.748 1.007-1.497 1.647-2.37 2.196-3.493 4.21-6.112 6.5-9.856 1.188-1.87 5.22-6.611 6.687-7.734 0 0 3.446-3.498 5.492-4.74 1.703-1.035 3.197-1.687 4.938-2.68 5.486-3.133 16.303-1.935 20.788.809 1.007.625 1.466 1.123 2.196 1.871 1.834 1.871 2.382 4.116 3.389 8.358.279 1.198.793 3.328.813 5.891.026 3.278-.249 6.545-1.543 7.993zm-48.435 15.218c-3.113.873-9.248 1.124-12.361 0-2.379-.872-7.539-4.86-8.21-5.397 7.61-.067 3.334 4.974 15.721 2.119.64-.124 3.771-1.303 4.306-1.481 2.543-.85 9.791-4.38 9.791-4.38 4.485-2.122 10.073-3.369 15.565-3.992 3.021-.374 6.317-.5 9.339-.25 9.798.998 8.789 1.622 11.444 2.496.917.373 2.62.967 3.621.72.198-.048.667-.391.135-.811-.424-.331-1.737-.007-2.911-.738.252-1.305 1.19-1.658 2.163-2.313l1.812 1.216c.597.582 2.175 1.896 3.056 3.296 1.116 1.738 1.604 3.845 1.463 5.15-.495 4.721-5.767 4.74-9.063 3.992-1.736-.499-3.66-.999-5.31-1.496-2.015-.75-3.753-.875-5.677-1.499-4.578-1.247-6.958-2.12-12.175-1.621-4.213.374-7.967 1.123-11.721 2.121l-10.988 2.868zm-18.961-2.776c1.924 1.496 4.769 3.864 7.243 4.364.484.104.264.88-.382.74-2.47-.498-5.885-2.898-7.809-4.395-2.083-1.605-5.416-3.448-5.664-6.247.086-.552.962-.189.953-.016-.115 2.08 5.274 5.253 5.659 5.554zm-17.898-7.978c.034-1.259.264-2.471.764-3.466.46-.999.982-1.824 1.532-2.696 2.194-3.618 3.596-7.41 6.16-10.652 1.921-2.371 3.647-4.303 6.668-5.799 1.037-.528 4.268-2.789 4.146-1.926.257-.134-2.94 2.014-3.05 2.082-1.962 1.2-4.804 3.374-6.741 6.219-2.327 3.416-3.528 6.315-5.722 9.933-.552.873-1.023 1.695-1.482 2.692-.514 1.02-.717 2.094-.744 3.385-.036 1.266.102 2.752.378 3.94.55 2.122 1.05 3.071 2.334 4.817 1.647 2.495 4.393 4.115 6.132 6.485 1.285 1.748 4.821 4.562 6.65 5.685 7.6 4.616 10.677 5.238 17.637 8.108 1.622.631 5.912 1.094 5.706 1.515-.214.441-5.31-.443-7.104-1.006-5.603-1.755-9.611-3.058-17.21-7.675-1.831-1.121-5.493-4.116-6.774-5.862-1.739-2.371-4.486-3.992-6.133-6.487-1.284-1.747-2.199-3.493-2.749-5.613-.269-1.16-.422-2.442-.398-3.679zm-49.611 84.694c.031-.003.059-.003.085-.006h.011c-.031.003-.06.003-.096.006z"/><ellipse cx="119.444" cy="33.078" fill="#005A95" rx="3.734" ry="4.84" transform="rotate(-119.334 119.444 33.077)"/><ellipse cx="85.397" cy="131.554" fill="#005A95" rx="1.679" ry="3.22" transform="rotate(-135.008 85.394 131.556)"/><path fill="#005A95" d="M88.883 34.786c-1.658.662-2.59 2.238-2.082 3.521.513 1.281 2.275 1.783 3.933 1.119 1.663-.662 2.594-2.238 2.082-3.52-.509-1.281-2.271-1.784-3.933-1.12z"/><ellipse cx="86.241" cy="58.774" fill="#005A95" rx="2.575" ry="3.735" transform="rotate(-124.257 86.24 58.777)"/><ellipse cx="72.44" cy="53.648" fill="#005A95" rx="2.85" ry="3.902" transform="rotate(-119.349 72.445 53.652)"/><ellipse cx="98.245" cy="124.278" fill="#005A95" rx="2.85" ry="3.902" transform="rotate(-114.936 98.247 124.277)"/><ellipse cx="54.011" cy="76.996" fill="#005A95" rx="3.423" ry="4.685" transform="rotate(-139.4 54.009 76.993)"/><path fill="#005A95" d="M33.015 99.283c-.827 1.445-.64 3.105.415 3.709 1.059.603 2.582-.081 3.408-1.526.825-1.446.638-3.107-.417-3.709-1.056-.604-2.582.079-3.406 1.526zm20.517 7.756c-.873 1.279-.656 2.946.486 3.723 1.14.777 2.77.37 3.644-.909.869-1.279.653-2.944-.487-3.722-1.14-.776-2.771-.37-3.643.908z"/><ellipse cx="98.756" cy="44.067" fill="#005A95" rx="2.851" ry="2.959" transform="rotate(-119.341 98.753 44.07)"/><ellipse cx="92.379" cy="87.878" fill="#005A95" rx="2.85" ry="3.09" transform="rotate(-114.936 92.383 87.875)"/><path fill="#005A95" d="M33.558 140.868c.155 1.54 1.395 2.675 2.769 2.537 1.37-.138 2.356-1.498 2.204-3.038-.155-1.539-1.395-2.675-2.767-2.537-1.376.139-2.362 1.499-2.206 3.038zm80.213-96.501c-1.399.665-2.05 2.212-1.458 3.459.59 1.247 2.205 1.719 3.604 1.053 1.396-.663 2.048-2.213 1.455-3.459-.591-1.246-2.204-1.717-3.601-1.053z"/><ellipse cx="81.594" cy="146.017" fill="#005A95" rx="2.851" ry="2.74" transform="rotate(-163.752 81.596 146.014)"/><ellipse cx="34.926" cy="164.302" fill="#005A95" rx="1.903" ry="2.134" transform="rotate(163.37 34.923 164.297)"/><ellipse cx="74.253" cy="156.034" fill="#005A95" rx="1.872" ry="1.799" transform="rotate(-163.745 74.256 156.041)"/><ellipse cx="70.561" cy="166.418" fill="#005A95" rx="1.872" ry="2.472" transform="rotate(174.134 70.566 166.42)"/><path fill="#005A95" d="M115.878 125.641c-.965.437-1.488 1.361-1.168 2.063.318.704 1.357.921 2.321.485.962-.436 1.482-1.36 1.167-2.064-.321-.703-1.361-.919-2.32-.484zm-21.757 8.702c-.278.953.301 1.961 1.295 2.25.991.29 2.019-.249 2.297-1.203.28-.954-.301-1.962-1.293-2.25-.99-.29-2.022.249-2.299 1.203zm-56.7 17.88c-.277.952.301 1.96 1.293 2.249.994.291 2.023-.248 2.302-1.203.275-.954-.302-1.961-1.295-2.249-.991-.29-2.02.249-2.3 1.203zm2.267 31.358c.906 1.019 2.267 1.289 3.04.603.772-.688.663-2.072-.246-3.092-.905-1.017-2.266-1.286-3.037-.6-.776.686-.665 2.069.243 3.089z"/><ellipse cx="112.248" cy="69.672" fill="#005A95" rx="1.677" ry="3.22" transform="rotate(-174.486 112.235 69.663)"/><ellipse cx="104.626" cy="72.798" fill="#005A95" rx="1.873" ry="1.799" transform="rotate(-163.752 104.625 72.797)"/><path fill="#005A95" d="M64.02 65.055c-.874 1.279-.655 2.945.487 3.723 1.14.778 2.771.371 3.641-.909.874-1.278.653-2.944-.487-3.721-1.141-.777-2.772-.371-3.641.907zm61.748 58.7c-.28.953.299 1.96 1.293 2.25.991.289 2.021-.25 2.298-1.203.28-.954-.302-1.962-1.293-2.252-.992-.288-2.024.251-2.298 1.205z"/><ellipse cx="78.751" cy="191.042" fill="#005A95" rx="1.872" ry="2.472" transform="rotate(150.46 78.755 191.043)"/><ellipse cx="78.751" cy="176.198" fill="#005A95" rx="1.87" ry="1.798" transform="rotate(-163.7 78.754 176.197)"/><path fill="#005A95" d="M52.498 202.04c.717.938 1.974 1.18 2.808.54.835-.637.932-1.914.216-2.852-.712-.936-1.972-1.178-2.807-.54-.834.637-.931 1.916-.217 2.852zm14.468 13.229c-.277.956.302 1.965 1.293 2.254.991.288 2.023-.251 2.301-1.203.277-.955-.3-1.964-1.293-2.25-.992-.292-2.021.248-2.301 1.199z"/><circle cx="107.926" cy="84.826" r="2.288" fill="#074C77"/><linearGradient id="e" x1="2263.601" x2="2307.664" y1="18.111" y2="18.111" gradientTransform="matrix(-1 0 0 1 2358.488 0)" gradientUnits="userSpaceOnUse"><stop offset="0" stop-color="#010101"/><stop offset=".012" stop-color="#040506"/><stop offset=".101" stop-color="#111a1d"/><stop offset=".2" stop-color="#16242b"/><stop offset=".313" stop-color="#182b34"/><stop offset=".446" stop-color="#182f3a"/><stop offset=".622" stop-color="#17323e"/><stop offset="1" stop-color="#17333f"/></linearGradient><path fill="url(#e)" d="M50.824 7.727s33.22 5.887 43.991 20.188c-.469.208-.976.368-1.44.582-.968-1.638-13.914-14.045-42.551-20.77z" opacity=".5"/><linearGradient id="f" x1="2247.731" x2="2290.655" y1="-191.477" y2="-191.477" gradientTransform="scale(-1 1) rotate(6.788 -728.151 -19719.16)" gradientUnits="userSpaceOnUse"><stop offset="0" stop-color="#010101"/><stop offset=".012" stop-color="#040506"/><stop offset=".101" stop-color="#111a1d"/><stop offset=".2" stop-color="#16242b"/><stop offset=".313" stop-color="#182b34"/><stop offset=".446" stop-color="#182f3a"/><stop offset=".622" stop-color="#17323e"/><stop offset="1" stop-color="#17333f"/></linearGradient><path fill="url(#f)" d="M37.304 17.101s33.298 5.155 44.347 17.086c-.489.276-.978.552-1.46.835-3.694-3.493-15.992-13.166-42.887-17.921z" opacity=".5"/><linearGradient id="g" x1="2255.715" x2="2295.906" y1="-69.391" y2="-69.391" gradientTransform="scale(-1 1) rotate(3.205 -694.643 -41691.444)" gradientUnits="userSpaceOnUse"><stop offset="0" stop-color="#010101"/><stop offset=".012" stop-color="#040506"/><stop offset=".101" stop-color="#111a1d"/><stop offset=".2" stop-color="#16242b"/><stop offset=".313" stop-color="#182b34"/><stop offset=".446" stop-color="#182f3a"/><stop offset=".622" stop-color="#17323e"/><stop offset="1" stop-color="#17333f"/></linearGradient><path fill="url(#g)" d="M34.991 23.151s26.848 5.146 38.415 16.187c-.428.295-.856.591-1.28.892-4.468-4.256-14.965-11.709-37.135-17.079z" opacity=".5"/><linearGradient id="h" x1="2268.781" x2="2308.971" y1="-129.362" y2="-129.362" gradientTransform="scale(-1 1) rotate(5.319 -719.846 -25204.602)" gradientUnits="userSpaceOnUse"><stop offset="0" stop-color="#010101"/><stop offset=".012" stop-color="#040506"/><stop offset=".101" stop-color="#111a1d"/><stop offset=".2" stop-color="#16242b"/><stop offset=".313" stop-color="#182b34"/><stop offset=".446" stop-color="#182f3a"/><stop offset=".622" stop-color="#17323e"/><stop offset="1" stop-color="#17333f"/></linearGradient><path fill="url(#h)" d="M27.79 35.448s22.226 3.415 35.288 11.962c-.365.324-.732.647-1.095.974-5.836-4.048-16.303-9.298-34.193-12.936z" opacity=".5"/><linearGradient id="i" x1="2270.15" x2="2300.555" y1="-178.676" y2="-178.676" gradientTransform="scale(-1 1) rotate(7.244 -714.266 -18417.298)" gradientUnits="userSpaceOnUse"><stop offset="0" stop-color="#010101"/><stop offset=".012" stop-color="#040506"/><stop offset=".101" stop-color="#111a1d"/><stop offset=".2" stop-color="#16242b"/><stop offset=".313" stop-color="#182b34"/><stop offset=".446" stop-color="#182f3a"/><stop offset=".622" stop-color="#17323e"/><stop offset="1" stop-color="#17333f"/></linearGradient><path fill="url(#i)" d="M22.642 49.621s12.143-2.472 30.286 7.995c-.305.348-.606.701-.904 1.054-3.861-2.32-16.96-9.557-29.382-9.049z" opacity=".5"/><linearGradient id="j" x1="2164.299" x2="2194.705" y1="-494.143" y2="-494.143" gradientTransform="scale(-1 1) rotate(18.102 -690.949 -7154.028)" gradientUnits="userSpaceOnUse"><stop offset="0" stop-color="#010101"/><stop offset=".012" stop-color="#040506"/><stop offset=".101" stop-color="#111a1d"/><stop offset=".2" stop-color="#16242b"/><stop offset=".313" stop-color="#182b34"/><stop offset=".446" stop-color="#182f3a"/><stop offset=".622" stop-color="#17323e"/><stop offset="1" stop-color="#17333f"/></linearGradient><path fill="url(#j)" d="M15.653 67.612s10.454-4.3 28.635 1.289c-.255.379-.509.759-.757 1.143-5.961-1.905-17.67-4.827-27.878-2.432z" opacity=".5"/><linearGradient id="k" x1="2204.258" x2="2234.661" y1="-390.184" y2="-390.184" gradientTransform="scale(-1 1) rotate(14.945 -694.13 -8733.195)" gradientUnits="userSpaceOnUse"><stop offset="0" stop-color="#010101"/><stop offset=".012" stop-color="#040506"/><stop offset=".101" stop-color="#111a1d"/><stop offset=".2" stop-color="#16242b"/><stop offset=".313" stop-color="#182b34"/><stop offset=".446" stop-color="#182f3a"/><stop offset=".622" stop-color="#17323e"/><stop offset="1" stop-color="#17333f"/></linearGradient><path fill="url(#k)" d="M15.025 79.21s8.356-2.907 22.633.976c-.185.363-.367.726-.549 1.089-6.17-1.821-14.456-3.415-22.084-2.065z" opacity=".5"/><linearGradient id="l" x1="2106.58" x2="2130.702" y1="-602.281" y2="-602.281" gradientTransform="scale(-1 1) rotate(22.68 -684.048 -5599.265)" gradientUnits="userSpaceOnUse"><stop offset="0" stop-color="#010101"/><stop offset=".012" stop-color="#040506"/><stop offset=".101" stop-color="#111a1d"/><stop offset=".2" stop-color="#16242b"/><stop offset=".313" stop-color="#182b34"/><stop offset=".446" stop-color="#182f3a"/><stop offset=".622" stop-color="#17323e"/><stop offset="1" stop-color="#17333f"/></linearGradient><path fill="url(#l)" d="M12.333 93.283s7.057-3.591 20.132-1.312c-.117.319-.236.637-.352.957-5.168-.989-13.029-1.811-19.78.355z" opacity=".5"/><linearGradient id="m" x1="1960.453" x2="1984.578" y1="-813.38" y2="-813.38" gradientTransform="scale(-1 1) rotate(31.005 -676.838 -3953.468)" gradientUnits="userSpaceOnUse"><stop offset="0" stop-color="#010101"/><stop offset=".035" stop-color="#101519"/><stop offset=".099" stop-color="#1b2630"/><stop offset=".168" stop-color="#1e3143"/><stop offset=".244" stop-color="#1f3a52"/><stop offset=".328" stop-color="#1b4160"/><stop offset=".422" stop-color="#16476a"/><stop offset=".535" stop-color="#0f4a71"/><stop offset=".682" stop-color="#094c76"/><stop offset="1" stop-color="#074c77"/></linearGradient><path fill="url(#m)" d="M11.596 106.265s5.792-4.089 17.65-4.225c-.086.318-.169.636-.25.956-5.12-.047-11.842.547-17.4 3.269z" opacity=".5"/><linearGradient id="n" x1="1915.62" x2="1939.744" y1="-856.652" y2="-856.652" gradientTransform="scale(-1 1) rotate(33.191 -674.541 -3647.465)" gradientUnits="userSpaceOnUse"><stop offset="0" stop-color="#010101"/><stop offset=".035" stop-color="#101519"/><stop offset=".099" stop-color="#1b2630"/><stop offset=".168" stop-color="#1e3143"/><stop offset=".244" stop-color="#1f3a52"/><stop offset=".328" stop-color="#1b4160"/><stop offset=".422" stop-color="#16476a"/><stop offset=".535" stop-color="#0f4a71"/><stop offset=".682" stop-color="#094c76"/><stop offset="1" stop-color="#074c77"/></linearGradient><path fill="url(#n)" d="M26.702 113.735c-4.326.433-9.165 1.458-13.288 3.678 0 0 4.351-3.331 13.45-4.535-.048.243-.101.522-.162.857z" opacity=".5"/><linearGradient id="o" x1="1559.718" x2="1570.193" y1="-1171.041" y2="-1171.041" gradientTransform="scale(-1 1) rotate(48.373 -669.19 -2287.945)" gradientUnits="userSpaceOnUse"><stop offset="0" stop-color="#010101"/><stop offset=".035" stop-color="#101519"/><stop offset=".099" stop-color="#1b2630"/><stop offset=".168" stop-color="#1e3143"/><stop offset=".244" stop-color="#1f3a52"/><stop offset=".328" stop-color="#1b4160"/><stop offset=".422" stop-color="#16476a"/><stop offset=".535" stop-color="#0f4a71"/><stop offset=".682" stop-color="#094c76"/><stop offset="1" stop-color="#074c77"/></linearGradient><path fill="url(#o)" d="M24.861 121.964s-6.432.878-10.13 4.385c0 0 2.733-3.581 10.258-4.899l-.128.514z" opacity=".5"/><linearGradient id="p" x1="1273.957" x2="1284.43" y1="-1309.823" y2="-1309.823" gradientTransform="scale(-1 1) rotate(58.689 -664.35 -1740.829)" gradientUnits="userSpaceOnUse"><stop offset="0" stop-color="#010101"/><stop offset=".035" stop-color="#101519"/><stop offset=".099" stop-color="#1b2630"/><stop offset=".168" stop-color="#1e3143"/><stop offset=".244" stop-color="#1f3a52"/><stop offset=".328" stop-color="#1b4160"/><stop offset=".422" stop-color="#16476a"/><stop offset=".535" stop-color="#0f4a71"/><stop offset=".682" stop-color="#094c76"/><stop offset="1" stop-color="#074c77"/></linearGradient><path fill="url(#p)" d="M18.339 147.208s1.701-3.326 7.417-5.917c.013.157.027.311.04.471-2.05.901-5.452 2.71-7.457 5.446z" opacity=".5"/><linearGradient id="q" x1="1627.621" x2="1638.1" y1="-1116.853" y2="-1116.853" gradientTransform="scale(-1 1) rotate(46.503 -669.005 -2414.709)" gradientUnits="userSpaceOnUse"><stop offset="0" stop-color="#010101"/><stop offset=".035" stop-color="#101519"/><stop offset=".099" stop-color="#1b2630"/><stop offset=".168" stop-color="#1e3143"/><stop offset=".244" stop-color="#1f3a52"/><stop offset=".328" stop-color="#1b4160"/><stop offset=".422" stop-color="#16476a"/><stop offset=".535" stop-color="#0f4a71"/><stop offset=".682" stop-color="#094c76"/><stop offset="1" stop-color="#074c77"/></linearGradient><path fill="url(#q)" d="M21.895 151.672s1.378-1.685 4.753-3.072c.018.115.036.23.054.346-1.659.611-3.411 1.486-4.807 2.726z" opacity=".5"/><linearGradient id="r" x1="1631.563" x2="1640.701" y1="-1112.071" y2="-1112.071" gradientTransform="scale(-1 1) rotate(46.503 -669.005 -2414.709)" gradientUnits="userSpaceOnUse"><stop offset="0" stop-color="#010101"/><stop offset=".035" stop-color="#101519"/><stop offset=".099" stop-color="#1b2630"/><stop offset=".168" stop-color="#1e3143"/><stop offset=".244" stop-color="#1f3a52"/><stop offset=".328" stop-color="#1b4160"/><stop offset=".422" stop-color="#16476a"/><stop offset=".535" stop-color="#0f4a71"/><stop offset=".682" stop-color="#094c76"/><stop offset="1" stop-color="#074c77"/></linearGradient><path fill="url(#r)" d="M23.831 157.096s1.104-1.659 3.803-3.04c.027.111.05.219.074.331-1.34.611-2.75 1.48-3.877 2.709z" opacity=".5"/><linearGradient id="s" x1="1633.759" x2="1642.902" y1="-1106.712" y2="-1106.712" gradientTransform="scale(-1 1) rotate(46.503 -669.005 -2414.709)" gradientUnits="userSpaceOnUse"><stop offset="0" stop-color="#010101"/><stop offset=".035" stop-color="#101519"/><stop offset=".099" stop-color="#1b2630"/><stop offset=".168" stop-color="#1e3143"/><stop offset=".244" stop-color="#1f3a52"/><stop offset=".328" stop-color="#1b4160"/><stop offset=".422" stop-color="#16476a"/><stop offset=".535" stop-color="#0f4a71"/><stop offset=".682" stop-color="#094c76"/><stop offset="1" stop-color="#074c77"/></linearGradient><path fill="url(#s)" d="M26.35 162.521s.811-1.206 2.726-2.418c.022.088.043.174.065.262-.989.552-1.966 1.257-2.791 2.156z" opacity=".5"/><linearGradient id="t" x1="1635.193" x2="1644.338" y1="-1102.695" y2="-1102.695" gradientTransform="scale(-1 1) rotate(46.503 -669.005 -2414.709)" gradientUnits="userSpaceOnUse"><stop offset="0" stop-color="#010101"/><stop offset=".035" stop-color="#101519"/><stop offset=".099" stop-color="#1b2630"/><stop offset=".168" stop-color="#1e3143"/><stop offset=".244" stop-color="#1f3a52"/><stop offset=".328" stop-color="#1b4160"/><stop offset=".422" stop-color="#16476a"/><stop offset=".535" stop-color="#0f4a71"/><stop offset=".682" stop-color="#094c76"/><stop offset="1" stop-color="#074c77"/></linearGradient><path fill="url(#t)" d="M28.374 166.419s.565-.846 1.87-1.834c.021.066.041.131.063.197-.69.458-1.348 1-1.933 1.637z" opacity=".5"/><linearGradient id="u" x1="1635.933" x2="1645.058" y1="-1098.992" y2="-1098.992" gradientTransform="scale(-1 1) rotate(46.503 -669.005 -2414.709)" gradientUnits="userSpaceOnUse"><stop offset="0" stop-color="#010101"/><stop offset=".035" stop-color="#101519"/><stop offset=".099" stop-color="#1b2630"/><stop offset=".168" stop-color="#1e3143"/><stop offset=".244" stop-color="#1f3a52"/><stop offset=".328" stop-color="#1b4160"/><stop offset=".422" stop-color="#16476a"/><stop offset=".535" stop-color="#0f4a71"/><stop offset=".682" stop-color="#094c76"/><stop offset="1" stop-color="#074c77"/></linearGradient><path fill="url(#u)" d="M30.64 169.563s.284-.422.896-1.009c.014.04.028.077.041.114-.328.275-.642.572-.937.895z" opacity=".5"/><path fill="#2B1023" d="M34.916 174.385h.009c-.032.003-.061.003-.099.007.031-.004.061-.004.09-.007z"/><g><radialGradient id="v" cx="2287.634" cy="171.488" r="98.957" gradientTransform="matrix(-1 0 0 1 2358.488 0)" gradientUnits="userSpaceOnUse"><stop offset="0" stop-color="#083e3e"/><stop offset=".235" stop-color="#09403f"/><stop offset=".362" stop-color="#0e4543"/><stop offset=".462" stop-color="#164e48"/><stop offset=".549" stop-color="#205c50"/><stop offset=".627" stop-color="#2c6f5a"/><stop offset=".698" stop-color="#3b8864"/><stop offset=".744" stop-color="#489d6c"/><stop offset="1" stop-color="#27693c"/></radialGradient><path fill="url(#v)" d="M.022 154.801c-.002.028.004.046.004.071.032-1.147-.027-3.082 1.365-6.026.016-.034.027-.083.041-.122 2.068-5.125 6.083-10.879 9.775-15.554 4.182-5.297 9.118-10.233 9.118-10.233 4.181-3.942 17.214-11.987 20.614-17.092.333-.499 1.901-1.924 2.142-3.05 12.259 8.277 9.704 34.191 9.686 34.164-.036-.051-.528-.334-.494-.288-8.819-5.749-21.123-1.245-31.295 4.771-.004-.029-.008-.059-.015-.088-2.206 1.306-4.301 2.682-6.25 4.04-.25.226-.453.396-.633.539-1.79 1.263-3.434 2.501-4.887 3.644-.192.133-.39.271-.57.394-.185.151-.347.315-.523.472-3.323 2.669-5.424 4.629-5.614 4.808-.523.337-.944.554-1.291.672-.029.014-.056.019-.083.026-.077.025-.153.053-.221.065-.117.021-.211.024-.3.019-.011-.003-.024-.006-.034-.009-.715-.109-.539-1.191-.535-1.223z"/></g><linearGradient id="w" x1="2166.407" x2="2224.743" y1="-437.777" y2="-437.777" gradientTransform="scale(-1 1) rotate(14.199 -748.738 -9339.22)" gradientUnits="userSpaceOnUse"><stop offset="0" stop-color="#010101"/><stop offset=".012" stop-color="#040506"/><stop offset=".101" stop-color="#111a1d"/><stop offset=".2" stop-color="#16242b"/><stop offset=".313" stop-color="#182b34"/><stop offset=".446" stop-color="#182f3a"/><stop offset=".622" stop-color="#17323e"/><stop offset="1" stop-color="#17333f"/></linearGradient><path fill="url(#w)" d="M44.883 1.358S79.226-8.25 110.601 23.65c-.471.086-1.341.192-1.812.345-1.338-1.35-27.138-29.222-63.906-22.637z" opacity=".5"/><g><path d="M189.326 185.969c-4.548 2.296-10.2 3.444-16.957 3.444-7.494 0-13.4-1.816-17.721-5.45-4.32-3.633-6.48-8.638-6.48-15.013 0-6.413 2.359-11.64 7.081-15.682 4.721-4.042 11.001-6.062 18.842-6.062 4.938 0 9.29.598 13.059 1.793v8.624c-3.596-1.821-7.991-2.732-13.188-2.732-4.354 0-7.899 1.238-10.64 3.714-2.739 2.476-4.109 5.782-4.109 9.918 0 4.193 1.229 7.438 3.688 9.733 2.458 2.296 5.776 3.443 9.957 3.443 2.512 0 4.504-.313 5.977-.939v-7.969h-9.323v-7.343h19.816v20.521zm35.733 2.732h-9.713v-4.184h-.131c-2.23 3.264-5.533 4.895-9.906 4.895-3.229 0-5.768-.801-7.619-2.405-1.852-1.603-2.777-3.743-2.777-6.418 0-5.654 3.822-8.917 11.467-9.79l9.031-1.053c0-3.188-1.971-4.781-5.912-4.781-3.963 0-7.73 1.034-11.305 3.102v-6.773c1.43-.645 3.383-1.214 5.863-1.708 2.48-.493 4.738-.74 6.773-.74 9.486 0 14.229 4.146 14.229 12.438v17.417zm-9.649-11.839v-1.964l-6.041.683c-3.336.38-5.004 1.698-5.004 3.956 0 1.024.406 1.864 1.219 2.519s1.91.982 3.297.982c1.928 0 3.498-.583 4.711-1.75s1.818-2.642 1.818-4.426zm39.469-24.419c-1.32-.456-2.588-.683-3.801-.683-3.291 0-4.938 1.565-4.938 4.696v3.103h7.602v6.631h-7.602v22.512h-10.232V166.19h-5.588v-6.631h5.588v-3.615c0-3.32 1.234-5.995 3.703-8.026 2.469-2.03 5.826-3.045 10.07-3.045 2.078 0 3.811.19 5.197.569v7.001zm25.502 0c-1.322-.456-2.588-.683-3.801-.683-3.293 0-4.938 1.565-4.938 4.696v3.103h7.602v6.631h-7.602v22.512h-10.234V166.19h-5.586v-6.631h5.586v-3.615c0-3.32 1.234-5.995 3.705-8.026 2.469-2.03 5.824-3.045 10.07-3.045 2.078 0 3.811.19 5.197.569v7.001zm33.685 24.248h-21.699c.346 4.231 3.389 6.347 9.129 6.347 3.66 0 6.875-.759 9.648-2.277v6.489c-3.076 1.442-7.072 2.163-11.988 2.163-5.371 0-9.539-1.304-12.506-3.913s-4.451-6.247-4.451-10.915c0-4.838 1.604-8.671 4.809-11.498s7.146-4.241 11.824-4.241c4.852 0 8.604 1.262 11.256 3.785 2.652 2.524 3.979 5.948 3.979 10.274v3.786zm-9.517-5.522c0-4.174-1.928-6.261-5.781-6.261-1.646 0-3.07.598-4.271 1.793-1.203 1.195-1.934 2.685-2.193 4.468h12.245zm37.326-3.5c-1.234-.588-2.676-.882-4.32-.882-2.232 0-3.975.717-5.23 2.149-1.256 1.433-1.885 3.382-1.885 5.849v13.917h-10.266v-29.143h10.266v5.407h.131c1.623-3.946 4.547-5.92 8.77-5.92 1.084 0 1.928.114 2.535.342v8.281z" fill="#005A95"/></g><path fill="none" d="M347.139 188.938c-.025.002-.057.002-.088.006.039-.004.068-.004.1-.006h-.012z"/><g opacity=".7"><linearGradient id="x" x1="73.872" x2="113.952" y1="148.703" y2="148.703" gradientTransform="rotate(22.457 27.058 527.066)" gradientUnits="userSpaceOnUse"><stop offset="0" stop-color="#c2e0ef"/><stop offset=".5" stop-color="#9cd0e8"/><stop offset=".748" stop-color="#8fcbe5"/><stop offset="1" stop-color="#88c8e4"/></linearGradient><path fill="url(#x)" d="M251.902 210.589c-4.229 10.233-15.947 15.095-26.176 10.867-10.227-4.228-15.094-15.95-10.867-26.177 4.229-10.228 15.951-15.089 26.176-10.858 10.231 4.227 15.098 15.944 10.867 26.168z"/><path fill="#FFF" d="M232.018 194.073c0 2.378-1.93 4.311-4.314 4.311-2.381 0-4.311-1.933-4.311-4.311 0-2.385 1.93-4.317 4.311-4.317 2.384 0 4.314 1.932 4.314 4.317z"/></g><g opacity=".7"><linearGradient id="y" x1="105.613" x2="124.824" y1="75.493" y2="75.493" gradientTransform="rotate(22.457 27.058 527.066)" gradientUnits="userSpaceOnUse"><stop offset="0" stop-color="#c2e0ef"/><stop offset=".5" stop-color="#9cd0e8"/><stop offset=".748" stop-color="#8fcbe5"/><stop offset="1" stop-color="#88c8e4"/></linearGradient><circle cx="281.038" cy="143.416" r="9.606" fill="url(#y)"/><circle cx="278.315" cy="139.167" r="2.067" fill="#FFF"/></g><g><linearGradient id="z" x1="47.477" x2="59.809" y1="46.698" y2="46.698" gradientTransform="rotate(22.457 27.058 527.066)" gradientUnits="userSpaceOnUse"><stop offset="0" stop-color="#c2e0ef"/><stop offset=".5" stop-color="#9cd0e8"/><stop offset=".748" stop-color="#8fcbe5"/><stop offset="1" stop-color="#88c8e4"/></linearGradient><path fill="url(#z)" d="M240.828 95.637c-1.301 3.15-4.908 4.646-8.055 3.344-3.145-1.301-4.643-4.907-3.342-8.055 1.299-3.147 4.908-4.643 8.053-3.341 3.147 1.301 4.645 4.907 3.344 8.052z"/><circle cx="233.383" cy="90.554" r="1.326" fill="#FFF"/></g><g><linearGradient id="A" x1="112.711" x2="127.354" y1="38.598" y2="38.598" gradientTransform="rotate(22.457 27.058 527.066)" gradientUnits="userSpaceOnUse"><stop offset="0" stop-color="#c2e0ef"/><stop offset=".5" stop-color="#9cd0e8"/><stop offset=".748" stop-color="#8fcbe5"/><stop offset="1" stop-color="#88c8e4"/></linearGradient><circle cx="299.581" cy="111.156" r="7.322" fill="url(#A)"/><circle cx="297.508" cy="107.917" r="1.576" fill="#FFF"/></g><g><linearGradient id="B" x1="32.447" x2="43.22" y1="11.59" y2="11.59" gradientTransform="rotate(22.457 27.058 527.066)" gradientUnits="userSpaceOnUse"><stop offset="0" stop-color="#c2e0ef"/><stop offset=".5" stop-color="#9cd0e8"/><stop offset=".748" stop-color="#8fcbe5"/><stop offset="1" stop-color="#88c8e4"/></linearGradient><path fill="url(#B)" d="M238.908 56.854c-1.135 2.753-4.285 4.059-7.037 2.922-2.746-1.137-4.057-4.288-2.92-7.038 1.137-2.75 4.287-4.057 7.037-2.919s4.059 4.288 2.92 7.035z"/><circle cx="232.403" cy="52.413" r="1.159" fill="#FFF"/></g></svg>