<svg xmlns="http://www.w3.org/2000/svg" role="img" viewBox="-5.40 -5.40 410.54 233.79"><title>GaianDB logo</title><style>svg {enable-background:new 0 0 400 245}</style><style id="style2" type="text/css">.st3{fill:#4c83c3}</style><g id="g56"><path id="path12" fill="#4c83c3" d="M397.3 14h-65.7l4.1-11.3h61.6zM222.1 2.7h61l4 11.4h-65c.1-.1 0-11.4 0-11.4zm-48.3 0c10 1 18.8 4.6 26.3 11.4H89.5V2.7z" class="st3"/><path id="path14" fill="#4c83c3" d="M2.7 2.7h76.8V14H2.7z" class="st3"/><path id="path16" fill="#4c83c3" d="M397.3 35.3h-73.2l4-11.3h69.3v11.3zm-102.5 0h-72.6V24h68.6zM208.6 24c1.5 3.8 3.2 6.9 3.2 11.3H89.5V24z" class="st3"/><path id="path18" fill="#4c83c3" d="M2.7 24h76.8v11.3H2.7z" class="st3"/><path id="path20" fill="#4c83c3" d="M316.6 56.6l4.1-11.3h55v11.3zm-18.4-11.3l4.1 11.3h-58.5V45.3zm-85.5-.1c0 3.9-.5 7.9-1.6 11.3h-33.5V45.2z" class="st3"/><path id="path22" fill="#4c83c3" d="M24.1 45.3h33v11.3h-33z" class="st3"/><path id="path24" fill="#4c83c3" d="M111.7 45.2h33v11.3h-33z" class="st3"/><path id="path26" fill="#4c83c3" d="M276.2 68.8v8.6h-32.5V66.2h61.8l3.9 10.5 3.7-10.5h62.3v11.3h-32.3v-8.6l-3 8.6h-61zm-164.5-2.6h94.6c-2.1 3.8-5.8 8.3-9.4 11.3h-85.2z" class="st3"/><path id="path28" fill="#4c83c3" d="M24.1 66.2h33v11.3h-33z" class="st3"/><path id="path30" fill="#4c83c3" d="M343.3 87.5h32.3v11.3h-32.3z" class="st3"/><path id="path32" fill="#4c83c3" d="M276.2 87.5h-32.5v11.3h32.5c0-.2.1-11.3 0-11.3zm60.6 0c-.1 0-3.8 11.3-4 11.3h-46l-4.1-11.3zm-225.1 0h85c3.9 3.3 7.4 7.2 10.1 11.3h-95.2c.1-.2.1-11.3.1-11.3zM57.1 98.6V87.4H24.2v11.3h32.9z" class="st3"/><path id="path34" fill="#4c83c3" d="M343.3 108.7h32.3V120h-32.3z" class="st3"/><path id="path36" fill="#4c83c3" d="M243.8 108.7h32.5V120h-32.5z" class="st3"/><path id="path38" fill="#4c83c3" d="M325.3 119.9c0-.1 4-11.3 4.1-11.3h-39.1c-.1 0 4 11.3 4 11.3s31 .1 31 0zm-213.6 0v-11.3h33.5v11.3zm99.8-11.2c1.6 3.4 1.8 7.4 2.1 11.3h-35.5v-11.3z" class="st3"/><path id="path40" fill="#4c83c3" d="M24.2 108.7h33V120h-33z" class="st3"/><path id="path42" fill="#4c83c3" d="M343.3 129.5h54v11.3h-54z" class="st3"/><path id="path44" fill="#4c83c3" d="M222.1 129.5h54.1v11.3h-54.1z" class="st3"/><path id="path46" fill="#4c83c3" d="M317.9 140.8h-16.4l-4-11.3h24.3zM2.7 129.5v11.3h76.8v-11.3zm209.5 0c-.8 3.8-1.6 8.2-4.3 11.3H89.5v-11.3zm98.3 32.6H309l-3.9-11.3h9.3z" class="st3"/><path id="path48" fill="#4c83c3" d="M343.3 150.8h54v11.3h-54z" class="st3"/><path id="path50" fill="#4c83c3" d="M89.5 162.1v-11.3h111.2c-7.4 7.1-17.6 11.1-28.6 11.3H89.5" class="st3"/><path id="path52" fill="#4c83c3" d="M222.1 150.8h54.1v11.3h-54.1z" class="st3"/><path id="path54" fill="#4c83c3" d="M79.5 150.8v11.3H2.7v-11.3s76.7.1 76.8 0z" class="st3"/></g><g id="text34" fill="#000" fill-opacity="1" stroke="none"><g id="text168" fill="#000" fill-opacity="1" stroke="none" transform="translate(17.143 -2.857)"><path id="path182" d="M113.21484 193.24805c-4.73958 0-8.47005 1.34765-11.1914 4.04297-2.70833 2.68229-4.0625 6.34766-4.0625 10.99609 0 2.53907.36458 4.75912 1.09375 6.66016.72916 1.88802 1.76432 3.46354 3.10547 4.72656 1.32812 1.25 2.9362 2.1875 4.82422 2.8125 1.88802.625 3.96484.9375 6.23046.9375 1.75782 0 3.57422-.26693 5.44922-.80078 1.88802-.54688 3.62631-1.1849 5.21485-1.91407v-12.48046h-11.6211v3.39843h7.79297v7.12891c-.9375.39063-2.03125.70963-3.28125.95703-1.23697.24739-2.48047.37109-3.73047.37109-3.41146 0-6.10677-1.04166-8.08594-3.125-1.97916-2.09635-2.96875-5.02604-2.96874-8.78906 0-3.56771.94401-6.39323 2.83203-8.47656 1.90104-2.09635 4.47916-3.14453 7.73437-3.14453 1.44531 0 2.73438.13671 3.86719.41015 1.14583.26042 2.16797.59245 3.06641.9961.74218.33854 1.49739.76172 2.26562 1.26953.76823.50781 1.35417.91797 1.75781 1.23047h.35157v-4.58985c-1.99219-.95052-3.85417-1.62109-5.58594-2.01171-1.71875-.40365-3.40495-.60547-5.0586-.60547zm40.9961.33203v3.80859h4.14062v-3.80859zm60.8789.19531v29.08203h7.34375c2.66927 0 4.81771-.18229 6.44532-.54687 1.64062-.36458 3.125-.95703 4.45312-1.77735 1.91407-1.1849 3.44401-2.85156 4.58985-5 1.15885-2.14844 1.73828-4.54427 1.73828-7.1875 0-2.82552-.55339-5.26692-1.66016-7.32422-1.10677-2.05729-2.64974-3.70442-4.62891-4.9414-1.15885-.71615-2.57812-1.27605-4.25781-1.67969-1.66667-.41667-3.91927-.625-6.75781-.625zm30.85938 0v29.08203h10.3125c2.01823 0 3.67839-.18229 4.98047-.54687 1.3151-.36458 2.51953-.97656 3.61328-1.83594.92448-.71614 1.66016-1.6276 2.20703-2.73438.54688-1.10677.82031-2.38281.82031-3.82812 0-2.01823-.5664-3.68489-1.69922-5-1.13281-1.32812-2.68229-2.19401-4.64843-2.59766v-.15625c1.17187-.58594 2.10937-1.36068 2.8125-2.32422.70312-.97656 1.05468-2.15494 1.05468-3.53515 0-1.22396-.24088-2.27213-.72265-3.14453-.48178-.88542-1.25651-1.60807-2.32422-2.16797-.96354-.49479-1.97266-.82031-3.02735-.97656-1.05468-.15625-2.64322-.23438-4.76562-.23438zm3.86719 3.30078h4.60937c1.28907 0 2.3698.0456 3.24219.13672.8724.0781 1.61459.29297 2.22656.64453.52083.29948.89843.69011 1.13281 1.17188.23438.48177.35157 1.07421.35157 1.77734 0 .84635-.13021 1.58203-.39063 2.20703-.24739.61198-.67708 1.11329-1.28906 1.50391-.61198.39062-1.27604.65104-1.99219.78125-.71614.11718-1.67968.17578-2.89062.17578h-5zm-30.85938.0195h3.63281c1.79688 0 3.33985.13021 4.62891.39063 1.28907.2474 2.50651.69661 3.65234 1.34765 1.57552.89844 2.76042 2.12891 3.55469 3.69141s1.19141 3.48308 1.19141 5.76172c0 2.26563-.36459 4.15364-1.09375 5.66406-.71615 1.51042-1.79688 2.72787-3.24219 3.65235-1.15885.74218-2.4349 1.24999-3.82813 1.52343-1.3802.27344-3.0013.41016-4.86328.41016h-3.63281zm-18.47656 3.33985c-1.28906 0-2.54557.26692-3.76953.80078-1.22396.53385-2.40886 1.27603-3.55469 2.22656v-2.42187h-3.67187v21.8164h3.67187v-16.28906c1.00261-.76823 2.05078-1.39974 3.14453-1.89453 1.09375-.49479 2.14193-.74219 3.14453-.74219.97656 0 1.77084.13672 2.38281.41016.61198.26042 1.08073.66406 1.40626 1.21093.31249.4948.52734 1.1849.64453 2.07032.11718.8724.17578 1.8099.17578 2.8125v12.42187h3.67187v-14.16015c0-2.66928-.61849-4.71355-1.85547-6.13282s-3.03385-2.1289-5.39062-2.1289zm-62.67578.0781c-1.31511 0-2.64974.11719-4.00391.35156-1.35417.23438-2.38933.44922-3.10547.64454v3.73046h.19531c1.26302-.48177 2.48699-.84635 3.67188-1.09375 1.1849-.26042 2.25912-.39062 3.22266-.39062.79427 0 1.55599.0521 2.28515.15625.72917.10417 1.35417.30599 1.875.60547.54688.3125.96354.74218 1.25 1.28906.29948.54687.44922 1.23698.44922 2.07031v.56641c-2.13541.10417-4.13411.26042-5.99609.46875-1.86198.20833-3.45703.60547-4.78516 1.19141-1.3151.58594-2.33073 1.39322-3.04687 2.42187-.70313 1.01562-1.05469 2.35026-1.05469 4.00391 0 2.01823.68359 3.67839 2.05078 4.98047 1.36719 1.30208 3.03385 1.95312 5 1.95312 1.06771 0 1.9987-.10417 2.79297-.3125.79427-.19531 1.49739-.44271 2.10937-.74219.52084-.23437 1.05469-.54687 1.60157-.9375.55989-.40364 1.0026-.71614 1.32812-.9375v2.32422h3.65235v-14.80469c0-1.40625-.21485-2.58463-.64454-3.53515-.42968-.95052-1.05468-1.72526-1.875-2.32422-.83333-.61197-1.82291-1.04166-2.96875-1.28906-1.13281-.26042-2.46744-.39063-4.0039-.39063zm35.07812 0c-1.3151 0-2.64974.11719-4.0039.35156-1.35417.23438-2.38933.44922-3.10547.64454v3.73046h.19531c1.26302-.48177 2.48698-.84635 3.67187-1.09375 1.1849-.26042 2.25912-.39062 3.22266-.39062.79427 0 1.55599.0521 2.28516.15625.72916.10417 1.35416.30599 1.875.60547.54687.3125.96354.74218 1.25 1.28906.29948.54687.44922 1.23698.44922 2.07031v.56641c-2.13542.10417-4.13412.26042-5.9961.46875-1.86198.20833-3.45703.60547-4.78515 1.19141-1.31511.58594-2.33073 1.39322-3.04688 2.42187-.70312 1.01562-1.05469 2.35026-1.05469 4.00391 0 2.01823.6836 3.67839 2.05078 4.98047 1.36719 1.30208 3.03386 1.95312 5 1.95312 1.06771 0 1.9987-.10417 2.79297-.3125.79427-.19531 1.4974-.44271 2.10938-.74219.52083-.23437 1.05469-.54687 1.60156-.9375.5599-.40364 1.00261-.71614 1.32813-.9375v2.32422h3.65234v-14.80469c0-1.40625-.21484-2.58463-.64453-3.53515-.42969-.95052-1.05469-1.72526-1.875-2.32422-.83333-.61197-1.82292-1.04166-2.96875-1.28906-1.13281-.26042-2.46745-.39063-4.00391-.39063zm-18.4375.52735v21.8164h3.67188v-21.8164zm95.3711 7.69531h6.07421c1.27604 0 2.35677.0521 3.24219.15625.89844.0911 1.66016.29948 2.28516.625.92448.48177 1.5625 1.0677 1.91406 1.75781.35157.6901.52735 1.6211.52735 2.79297-.00001 1.02865-.16928 1.86848-.50782 2.51953-.33854.65104-.87239 1.23047-1.60156 1.73828-.6901.46875-1.57552.79427-2.65625.97656-1.08073.16928-2.46745.25391-4.16016.25391h-5.11718zm-106.17188 2.67578v6.07422c-.91145.70312-1.90104 1.30859-2.96875 1.8164-1.06771.4948-2.24609.74219-3.53516.74219-1.54947 0-2.70182-.3125-3.45703-.9375-.75521-.63802-1.13281-1.58203-1.13281-2.83203 0-1.10677.32552-1.97266.97656-2.59766.65104-.63802 1.50391-1.10677 2.5586-1.40625.88542-.24739 2.08333-.43619 3.59375-.5664 1.52344-.13018 2.84505-.22784 3.96484-.29297zm35.07813 0v6.07422c-.91146.70312-1.90105 1.30859-2.96875 1.8164-1.06771.4948-2.24609.74219-3.53516.74219-1.54948 0-2.70182-.3125-3.45703-.9375-.75521-.63802-1.13281-1.58203-1.13281-2.83203 0-1.10677.32552-1.97266.97656-2.59766.65104-.63802 1.5039-1.10677 2.55859-1.40625.88542-.24739 2.08333-.43619 3.59375-.5664 1.52344-.13018 2.84505-.22784 3.96485-.29297z"/></g></g></svg>