<svg xmlns="http://www.w3.org/2000/svg" role="img" viewBox="-1.95 -1.95 101.27 31.39"><title>GCHQ logo</title><defs><clipPath id="a" clipPathUnits="userSpaceOnUse"><path d="M465.024 387.499h276.095v78.422H465.024z"/></clipPath><clipPath id="b" clipPathUnits="userSpaceOnUse"><path d="M465.024 387.738h276.095v77.944H465.024z"/></clipPath><clipPath id="c" clipPathUnits="userSpaceOnUse"><path d="M465.024 387.499h276.095v78.422H465.024z"/></clipPath><clipPath id="d" clipPathUnits="userSpaceOnUse"><path d="M465.024 387.738h276.095v77.944H465.024z"/></clipPath><clipPath id="e" clipPathUnits="userSpaceOnUse"><path d="M465.024 387.499h276.095v78.422H465.024z"/></clipPath><clipPath id="f" clipPathUnits="userSpaceOnUse"><path d="M465.024 387.738h276.095v77.944H465.024z"/></clipPath><clipPath id="g" clipPathUnits="userSpaceOnUse"><path d="M465.024 387.499h276.095v78.422H465.024z"/></clipPath></defs><g clip-path="url(#a)" transform="matrix(.35278 0 0 -.35278 -163.95 164.382)"><path fill="#223264" d="M556.844 440.065c11.78 0 17.872-6.092 17.872-6.092l-4.332-6.499s-5.145 4.603-12.796 4.603c-10.763 0-16.518-7.446-16.518-16.518 0-10.425 7.108-17.196 16.113-17.196 7.244 0 12.05 5.01 12.05 5.01v5.619h-7.378v7.515h15.232v-25.32h-7.448v2.303c0 1.014.068 2.03.068 2.03h-.136s-5.01-5.145-13.945-5.145c-12.66 0-23.56 9.816-23.56 24.914 0 13.944 10.494 24.776 24.778 24.776"/><path fill="#223264" d="M612.623 440.498c11.712 0 17.735-6.566 17.735-6.566l-4.196-6.499s-5.484 5.076-13.135 5.076c-10.154 0-16.11-7.581-16.11-16.518 0-9.14 6.16-17.195 16.18-17.195 8.328 0 13.945 6.093 13.945 6.093l4.603-6.296s-6.634-7.786-18.886-7.786c-14.691 0-24.846 10.901-24.846 25.048 0 13.947 10.561 24.643 24.71 24.643"/><path fill="#223264" d="M672.141 438.82v-20.377H650.14v20.377h-8.733v-48.065h8.733v20.174h22.001v-20.174h8.733v48.065z"/><path fill="#223264" d="M680.874 390.754h-8.733v20.174H650.14v-20.174h-8.733v48.065h8.733v-20.377h22.001v20.377h8.733z"/><path fill="#223264" d="M720.083 440.056l-.072.008.012-8.198.071-.017-.011.004c.414-.102.82-.223 1.219-.356.231-.081.459-.169.684-.26l.192-.074c3.012-1.263 5.551-3.482 7.304-6.363l-.004-.006c.364-.598.689-1.231.983-1.883.067-.15.135-.298.198-.45.111-.266.217-.536.316-.809.076-.213.145-.43.214-.647.104-.327.203-.659.289-.997.091-.35.175-.704.245-1.064.039-.2.07-.404.102-.608.054-.335.102-.672.138-1.015.021-.185.041-.369.055-.557.036-.441.053-.888.061-1.339-.008-.452-.025-.899-.061-1.34-.014-.188-.034-.371-.055-.557-.036-.342-.084-.68-.138-1.015-.032-.202-.063-.407-.102-.607-.07-.361-.154-.715-.245-1.065-.086-.338-.185-.67-.289-.997-.069-.217-.138-.434-.214-.645-.099-.275-.205-.545-.316-.811-.063-.151-.131-.3-.198-.449-.294-.653-.619-1.286-.983-1.885l.004-.004c-.13-.215-.275-.42-.414-.628l-7.509 7.508-5.284-5.286 7.283-7.283c-.45-.245-.907-.476-1.38-.675l-.192-.074c-.225-.091-.453-.179-.684-.26-.399-.133-.805-.253-1.219-.355v-.007c-1.218-.312-2.492-.48-3.808-.48-1.319 0-2.592.168-3.81.48v.007c-.413.102-.82.222-1.22.355-.23.081-.457.169-.683.26l-.191.074c-.474.199-.932.43-1.381.675l-6.102-6.102c2.103-1.3 4.423-2.307 6.926-2.94l.122-.035c.384-.094.773-.168 1.165-.246.389-.08.778-.16 1.176-.221l.188-.035v.011c1.239-.183 2.507-.293 3.81-.293 1.302 0 2.57.11 3.808.293v-.011l.188.035c.397.061.788.141 1.176.221.391.078.782.152 1.165.246l.122.035c2.503.633 4.823 1.64 6.927 2.94l5.348-5.35 5.287 5.285-4.953 4.954c3.622 4.27 5.775 9.824 5.775 16.003l-.001.015h.001l-.011.259.011.258h-.001l.001.015c0 11.639-7.584 21.105-18.384 23.833l-.122.034c-.383.095-.774.168-1.165.246-.388.08-.779.16-1.176.222z"/><path fill="#223264" d="M712.537 431.869v8.195l-.072-.008-.187-.023c-.399-.062-.787-.142-1.177-.222-.391-.077-.781-.151-1.165-.246l-.121-.034c-10.801-2.728-18.384-12.194-18.384-23.833v-.015l.01-.258-.01-.259v-.015c0-6.179 2.153-11.733 5.775-16.003l6.276 6.274c-.141.208-.284.413-.416.628l.006.004c-.366.599-.689 1.232-.985 1.885-.067.149-.134.298-.197.449-.111.266-.218.536-.317.811-.076.211-.143.428-.212.645-.106.327-.204.659-.29.997-.09.35-.176.704-.245 1.065-.04.2-.07.405-.104.607-.053.335-.1.673-.136 1.015-.02.186-.042.369-.056.557-.036.441-.053.888-.059 1.34.006.451.023.898.059 1.339.014.188.036.372.056.557.036.343.083.68.136 1.015.034.204.064.408.104.608.069.36.155.714.245 1.064.086.338.184.67.29.997.069.217.136.434.212.647.099.273.206.543.317.809.063.152.13.3.197.45.296.652.619 1.285.985 1.883l-.006.006c1.755 2.881 4.293 5.1 7.306 6.363l.191.074c.226.091.452.179.683.26.4.133.807.254 1.219.356z"/><path fill="#223264" fill-rule="evenodd" d="M503.216 460.984c.607 0 1.103-.495 1.103-1.103 0-.607-.496-1.102-1.103-1.102s-1.102.495-1.102 1.102c0 .608.495 1.103 1.102 1.103"/><path fill="#223264" fill-rule="evenodd" d="M505.48 460.348c.607 0 1.103-.495 1.103-1.103 0-.607-.496-1.102-1.103-1.102s-1.103.495-1.103 1.102c0 .608.496 1.103 1.103 1.103"/><path fill="#223264" fill-rule="evenodd" d="M507.118 458.609c.607 0 1.103-.495 1.103-1.103 0-.607-.496-1.102-1.103-1.102s-1.103.495-1.103 1.102c0 .608.496 1.103 1.103 1.103"/><path fill="#223264" fill-rule="evenodd" d="M507.658 456.177c.607 0 1.103-.495 1.103-1.103 0-.607-.496-1.102-1.103-1.102s-1.103.495-1.103 1.102c0 .608.496 1.103 1.103 1.103"/><path fill="#223264" fill-rule="evenodd" d="M507.285 453.778c.607 0 1.103-.495 1.103-1.103 0-.607-.496-1.102-1.103-1.102s-1.103.495-1.103 1.102c0 .608.496 1.103 1.103 1.103"/><path fill="#223264" fill-rule="evenodd" d="M500.754 460.854c.607 0 1.103-.495 1.103-1.103 0-.607-.496-1.102-1.103-1.102s-1.102.495-1.102 1.102c0 .608.495 1.103 1.102 1.103"/><path fill="#223264" fill-rule="evenodd" d="M498.435 460.202c.607 0 1.103-.495 1.103-1.103 0-.606-.496-1.101-1.103-1.101s-1.103.495-1.103 1.101c0 .608.496 1.103 1.103 1.103"/><path fill="#223264" fill-rule="evenodd" d="M496.202 459.365c.607 0 1.103-.495 1.103-1.103 0-.607-.496-1.102-1.103-1.102s-1.103.495-1.103 1.102c0 .608.496 1.103 1.103 1.103"/><path fill="#223264" fill-rule="evenodd" d="M506.38 451.533c.607 0 1.103-.495 1.103-1.103 0-.607-.496-1.102-1.103-1.102s-1.103.495-1.103 1.102c0 .608.496 1.103 1.103 1.103"/><path fill="#223264" fill-rule="evenodd" d="M494.697 456.324c2.453.836 5.479 2.335 7.806 2.335 3.305 0 5.359-2.655 2.283-8.557l.762-.373-.835-1.826c.065-.186.069-.394-.002-.593-.086-.239-.265-.42-.481-.515l-1.042-2.824c.258-.516-.317-.715-.282-.703l-.645-1.935c.364-.727-.375-.891-.375-.856-3.099.976-5.989 1.464-8.901 1.484-2.911-.02-5.802-.508-8.901-1.484 0-.035-.738.129-.375.856l-.645 1.935c.035-.012-.539.187-.281.703l-1.042 2.824c-.216.095-.395.276-.482.515-.07.199-.066.407-.001.593l-.829 1.812c-.202-.237-.503-.387-.838-.387-.607 0-1.102.495-1.102 1.102 0 .608.495 1.103 1.102 1.103.608 0 1.103-.495 1.103-1.103 0-.258-.09-.497-.241-.686l.732.358c-3.077 5.902-1.023 8.557 2.282 8.557 2.327 0 5.354-1.499 7.807-2.335-.062.602-.135 1.131-.206 1.504.218.231.665.412 1.214.498-.771.284-1.324 1.027-1.324 1.894 0 .607.27 1.153.697 1.523.342.493.753.978.922 1.523-.58-.143-1.158-.432-1.565-.753v2.392c.5-.347.994-.678 1.551-.811-.16.582-.469 1.191-.778 1.585l1.2.002 1.201-.002c-.309-.394-.618-1.003-.778-1.585.557.133 1.05.464 1.551.811v-2.392c-.408.321-.986.61-1.566.753.17-.545.581-1.03.922-1.523.427-.37.698-.916.698-1.523 0-.867-.553-1.61-1.325-1.894.549-.086.997-.267 1.214-.498-.071-.373-.143-.902-.205-1.504m-12.761-5.854c-2.915 5.622-1.068 7.651 1.848 7.463 2.157-.139 5.178-1.519 7.552-2.295.094-1.158.139-2.453.059-3.4h.001l.002-.567c.439-.381.785-.803 1.05-1.311l-.267-.282c-.516.409-.944.873-1.215 1.441l-.54-.363v-3.107l.611-.258c.366.587.518.988 1.134 1.325.107-.182.275-.325.474-.402-.907-2.55-2.785-2.511-4.152-1.46l-.09.024.104-.021c.087.166.189.39.008.633l-.24.076c.107.61.144 1.744.622 1.849.612.128.093-1.402.286-1.276.528.496 1.217 1.81.778 2.467-.322.487-1.438.241-1.762-.236-.198-.302-.304-.64-.364-.997.173 1.332.548 1.707-1.168 3.073-.927-1.587-.704-2.016-.257-2.791-.106.136-.226.261-.364.37-.457.352-1.594.236-1.747-.327-.212-.763.855-1.794 1.512-2.1.223-.058-.751 1.232-.129 1.302.506.052.906-1.094 1.203-1.618l-.169-.139c-.078-.293.101-.463.243-.585l-.001-.001c-1.509-1.837-3.151-1.509-4.479-.153.164.077.294.2.383.346.547-.062.983-.191 1.397-.518l.487.449-1.047 2.925-.63.16c-.062-.605-.301-1.182-.634-1.73-.126.051-.264.074-.404.063.056.628.213 1.225.509 1.752l-.125.453zm7.832 8.896c-.606 0-1.102-.495-1.102-1.103 0-.607.496-1.102 1.102-1.102.607 0 1.103.495 1.103 1.102 0 .608-.496 1.103-1.103 1.103m-2.232.837c-.607 0-1.103-.495-1.103-1.103 0-.606.496-1.102 1.103-1.102s1.102.496 1.102 1.102c0 .608-.495 1.103-1.102 1.103m-2.32.651c-.607 0-1.102-.495-1.102-1.103 0-.607.495-1.102 1.102-1.102.608 0 1.103.495 1.103 1.102 0 .608-.495 1.103-1.103 1.103m-6.531-7.076c-.607 0-1.102-.495-1.102-1.103 0-.607.495-1.102 1.102-1.102.607 0 1.102.495 1.102 1.102 0 .608-.495 1.103-1.102 1.103m-.372 2.4c-.607 0-1.102-.496-1.102-1.103s.495-1.102 1.102-1.102c.608 0 1.103.495 1.103 1.102 0 .607-.495 1.103-1.103 1.103m.54 2.431c-.607 0-1.102-.495-1.102-1.103 0-.607.495-1.102 1.102-1.102.607 0 1.102.495 1.102 1.102 0 .608-.495 1.103-1.102 1.103m1.637 1.739c-.607 0-1.103-.495-1.103-1.102 0-.608.496-1.103 1.103-1.103s1.102.495 1.102 1.103c0 .607-.495 1.102-1.102 1.102m2.264.636c-.608 0-1.103-.495-1.103-1.102 0-.608.495-1.103 1.103-1.103.607 0 1.102.495 1.102 1.103 0 .607-.495 1.102-1.102 1.102m21.28-10.514c2.915 5.622 1.068 7.651-1.847 7.463-2.157-.139-5.178-1.519-7.553-2.295-.094-1.158-.138-2.453-.059-3.4h-.001l-.001-.567c-.439-.381-.786-.803-1.051-1.311l.268-.282c.516.409.943.873 1.214 1.441l.539-.363v-3.107l-.609-.258c-.367.587-.519.988-1.135 1.325-.107-.182-.274-.325-.473-.402.906-2.55 2.785-2.511 4.152-1.46l.09.024-.105-.021c-.086.166-.189.39-.007.633l.24.076c-.108.61-.144 1.744-.622 1.849-.612.128-.093-1.402-.286-1.276-.529.496-1.218 1.81-.778 2.467.321.487 1.438.241 1.762-.236.198-.302.303-.64.363-.997-.172 1.332-.547 1.707 1.168 3.073.927-1.587.704-2.016.258-2.791.105.136.225.261.364.37.456.352 1.594.236 1.747-.327.211-.763-.856-1.794-1.512-2.1-.223-.058.75 1.232.128 1.302-.505.052-.906-1.094-1.202-1.618l.168-.139c.078-.293-.1-.463-.242-.585l.001-.001c1.509-1.837 3.151-1.509 4.478-.153-.163.077-.294.2-.382.346-.547-.062-.983-.191-1.398-.518l-.486.449 1.047 2.925.63.16c.062-.605.3-1.182.633-1.73.126.051.265.074.405.063-.057.628-.214 1.225-.51 1.752l.126.453z"/><path fill="#223264" fill-rule="evenodd" d="M474.132 400.33l.201-.201-.201-.202-.202.202z"/><path fill="#223264" d="M474.132 400.33l.201-.201-.201-.202-.202.202z"/><path fill="#fff" d="M474.132 400.33l-.016-.016.185-.185-.169-.17-.17.17.186.185-.016.016-.016-.016.016.016-.016.016-.201-.202-.016-.015.217-.218.016-.016.217.218.016.016-.217.217-.016.016-.016-.016z"/></g><g clip-path="url(#b)" transform="matrix(.35278 0 0 -.35278 -163.95 164.382)"><path fill="#223264" fill-rule="evenodd" d="M509.5 400.938c-4.888-1.97-5.523-4.409-5.065-7.45 3.88 2.607 4.477 3.987 5.065 7.45"/><path fill="#223264" fill-rule="evenodd" d="M505.562 390.521c-4.253-3.628-6.859-3.027-9.491-1.103 4.356 2.368 5.947 2.25 9.491 1.103"/></g><g clip-path="url(#c)" transform="matrix(.35278 0 0 -.35278 -163.95 164.382)"><path fill="#223264" fill-rule="evenodd" d="M513.604 396.394c-3.512-4.405-6.204-4.308-9.176-2.909 3.856 3.178 5.451 3.367 9.176 2.909"/><path fill="#223264" fill-rule="evenodd" d="M502.343 395.462c-5.042-.932-6.121-3.136-6.273-6.122 4.205 1.733 5.042 2.933 6.273 6.122"/><path fill="#223264" fill-rule="evenodd" d="M514.006 417.482c-1.118-5.464.663-7.45 3.612-8.821-.032 4.945-.901 6.279-3.612 8.821"/><path fill="#223264" fill-rule="evenodd" d="M511.403 423.888c.722-4.452 3.038-5.4 6.251-5.527-1.633 3.711-2.882 4.447-6.251 5.527"/><path fill="#223264" fill-rule="evenodd" d="M507.562 429.452c2.381-4.732 4.513-4.997 6.981-4.035-2.761 3.589-4.003 3.983-6.981 4.035"/><path fill="#223264" fill-rule="evenodd" d="M500.774 433.502c3.809-3.244 5.783-2.735 7.61-1.056-3.73 2.131-4.967 2.041-7.61 1.056"/><path fill="#223264" fill-rule="evenodd" d="M495.084 436.115c4.399-2.351 6.211-1.51 7.629.404-4.083 1.319-5.268 1.008-7.629-.404"/><path fill="#223264" fill-rule="evenodd" d="M520.084 417.93c1.944-5.278.382-7.499-2.48-9.268-.677 4.922.033 6.367 2.48 9.268"/><path fill="#223264" fill-rule="evenodd" d="M517.092 427.616c3.283-4.317 2.558-6.81.551-9.255-2.057 4.349-1.856 5.884-.551 9.255"/><path fill="#223264" fill-rule="evenodd" d="M510.46 433.689c4.675-2.694 4.971-5.258 4.073-8.274-3.562 3.195-3.97 4.679-4.073 8.274"/><path fill="#223264" fill-rule="evenodd" d="M495.837 440.73c4.713.195 6.131-1.562 6.877-4.21-4.126.696-5.122 1.603-6.877 4.21"/><path fill="#223264" fill-rule="evenodd" d="M503.438 438.768c4.623-1.611 5.288-3.705 4.948-6.336-3.7 2.178-4.297 3.358-4.948 6.336"/><path fill="#223264" fill-rule="evenodd" d="M514.105 408c-3.819-3.567-3.536-6.05-2.027-8.699 2.659 3.796 2.718 5.286 2.027 8.699"/><path fill="#223264" fill-rule="evenodd" d="M520.005 406.631c-1.469-6.155-4.253-7.345-7.944-7.342 2.404 5.072 3.937 6.027 7.944 7.342"/><path fill="#223264" fill-rule="evenodd" d="M504.21 394.491c-.49 0-.888-.397-.888-.889 0-.489.398-.887.888-.887s.889.398.889.887c0 .492-.399.889-.889.889m-.196-.742l-.201.202.201.201.201-.201z"/><path fill="#223264" fill-rule="evenodd" d="M496.07 390.27c-.49 0-.887-.397-.887-.887 0-.491.397-.889.887-.889s.888.398.888.889c0 .49-.398.887-.888.887m-.196-.74l-.201.201.201.2.202-.2z"/><path fill="#223264" fill-rule="evenodd" d="M511.491 400.173c-.427-.239-.58-.781-.341-1.209.24-.427.781-.579 1.209-.34.428.239.581.781.341 1.209-.24.427-.781.579-1.209.34m.191-.742l-.274.077.077.275.274-.079z"/><path fill="#223264" fill-rule="evenodd" d="M516.836 409.257c-.434-.228-.602-.765-.374-1.199.227-.434.764-.602 1.198-.375.435.228.602.765.374 1.199-.227.435-.764.602-1.198.375m.17-.747l-.272.084.085.271.272-.084z"/><path fill="#223264" fill-rule="evenodd" d="M517.068 418.628c-.385-.304-.451-.862-.147-1.248.304-.385.862-.451 1.247-.147.385.304.451.863.147 1.248-.304.385-.862.451-1.247.147m.304-.704l-.282.034.033.282.283-.033z"/><path fill="#223264" fill-rule="evenodd" d="M513.768 425.256c-.159-.465.089-.97.553-1.128.464-.158.969.09 1.127.553.159.465-.089.97-.553 1.128-.464.158-.969-.09-1.127-.553m.637-.425l-.255-.126-.126.256.255.124z"/><path fill="#223264" fill-rule="evenodd" d="M507.817 431.877c.178-.457.694-.682 1.15-.503.457.179.682.694.503 1.151-.179.457-.695.681-1.151.502-.457-.179-.681-.694-.502-1.15m.761.088l-.114-.261-.261.114.114.26z"/><path fill="#223264" fill-rule="evenodd" d="M502.2 435.625c.348-.344.911-.341 1.255.008.345.349.342.911-.008 1.256-.349.344-.91.341-1.255-.008-.345-.349-.341-.911.008-1.256m.66.389l.002-.285-.285-.001-.002.285z"/><path fill="#223264" fill-rule="evenodd" d="M499.956 437.387c-2.971 2.747-6.008 1.092-6.008 1.092l.004.018s2.259-2.618 6.007-1.093z"/></g><g clip-path="url(#d)" transform="matrix(.35278 0 0 -.35278 -163.95 164.382)"><path fill="#223264" fill-rule="evenodd" d="M476.47 400.792c4.888-1.97 5.523-4.41 5.065-7.45-3.88 2.607-4.477 3.987-5.065 7.45"/><path fill="#223264" fill-rule="evenodd" d="M480.41 390.376c4.253-3.628 6.858-3.027 9.49-1.103-4.355 2.368-5.946 2.25-9.49 1.103"/></g><g clip-path="url(#e)" transform="matrix(.35278 0 0 -.35278 -163.95 164.382)"><path fill="#223264" fill-rule="evenodd" d="M472.367 396.248c3.512-4.405 6.204-4.308 9.175-2.909-3.855 3.178-5.451 3.367-9.175 2.909"/><path fill="#223264" fill-rule="evenodd" d="M483.628 395.317c5.042-.932 6.121-3.136 6.272-6.122-4.205 1.733-5.041 2.933-6.272 6.122"/><path fill="#223264" fill-rule="evenodd" d="M471.965 417.337c1.118-5.464-.663-7.45-3.613-8.821.032 4.945.902 6.279 3.613 8.821"/><path fill="#223264" fill-rule="evenodd" d="M474.567 423.742c-.721-4.452-3.037-5.4-6.251-5.527 1.634 3.711 2.882 4.447 6.251 5.527"/><path fill="#223264" fill-rule="evenodd" d="M478.409 429.307c-2.382-4.732-4.513-4.997-6.981-4.035 2.76 3.588 4.003 3.983 6.981 4.035"/><path fill="#223264" fill-rule="evenodd" d="M485.196 433.356c-3.809-3.244-5.783-2.735-7.609-1.056 3.729 2.131 4.966 2.041 7.609 1.056"/></g><g clip-path="url(#f)" transform="matrix(.35278 0 0 -.35278 -163.95 164.382)"><path fill="#223264" fill-rule="evenodd" d="M490.886 435.97c-4.398-2.351-6.21-1.51-7.629.404 4.084 1.319 5.268 1.008 7.629-.404"/><path fill="#223264" fill-rule="evenodd" d="M465.887 417.784c-1.944-5.278-.383-7.499 2.479-9.269.678 4.923-.032 6.368-2.479 9.269"/></g><g clip-path="url(#g)" transform="matrix(.35278 0 0 -.35278 -163.95 164.382)"><path fill="#223264" fill-rule="evenodd" d="M468.879 427.47c-3.283-4.317-2.559-6.809-.551-9.255 2.056 4.349 1.856 5.884.551 9.255"/><path fill="#223264" fill-rule="evenodd" d="M475.51 433.543c-4.675-2.693-4.971-5.258-4.073-8.274 3.562 3.195 3.97 4.68 4.073 8.274"/><path fill="#223264" fill-rule="evenodd" d="M490.134 440.585c-4.713.194-6.13-1.562-6.876-4.21 4.125.696 5.121 1.602 6.876 4.21"/><path fill="#223264" fill-rule="evenodd" d="M482.532 438.622c-4.622-1.611-5.287-3.705-4.948-6.336 3.7 2.178 4.298 3.358 4.948 6.336"/><path fill="#223264" fill-rule="evenodd" d="M471.866 407.855c3.818-3.567 3.536-6.05 2.027-8.699-2.659 3.796-2.719 5.286-2.027 8.699"/><path fill="#223264" fill-rule="evenodd" d="M465.965 406.485c1.469-6.155 4.253-7.345 7.945-7.342-2.404 5.072-3.937 6.027-7.945 7.342"/><path fill="#223264" fill-rule="evenodd" d="M480.873 393.457c0-.49.397-.887.888-.887.49 0 .888.397.888.887 0 .491-.398.888-.888.888-.491 0-.888-.397-.888-.888m.883.348l.201.202.202-.202-.202-.201z"/><path fill="#223264" fill-rule="evenodd" d="M489.012 389.237c0-.491.397-.888.888-.888.49 0 .888.397.888.888 0 .49-.398.887-.888.887-.491 0-.888-.397-.888-.887m.883.348l.202.202.201-.202-.201-.201z"/><path fill="#223264" fill-rule="evenodd" d="M473.27 399.688c-.24-.428-.087-.97.341-1.209.427-.239.969-.087 1.208.34.24.428.087.97-.341 1.209-.427.239-.969.087-1.208-.34m.94-.129l.275.079.076-.275-.273-.077z"/><path fill="#223264" fill-rule="evenodd" d="M467.936 408.737c-.227-.434-.06-.971.374-1.199.435-.227.971-.059 1.199.375.228.434.06.971-.374 1.199-.434.227-.971.06-1.199-.375m.944-.101l.272.084.085-.271-.272-.086z"/><path fill="#223264" fill-rule="evenodd" d="M467.655 418.336c-.304-.386-.238-.944.147-1.248.385-.304.944-.238 1.247.147.304.386.238.944-.147 1.248-.385.304-.943.238-1.247-.147m.91-.274l.282.033.033-.282-.283-.034z"/><path fill="#223264" fill-rule="evenodd" d="M471.076 425.663c-.465-.158-.712-.663-.553-1.128.158-.463.663-.711 1.127-.553.464.159.711.664.553 1.128-.159.463-.663.711-1.127.553m.615-.723l.255-.125-.125-.256-.255.126z"/><path fill="#223264" fill-rule="evenodd" d="M477.652 432.881c-.457.179-.972-.046-1.151-.502-.179-.457.046-.972.502-1.151.457-.179.972.046 1.151.502.179.457-.045.972-.502 1.151m.002-.949l.114-.261-.261-.114-.114.261z"/><path fill="#223264" fill-rule="evenodd" d="M483.779 436.736c-.344.349-.907.353-1.255.008-.349-.344-.353-.907-.008-1.256.344-.349.906-.353 1.255-.008.349.344.353.907.008 1.256m-.383-.869l-.002-.284-.285.001.002.285z"/><path fill="#223264" fill-rule="evenodd" d="M486.015 437.241c2.971 2.747 6.007 1.092 6.007 1.092l-.003.018s-2.259-2.618-6.007-1.093z"/><path fill="#223264" fill-rule="evenodd" d="M493.253 390.541h1.54l-2.24-2.803h-1.486z"/><path fill="#223264" fill-rule="evenodd" d="M492.69 390.541h-1.54l2.24-2.803h1.486z"/><path fill="#223264" fill-rule="evenodd" d="M508.574 405.894l-1.938-1.58 5.705-.883-1.039-1.987-6.681 2.039 1.699 1.196-5.78.065.788.702z"/><path fill="#223264" fill-rule="evenodd" d="M476.496 405.894l1.939-1.58-5.705-.883 1.038-1.987 6.681 2.039-1.7 1.196 6.405.196-1.092.76z"/><path fill="#223264" fill-rule="evenodd" d="M489.564 435.73l3.12-1.286-1.074 6.302h2.804l-.444-9.029-2.085 1.748 2.543-6.254-.793-.422z"/><path fill="#223264" d="M500.264 414.422v.003l-.015-.003z"/><path fill="#223264" d="M497.158 402.328c1.08.812 2.051 1.721 2.889 2.703-.608.238-1.262.448-1.945.626-.535-.982-1.164-1.966-1.871-2.932.334-.116.645-.249.927-.397"/><path fill="#223264" d="M495.714 406.122c-.255-1.031-.563-2.049-.916-3.028.343-.061.675-.137.992-.228.708.954 1.336 1.928 1.872 2.899-.628.147-1.283.266-1.948.357"/><path fill="#223264" d="M493.333 410.266l.001-3.509c.688-.021 1.374-.072 2.045-.151.271 1.158.481 2.353.624 3.558-.88.056-1.777.089-2.67.102"/><path fill="#223264" d="M497.568 402.09l.076-.05c1.407.551 2.699 1.334 3.843 2.332-.323.172-.662.336-1.013.486-.843-1.005-1.819-1.936-2.906-2.768"/><path fill="#223264" d="M493.335 406.317l.001-3.064c.345-.016.687-.047 1.021-.091.354.975.662 1.987.918 3.014-.637.074-1.289.121-1.94.141"/><path fill="#223264" d="M496.051 410.6c.13 1.227.193 2.482.19 3.737l-2.911.026.002-3.658c.908-.011 1.821-.046 2.719-.105"/><path fill="#223264" d="M500.342 405.387c.972 1.205 1.745 2.506 2.3 3.873-.895.196-1.842.367-2.82.509-.365-1.243-.872-2.492-1.508-3.715.714-.188 1.395-.412 2.028-.667"/><path fill="#223264" d="M503.233 419.267c.545.13 1.082.276 1.6.432-.694 1.534-1.664 2.902-2.884 4.072-.305-.176-.626-.343-.956-.497.966-1.249 1.719-2.595 2.24-4.007"/><path fill="#223264" d="M496.81 426.822c-1.277.403-2.606.607-3.957.607-1.233 0-2.452-.17-3.628-.508 1.032-.481 2.402-.761 3.823-.773 1.383-.007 2.732.233 3.762.674"/><path fill="#223264" d="M504.099 414.707l1.893-.017c-.049 1.594-.379 3.142-.983 4.604-.527-.161-1.074-.309-1.629-.442.448-1.34.689-2.732.719-4.145"/><path fill="#223264" d="M502.803 409.673c.556 1.497.844 3.042.86 4.599l-3.119.028c-.036-1.367-.239-2.746-.603-4.105.993-.146 1.955-.32 2.862-.522"/><path fill="#223264" d="M496.237 414.776c-.015 1.007-.074 2.03-.175 3.045-.897-.052-1.815-.081-2.734-.087l.001-2.933z"/><path fill="#223264" d="M496.676 414.772l3.435-.029c.001 1.153-.122 2.307-.364 3.433-1.048-.144-2.139-.253-3.247-.327.102-1.027.161-2.061.176-3.077"/><path fill="#223264" d="M497.876 406.165c.635 1.208 1.141 2.439 1.506 3.665-.953.128-1.941.23-2.941.303-.144-1.214-.354-2.418-.625-3.583.706-.097 1.397-.227 2.06-.385"/><path fill="#223264" d="M499.648 418.606c-.305 1.254-.766 2.5-1.371 3.712-.761-.197-1.563-.352-2.388-.463.244-1.184.434-2.383.566-3.569 1.093.072 2.165.18 3.193.32"/><path fill="#223264" d="M500.713 423.629c.311.141.612.294.899.455-1.138 1.018-2.421 1.819-3.825 2.387 1.108-.866 2.091-1.819 2.926-2.842"/><path fill="#223264" d="M496.49 410.57c1.026-.076 2.039-.181 3.014-.313.363 1.34.565 2.7.602 4.046l-3.426.03c.004-1.264-.06-2.529-.19-3.763"/><path fill="#223264" d="M500.55 414.738l3.111-.027c-.031 1.377-.27 2.736-.711 4.04-.876-.199-1.807-.371-2.768-.513.245-1.148.369-2.325.368-3.5"/><path fill="#223264" d="M500.294 423.447c-.907 1.093-1.988 2.106-3.215 3.011-.232-.105-.48-.199-.741-.284.846-1.086 1.574-2.208 2.167-3.341.63.176 1.23.382 1.789.614"/><path fill="#223264" d="M500.084 418.667c.945.139 1.858.306 2.718.499-.517 1.384-1.264 2.703-2.221 3.925-.585-.247-1.213-.468-1.873-.656.607-1.23 1.07-2.495 1.376-3.768"/><path fill="#223264" d="M495.36 422.231c-.26 1.185-.581 2.376-.953 3.544-.355-.038-.718-.06-1.084-.066l.003-3.617c.684.017 1.367.063 2.034.139"/><path fill="#223264" d="M496.016 418.257c-.131 1.177-.32 2.366-.564 3.543-.695-.08-1.409-.129-2.126-.146l.001-3.482c.901.005 1.803.035 2.689.085"/><path fill="#223264" d="M498.07 422.718c-.597 1.126-1.331 2.243-2.186 3.325-.33-.087-.677-.158-1.035-.212.37-1.169.689-2.36.948-3.547.785.105 1.548.251 2.273.434"/><path fill="#223264" d="M483.092 409.336c-.752-.162-1.484-.348-2.181-.555.685-1.485 1.63-2.814 2.811-3.955.501.267 1.039.51 1.6.722-.935 1.185-1.684 2.457-2.23 3.788"/><path fill="#223264" d="M485.617 423.26c.651-.238 1.349-.443 2.077-.613.614 1.19 1.379 2.372 2.276 3.518-.33.103-.64.221-.925.354-1.326-.977-2.479-2.072-3.428-3.259"/><path fill="#223264" d="M488.599 405.982c.546-.985 1.189-1.976 1.915-2.948.286.06.583.109.884.145-.357.989-.667 2.015-.927 3.055-.635-.059-1.263-.143-1.872-.252"/><path fill="#223264" d="M485.613 405.188c-.544-.2-1.064-.427-1.551-.679 1.173-1.056 2.508-1.883 3.972-2.461.161.112.338.218.526.316-1.104.851-2.095 1.8-2.947 2.824"/><path fill="#223264" d="M486.056 405.342c.855-1.006 1.848-1.937 2.954-2.769.319.134.668.252 1.039.35-.722.981-1.362 1.98-1.904 2.972-.73-.149-1.431-.335-2.089-.553"/><path fill="#223264" d="M485.727 414.429l-3.251.028c.017-1.562.316-3.112.888-4.616.944.193 1.942.355 2.97.485-.371 1.363-.576 2.742-.607 4.103"/><path fill="#223264" d="M480.703 419.31c-.579-1.396-.907-2.873-.98-4.392l2.316-.02c.029 1.324.249 2.634.655 3.896-.684.154-1.352.327-1.991.516"/><path fill="#223264" d="M485.188 423.426c.94 1.196 2.079 2.302 3.39 3.291-1.691-.581-3.275-1.524-4.6-2.737.385-.201.791-.388 1.21-.554"/><path fill="#223264" d="M492.899 402.825c-1.412.017-2.772-.234-3.827-.701l-.067-.088-.05.035c-.142-.067-.277-.139-.405-.213 1.381-.478 2.827-.72 4.302-.72 1.465 0 2.901.237 4.272.709-.341.196-.732.367-1.169.509l-.027-.035-.107.079c-.877.27-1.887.417-2.922.425"/><path fill="#223264" d="M501.831 404.682c1.235 1.156 2.221 2.512 2.934 4.035-.548.161-1.115.311-1.689.444-.559-1.392-1.336-2.72-2.313-3.95.369-.164.727-.34 1.068-.529"/><path fill="#223264" d="M504.945 409.12c.695 1.626 1.049 3.351 1.053 5.132l-1.897.016c-.016-1.59-.307-3.167-.867-4.693.582-.137 1.157-.29 1.711-.455"/><path fill="#223264" d="M482.037 414.46l-2.329.021-.002-.197c0-1.768.345-3.482 1.026-5.098.703.21 1.44.399 2.198.564-.577 1.535-.876 3.118-.893 4.71"/><path fill="#223264" d="M492.52 418.173l.369-.001-.001 3.475h-.353c-.622.006-1.248.037-1.865.09-.235-1.156-.416-2.328-.54-3.488.787-.044 1.59-.069 2.39-.076"/><path fill="#223264" d="M492.8 406.329c-.634.006-1.268-.015-1.886-.059.26-1.035.574-2.057.933-3.045.348.03.7.042 1.05.04l-.001 3.063z"/><path fill="#223264" d="M486.516 418.133a15.8726 15.8726 0 01-.356-3.27l3.328-.028c.011.992.064 2.001.159 3.003-1.062.066-2.114.165-3.131.295"/><path fill="#223264" d="M483.125 418.7c-.401-1.233-.619-2.512-.647-3.806l3.245-.028c.004 1.113.124 2.229.357 3.323-1.023.14-2.016.311-2.955.511"/><path fill="#223264" d="M487.932 422.146c-.58-1.174-1.023-2.379-1.317-3.583.998-.126 2.031-.223 3.075-.289.124 1.167.305 2.345.54 3.507-.784.082-1.556.206-2.298.365"/><path fill="#223264" d="M490.32 422.212c.261 1.22.587 2.446.968 3.648-.294.047-.582.108-.861.177-.902-1.136-1.671-2.307-2.288-3.486.705-.147 1.437-.261 2.181-.339"/><path fill="#223264" d="M492.537 422.087h.349l-.002 3.624c-.388.01-.776.038-1.156.084-.381-1.192-.707-2.411-.969-3.625.589-.051 1.187-.077 1.778-.083"/><path fill="#223264" d="M483.642 423.661c-1.163-1.142-2.092-2.468-2.763-3.946.628-.183 1.284-.352 1.957-.503.482 1.35 1.18 2.644 2.076 3.851-.441.181-.867.382-1.27.598"/><path fill="#223264" d="M485.336 422.897c-.892-1.182-1.587-2.453-2.067-3.779.925-.195 1.902-.363 2.909-.498.294 1.22.736 2.438 1.315 3.625-.758.18-1.482.4-2.157.652"/><path fill="#223264" d="M489.925 414.391c.001-1.255.07-2.512.205-3.74.914.043 1.843.063 2.764.057l-.002 3.658z"/><path fill="#223264" d="M492.515 417.735c-.808.007-1.625.032-2.43.076-.094-.993-.147-1.994-.158-2.981l2.964-.025-.002 2.927z"/><path fill="#223264" d="M489.486 414.395l-3.32.029c.032-1.341.237-2.701.608-4.045.946.111 1.926.195 2.918.249-.135 1.237-.205 2.502-.206 3.767"/><path fill="#223264" d="M490.181 410.214c.146-1.188.357-2.368.627-3.512.655.047 1.326.07 1.996.064h.091l-.002 3.504c-.906.004-1.817-.014-2.712-.056"/><path fill="#223264" d="M486.898 409.953c.36-1.188.858-2.386 1.481-3.565.645.12 1.313.212 1.988.277-.269 1.15-.479 2.335-.625 3.527-.966-.053-1.922-.133-2.844-.239"/><path fill="#223264" d="M486.456 409.9c-1.014-.126-1.997-.285-2.927-.473.545-1.308 1.295-2.559 2.229-3.722.683.234 1.412.434 2.173.593-.621 1.191-1.116 2.401-1.475 3.602"/></g></svg>