<svg xmlns="http://www.w3.org/2000/svg" role="img" viewBox="-10.62 0.38 1020.24 390.24"><title>Generic Neural Elastic Search (GNES) logo</title><defs><style>.cls-1{fill:#267ba0}.cls-2{fill:#206280}</style></defs><path d="M114.30292 160.89587c22.11987-.07934 44.23968-.13147 66.35895-.27838 2.3955-.01587 2.94928.94342 2.93847 3.12952q-.10336 21.101.00305 42.2027c.01239 2.25836-.67657 3.08136-2.9953 3.06079-15.381-.13623-30.76288-.16327-46.14453-.22583q-4.40944-.02684-8.819-.05353l-8.79968.10126-9.69342-.12433q-5.27637.0542-10.55274.10864-6.16314-.0205-12.32623-.04114a69.23777 69.23777 0 01-12.30707-.05529 48.25025 48.25025 0 01-10.59405-.00092c-8.42621-.87006-13.08142-5.78735-13.15186-14.5506-.14587-18.17029-.07916-36.34241-.067-54.51379.00683-10.10913.07971-20.21832.12286-30.32746q.01236-8.824.02466-17.64819c-.58655-12.58588 4.23724-17.77881 16.73749-17.91986 3.49261-.03943 6.9873.10523 10.48108.16534q3.93255.05383 7.865.10779a27.15526 27.15526 0 017.934-.08124l109.14764-.00158c5.11094-.191 9.37921.35956 14.99726-.01978 3.81153-.25736 4.83245-1.28705 4.71008-5.06921-.30811-9.52576-.28961-19.07355-.01142-28.60108.11463-3.92565-.85571-5.10784-4.98266-5.093-45.18372.1629-90.36829.09155-135.55255.11291-7.18677.00342-14.39069-.13549-21.55591.29932A48.40693 48.40693 0 0030.11554 46.075C15.686 57.65363 9.70886 73.22089 9.59467 91.28339c-.1623 25.66967-.11786 51.34069-.16175 77.0111l-.01813 22.89905c.27479 3.50324.43366 7.02033.84675 10.50714 1.10577 9.33551 4.187 17.9607 10.12249 25.32825 11.579 14.37256 27.09729 20.42316 45.14014 20.47394 38.38611.10785 76.77283.02612 115.15924.04175 4.83118.00195 9.66248.12207 14.49371.18737q5.29129-.13073 10.58252-.26165l5.79566-1.89972c5.96661-3.565 9.562-8.68738 10.30194-15.68518l.23749-16.69812a133.22813 133.22813 0 01-.0437-18.54706q-.01713-27.22953-.03443-54.45905-1.10055-3.9288-2.20117-7.85772a24.66828 24.66828 0 00-8.953-8.63251c-4.7547-1.93689-9.85572-1.286-14.7771-1.97748l-22.01758-.00976q-29.91559.10134-59.83124.19812c-9.82782.02594-19.65832.1289-29.4823-.067-3.15973-.063-3.94037.98047-3.88708 3.9953.17346 9.82489.25866 19.6604-.02869 29.47992-.11823 4.03937.673 6.188 5.15631 5.38257m840.90643.22544c15.3501-.399 24.66486 8.70264 24.70215 24.13684a30.2396 30.2396 0 01-1.48121 10.92857c-2.74418 6.51162-7.23217 9.92727-13.61034 11.92232-3.84772 1.20362-7.81488 1.05872-11.76331 1.05957q-70.12737.016-140.25445-.07122c-3.55457-.00892-4.78632.75018-4.68323 4.53015.27521 10.105.22235 20.22485.01782 30.33313-.064 3.1618.94489 3.91131 3.95508 3.84845 8.05457-.16834 16.11609.00415 24.17493.04113q3.986.029 7.972.05823 21.54612-.02729 43.09211-.0545 3.98364.00668 7.96728.01342 7.02146-.01006 14.04291-.0202 6.628.03232 13.2558.06452c1.4599-.05744 2.91937-.1272 4.3797-.1706 13.15142-.39007 26.34777.9397 39.45916-.907 27.47113-3.86914 47.37873-23.71417 51.51227-51.1427 1.14728-7.61316.42792-15.17712-.11566-22.7608-2.28217-9.75952-5.53217-19.10663-11.96149-27.01252-11.41681-14.03857-26.47784-21.22772-44.21283-23.29919-2.75518-.32178-5.52154-.54718-8.28271-.8172-27.5932.66431-55.18848.22925-82.78308.15656a33.56485 33.56485 0 01-8.76636-.46909 15.78025 15.78025 0 01-8.06891-3.84329c-7.6687-5.57892-9.22058-13.47632-8.43677-22.259.34485-6.87323 2.62964-12.76246 8.52979-16.81812 1.94214-2.00323 4.20846-2.5679 7.07391-3.696a43.52058 43.52058 0 0110.80908-.90282c40.86487-.03955 81.73005-.09191 122.59412.07709 4.13751.01709 5.09161-1.18323 4.9834-5.10943-.27435-9.9524-.20087-19.91925-.0221-29.876.05115-2.84766-.79937-4.02875-3.60626-3.7204q-5.322-.05723-10.6441-.11438a202.005 202.005 0 01-21.92267.01148l-20.33936.054q-6.56295-.03268-13.12591-.06543-5.32133.05676-10.64258.11359c-17.44635.05688-34.89435-.01251-52.33844.21734a61.08472 61.08472 0 00-30.18841 8.30591c-25.97217 15.06507-34.74921 42.39435-27.84339 72.39917 4.3133 18.741 16.63593 31.53638 34.02326 39.49927q3.87359 1.3927 7.74694 2.785c10.17121 2.7146 20.57221 2.33045 30.94959 2.31971q28.74042-.02967 57.48108.00915m-474.55166 19.13512q.05658 1.70334.11359 3.40662-.08835.3684-.17682.73681-.33462-.24123-.67017-.48175c-.856-.78826-1.75549-1.5343-2.55938-2.37225q-67.445-70.304-134.85181-140.64441c-3.40991-3.56067-7.02155-6.63965-11.91724-7.8645a23.53559 23.53559 0 00-12.1905 1.31677c-8.41351 4.96558-11.462 12.34613-11.423 22.0448.2229 55.36634.11 110.73413.1 166.10144-.00031 1.75232-.12232 3.5047-.18757 5.25708l-.06445 10.535a17.445 17.445 0 01-.01623 6.17114c-.47376 4.43762 2.95086 3.30536 5.30011 3.70941 9.66961-.06268 19.34368-.31427 29.00665-.09155 3.66656.08447 4.58435-.89221 4.56524-4.55982-.13134-25.20691-.00463-50.41528.03913-75.62317q.04119-4.87655.0827-9.75305-.04522-4.80889-.09058-9.61773.04963-4.8794.09931-9.75885-.04687-4.365-.09381-8.73-.001-5.754-.00183-11.50787.034-2.60624.06793-5.21252c-.08063-4.23456-.16931-8.46888-.22742-12.70374a10.8529 10.8529 0 01.51868-1.9292c2.759 3.064 5.13794 5.70587 7.51684 8.34766a114.54718 114.54718 0 0111.50458 12.028q4.81742 4.9953 9.63471 9.9906l3.40765 3.53638a29.3108 29.3108 0 015.42987 5.73346q2.2077 2.29688 4.41541 4.59363a20.67783 20.67783 0 014.4859 4.7937c2.47424 2.43842 5.0108 4.81793 7.41314 7.32587q42.31907 44.18042 84.5691 88.42694c6.44256 6.769 13.85882 9.16589 22.66461 6.04455 7.953-2.819 12.00586-9.86676 12.1073-19.97284.06476-6.4458.18207-12.89123.27594-19.33679l-.25128-170.65735c-.0008-1.60113.74646-3.72418-1.98011-4.0653q-4.44726.0498-8.89441.09954l-14.8872-.05529q-4.00251.024-8.005.04791c-2.38611.195-5.36462-.36725-4.725 3.69592m174.86674 40.7923c13.05426 4.48627 25.66027 5.50793 38.51458.07568l28.1753-7.45807c10.60485-3.74981 21.58484-6.16095 32.42083-9.08538 12.59388-3.51893 25.18775-7.03748 38.85926-10.85706-2.183-.76984-3.3335-1.25732-4.52784-1.58478-35.81011-9.81866-71.64654-19.54211-107.41078-29.52478a23.41509 23.41509 0 00-13.18732.1073C607.75085 25.74567 591.64856 30 575.56873 34.33484c-15.71393 4.92657-31.64881 9.05176-47.59882 13.12216a1081695.9419 1081695.9419 0 01-15.92712 4.69769c4.38458 1.374 7.54461 2.36438 10.70471 3.35474" class="cls-1"/><path d="M628.81 168.104l-.063 36.554 123.961-36.975V132.96L628.81 168.104z" class="cls-2"/><path d="M629.134 168.104l.063 36.554-123.96-36.975V132.96l123.897 35.144z" class="cls-1"/><path d="M628.81 227.324l-.063 36.553 123.961-36.975v-34.723L628.81 227.324z" class="cls-2"/><path d="M629.134 227.324l.063 36.553-123.96-36.975v-34.723l123.897 35.145z" class="cls-1"/><path d="M628.762 109.398l-.063 36.554 123.961-36.975V74.254l-123.898 35.144z" class="cls-2"/><path d="M629.134 109.398l.063 36.554-123.96-36.975V74.254l123.897 35.144zM304.27728 322.82083c-1.87213 2.18613-1.322 4.01767-1.32746 5.68951-.04118 12.46994.02548 24.94025-.02032 37.41014-.00957 2.60387.933 5.65746-3.76 5.757-4.66135.0988-3.9065-2.79723-3.90811-5.50587-.01108-19.21867-.03323-38.43744.0401-57.65583.00731-1.92336-1.1318-4.89944 2.55323-4.88993 3.13358.00807 6.57143-1.25564 7.89728 3.78308 3.34862 12.72566 7.23426 25.31069 10.965 37.93438.47328 1.60141.43328 3.50192 2.27843 4.81058 1.3008-1.369.84161-3.02462.84645-4.48815.04161-12.6168.071-25.234-.00914-37.85041-.01752-2.74691.37974-4.35419 3.77748-4.34628 3.35367.00779 3.83909 1.55362 3.83028 4.3266-.06268 19.80537-.02323 39.611-.04882 59.41658-.00258 1.9718.498 4.47358-2.78932 4.30978-2.70171-.13455-5.74057 1.13239-6.9344-3.2369-3.738-13.68081-7.85525-27.25809-11.84142-40.87084-.39954-1.36427-.90622-2.69717-1.54926-4.59344zM40.96748 337.4597c0 7.48572.13278 14.97473-.053 22.45589-.10107 4.06954 2.14865 5.157 5.49329 5.05 3.318-.10612 7.60705 1.07755 7.86481-4.39956.20675-4.393.15025-8.79927.17364-13.19984.01209-2.27354-.5109-4.0345-3.41178-3.96655-2.74223.06424-2.24891-2.09022-2.307-3.804-.06494-1.91708.97488-2.6179 2.74444-2.54608a4.09406 4.09406 0 00.44016-.00715c11.12425-.74851 11.12812-.74862 11.12264 10.52083-.00253 5.13715.05225 10.276-.06 15.41091-.09483 4.33414-2.13124 7.07944-6.6282 7.96314a50.32 50.32 0 01-15.75539.3205c-6.10638-.73114-8.44512-3.35775-8.52414-9.71969q-.30045-24.21462.011-48.43473c.09456-6.52273 3.23045-9.37635 9.67077-9.46736 4.8201-.06817 9.69578-.65707 14.473.41925 4.82842 1.08792 6.60191 3.34941 6.77974 8.31589.063 1.75935-.16445 3.54816.072 5.27831.566 4.14131-1.469 5.02566-5.1099 4.77048-2.388-.16734-3.563-.96257-3.45688-3.39758.03193-.73174-.00252-1.468-.03623-2.2008-.28486-6.1946-6.34517-9.27911-11.73181-6.02473-1.87181 1.131-1.74456 2.89652-1.74817 4.64608q-.02289 11.00838-.00645 22.01676zm730.84715 14.72648c0-2.63967-.08622-5.28288.0228-7.918.12514-3.02671-1.39413-4.28145-4.22915-4.31247-2.49281-.02725-4.98636-.00424-7.47852-.05757-6.06161-.12966-9.11929-2.7174-9.38883-8.66746-.28523-6.29244-.25738-12.617.01452-18.91107.22169-5.13247 2.40776-7.60394 7.35628-8.3726a55.89732 55.89732 0 0115.319-.02581c4.45751.541 6.634 3.41339 7.22114 7.61061a38.51915 38.51915 0 01.13482 5.27084c.00559 5.58548-.41231 5.88039-6.03257 5.48646-1.982-.1389-3.0493-.76409-2.9392-2.85824.03849-.73109.00161-1.46611-.0028-2.19935-.03666-6.14573-4.13486-8.71143-10.07078-6.39124a2.91154 2.91154 0 00-2.06071 2.99651c-.01193 5.27912.00237 10.55824.00323 15.83736.00043 2.64827 1.63925 3.61 3.95982 3.69486 2.92985.1073 5.86841-.00156 8.796.13649 5.2445.24723 8.24251 3.08031 8.3483 8.22881.14762 7.18221.12461 14.37228-.03042 21.5546-.0901 4.17459-2.30982 6.73878-6.5723 7.50718a47.1017 47.1017 0 01-15.69867.18713c-4.45482-.68481-6.858-2.94146-7.32575-7.34645-.20008-1.88411-.44285-3.77436-.46693-5.66434-.05924-4.62877 3.50085-6.88838 7.64377-4.96722 1.81279.84064 1.37048 2.46732 1.30468 3.82715-.398 8.23122 1.28876 7.60211 8.99575 7.48712 2.19091-.03273 3.169-1.20785 3.16261-3.33458-.0087-2.93291-.002-5.86577-.002-8.79868zm163.74999-16.79101c-.00183-10.56249.082-21.12611-.05257-31.68688-.04053-3.18079.52208-4.76838 4.29172-4.77634 3.94477-.00839 4.22366 1.96035 4.15969 4.94331-.107 4.9855-.04827 9.97525-.00366 14.96274.00871.96579-.36662 2.19951.76389 2.77132 1.041.5266 1.4539-.65422 2.13554-1.10782 4.53975-3.0215 9.32076-2.266 13.82568-.28862 3.94187 1.73022 4.16206 5.70353 4.17109 9.44651.03 12.46956-.09149 24.94058.0801 37.40788.04666 3.40065-.8542 4.59738-4.436 4.61136-3.73168.01462-4.7337-1.221-4.67446-4.82047.195-11.87959.03677-23.76455.09783-35.64709.01559-3.05408-.09977-5.48474-4.258-5.508-5.93291-.03312-7.46659.60449-7.60216 5.27686-.24664 8.50168-.1087 17.01459-.1273 25.52282-.00838 3.8142-.15675 7.63592.03366 11.44045.17417 3.48037-1.80827 3.63158-4.45643 3.66776-2.69128.03666-4.03444-.59428-3.99778-3.64868.13076-10.85428.0511-21.71121.04916-32.56711zm-329.10838 9.76098c.00076 7.46853.02645 14.93721-.02064 22.40541-.00946 1.506.53585 3.7755-1.75935 3.81109-2.19349.03408-5.20644 1.7215-6.4923-1.572-.81-2.0748-1.408-1.56007-2.72547-.52171-4.48911 3.538-9.47 2.697-14.09274.66535-4.32043-1.89891-4.19969-6.27287-4.20808-10.27345q-.03144-14.93708-.01258-29.87415c.00893-3.88892.1845-8.03195 4.37709-9.74012 4.521-1.84208 9.37248-2.68918 13.75483.62 1.41606 1.06927 2.04856 1.90277 2.97458-.538 1.15619-3.04806 4.07884-1.37053 6.1846-1.4417 2.37174-.08 1.99878 2.06861 2.005 3.61439.03108 7.61487.0142 15.22993.01506 22.84489zm-20.33454-.30815q0 3.73929.00032 7.47857.00226 3.95926.00968 7.91853c.00462 1.48642.02247 2.93613 1.64184 3.76189 4.94325 2.52065 10.12507-.28926 10.21484-5.764.14418-8.7961.07118-17.59585.05924-26.3941a12.25621 12.25621 0 00-.339-2.60473c-1.11126-5.02-5.15333-3.23943-8.238-3.40382-3.09681-.16509-3.38065 2.08237-3.35871 4.49046.04409 4.83875.01323 9.67809.00979 14.5172zm-112.6587.21736c.00075 7.46739.02838 14.935-.02247 22.402-.01021 1.50142.5795 3.80065-1.66592 3.88645-2.19811.084-5.20515 1.73258-6.55251-1.46568-.78528-1.86423-1.24017-1.86439-2.69031-.67857-4.44654 3.63589-9.43914 2.75842-14.07522.78479-4.3472-1.85068-4.28613-6.21233-4.29226-10.22253q-.02258-14.93482.00409-29.86959c.00978-3.88359.15858-8.02281 4.30333-9.79038 4.5061-1.92159 9.408-2.80137 13.73354.539 1.89235 1.46133 2.14672 1.28339 3.20691-.82306 1.2964-2.57565 4.21894-1.18228 6.38125-1.09035 2.01017.08542 1.65022 2.08087 1.65538 3.4866.02842 7.61366.01348 15.22749.01419 22.84132zm-8.42217.26749l-.06827-.00022c0-4.98469.13644-9.97417-.03709-14.9529-.18535-5.31923-4.20711-4.53116-7.73107-4.63964-3.87242-.11912-4.11927 2.256-4.09852 5.18742q.09837 13.8581-.001 27.71732c-.02344 3.17364-.01677 5.81642 4.43235 5.77734 5.87195-.05166 7.21931-.67088 7.45551-5.45383.22413-4.53486.04813-9.08956.04813-13.63549zm394.19017-.27448c.00161 7.48347.02956 14.9672-.02183 22.4503-.01032 1.50105.5824 3.79162-1.70011 3.86484-2.20918.07085-5.21547 1.69618-6.562-1.50648-.86075-2.04759-1.42961-1.51659-2.75353-.49892-4.53179 3.48338-9.50773 2.59693-14.13661.53139-4.12142-1.83918-4.11475-6.03736-4.12217-9.90844q-.02935-15.1872.00613-30.37436c.01344-3.74324.24136-7.71607 4.18646-9.44354 4.51363-1.97637 9.385-2.81476 13.78107.405 1.7057 1.2493 2.15435 1.76634 3.245-.67411 1.21017-2.70842 4.18259-1.21893 6.33856-1.17523 2.03264.04113 1.72075 2.02109 1.72548 3.43876.02546 7.63018.01202 15.26051.01355 22.89079zm-20.32853-.43006q0 7.6975.00129 15.395c.00108 1.63248-.02806 3.26066 1.83945 4.08169 5.50769 2.42152 10.01691-.41914 10.08486-6.52967.093-8.35626.046-16.7144-.00161-25.07142a12.81048 12.81048 0 00-.55316-3.88817c-1.48229-4.49261-5.31922-2.55962-8.25165-2.74121-2.82094-.17471-3.14229 1.999-3.12853 4.2385.02965 4.83827.00912 9.67686.00933 14.51528zm-684.66819.51591c0-5.865-.127-11.73348.03715-17.59387.15181-5.418 1.86982-7.28145 7.08761-8.351a40.37207 40.37207 0 0116.55673.21836c3.35958.70545 5.58893 2.76868 5.732 6.28738.25593 6.29459.22948 12.60041.35259 18.90086.04935 2.52914-1.28721 3.23766-3.60847 3.19185-4.83725-.09547-9.6797.05731-14.51619-.05477-2.39949-.05559-3.51725.73216-3.3884 3.2612a59.01311 59.01311 0 01-.02134 7.91352c-.32248 3.84388 1.12416 5.71751 5.10458 5.90222 5.50656.25567 7.30155-.55111 7.835-4.95486.44043-3.63589 2.95689-2.43835 4.91922-2.656 2.401-.26642 3.33378.78178 3.42033 3.27507.23384 6.73432-1.63007 9.30464-8.24983 10.5555a38.93934 38.93934 0 01-14.82368-.23583c-4.01137-.7828-6.25545-3.09224-6.31813-7.18635-.09429-6.15633-.02451-12.31523-.02451-18.473zm21.25019-10.975c0-1.74978.03456-3.50048-.011-5.24907a3.09775 3.09775 0 00-1.98916-3.06736c-6.13283-2.65757-10.96561.32577-10.97808 6.83979a24.12985 24.12985 0 01-.02575 3.49622c-.64283 4.28629 1.1892 5.51775 5.36524 5.33772 8.6119-.37127 7.58375.81048 7.63875-7.35727zM74.1782 344.64449c.00113-6.01069-.05671-12.022.02118-18.03155.0529-4.08443 2.24456-6.45838 6.23744-7.27317a42.02877 42.02877 0 0116.99524.00784c3.57519.72975 5.91931 2.73778 6.0737 6.45237.26147 6.29356.23911 12.599.33657 18.89935.03413 2.20784-1.02434 3.12853-3.25148 3.09144-4.6907-.07811-9.39339.1753-14.07258-.06682-3.36619-.17423-4.45993 1.13534-4.19448 4.3251a40.21374 40.21374 0 01-.00333 7.03132c-.371 3.98122 1.44014 5.85126 5.26353 5.66838 3.30394-.158 7.63335.93042 7.70318-4.59669.04988-3.94434 2.88356-2.79529 5.01953-2.992 2.50318-.2305 3.23486 1.02547 3.30947 3.40941.21175 6.767-1.60469 9.2268-8.33153 10.48364a38.76335 38.76335 0 01-14.82293-.25976c-4.01154-.79936-6.21035-3.14917-6.26319-7.23737-.08152-6.30285-.02145-12.60749-.02032-18.91149zm21.20385-10.70881c-.00038-8.03383-.43758-8.63559-6.2597-8.61414-5.99817.0221-6.721.761-6.74491 6.90215a26.22015 26.22015 0 01-.02575 3.519c-.6039 4.29139.846 6.0287 5.49157 5.79658 8.60489-.42998 7.41687.74773 7.53879-7.60359zm243.8902 10.91965c0-6.0107-.04935-12.02188.01688-18.03188.04687-4.26274 2.253-6.70351 6.47736-7.52653a43.555 43.555 0 0116.56458.01935c4.019.75572 6.25728 3.0493 6.36286 7.15029.15482 6.006.15783 12.01591.27 18.02322.0458 2.44663-1.08954 3.35969-3.49817 3.30889-4.83659-.102-9.68061.09117-14.514-.06913-2.72514-.09031-3.66567.97041-3.51537 3.59627a58.34237 58.34237 0 01-.01032 7.91277c-.29566 3.73388 1.32489 5.339 4.98185 5.56467 5.5536.34276 7.50336-.52735 7.93986-4.81654.36845-3.62014 2.80245-2.6043 4.81155-2.78578 2.28832-.20675 3.43452.55762 3.5474 3.15987.29814 6.86726-1.619 9.52735-8.53785 10.74855a37.49976 37.49976 0 01-15.25507-.44522 6.67234 6.67234 0 01-5.59876-6.89763c-.07247-6.30292-.01989-12.60718-.01989-18.9109zm21.1682-10.698c0-1.75188.03752-3.50478-.01193-5.25526a3.09091 3.09091 0 00-2.01029-3.05585c-6.25921-2.67612-10.94465.21486-10.95475 6.82683a24.1402 24.1402 0 01-.02581 3.50037c-.64035 4.278 1.16513 5.53634 5.36094 5.35389 8.62039-.37501 7.58787.81177 7.64184-7.36999zm430.65284 10.82556c-.00419-6.01064-.04279-12.02155.00849-18.03166.03839-4.48465 2.361-6.90591 6.79539-7.71188a43.5932 43.5932 0 0116.5634.13262c3.57525.71824 5.85239 2.81093 5.9899 6.52837.23244 6.295.2219 12.5989.31479 18.89908.03376 2.28509-1.19619 3.02451-3.34409 2.99054-4.6907-.07435-9.38915.11966-14.0734-.06763-2.95737-.11821-4.36364.73384-4.0969 3.91371a43.15441 43.15441 0 01-.00226 7.47046c-.3634 4.00423 1.49024 5.82319 5.29159 5.64472 3.31088-.15547 7.6098.90026 7.68678-4.62431.05548-3.97483 2.963-2.70069 5.06463-2.91953 2.5757-.26808 3.16713 1.13647 3.22627 3.46139.1703 6.68089-1.59712 9.08268-7.98771 10.3229a37.95618 37.95618 0 01-15.68244-.308c-3.53794-.79409-5.66112-3.086-5.72186-6.79194-.10343-6.30133-.0285-12.60565-.03258-18.90884zm21.16229-11.01351c0-1.75182.05161-3.50563-.01613-5.25482a3.02133 3.02133 0 00-2.17693-2.9248c-6.52671-2.50173-10.7666.25-10.77456 7.0718a19.95154 19.95154 0 01-.0229 3.06263c-.705 4.44831 1.09266 5.83368 5.54866 5.61258 8.49151-.4213 7.38746.80156 7.44186-7.56739zm-413.62551 34.10336c-4.76317 4.70941-10.1082 3.90246-15.36023 2.15865-2.83878-.94262-4.323-3.38162-4.32709-6.5144-.01817-13.93508.02323-27.87064-.10386-41.80475-.0301-3.29937 1.81333-3.36141 4.24474-3.389 2.52312-.02855 4.19388.26389 4.16174 3.477-.1187 11.88044-.06473 23.763-.02871 35.64456.01871 6.19605 3.64793 8.6337 9.497 6.464 2.41679-.89645 2.54839-2.91711 2.5457-5.05609-.01505-11.88168.08859-23.7646-.06354-35.64434-.04333-3.38082.55079-5.00325 4.51159-4.982 3.85682.02075 4.61522 1.45127 4.57792 4.91965-.155 14.37368-.024 28.75032-.11526 43.12507-.01139 1.796 1.19265 4.71683-1.96685 4.92933-2.81922.18967-6.70036 1.90886-7.57315-3.32768zM113.82409 345.002c.00043-7.48186-.02522-14.96387.02193-22.44541.00951-1.50836-.53665-3.78071 1.76822-3.81156 2.19435-.02941 5.21262-1.72656 6.49112 1.59377.82049 2.13092 1.45385 1.4788 2.7374.47978 4.5175-3.51617 9.49381-2.65171 14.12134-.59562 4.10535 1.824 4.15292 6.01618 4.15825 9.89553.01677 12.17632-.07225 24.3535.05886 36.52843.03537 3.28695-.36823 5.11592-4.44315 5.0448-3.74663-.06548-4.70748-1.28248-4.65049-4.85311.18723-11.7332.00731-23.47173.09256-35.20735.025-3.432-.16911-6.05623-4.7716-5.9384-5.68289.14558-7.0589.80426-7.12964 5.80019-.16617 11.73385-.21922 23.4741-.00183 35.2059.07235 3.90742-1.16013 5.17575-5.02539 4.94858-2.78315-.16364-3.49129-1.23915-3.46107-3.76039.09133-7.6274.033-15.25661.03349-22.88514zm421.71901 26.54659c-3.51967-.00038-7.04256-.09337-10.55771.03145-2.44894.087-3.40409-.85425-3.39774-3.32561q.07821-30.79629.00989-61.59286c-.004-2.25584.91182-3.13262 3.1539-3.11074q10.77785.10531 21.557.00264c2.40314-.02446 2.973 1.18184 2.9679 3.28813-.00505 2.07818-.5739 3.42011-2.9263 3.41909-3.95918-.00177-7.91965.11337-11.87711.041-2.87125-.05257-4.37332.98644-4.30924 4.07164.10052 4.83708.05139 9.6782.00623 14.517-.02494 2.67574.88946 4.06293 3.88661 3.81925 2.91351-.2369 5.865.04 8.79385-.06762 2.68428-.09859 3.14971 1.44831 3.15551 3.63395.006 2.21752-.53982 3.69755-3.19465 3.59665-2.92866-.11139-5.87227.1103-8.79588-.05381-2.58076-.14482-3.84189.76845-3.82415 3.43091q.05871 8.79777-.00419 17.59639c-.01409 2.54732 1.02009 3.66352 3.71373 3.553 4.2457-.17406 8.5085.08037 12.75506-.08284 2.80675-.10794 3.4715 1.15722 3.49042 3.69475.01989 2.65967-.91816 3.6954-3.606 3.57778-3.65934-.15997-7.33082-.03974-10.99713-.04015zm-296.61643-26.91544c0-4.836-.01957-9.672.0043-14.5078.03924-7.94212 2.23348-10.63329 10.10346-11.40368a37.17414 37.17414 0 0112.23115.46172c5.562 1.3086 9.90575 8.75094 7.65463 13.88621-1.27758 2.914-4.1527 1.17867-6.29824 1.4724-1.88127.25744-2.3912-.97305-2.56279-2.71375-.531-5.38749-5.30536-7.99824-10.27581-5.76836-1.63184.73222-1.84257 2.1192-1.84257 3.64363.00043 10.258.01817 20.516-.01107 30.77388-.0072 2.51382 1.0546 3.8636 3.64922 3.8421a27.00205 27.00205 0 013.07564.0358c3.87714.414 5.95086-1.03019 5.43652-5.17478-.49037-3.95219 2.1536-3.5967 4.75091-3.68975 2.77212-.09924 4.32268.37791 4.29817 3.76764-.0586 8.13619-2.53818 11.4583-10.46858 12.16654a38.32324 38.32324 0 01-11.80873-.38861c-5.6608-1.25876-7.72678-3.41177-7.87622-9.2584-.14611-5.71149-.03182-11.42959-.03182-17.14479zm457.13274.4693c-.00516-4.985-.023-9.96993-.00108-14.95485.03462-7.85208 2.01857-10.388 9.64331-11.372a38.14511 38.14511 0 0114.4011.69916c4.15829 1.06562 8.13156 10.46444 5.72928 13.95572-1.58593 2.30482-4.32989.967-6.54929 1.065-2.08232.09214-2.00222-1.618-2.107-3.13052-.33888-4.89014-6.35425-7.75193-10.69758-5.14769-1.356.813-1.44 2.10092-1.44079 3.43908-.00548 10.26307.02968 20.52625-.02472 30.789-.01495 2.82637 1.29016 4.013 4.01928 3.90683a31.13007 31.13007 0 013.5174.01311c3.41872.2547 5.0455-1.35692 4.6004-4.68952-.59251-4.43675 2.21079-4.03626 5.16849-4.21522 3.73619-.226 3.96756 1.77359 3.87392 4.62652-.2476 7.538-2.15758 10.07852-9.48784 11.18343a36.93516 36.93516 0 01-14.82771-.6533c-4.47256-1.16023-5.67778-4.76376-5.77766-8.80148-.13767-5.56795-.03446-11.14187-.03951-16.71327zm199.92588-.03226c-.00086-4.9841-.01957-9.96832.00355-14.95231.03677-7.96212 2.21671-10.63394 10.10335-11.40185a37.90581 37.90581 0 0112.66927.54326c5.157 1.24565 9.41334 8.98393 7.17308 13.83655-1.31844 2.856-4.179 1.14958-6.33458 1.426-1.91481.2454-2.34229-1.07175-2.49291-2.78052-.46726-5.30272-5.304-7.92384-10.30925-5.72223-1.64538.72372-1.83568 2.11473-1.83461 3.64051.00753 10.2614.04484 20.52291-.00516 30.784-.01387 2.83873 1.31855 3.99455 4.03433 3.89026a31.67226 31.67226 0 013.51677.01371c3.40613.24905 5.04388-1.32446 4.59469-4.68081-.66422-4.96475 2.76847-3.95838 5.61467-4.16426 3.76749-.27239 3.44419 2.20354 3.36764 4.605-.24588 7.71134-2.37411 10.35391-9.93036 11.246a36.69515 36.69515 0 01-12.24115-.32619c-5.71273-1.25576-7.76613-3.437-7.90063-9.24631-.1289-5.56753-.02784-11.14032-.0287-16.71081zm-252.12697 11.87287c-.08891 12.80339-2.06339 14.79126-14.85232 14.57242a32.0501 32.0501 0 01-6.50736-.845c-4.7994-1.0917-7.88374-7.7665-5.54844-12.0679 1.27618-2.35067 3.69308-1.01374 5.59628-1.23226 1.6455-.189 2.15479.86666 2.40357 2.42356.74894 4.687 3.23143 6.3205 7.4195 5.07141 1.13459-.3384 2.45776-.778 2.62752-2.065a42.25837 42.25837 0 00-.02946-12.25572c-.319-1.9769-2.34024-1.82617-3.9738-1.897-13.54615-.58692-14.69149-1.788-14.60322-15.2161.08762-13.33494 4.68285-17.05076 18.04376-14.59037 7.46476 1.37466 9.43537 3.83333 9.11821 10.76778-.116 2.539-1.15448 3.45059-3.51451 3.18364-1.96642-.22239-4.86949 1.02111-4.7508-2.70176.137-4.30269-2.40561-5.15994-5.96721-5.0133-3.70287.15246-4.5491 2.30471-4.45245 5.59333.31415 10.69624-2.22 11.75159 10.82961 11.6759 4.99851-.029 7.3752 2.528 7.81977 7.57051.20578 2.3338.23309 4.68341.34135 7.02586zm10.67768-10.37074c0-5.72052.02623-11.4412-.01731-17.1614-.01194-1.5748.17535-3.56321-2.18285-3.565-2.72342-.002-3.01962-1.54427-3.03972-3.713-.02065-2.22128.41317-3.53542 3.07069-3.69873 2.88953-.17761 2.16693-2.79626 2.07866-4.48379-.16815-3.21616.928-4.38037 4.26452-4.361 3.26217.019 4.66984 1.07056 4.26581 4.31838-.45091 3.62643 1.08072 5.15124 4.74618 4.6864 2.779-.35243 2.96726 1.49782 2.998 3.63551.03257 2.26176-.46726 3.879-3.12778 3.50908-3.87564-.53891-4.71522 1.42-4.66017 4.84353.14643 9.09176.07214 18.18756.04258 27.28158-.01172 3.607.72528 6.464 5.22246 6.40177 3.04424-.04214 2.35852 2.29434 2.49162 4.10927.1602 2.18726-.65916 3.19794-3.00339 3.22127a25.94451 25.94451 0 01-8.21413-1.23071c-3.22475-1.03879-4.86293-3.58487-4.85466-7.07261.01323-5.57349.00345-11.147.00345-16.72048zm-96.81386-11.90082c.00054-10.40359.08344-20.8082-.05074-31.21006-.03924-3.04924.60605-4.55529 4.09185-4.49621 3.16616.05365 4.4.93047 4.38268 4.25984q-.16644 32.08911-.00011 64.17931c.01709 3.31292-1.164 4.20743-4.364 4.25264-3.47214.049-4.15378-1.37327-4.11421-4.4567.13915-10.84138.054-21.68567.05453-32.52882zm-73.12867.59788c0-10.70151.07171-21.40387-.04709-32.104-.03247-2.9206.73539-4.276 3.93435-4.22275 2.958.04919 4.58792.53241 4.56781 4.0732q-.18352 32.32346-.00032 64.64807c.021 3.63138-1.75032 3.87581-4.63039 3.97144-3.33485.11069-3.867-1.44073-3.83973-4.26151.10375-10.70059.04171-21.4028.04171-32.10441zm395.23385-10.98276c1.94954-1.893 3.07735-4.39977 5.70842-4.93051 1.5168-.30588 3.80565-2.071 4.24054.78463.30018 1.97121 1.88514 5.32245-2.39077 5.77062-.86645.09085-1.70914.38941-2.57108.54687-3.34388.611-5.02743 2.66031-5.41276 5.9871-1.3394 11.55941-.42823 23.15532-.528 34.7322-.0301 3.49429-1.16458 4.544-4.6163 4.48718-3.2253-.05322-3.93617-1.31086-3.91585-4.22243.10181-14.52764.00569-29.05652.08794-43.58437.01247-2.19247-1.22275-5.1936 3.08456-5.37153 3.52451-.14552 5.71789.53112 5.48329 4.56534-.01279.22089.29599.46048.83001 1.2349zM193.973 344.80372c.00086-7.48315.01274-14.96629-.00682-22.44939-.00533-2.02915.00424-4.071 2.874-3.75039 2.15962.24132 5.41158-1.41046 5.52544 2.88368.02193.82731-.16466 1.9176.85919 2.28073 1.15475.40957 1.404-.79081 1.88847-1.42294a7.04913 7.04913 0 013.35345-2.7431c1.45546-.44241 3.08322-1.83224 4.507-.44 1.24532 1.21764.54369 3.07676.54445 4.64979.001 2.14645-1.74672 1.88014-3.15864 2.16521-6.2719 1.2664-7.86837 3.31034-7.97206 10.98265q-.20514 15.18366.00838 30.37146c.04677 3.24024-1.01218 4.30839-4.3022 4.32758-3.40215.01983-4.2542-1.24737-4.17883-4.40719.17832-7.47889.05732-14.96494.05817-22.44809zm224.59026.07714c0-7.33811-.019-14.67627.01237-22.01422.00849-1.9804-.5251-4.48627 2.78653-4.26673 2.35282.15595 5.74132-1.291 5.61865 3.25938-.01871.69244-.05064 1.58545.7684 1.894 1.179.44414 1.43724-.71926 1.91513-1.35267a7.1422 7.1422 0 013.3326-2.773c1.45906-.46919 3.08778-1.81633 4.52706-.50967 1.3036 1.18362.56671 3.06247.59229 4.63367.03484 2.13511-1.66785 1.93583-3.10358 2.22364-6.33856 1.27087-7.92288 3.27126-8.03158 10.92686q-.21578 15.18689.00344 30.3785c.04312 3.17734-.8973 4.38988-4.24946 4.38886-3.31152-.001-4.34193-1.08648-4.25893-4.33564.19105-7.47992.06053-14.96812.06053-22.45294zm-199.04674.17428c.00049-7.633.10424-15.26808-.05048-22.89793-.062-3.06091 1.31108-3.68363 4.00149-3.64965 2.65633.03354 4.48621.20578 4.46148 3.67438q-.1632 22.89744.03634 45.79667c.02925 3.50015-1.88772 3.58444-4.50577 3.63116-2.70176.04822-4.05541-.6067-3.99413-3.65675.15332-7.6299.05055-15.26491.05107-22.89788zm466.35277.22519c0 7.48374-.11235 14.96989.05225 22.45.07139 3.24416-1.37112 3.89709-4.25678 3.89924-2.89383.00215-4.24645-.64766-4.218-3.90311q.19917-22.6695-.00108-45.34151c-.029-3.2647 1.33467-3.89554 4.22055-3.89548 2.8877 0 4.32462.65809 4.25527 3.90053-.16316 7.627-.05221 15.25983-.05221 22.89033zm-4.10207-46.25103c3.13757-.436 4.968.21734 4.87251 4.06777-.0801 3.22186-.97332 4.46321-4.27032 4.26968-2.759-.162-5.19742.20154-5.10689-3.92112.07375-3.35807.98348-5.04205 4.5047-4.41633zm-457.59601.00484c3.56116-.63895 4.389 1.03261 4.48212 4.40784.11526 4.18506-2.32885 3.7477-5.05624 3.91918-3.2733.20589-4.27022-1.0303-4.3228-4.25683-.06176-3.78581 1.75871-4.53244 4.89692-4.07019z" class="cls-1"/></svg>