<svg xmlns="http://www.w3.org/2000/svg" role="img" viewBox="-4.93 -4.93 256.36 68.11"><title>Grafana logo</title><defs><linearGradient id="a" x1="26.846" x2="26.846" y1="71.439" y2="18.155" gradientUnits="userSpaceOnUse"><stop offset="0" stop-color="#fff200"/><stop offset="1" stop-color="#f15a29"/></linearGradient></defs><g data-name="Layer 1"><path fill="#5d5e5e" d="M100.85284 31.46537A18.51873 18.51873 0 0182.446 49.57105c-10.53291 0-18.35693-8.52634-18.35693-18.808A18.9335 18.9335 0 0182.897 11.85464a19.26639 19.26639 0 0113.0905 5.61713l-3.00912 3.71194c-2.95917-2.55805-6.52026-4.31337-10.08135-4.31337a13.8705 13.8705 0 00-13.7923 13.89271c0 7.77405 5.86789 13.79279 13.34123 13.79279a13.22678 13.22678 0 0013.04-11.23475H80.23907v-4.46372h20.61377zm17.5013-2.45765h-2.8088a5.61713 5.61713 0 00-5.61713 5.61713v14.64548h-5.0157v-25.0775h4.11257v2.10649a8.35033 8.35033 0 015.91833-2.10649h5.41682zm27.33239 20.26261h-4.26293v-3.16a12.30535 12.30535 0 01-13.7626 2.45355 12.91272 12.91272 0 015.13586-24.7722 12.05174 12.05174 0 018.57629 3.5606v-3.15945h4.31338zm-5.13024-10.735a7.89884 7.89884 0 10-6.3057 5.95058 7.89647 7.89647 0 006.3057-5.95055zm15.2395-15.74715v1.40465h7.97486v4.41377h-7.97486v20.66373h-4.96525V22.939c0-5.51722 3.96221-8.7771 8.92746-8.7771h6.01873l-2.00608 4.71449H159.758a3.92791 3.92791 0 00-3.96221 3.91179zm34.55545 26.48215h-4.26292v-3.16a12.30537 12.30537 0 01-13.76261 2.45355 12.91272 12.91272 0 015.13587-24.7722 12.05178 12.05178 0 018.57629 3.5606v-3.15945h4.31337zm-5.13024-10.735a7.89884 7.89884 0 10-6.3057 5.95058 7.89646 7.89646 0 006.3057-5.95055zm31.92094-4.11079v14.84579h-5.0152V34.42454a5.64266 5.64266 0 00-11.2852 0v14.84579h-5.0152v-25.0775h4.16252v2.15644a10.17964 10.17964 0 016.72106-2.55756 10.50023 10.50023 0 0110.43202 10.63283zm29.48931 14.84579h-4.26292v-3.16a12.30537 12.30537 0 01-13.76261 2.45355 12.91272 12.91272 0 015.13587-24.7722 12.05178 12.05178 0 018.57629 3.5606v-3.15945h4.31337zm-5.13023-10.735a7.89884 7.89884 0 10-6.30571 5.95058 7.89647 7.89647 0 006.30569-5.95055z"/><path fill="url(#a)" d="M53.61792 25.73322a20.16412 20.16412 0 00-.58545-3.35511 20.90763 20.90763 0 00-1.5094-4.02032 22.039 22.039 0 00-4.34424-5.94434 8.48877 8.48877 0 00-.99975-6.0896 9.00062 9.00062 0 00-5.875 1.51038q-.18531-.07965-.37317-.15668c-.53479-.21673-1.084-.41821-1.64807-.59741-.56421-.17774-1.14112-.34168-1.731-.48151q-.88513-.20636-1.80444-.34979c-.10706-.016-.21485-.03076-.32239-.04565A10.909 10.909 0 0029.13037 0a11.63468 11.63468 0 00-5.21643 6.66943s-.02075.08564-.047.23c-.24279.06867-.48559.13843-.72839.21619-.33643.10138-.66821.22687-1.00293.34662-.33179.12988-.66589.25763-.99536.40387a21.01174 21.01174 0 00-1.958.96319c-.62207.34968-1.233.73273-1.8269 1.14808-.08521-.03968-.15345-.06934-.15345-.06934a15.1278 15.1278 0 00-11.45813.47028A16.59376 16.59376 0 008.745 21.64056q-.21387.59931-.40162 1.20862a27.983 27.983 0 00-.99218 4.51624c-.03028.22259-.05689.44684-.08118.672A15.00406 15.00406 0 000 36.4823a15.98727 15.98727 0 0010.13733 5.71558l.01477-.013a24.08153 24.08153 0 002.4 3.51519q.568.68894 1.18763 1.33356a12.61141 12.61141 0 00.23962 8.94171 14.537 14.537 0 009.35425-2.85205c.51953.17426 1.04443.332 1.57446.469a23.79 23.79 0 004.87964.727q.61413.02709 1.22742.02288l.19812-.00079.12964-.0036.25915-.008.25476-.0122.00623.00824a10.4847 10.4847 0 006.77185 3.9967 10.79378 10.79378 0 003.24684-7.14352l.00025.00024-.00073-.04584a4.5434 4.5434 0 00-.0022-.09759l-.00061-.00049a3.74561 3.74561 0 00-.00794-.14819 19.50294 19.50294 0 001.84021-1.45923 19.22609 19.22609 0 003.19324-3.743c.08374-.1283.16528-.25782.24573-.388a8.59427 8.59427 0 005.92541-2.15052 9.03433 9.03433 0 00-3.06982-5.721l.00037-.00018-.04432-.03363-.03991-.02936-.00061.00012c-.02222-.01544-.04737-.03118-.0752-.04858.02124-.21789.04016-.43591.05322-.65362.02662-.39075.03528-.78095.03809-1.16956l-.00293-.2912-.00208-.14532-.00109-.07264c-.00135-.09985-.002-.06256-.00293-.10052l-.0105-.24262-.0188-.32855c-.0061-.11542-.01563-.21136-.02441-.31274-.00892-.10059-.01734-.20111-.02955-.30139l-.03491-.30048-.04175-.29932c-.05932-.39837-.13549-.79309-.22534-1.18341a14.98294 14.98294 0 00-4.71032-7.87683 14.79761 14.79761 0 00-3.71839-2.39117 14.47472 14.47472 0 00-4.10689-1.15689 14.70165 14.70165 0 00-2.06824-.11811l-.25549.00605-.06372.00165c-.01624.00036-.09619.00207-.08728.00292l-.10669.00635-.25354.01636c-.0968.00677-.19654.01361-.28089.023q-.52752.05081-1.04467.14758a11.58361 11.58361 0 00-6.77063 3.9538 11.43641 11.43641 0 00-1.87016 3.15591 11.2235 11.2235 0 00-.74292 3.37665c-.01636.2793-.02356.5567-.01831.83136.00061.06867.00171.13715.00488.20545l.00818.22387q.0152.2005.03064.3996a9.01625 9.01625 0 00.309 1.62994A8.78338 8.78338 0 0025.182 37.144a8.66823 8.66823 0 002.06982 1.988 8.43655 8.43655 0 002.37268 1.12634 8.23159 8.23159 0 002.35608.33667c.09412.00092.18762-.00256.2804-.00482.05029-.00116.10034-.00488.15014-.0069l.14929-.0086.239-.02387c.01831-.00152.04407-.005.06848-.00818l.07312-.00964.1449-.01977c.09875-.01185.1842-.03132.27368-.048.08862-.01642.17615-.03442.26233-.05713.17322-.03936.34082-.09088.50525-.14135a6.63432 6.63432 0 00.92236-.38508 6.8091 6.8091 0 00.797-.48608q.10547-.07617.20581-.1546a.59844.59844 0 00-.65918-.99445q-.093.05145-.18933.10016a5.52414 5.52414 0 01-.69055.28284 5.83194 5.83194 0 01-.75708.186c-.1316.01874-.26392.03913-.3993.04853-.06714.00763-.13513.01086-.20373.01281-.06751.00208-.13941.00788-.20069.00452l-.19548-.0031-.245-.012c-.00061-.00061-.04223-.00067-.00915-.00171l-.02735-.00256-.05468-.00513c-.0365-.00372-.07312-.00616-.10974-.0108-.07312-.009-.14661-.0166-.2201-.0282a6.46221 6.46221 0 01-1.75976-.51434 6.33021 6.33021 0 01-1.62329-1.06507 6.21347 6.21347 0 01-1.26966-1.59161 5.96077 5.96077 0 01-.68884-1.99194 5.898 5.898 0 01-.06934-1.0788l.01368-.29675c.001.02691.002-.01349.00305-.01691l.003-.03638.0061-.07281c.00354-.04865.00879-.09717.01441-.14563.01953-.19421.04931-.38794.084-.58106a7.71142 7.71142 0 012.23926-4.19335 7.9397 7.9397 0 01.9635-.7862 7.57066 7.57066 0 011.08862-.62042 7.65557 7.65557 0 011.18494-.42908 7.23663 7.23663 0 011.24927-.21936c.21167-.01886.42517-.02679.63916-.02594.05713-.0011.09912.00165.14416.00293l.17273.00537.10694.00366c.04443.00049.00012.00129.01953.00251l.04321.00305.17261.01147a9.73095 9.73095 0 013.97168 1.19135 9.58018 9.58018 0 013.89206 4.03909 9.17558 9.17558 0 01.88269 2.72046c.0365.23731.06335.47632.0841.71619l.01319.18017.00879.18079c.00378.06012.00415.12067.00561.18109.001.05963.00366.12476.002.17084l-.001.15594-.00318.17481a502.12604 502.12604 0 00-.02026.42444c-.01977.262-.04126.5238-.07666.78393-.03088.25867-.07581.51538-.12231.77155-.05152.25525-.10584.50995-.17164.76208a11.94242 11.94242 0 01-.4812 1.48773 12.4137 12.4137 0 01-6.36145 6.71155 12.13805 12.13805 0 01-3.01513.92426 11.82962 11.82962 0 01-1.576.15826l-.09729.00366-.08435.00067-.16968.00281-.25928-.0014-.12964-.00037c.072-.00055-.0105-.00116-.0083-.00177l-.053-.00171q-.4248-.01042-.84765-.04193a16.48641 16.48641 0 01-6.44336-1.85821 16.3645 16.3645 0 01-8.1409-10.13575 16.078 16.078 0 01-.54077-3.22985l-.0127-.20417-.00317-.051-.00147-.045-.003-.08985-.0072-.17962-.002-.04493-.001-.0614-.00147-.12683-.00341-.25354-.00074-.04944c.00025.00757.00025.00891.00025-.017l.00085-.09869c-.00036-.13068.005-.26544.00794-.39868.02173-.53827.06457-1.09064.13525-1.64514.0708-.55426.16174-1.11023.27466-1.66132.11475-.55084.24853-1.09717.40161-1.635a21.42674 21.42674 0 011.146-3.10052 17.192 17.192 0 013.53835-5.10579q.5376-.525 1.11572-.99188c.386-.31.787-.59735 1.199-.86609a13.87377 13.87377 0 011.27137-.74536c.21606-.11688.43982-.21948.66076-.32684l.33741-.14923c.11181-.05115.22558-.09851.33984-.14441.45349-.19214.92065-.35443 1.39136-.50519l.35522-.10791c.11792-.03674.239-.06543.35816-.09888.238-.06793.48046-.12439.72119-.18359.11987-.03156.24292-.05347.364-.08026.12183-.02515.24268-.0531.365-.07636l.36743-.06634.18335-.03351.18494-.028.36926-.05584c.13721-.0224.27747-.03394.415-.05506l.41309-.04974.26086-.02673.174-.01844.087-.0094.10339-.007.41858-.0271.20862-.01348c-.00147-.001.07666-.00257.01-.00306l.04455-.002.08911-.004.35608-.01623q.71064-.02271 1.41138.00091a19.56746 19.56746 0 012.74048.30554 19.16552 19.16552 0 014.97559 1.65418 19.94611 19.94611 0 014.06262 2.65057l.2207.18647.21448.1903c.14441.12494.28.25635.4187.38361.13794.128.27026.25946.40393.38818.129.13263.26111.26148.38562.39478a20.98171 20.98171 0 013.42871 4.80816l.1001.192.094.19171c.06214.1272.12525.25232.18189.37787.05774.12518.11694.24823.17151.37091q.08056.185.15881.36438c.20019.48187.382.94061.52991 1.376.24621.69952.42395 1.33252.5636 1.88012a.46144.46144 0 00.90844-.10321 19.34128 19.34128 0 00-.07092-2.07133z"/></g></svg>