<svg xmlns="http://www.w3.org/2000/svg" role="img" viewBox="2.29 -1.21 712.92 252.92"><title>Hudi logo</title><defs><style>.cls-5{fill-rule:evenodd}.cls-2{fill:none;stroke:#fff;stroke-linejoin:round}.cls-5{fill-opacity:0}</style></defs><path fill="#cfe2f3" fill-rule="evenodd" d="M16.52853 210.99982L150.15766 13.18661 283.7868 210.99982z"/><path d="M16.52853 210.99982L150.15766 13.18661 283.7868 210.99982z" class="cls-2"/><path fill="#9fc5e8" fill-rule="evenodd" d="M112.7415 237.76773L219.64481 39.95452l106.90331 197.81321z"/><path d="M112.7415 237.76773L219.64481 39.95452l106.90331 197.81321z" class="cls-2"/><path fill="#666" d="M421.50833 126.36113a20.81675 20.81675 0 0120.71252 20.71251v78.50712h-14.03106v-78.50712a6.85054 6.85054 0 00-6.68146-6.68146h-59.54848a6.68734 6.68734 0 00-4.76054 2.00444 6.23359 6.23359 0 00-2.00444 4.677v78.50712h-14.03106V93.87254h14.03106v32.48859zm120.77288 0h14.03106v78.50711a20.67489 20.67489 0 01-20.87955 20.71252h-59.54849a20.53247 20.53247 0 01-20.629-20.71252v-78.50711h13.94754v78.50711a6.70047 6.70047 0 006.68146 6.68146h59.54849a6.64544 6.64544 0 004.76053-1.92092 6.37711 6.37711 0 002.088-4.76054zm113.78214-32.48859h13.94754v131.70822h-80.17748a20.27253 20.27253 0 01-14.78272-6.01331 20.03341 20.03341 0 01-6.09683-14.69921v-57.7946a20.81647 20.81647 0 0120.87955-20.71251h66.22994zM589.83341 211.5497h59.54849a6.70046 6.70046 0 006.68145-6.68146v-57.7946a6.23358 6.23358 0 00-2.00443-4.677 6.41 6.41 0 00-4.677-2.00444h-59.54851a6.50355 6.50355 0 00-4.76054 2.00444 6.36512 6.36512 0 00-1.92092 4.677v57.7946a6.5622 6.5622 0 006.68146 6.68146zm98.13553 14.03106v-99.21963H702v99.21963zm0-131.70822H702v14.03106h-14.03106z"/><path d="M21.87369 211.16816l128.284-197.98155" class="cls-5"/><path fill="#a4c2f4" d="M21.40489 210.86331l110.7614-171.11937 1.0225.66183L22.4274 211.52515z"/><path fill="#a4c2f4" fill-rule="evenodd" stroke="#a4c2f4" stroke-miterlimit="10" d="M140.12732 44.90232l5.78119-25.1579-20.5998 15.55608z"/><path d="M219.64481 39.95452l106.90331 197.81321" class="cls-5"/><path fill="#6fa8dc" d="M219.1091 40.24374l1.07153-.57909 91.6558 169.59873-1.07154.57909z"/><path fill="#6fa8dc" fill-rule="evenodd" stroke="#6fa8dc" stroke-miterlimit="10" d="M303.53315 213.75086L322.833 230.8933l-3.76566-25.53749z"/></svg>