<svg xmlns="http://www.w3.org/2000/svg" role="img" viewBox="-6.16 -6.16 216.32 216.32"><title>JSON-LD logo</title><style>svg {overflow:visible}</style><path fill="#fff" stroke="#000" stroke-linecap="round" stroke-width="3.868" d="M.14 0h203.942v204.314H.14z"/><path d="M64.82419 131.80456v10.125h-4.5q-17.50782 0-23.48438-5.20312-5.90625-5.20313-5.90625-20.74219V99.17956q0-10.61718-3.79687-14.6953-3.72657-4.07813-13.57032-4.07813H9.207v-10.0547h4.35937q9.91407 0 13.64063-4.0078 3.72656-4.00782 3.72656-14.5547v-16.875q0-15.53905 5.90625-20.67187 5.97656-5.20312 23.48438-5.20312h4.5v10.05469H59.9023q-9.84375 0-12.86719 3.09375Q44.082 25.2108 44.082 35.19518v17.4375q0 11.03907-3.23438 16.03126-3.16406 4.99219-10.89843 6.75 7.80468 1.89844 10.96875 6.89062Q44.082 87.29676 44.082 98.2655v17.4375q0 10.05469 2.95312 13.07813 3.02344 3.02343 12.8672 3.02343z"/><path d="M139.207 131.80456h4.78125q9.91406 0 12.9375-3.09375 3.02344-3.09375 3.02344-13.00781V98.2655q0-10.96875 3.16406-15.96094 3.16406-4.99218 10.96875-6.89062-7.73438-1.75781-10.96875-6.75-3.16406-4.99219-3.16406-16.03125v-17.4375q0-9.91406-3.02344-13.00781t-12.9375-3.09375H139.207V9.03893h4.35937q17.50782 0 23.41407 5.20313 5.90625 5.13282 5.90625 20.67188v16.875q0 10.54687 3.72656 14.55469 3.79687 4.0078 13.71094 4.0078h4.5v10.0547h-4.5q-9.91407 0-13.71094 4.07812-3.72656 4.07813-3.72656 14.69531v16.80469q0 15.53906-5.90625 20.74219-5.90625 5.20312-23.41407 5.20312H139.207z" style="text-align:start"/><path fill="#0c479c" d="M134.267 91.379c-.636-.337-1.284-.624-1.936-.879l.466-.038s-4.151-1.838-4.514-15.18c-.359-13.344 3.957-15.62 3.957-15.62l-.62.027c3.261-1.673 6.066-4.316 7.917-7.804 4.823-9.072 1.372-20.341-7.702-25.165-9.078-4.818-20.344-1.375-25.164 7.706-1.982 3.725-2.545 7.817-1.919 11.683l-.212-.326s1.093 4.842-10.258 11.888c-11.349 7.05-16.469 3.54-16.469 3.54l.326.48c-.325-.201-.636-.406-.975-.583-9.078-4.824-20.347-1.377-25.169 7.701-4.82 9.077-1.372 20.341 7.703 25.167 6.766 3.591 14.744 2.59 20.365-1.914l-.122.236s4.132-3.399 16.04 2.994c9.4 5.044 10.796 9.988 10.975 11.846-.246 6.893 3.347 13.654 9.847 17.107 9.075 4.825 20.344 1.375 25.164-7.701 4.824-9.075 1.378-20.345-7.7-25.165zm-20.984 2.446c-1.504.532-5.801 1.121-14.847-3.73-9.797-5.26-11.251-9.654-11.464-10.973.139-1.6.05-3.197-.223-4.755l.06.09s-.798-4.274 10.412-11.235c10.033-6.228 14.594-4.989 15.443-4.664.546.371 1.112.717 1.706 1.033 1.129.6 2.293 1.07 3.472 1.418 1.38 1.314 3.92 5.045 4.184 14.854.27 9.883-2.634 13.694-4.217 15.042-1.63.738-3.156 1.723-4.526 2.92z"/><path fill="#fff" d="M112.056 32.643c-5.415 5.923-5.529 14.636-.312 19.566-2.579-2.483-2.523-7.651.083-12.597.335-.443 1.306-1.49 2.725-1.014.143.049.237.062.292.053.321.069.65.11.99.095 2.155-.098 3.822-1.921 3.725-4.077-.044-.967-.445-1.823-1.065-2.48 5.002-3.277 10.742-3.652 13.094-1.504l.09.006c-5.373-4.906-14.156-4.029-19.622 1.952z"/><path d="M57.449 87.388c-.046-.047-.093-.102-.141-.148.03.031.059.069.095.102zm.173-19.715c-5.416 5.924-5.529 14.635-.313 19.566-2.578-2.484-2.523-7.652.083-12.598.336-.444 1.308-1.49 2.727-1.014.141.049.236.061.292.054.321.069.651.11.99.095 2.156-.099 3.822-1.922 3.725-4.076-.045-.967-.445-1.824-1.063-2.48 4.999-3.276 10.74-3.654 13.092-1.505l.089.008c-5.373-4.909-14.158-4.033-19.622 1.95z" fill="#fff"/><path d="M115.073 117.047c-.047-.048-.094-.102-.141-.148.029.031.059.069.094.101zm.172-19.718c-5.416 5.926-5.529 14.639-.313 19.569-2.58-2.483-2.523-7.653.082-12.597.336-.445 1.307-1.49 2.727-1.014.143.047.235.061.292.053.32.069.651.11.99.096 2.154-.1 3.82-1.924 3.723-4.08-.044-.966-.445-1.822-1.063-2.479 5-3.275 10.739-3.652 13.093-1.504l.088.007c-5.37-4.907-14.156-4.03-19.619 1.949z" fill="#fff"/><image/><path stroke="#000" stroke-linecap="round" stroke-width="3.587" d="M0 150.904h204.197v53.55H0z"/><g style="text-align:start" fill="#fff"><path d="M53.80856 163.07027c-2.01823 0-3.84114.33853-5.46875 1.01562-1.61458.67708-2.85807 1.62109-3.73047 2.83203-.85937 1.19792-1.28906 2.5651-1.28906 4.10156 0 2.95574 1.61459 5.306 4.84375 7.05079 1.1849.63802 2.79297 1.28905 4.82422 1.95312 2.03125.65104 3.4375 1.27604 4.21875 1.875.78125.58593 1.17188 1.43229 1.17188 2.53906 0 1.01563-.39063 1.8099-1.17188 2.38282-.78125.5599-1.86849.83984-3.26172.83984-3.75 0-5.625-1.56901-5.625-4.70703h-5.8789c0 1.83593.46874 3.45051 1.40624 4.84375.95053 1.39322 2.32422 2.49349 4.1211 3.30078 1.79687.79427 3.78906 1.19141 5.97656 1.19141 3.15104 0 5.65755-.69662 7.51953-2.08985 1.86198-1.40625 2.79297-3.33985 2.79297-5.80078 0-2.21354-.76172-4.06249-2.28515-5.54687-1.52344-1.48438-3.95183-2.72787-7.28516-3.73047-1.8099-.54688-3.1836-1.13282-4.1211-1.75782-.92447-.625-1.38671-1.39973-1.38671-2.32421 0-.98958.39713-1.78386 1.1914-2.38282.79427-.61198 1.90755-.91797 3.33985-.91797 1.48437 0 2.63672.36459 3.45703 1.09375.82031.71615 1.23047 1.72526 1.23047 3.02735h5.85937c0-1.70574-.4427-3.22917-1.32812-4.57031-.8724-1.34115-2.10287-2.37631-3.69141-3.10547-1.58854-.74219-3.39844-1.11328-5.42969-1.11328zm25.6836 0c-2.3698 0-4.47917.57291-6.32813 1.71875-1.83594 1.13281-3.26172 2.76692-4.27734 4.90234-1.0026 2.12239-1.5039 4.58333-1.5039 7.38281v1.40625c.01301 2.73438.52733 5.15625 1.54296 7.26563 1.01563 2.09636 2.44792 3.71094 4.29688 4.84375 1.84895 1.13281 3.95182 1.69922 6.30859 1.69922 2.38281 0 4.49219-.57292 6.32812-1.71875 1.84896-1.14584 3.26823-2.77344 4.25782-4.88282.98958-2.10937 1.48437-4.5638 1.48437-7.36328v-1.26953c0-2.78646-.50781-5.24089-1.52344-7.36328-1.0026-2.13542-2.42838-3.76953-4.27734-4.90234-1.83594-1.14584-3.9388-1.71875-6.3086-1.71875zm-46.73829.39062v19.6875c0 1.41927-.33203 2.51302-.99609 3.28125-.66406.76823-1.55599 1.15234-2.67578 1.15234-1.26302 0-2.1875-.33203-2.77344-.99609-.58594-.66407-.8789-1.69271-.8789-3.08594h-5.89844c0 2.79948.83984 4.96745 2.51953 6.50391 1.67969 1.52343 4.02344 2.28516 7.03125 2.28516 1.83594 0 3.48307-.37761 4.9414-1.13282 1.45834-.7552 2.58464-1.82292 3.37891-3.20312.8073-1.39324 1.21094-2.9948 1.21094-4.80469v-19.6875zm63.14454 0v28.4375h5.85937v-18.71094l11.40625 18.71094h5.85938v-28.4375h-5.83985v18.75l-11.42578-18.75zm43.82812 0v28.4375h18.30078v-4.70703h-12.4414v-23.73047zm21.64063 0v28.4375h8.80859c2.48698-.013 4.72005-.58594 6.69922-1.71875 1.97917-1.13281 3.50912-2.72786 4.58984-4.78516 1.09376-2.05729 1.64063-4.40755 1.64063-7.05078v-1.30859c0-2.64323-.55339-5-1.66016-7.07031-1.10677-2.08334-2.64974-3.6849-4.6289-4.80469-1.96615-1.13281-4.19922-1.69922-6.69922-1.69922zm-81.875 4.45313c1.97916 0 3.5026.77473 4.5703 2.32421 1.06772 1.54948 1.60157 3.81511 1.60157 6.79688v1.38672c-.01302 2.95572-.54687 5.20833-1.60156 6.75781-1.05469 1.53646-2.5651 2.30469-4.53125 2.30469-2.0052 0-3.54167-.80078-4.60938-2.40235-1.0677-1.60156-1.60156-3.85416-1.60156-6.75781v-1.38672c.01302-2.95572.55339-5.19531 1.6211-6.71875 1.0677-1.53646 2.58463-2.30468 4.55078-2.30468zm87.73437.29296h2.89063c2.30469 0 4.05599.7487 5.2539 2.2461 1.19792 1.48437 1.79688 3.67187 1.79688 6.5625v1.5039c-.026 2.78646-.64454 4.92839-1.85547 6.42579-1.21094 1.4974-2.96224 2.24609-5.25391 2.24609h-2.83203zm-43.4375 9.23829v4.55078h10.99609v-4.55078z" style="text-align:start"/></g></svg>