<svg xmlns="http://www.w3.org/2000/svg" role="img" viewBox="1.76 1.76 116.35 56.35"><title>Kafka logo</title><path d="M14.89068 8.6268c-.56504-.57761-1.34959-.93332-2.22352-.93332-.87196 0-1.65009.3557-2.20805.93333h-.0146c-.56329.5732-.9129 1.3733-.9129 2.25737 0 .88933.34961 1.6844.9129 2.25196l.0146.01574c.55796.5726 1.33609.92333 2.20805.92333.87393 0 1.65848-.35073 2.22352-.92333l.00642-.01574c.56587-.56757.9108-1.36263.9108-2.25196 0-.88407-.34493-1.68416-.9108-2.25737h-.00642zm-2.22352 43.67858c.87393 0 1.65848-.3623 2.22352-.92925l.00642-.01636c.56587-.566.9108-1.36615.9108-2.24543 0-.8891-.34493-1.68567-.9108-2.26178h-.00642c-.56504-.58304-1.34959-.9355-2.22352-.9355-.87196 0-1.65009.35246-2.20805.9355h-.0146c-.56329.57611-.9129 1.37268-.9129 2.26178 0 .87928.34961 1.67942.9129 2.24543l.0146.01636c.55796.56695 1.33609.92925 2.20805.92925zm17.08382-9.6677c.77664-.2079 1.47991-.71504 1.90903-1.48219l.0579-.11213c.38176-.72638.45183-1.5664.24759-2.31148-.20578-.79596-.70975-1.50207-1.46214-1.94115l-.04412-.03032c-.73312-.40987-1.5676-.4991-2.33431-.2864-.77983.19806-1.4808.7266-1.90756 1.4872-.43235.75582-.52262 1.62465-.31597 2.42451.2139.78703.71382 1.49766 1.46148 1.94176h.0047c.74915.43869 1.59653.51698 2.38337.3102zM15.88336 26.72952c-.82312-.83521-1.95902-1.35872-3.2162-1.35872-1.25548 0-2.3881.5235-3.20952 1.35872-.81928.83438-1.32407 1.9852-1.32407 3.26452s.5048 2.43517 1.32407 3.27938c.82142.83019 1.95404 1.3489 3.20952 1.3489 1.25718 0 2.39308-.51871 3.2162-1.3489.82077-.8442 1.32556-2.00006 1.32556-3.27938 0-1.27932-.5048-2.43014-1.32556-3.26452zm-1.80856-5.43797c1.82459.30584 3.46359 1.19517 4.71605 2.47929h.00962c.1993.20198.39313.42445.57317.64697l3.13088-1.84275c-.42122-1.29417-.44054-2.64726-.1023-3.91675.4463-1.6988 1.52904-3.22024 3.1519-4.17322l.05318-.03445c1.6053-.92423 3.42989-1.11643 5.07696-.6625 1.66791.45482 3.17269 1.5616 4.10918 3.21063v.00482c.93243 1.6401 1.12131 3.52234.67672 5.21633-.44372 1.69902-1.53052 3.2303-3.15184 4.1783l-.42764.2567h-.04335c-1.5.7266-3.1486.84025-4.66304.4345-1.24346-.33543-2.38403-1.04221-3.27728-2.04428l-3.12594 1.83728c.35927.96767.55775 2.00989.55775 3.11163 0 1.0961-.19848 2.15379-.55775 3.1262l3.12594 1.83254c.89325-1.01781 2.03382-1.70885 3.27728-2.04495 1.66874-.46399 3.51753-.26681 5.13403.69187l.1037.04908v.00482c1.56114.9637 2.60936 2.45002 3.04814 4.12922.44459 1.68439.25571 3.56723-.67672 5.21063l-.05635.11453-.00653-.00985c-.93628 1.58448-2.4123 2.6577-4.04164 3.11162-1.6711.44824-3.52076.2567-5.13484-.68801v-.01306c-1.62287-.95455-2.7056-2.47923-3.1519-4.17502-.33825-1.26356-.31893-2.61665.10229-3.91082l-3.13088-1.83795c-.18004.22252-.37386.43517-.57316.63714l-.00963.00986c-1.25246 1.27932-2.89146 2.16864-4.71604 2.46465v3.68093c1.30053.27658 2.46448.93841 3.37677 1.86677l.00493.00974c1.22271 1.23833 1.97982 2.96354 1.97982 4.86035 0 1.89055-.7571 3.60593-1.97982 4.8508l-.00493.01937c-1.2315 1.2442-2.92016 2.01486-4.78442 2.01486-1.85438 0-3.54798-.77066-4.77624-2.01486h-.00493v-.01938C6.6618 52.72027 5.903 51.0049 5.903 49.11433c0-1.8968.7588-3.62201 1.98295-4.86034v-.00974h.00493c.91141-.92836 2.07772-1.59019 3.37375-1.86677v-3.68093c-1.8248-.29601-3.46056-1.18533-4.71132-2.46465l-.01285-.00986c-1.56179-1.59493-2.5401-3.79283-2.5401-6.228 0-2.43015.97831-4.62827 2.5401-6.2232h.01285c1.25076-1.28413 2.88652-2.17345 4.71132-2.4793v-3.6654c-1.29598-.28618-2.46229-.948-3.3737-1.87156h-.00493v-.00985c-1.22415-1.24984-1.98295-2.96349-1.98295-4.86057 0-1.88704.7588-3.61565 1.98295-4.86035l.00492-.00503c1.22827-1.24916 2.92186-2.01921 4.77625-2.01921 1.86426 0 3.55292.77005 4.78441 2.0192v.00504h.00493c1.22272 1.2447 1.97983 2.97331 1.97983 4.86035 0 1.89708-.7571 3.61073-1.97983 4.86057l-.00493.00985c-.91229.92355-2.07624 1.58538-3.37677 1.87157v3.6654zm17.58521-2.445l-.02634-.04015c-.4317-.74006-1.12065-1.23414-1.8827-1.44706-.78684-.21242-1.63422-.12346-2.38809.31673h.0047c-.75239.43433-1.25548 1.14519-1.4662 1.94092-.20666.79026-.11639 1.6639.31597 2.42473l.01438.01965c.4334.75078 1.12295 1.25464 1.89318 1.4575.77313.22248 1.6357.1285 2.37843-.3117l.04033-.01965c.73138-.4441 1.2186-1.1458 1.4218-1.91646.20749-.79507.12452-1.6639-.30548-2.4245m13.89107 1.0765h3.49332v10.85147l5.03767-5.67026h4.18858l-6.08176 6.56914 6.107 8.32707h-3.99981l-5.25168-7.43797v7.43797h-3.49332V19.92306m16.77756 12.69356c0 1.84778 1.30602 4.534 4.45253 4.534 1.94696 0 3.22829-1.03238 3.89282-2.38524.3479-.65675.50814-1.35872.56192-2.08924.02414-.70672-.10701-1.44204-.40224-2.09465-.6124-1.4072-1.97164-2.62738-4.07829-2.62738-2.82495 0-4.42674 2.33114-4.42674 4.63788v.02462zm12.3726 7.38386h-3.49497V37.8574c-.93012 1.73325-2.87763 2.6027-4.93159 2.6027-4.69343 0-7.43882-3.71935-7.43882-7.922 0-4.69283 3.33255-7.8937 7.43882-7.8937 2.66636 0 4.2923 1.43791 4.9316 2.63308v-2.17322h3.49496v14.8962m3.95538-12.1552h-1.81032v-2.741h1.81032v-.8394c0-4.42602 3.3073-4.69283 5.81507-4.72226v2.73621c-.88184 0-2.3201 0-2.3201 2.09404v.7314h2.3201v2.74102h-2.3201v12.1552H78.6566v-12.1552m8.1906-7.92222h3.49222v10.85147l5.0386-5.67026h4.18859l-6.08177 6.56914 6.10591 8.32707h-3.99981l-5.25152-7.43797v7.43797H86.8472V19.92306m16.7774 12.69356c0 1.84778 1.30546 4.534 4.45253 4.534 1.94421 0 3.22554-1.03238 3.89116-2.38524.34901-.65675.5098-1.35872.56248-2.08924.02418-.70672-.10702-1.44204-.40278-2.09465-.61132-1.4072-1.97056-2.62738-4.07665-2.62738-2.8255 0-4.42674 2.33114-4.42674 4.63788v.02462zm12.3715 7.38386h-3.49387V37.8574c-.93287 1.73325-2.87873 2.6027-4.93159 2.6027-4.69344 0-7.43663-3.71935-7.43663-7.922 0-4.69283 3.33145-7.8937 7.43663-7.8937 2.66471 0 4.2923 1.43791 4.93159 2.63308v-2.17322h3.49387v14.8962" fill="#231f20"/></svg>