<svg xmlns="http://www.w3.org/2000/svg" role="img" viewBox="-1.16 -0.53 127.31 170.69"><title>Label Studio logo</title><defs><style>.cls-2{fill:#8aad00;stroke:#000;stroke-miterlimit:10;stroke-width:.75px}.cls-4{fill:#f9c2cf}</style></defs><rect width="80" height="80" x="22.429" y="30.8" rx="4.67" style="isolation:isolate" fill="#8aad00" opacity=".2"/><path d="M115.33912 125.7h-105.72a2 2 0 01-2-2V18.1a2 2 0 012-2h105.72a2 2 0 012 2v105.6a2 2 0 01-2 2zm-103.69-4h101.69V20.1h-101.72z" class="cls-2"/><rect width="13" height="13" x="3.119" y="11.6" class="cls-2" rx="1.69"/><rect width="13" height="13" x="108.589" y="11.6" class="cls-2" rx="1.69"/><rect width="13" height="13" x="3.119" y="117.19" class="cls-2" rx="1.69"/><rect width="13" height="13" x="55.979" y="11.6" class="cls-2" rx="1.69"/><rect width="13" height="13" x="55.979" y="117.19" class="cls-2" rx="1.69"/><rect width="13" height="13" x="108.589" y="117.19" class="cls-2" rx="1.69"/><rect width="13" height="13" x="3.119" y="64.4" class="cls-2" rx="1.69"/><rect width="13" height="13" x="108.589" y="64.4" class="cls-2" rx="1.69"/><path fill="none" d="M76.18911 13.02a1.27 1.27 0 00.67 1.21l-.61-1.33a.30006.30006 0 00-.06.12z"/><path d="M71.10911 8.35c-.37-.29-.68-.57-1-.81a7.4902 7.4902 0 00-1.82-1.13c-1.08-.34-1.68.44-2.38 1.06a7.73 7.73 0 00-2.66 6.78c0 .23.41.5-.13.61s-.49-.24-.61-.47a3.78 3.78 0 010-2.46 7.29 7.29 0 012.16-4.36c.75-.68 1.46-1.41 2.2-2.13a25.46852 25.46852 0 00-3.59-1.2 1.82 1.82 0 00-2.33 1 9.70969 9.70969 0 00-.86 2.6c-.26 1.88-.64 3.71.7 5.47.5.66.61 1.47 1.59 1.92s1.66 1.08 2.56 1.54c-.07-4.08 2.15-6.76 6.17-8.42z" class="cls-4"/><path d="M54.48912 10.76a2.93 2.93 0 002.85 2.44 9.93044 9.93044 0 011.58.27c.24.05.49.17.68 0s0-.39-.09-.58a6.55006 6.55006 0 01-.68-3 14.00012 14.00012 0 011.62-5.7l-3.79.36a5.36118 5.36118 0 00-.78.15 10.38018 10.38018 0 00-1.47 2.29c-.46 1.24-.07 2.51.08 3.77zm16.24 4.5a14.31 14.31 0 013.7-1.31c.28-.07.6-.1.65-.47a.88025.88025 0 01-.15-.27c-.26-1.61-1.61-2.67-2.47-4a.57.57 0 00-.79494-.13364l-.00507.00364a2.37 2.37 0 01-.72.3 7.45 7.45 0 00-4 3c-1.53 2-1.47 4.42-.55 6.74.07.17 0 .38.34.39s.33-.16.46-.36a10.35 10.35 0 013.54-3.89z" class="cls-4"/><path d="M69.33912 22.88a10.86 10.86 0 017.76-2.86c.94 0 1-.11.72-.87-.53-1.27-1.09-2.52-1.6-3.8a.9.9 0 00-1.12735-.59083l-.00265.00083c-.32-.16-.64.1-1 .17a7.77009 7.77009 0 00-4.21 2 12.44046 12.44046 0 00-1.76 2.52 3.86 3.86 0 00-.33 3.08c.25.99.73 1.07 1.55.35zm-.07 17.28a1.35994 1.35994 0 011-.5c.57-.08.8.33 1.1.62s.68.56 1-.07c.06-.14.24-.24.37-.35.78-.7 1.11-.71 2-.05.34.25.58.1.81-.17.88-1 1.25-1.1 2.24-.14.61.59 1.46-.32 2 .37a.31.31 0 00.25 0 1.52007 1.52007 0 00.27-.57 11.19045 11.19045 0 00.2-2.58c-.19-1.51-.1-3-.32-4.53 0-.17 0-.54-.19-.44-1 .46-1.57-.28-2.28-.56a7.44 7.44 0 00-4.66-.28c-1.55.41-3.43.37-4 2.38a13.59013 13.59013 0 00-.72 2.38 17.69959 17.69959 0 013.11-1.24 9.85 9.85 0 017.69.36 1.79007 1.79007 0 01.62.47c.3.37.13.61-.34.67a1.21 1.21 0 01-.76-.18 7.53006 7.53006 0 00-3.32-1.11 13.22 13.22 0 00-5.28 1.26 6.72007 6.72007 0 00-2.15 1.29.84.84 0 00-.27 1c.19.26.59-.09.83-.22a10.63013 10.63013 0 013.61-1.21 13.00029 13.00029 0 013.68-.13c.88.15 1.72.4 2.59.56.46.09 1 .09 1.15.59.09.24.11.52-.18.66a1.43 1.43 0 01-1.37-.17 7.05991 7.05991 0 00-4-.79 14.57987 14.57987 0 00-6.11 1.74c-.23.1-.74.29-.47.74a1.08 1.08 0 001.9.2z" class="cls-4"/><path d="M75.76912 20.91a11.81008 11.81008 0 00-4.88 1.85 5.00012 5.00012 0 00-1.75 1.51c-.37.66-.15 1.48-.49 2.19-.07.15.11.4.17.61s.25.26.11.44-.22.37 0 .5.39 0 .56-.16a2.85 2.85 0 01.52-.31 9.86 9.86 0 016.33-1.93c.9.07 1.88.16 2.2 1.34a5.13984 5.13984 0 01-1.46-.13 4.23 4.23 0 00-2.6-.27 16.70053 16.70053 0 00-2.87 1c-1.6.61-2.13 2-2.8 3.2-.06.11-.22.27 0 .43s.32 0 .48 0a14.87144 14.87144 0 012.39-.88 11.61011 11.61011 0 014.11-.44 10.22013 10.22013 0 013.55.9c.2.1.72.48.7-.1a11.23917 11.23917 0 00-.07-1.53c-.41-2.32-.8-4.65-1.24-7-.1-.5 0-1.25-.83-1.34a8.46033 8.46033 0 00-2.13.12zm-16.43-3.87a1.92 1.92 0 00-1.43-.37 3.52 3.52 0 00-3 1.19.82.82 0 00-.15.92c.14.33.49.11.77.06a2.78022 2.78022 0 011 0 8.32006 8.32006 0 014.28 1.92c.53.49.68.25.9-.22.51-1.19-2.01-3.22-2.37-3.5z" class="cls-4"/><path d="M55.97912 19.56a6.25025 6.25025 0 00-1.66.85c-.86.77-.22.92.29 1.26a4.65 4.65 0 011.61 1.71 2.49 2.49 0 01-.11 2.61c-.16.26-.32.66-.07.86s.57-.06.86-.24c.87-.54 1.65-1.16 2.45-1.75 1.14-.84.44-2.08 1.22-2.9 0 0-.13-.22-.21-.33-1.02-1.38-2.57001-1.8-4.38-2.07zm-12.89-.96a4.73988 4.73988 0 002.36 1.47 8.99964 8.99964 0 002.69.07c1.21-.29 2.27-2.6.66-3a8.11994 8.11994 0 01-3.76-.76 2.66 2.66 0 01-1.19-1.17.43.43 0 01.21-.64c.26-.12.54-.05.6.18.26.91 1.16 1.1 1.93 1.33a3.48 3.48 0 003.75-.67 8.78 8.78 0 01-4-4c-.09-.23-.19-.39 0-.58s.33-.35.61-.27a.42.42 0 01.34535.48326l-.00535.02674a1.94919 1.94919 0 00.25.76 6.3099 6.3099 0 002.73 2.59 1.8 1.8 0 002.5-.15c.38-.31.45-.6 0-.82a6.85963 6.85963 0 01-1.64-1.34 4.9 4.9 0 01-1.42-3.85 2 2 0 01.25-.93.66.66 0 01.83-.35c.39.15.09.39 0 .61a3.45 3.45 0 00.9 3.89 4.21 4.21 0 002.58 1.59c.55 0 .31 0 .21-.3a15.30025 15.30025 0 01-.85-3.01 7.84 7.84 0 01.61-4.48 1.62086 1.62086 0 00-.25-.07 1.48989 1.48989 0 00-.52.1 15.33 15.33 0 00-7.94 5.15 9.47 9.47 0 00-2.47 6.62c.01.49-.23 1.03.03 1.52z" class="cls-4"/><path d="M54.27912 22.44a1.67 1.67 0 00-1.24-.39c-.47.07-.36.49-.55.73-1 1.25-1.94 2.67-4 2.7-.15 0-.33 0-.32.19a.38.38 0 00.12.28 9.99989 9.99989 0 004.22 1.68 2.83 2.83 0 002.91-1.68 2.89 2.89 0 00-1.14-3.51z" class="cls-4"/><path d="M48.92911 24.55a4.35 4.35 0 002.89-2.6c.24-.47 0-.67-.52-.49-1.58.54-3.17 1-4.79 1.48-.71.19-.73.52-.16 1s1.5.45 2.16.64c.21.1.30001-.01.42-.03zm4.76-8.86a1.00005 1.00005 0 01.8.6c.16.42.39.42.81.16a4.70986 4.70986 0 012.45-.64 5.27 5.27 0 013 .8 2.91 2.91 0 00-3.3-2.43 4.81987 4.81987 0 01-1.34-.11 2.29 2.29 0 00-2.21.51c.21.17.58-.06.65.24.14.57-.58999.48-.86.87z" class="cls-4"/><path fill="#a3a3a3" d="M97.77912 52.45a1.09 1.09 0 01.18-.53 2.6 2.6 0 00.15-1.61 35.15178 35.15178 0 00-1-3.54c-.09-.42-1.38-.86-1.74-.58a10.29037 10.29037 0 00-2.05 1.7c-.91 1.22-2.33 1.57-3.69 2a3.36 3.36 0 01-3.46-.43 3.32 3.32 0 00-1.32-.66 13.46986 13.46986 0 01-3.87-2 3.00006 3.00006 0 00-1.66-.73c-.49 0-.89-.81-.55-1.12.56-.5.47-1.2.81-1.75.46-.75 0-1.41-.24-2.09-.11-.36-.47-.35-.79-.08-.58.49-1 .4-1.35-.24-.13-.26-.07-.7-.55-.67s-.49.43-.61.77-.29.85-.8.87-.64-.34-.81-.67a.99994.99994 0 00-.17-.19c-.66-.71-.87-.69-1.25.19-.2.46-.35 1-.9 1.16s-.74-.6-1.1-.92-.39-.59-.82-.51a1 1 0 00-.84.82c-.11.48.08 1.16-.66 1.26s-.73-.64-1-1-.74-.57-1.13-.06a5.36 5.36 0 00-1 1.5c-.14.48-.6 1.16-.14 1.52a1.06 1.06 0 01.39 1.07 34.62 34.62 0 00-.23 4.1.44.44 0 11-.87 0 17.51831 17.51831 0 000-1.88c-.06-.68.49-1.36 0-2.14-1.53 2.66-2.22 5.47-3.14 8.2-.57 1.7-1 3.43-1.49 5.15-.38 1.32-.74 2.63-1 4a38.80928 38.80928 0 00-.82 6.14c-.11 2-.73 3.85-.93 5.81a34.708 34.708 0 00-.59 4.64 45.8206 45.8206 0 01.27 5.81 15.12032 15.12032 0 00.09 2.79 36.44034 36.44034 0 01.24 4.94 47.72177 47.72177 0 00.42 4.77 58.349 58.349 0 00.83 5.81c.06.39.08.81.56 1 .13.05.39.08.42 0a1.17 1.17 0 000-1.09c-.15-.33-.06-.69-.24-1s0-.63.23-.91a.43.43 0 01.46-.19c.26 0 .21.25.19.39a3.69006 3.69006 0 00.22 1.6c.22.84.13 1.88 1.45 2.26.52.15.72.76.87 1.27.6 1.95-.37 3.61-1.21 5.29a2.67011 2.67011 0 01-1 1.09c1.11 1 1.84 4.38 2.3 5.6 1.09-1 1.32-2.71 2.56-3.77a12.9 12.9 0 014.66-2.41c4.09-.86 6.67.75 6.86 4.72a8.14 8.14 0 01-1.46 5.2 13.62051 13.62051 0 001.87-2 19.94211 19.94211 0 011.38-1.59.59.59 0 01.81-.05c.32.23.17.46-.07.69a4.00048 4.00048 0 00-.85.94c-.28.58-1 .94-1.14 1.7a53.92085 53.92085 0 016.51-2.12c1.2-.27 1.63-.2 2.17.83a6.99989 6.99989 0 011.2 3.66.82.82 0 00.4.79 10.42953 10.42953 0 01.71-.92c.29-.3 0-1.06.87-.88.7.15.2.77.62 1.24.26-1 .71-1.47 1.86-1.11.57.18 1.67-.68 1.76-1.2.32-1.75.09-3.53.55-5.28.5-1.92.14-3.91.39-5.86s.92-3.81 1.16-5.76c.16-1.3.55-2.57.6-3.91a20.78024 20.78024 0 01.61-3.87 27.66959 27.66959 0 00.67-4.45c.07-1 .15-2.08.16-3.12q.06-5.22.07-10.43v-5.5a11.59072 11.59072 0 000-2.32c-.19-.9.67-2-.6-2.71a.32355.32355 0 01.07-.2 54.25951 54.25951 0 001.78-6.67 11.29 11.29 0 00-.62-6.27 14.25978 14.25978 0 01-.62-4.3zm-37.72 11a2.26985 2.26985 0 01.36-.64.39.39 0 01.5 0c.15.09.27.19.18.4a7.32987 7.32987 0 00-.51 3.29c0 .22.11.53-.35.51-.29 0-.56 0-.37-.5a9.99986 9.99986 0 01.19-3.04zm-1 8.24a.81.81 0 01.31-.65c.23-.22.45-.65.86-.41s0 .48-.14.71a2.59993 2.59993 0 00-.31 1.32c.1 1-.18 2 0 2.95 0 .21.13.52-.33.53s-.57-.15-.57-.48v-1.34c-.13-.8.33-1.68.22-2.56zm-.07 13.47a7.08016 7.08016 0 00-.19-2.49c-.25-.79 0-1.6-.31-2.34a.68.68 0 00.16-.57c0-.31.18-.36.46-.33s.52.18.44.42c-.45 1.33.23 2.6.2 3.91 0 .49-.21.94-.21 1.43 0 .2-.06.41-.32.38s-.19-.21-.19-.39zm.15 3.46c0-.54-.08-1 .44-1s.46.41.49.72c.11 1 .23 2.07.3 3.11a1.53 1.53 0 01-.21.68.38.38 0 01-.27.18c-.22 0-.17-.17-.2-.29a30.59847 30.59847 0 00-.51-3.38zm1.93 11.53c-.2 0-.35-.18-.41-.47-.34-1.61-.76-3.21-1.13-4.82a.53.53 0 01.35692-.65909l.00308-.00091a.55.55 0 01.67.6c0 .91.52 1.71.43 2.63a7.99974 7.99974 0 00.23 1.77 1.36659 1.36659 0 01-.07.49c-.07.19.28.44-.04.48zm26-42.74c.45 0 .37.25.38.49 0 .67.33 1.32.16 1.94a6.99954 6.99954 0 010 1.19.44664.44664 0 11-.87-.09 9.32 9.32 0 00-.13-3 .46.46 0 01.51-.51zm-.91 22.76c.24-.95-.08-1.94.29-2.88.11-.27.16-.61.62-.54s.19.43.32.7a24.91111 24.91111 0 00-.6 2.83c-.06.25-.2.42-.48.38s-.15-.25-.09-.46zm-.43 2.91v1.87c0 .37-.08.9-.45.91s-.19-.63-.51-.87a5.68 5.68 0 00.27-2 .481.481 0 01.67-.47c.45.14.1.38.07.59zm-.15-12.14c0 .28 0 .73-.42.66s-.49-.49-.52-.83a7.42069 7.42069 0 000-3.38c0-.18-.13-.48.28-.47a.4.4 0 01.43.35 15.27 15.27 0 01.28 3.7zm-.64-11.9c.25 0 .3.13.3.31 0 1 .37 2 0 3.09a6.12 6.12 0 01-.7-3.19c.06-.2.27-.18.45-.18zm-1.34 17.5c.59-1.14.36-2.33.36-3.52 0-.18-.15-.48.24-.51s.38.16.49.38a4.21986 4.21986 0 01.17 1.66 2.59 2.59 0 01-.78 2.21c-.1.1-.2.24-.37.17a.23.23 0 01-.11-.39zm-1-12.46c.59 1 .16 2.09.47 3.11 0 .13-.12.3-.14.45-.05.35-.29.46-.64.42-.6-.07 0-.36-.12-.53a.31.31 0 010-.39 7.22027 7.22027 0 00-.29-2.38 2.55972 2.55972 0 01-.07-.56c0-.31-.15-.78.3-.84s.3.47.45.72zm-1.73-11.9c.29 0 .4.17.5.39a2.62991 2.62991 0 01.28 1.19 8.49008 8.49008 0 00.26 1.91c.08.43-.06.78-.39.84s-.58-.4-.57-.67c0-.68-.25-1.33-.19-2a4.45 4.45 0 00-.21-1.08c.09-.26-.12-.56.28-.58zm-.22 5.89c.3 0 .61 0 .64.32a10.78035 10.78035 0 001 3.14c.12.29.06.52-.22.6s-.35-.17-.45-.4c-.38-.92-.8-1.82-1.2-2.74a4.42838 4.42838 0 01-.15-.53c.07-.1.07-.36.35-.39zm.16 14.41c0-.17 0-.59.42-.46a.51.51 0 01.34.57v1.52a5.68985 5.68985 0 01-.14 2c-.07.27-.15.49-.49.46s-.14-.4-.13-.48c.1-1.21-.33-2.41-.03-3.61zm-1.3-5.22c.41 0 .42.36.48.64q.16.78.34 1.55a.40005.40005 0 01-.28.53.33.33 0 01-.41-.33c0-.6-.57-1.09-.36-1.64-.11-.34-.28-.71.19-.75zm-2.7 18.76c-.07-.36 0-.7.42-.74s.5.35.44.64c-.16.67.38 1.31.1 2 .18.54-.22 1.1-.12 1.68a.32.32 0 01-.39.35c-.27 0-.17-.23-.18-.43a20.54968 20.54968 0 00-.27-3.5zm.1 8.51c0 .36-.16.56-.59.55s-.31-.32-.32-.53 0-.6 0-.9a8.8392 8.8392 0 010-1.14.54.54 0 01.57625-.50114l.01375.00114a.48.48 0 01.38424.5596l-.00425.0204a10.06075 10.06075 0 00-.05 1.94zm.69 5.84a8.74007 8.74007 0 001-1.76 4.8101 4.8101 0 00.3-1.82c0-.31.06-.64.44-.69.58-.07.27.38.38.78a5.16 5.16 0 01-1 3.19c-.14.2-.35.34-.41.61a.53.53 0 01-.64824.37628l-.02176-.00628c-.37-.14-.2-.44-.03-.69zm.3-24.2v-.49a.5.5 0 01.41-.48c.33-.05.25.26.35.43.32.57 0 1.18.15 1.66a3.86988 3.86988 0 01-.34 2.14c-.1.15-.16.28-.39.25a.25.25 0 01-.19-.38c.45-1.06-.06-2.1.02-3.14zm.78 8.42c-.41 0-.45-.29-.45-.58v-1.23a11.90142 11.90142 0 010-1.47.48.48 0 01.59-.47c.57.1.1.36.1.54v2.64c.04.21.21.56-.23.56zm-.06-14.7a.35.35 0 01.4.35 10.96782 10.96782 0 00.07 1.4 3.37009 3.37009 0 01-.07 1.4.318.318 0 01-.29.35c-.19.01-.24-.14-.26-.3a13.66045 13.66045 0 01-.13-2.85.36.36 0 01.28-.35zm-.11-6.3a2.55978 2.55978 0 01-.07.48.5102.5102 0 01-.6.37c-.36-.06-.17-.35-.21-.41a5.33992 5.33992 0 00-.54-3.64.56368.56368 0 010-.46c1-.77.22-1.61.11-2.41 0-.31-.26-.6-.32-.91s-.15-.47.23-.52.57 0 .65.31c.25 1 .95 2.23.62 3.11-.49 1.46.46 2.73.14 4.08zm-1.34-16.1c.24-.07.37.2.49.38a1.72 1.72 0 01.37 1.32 6.90012 6.90012 0 01-.45 2.43c-.06.18-.15.46-.49.34s-.19-.34-.15-.49a5.88989 5.88989 0 000-3.38.45.45 0 01.222-.59643zm-1.66-4a.50585.50585 0 01.59-.56c.46.04.27.35.3.56a1.66 1.66 0 01-.91 2c.01-.73-.02-1.35.03-1.96zm.16 10.15c.57 0 .53.61.51 1.05v.32c0 .3 0 .65-.42.67s-.49-.36-.49-.68v-.46c0-.19-.27-.88.4-.86zm0 9.78c.41 0 .31.28.37.45a20.12069 20.12069 0 01.86 3.5c0 .22 0 .51-.26.55a.45.45 0 01-.47-.42c.05-1.11-.78-2-.9-3.06v-.49a.45833.45833 0 01.37-.49zm-.44 9.2a.41.41 0 01.43-.35c.26 0 .22.18.31.32.31.5.15 1.06.29 1.58a11.35957 11.35957 0 01.2 1.68c0 .34-.11.79-.56.79s-.33-.44-.33-.72c0-.95-.27-1.86-.35-2.8a3.80257 3.80257 0 01-.02-.47zm.66 14.18c0 .9-.48 1.63-.46 2.45 0 .17-.15.62-.56.5s-.32-.38-.16-.67c.39-.71.14-1.5.3-2.23.07-.32.09-.93.53-.91.57.06.18.65.31.89zm-1.41-21.12c0 1.21.65 2.34.58 3.57 0 .22 0 .36-.23.41s-.34-.1-.38-.32a24.81075 24.81075 0 01-.72-3 3.83051 3.83051 0 01.07-.68.4.4 0 01.42-.25.23.23 0 01.26.27zm-1.38-13.92a6.3505 6.3505 0 010-1.06 12.00121 12.00121 0 010-1.46.5.5 0 01.56-.51c.46 0 .32.32.32.53v2.44c0 .35 0 .76-.54.78s-.30001-.5-.34-.72zm0 4a.48.48 0 01.65.49c-.06 1.14.66 2.21.38 3.21v1.26a.55.55 0 01-.63.55c-.27 0-.19-.35-.22-.6-.15-1.4.17-2.84-.37-4.22-.07-.22-.22-.58.21-.69zm-1 5.22a14.36 14.36 0 00.33 2.48.21.21 0 01-.2.29.41.41 0 01-.49-.28 6.83968 6.83968 0 01-.38-2 .7.7 0 010-.52c.07-.2.1-.34.38-.34s.36.15.39.36zm-.24 23.78c-.07.25 0 .66-.37.61s-.33-.42-.22-.71v-.23h-.11v-3.6c0-.37.07-.66.58-.64s.34.39.32.61a18.14949 18.14949 0 01-.20001 3.96zm-.06 7a27.67217 27.67217 0 01-.39 3.21.47.47 0 01-.46958.47043q-.01021 0-.02042-.00043c-.28 0-.28-.35-.22-.55.4-1.19 0-2.41.24-3.61a2.921 2.921 0 01.18-.58.42.42 0 01.52-.22c.24.07.15.26.16.41s.01.56 0 .87zm-2.11-19.14c-.1-1.11.26-2.2.23-3.31a2.11983 2.11983 0 01.39-.88c.08-.15.22-.29.42-.21s.3.2.27.31c-.46 1.78-.27 3.57-.88 5.24-.07.19 0 .6-.45.43a.42.42 0 01-.18-.66 1 1 0 00.19999-.92zm.23-6.17c-.07-.67.41-1.25.06-1.89-.05-.1 0-.73.54-.63a.6.6 0 01.45.81 4.44982 4.44982 0 00-.13 1.6c0 .42 0 1-.55 1s-.29-.64-.38-.9zm.11 11.31a4.209 4.209 0 000-.57 2.32 2.32 0 01.31-1.43c.14-.18.23-.41.53-.3a.40994.40994 0 01.28.54 3.82 3.82 0 00-.13 1.76c0 .31-.11.82-.56.79s-.47-.41-.43-.79zm1.31-22.56c-.46.07-.5-.28-.49-.59s0-.43 0-.65a.63.63 0 010-.24c.11-.26-.28-.74.32-.77s.36.5.38.78.17.51.19.77-.02.65-.4.7zm-.72-12.24c.39 0 .48.32.47.56 0 .62.63 1 .55 1.64 0 .21.17.53-.29.56s-.61-.08-.62-.43c0-.6-.52-1.07-.55-1.66.00999-.3-.03001-.65.43999-.67zm-.57 5.61c.09-.17.13-.46.48-.38a.41.41 0 01.36.41 5.68 5.68 0 00.34 2.71.29.29 0 01-.19.46.56.56 0 01-.64-.2 1.05578 1.05578 0 01-.23-.51 10.8203 10.8203 0 00-.21-1.92 1.65966 1.65966 0 01.09-.57zm-.12 7.19c.33.11.16.31.09.52-.23.78.13 1.58-.07 2.37v.48c-.15.31-.14.89-.66.76s-.21-.56-.13-.92a9.48062 9.48062 0 00.11-1.46 9.75141 9.75141 0 010-1.38.46.46 0 01.66-.37zm-1.8 37.3c.07.3-.14.41-.38.43s-.49 0-.51-.3 0-.6 0-.9a6.99984 6.99984 0 01.17-1.62c0-.26.11-.56.44-.48a.52.52 0 01.4.67 5.33 5.33 0 00-.12 2.18zm-.19-40.17c-.42-.13-.24-.51-.15-.76.3-.81.07-1.68.36-2.49a.43.43 0 000-.16c0-.44.19-.84.68-.77s.12.55.27.84c-.15.92-.26 1.85-.47 2.77-.05002.27-.20002.72-.69001.57zm0-8.7c.24-.13.62-.26.55.16-.14.91.67 1.46.95 2.31-1.14.15-1.35-.66-1.6-1.25-.12-.33-.5-.87.13-1.22zm-1 16.86c0-.26-.14-.67.44-.59s.42.31.38.7a26.69627 26.69627 0 00-.11 3 3.23 3.23 0 01-.17 1.26c-.1.23-.21.41-.49.38s-.19-.33-.19-.5c-.03-1.39.22-2.81.21-4.24zm-.3 13.47c-.2-.37 0-.9 0-1.36a.4.4 0 01.37-.4c.29-.06.29.15.39.32.26.44.09.9.17 1.37-.23.32.36 1-.35 1s-.41002-.6-.58002-.93zm.14-6.47a7.65028 7.65028 0 00-.18 2.32 1.00005 1.00005 0 01-.12.46c-.13.22-.06.62-.48.56s-.3-.41-.32-.8a9.00047 9.00047 0 00.22-2.51c0-.24.09-.57.49-.55a.38.38 0 01.39.52zm-1.2-12.8c0-.15.14-.31.25-.29a.68.68 0 01.39.29 2.13 2.13 0 01-1.07 2.51c.19-.94.29-1.73.42-2.51zm-.5 34.19c0-.17.24-.15.38-.11s.13.22.15.34c.06.45-.23.83-.27 1.28a1.62 1.62 0 00.16 1.12c.2.3.1.54-.25.64s-.48-.23-.52-.42c-.08-.44-.35-.87-.2-1.36-.33-.62.4-.97.54-1.49zm-.44-30.74l-.93 3.39c-.08.27-.07.67-.51.62s-.06-.47-.26-.64c.21-1.11.4-2.19.63-3.26 0-.17.25-.3.33-.47s.41-.2.62-.15c.36998.08.16998.32.11998.51zm-2.05 8.5v-.39a4.39014 4.39014 0 01.36-1.72.54.54 0 01.68842-.33056l.00158.00056c.45.11.13.36.1.57a8.10987 8.10987 0 00-.25 1.91c0 .33.11.79-.49.76s-.39001-.5-.41002-.8zm.69 11.56a4.80868 4.80868 0 010-.85c-.15-.72.29-1.53.2-2.37a1.13073 1.13073 0 01.31-.65.4.4 0 01.48-.11c.18.07.19.17.16.37-.17 1.21-.27 2.42-.45 3.62 0 .24 0 .69-.42.68s-.22-.48-.28-.69zm-.78-23c.69-.8.48-1.83.94-2.67 0-.07.09-.14.13-.21a.45.45 0 01.55-.31c.28.07.15.31.21.61-.24.72-.5 1.55-.82 2.38a1 1 0 01-.59.46c-.36.17-.58-.09-.42-.26zm-.49 18.18v-.73a15.86937 15.86937 0 00.2-3c0-.1 0-.27.07-.3.26-.14.25-.68.69-.49s.1.47.09.73c0 1.19-.58 2.36-.18 3.58a.51.51 0 01-.49.71c-.51.13-.36-.23-.38-.47zm1.51 17.27c-.41 0-.43-.25-.5-.54-.38-1.51-.33-3.07-.66-4.59-.05-.24.09-.37.31-.42a.42.42 0 01.52913.26984q.00642.0198.01087.04016a5.58054 5.58054 0 01.11.87 12.64019 12.64019 0 00.58 3.8c-.23.12.02.58-.38.6zm.15-6.42c-.47.1-.41-.39-.51-.63a9.52984 9.52984 0 01-.63-2.4c0-.33 0-.61.42-.63s.33.28.39.49c.21.8.45 1.58.62 2.39.06.26.16.75-.29.81zm1.25 18.23a.67.67 0 01-.81-.49 3.43019 3.43019 0 010-.89v-.81a.56.56 0 01.56-.54c.34 0 .33.3.35.55a3.8101 3.8101 0 00.13 1.52c.07.21.19.6-.24.69zm.62-4.26c-.44.13-.49-.23-.54-.55-.15-.95-.36-1.89-.51-2.84 0-.21-.12-.53.34-.51s.71.21.56.81a16.00056 16.00056 0 01.46 2.29c.07.39.01.71-.30999.8zm1.33-10.73c0 .22 0 .44-.33.45s-.37-.17-.39-.41c-.08-1-.18-2.06-.28-3.23.25-.45.07-1.08.13-1.7a.42.42 0 01.56-.38.4.4 0 01.32.51 13.9 13.9 0 00-.00999 4.76zm.05-7.4a17.00228 17.00228 0 010-2.72 1.7 1.7 0 01.31-.9c.13-.14.25-.42.57-.27s0 .33.06.55a8.19985 8.19985 0 00-.08 3.31c0 .22 0 .77-.46.78s-.4-.44-.4-.74zm1 22a.42.42 0 01-.57.37c-.31-.08-.3-.26-.22-.56a18.23981 18.23981 0 00.42-2.44 1.2301 1.2301 0 01.32-.64c.11-.13.16-.29.39-.25s.13.31.22.41zm.38-5.24c-.44 0-.32-.42-.35-.7-.06-.45-.12-.9-.19-1.39a1.79987 1.79987 0 01.1-.6c.12-.22.19-.57.6-.51s.2.39.23.6a9.47 9.47 0 00.11 1.77.7.7 0 01-.45591.87872l-.00409.00128zm.57-12.16c-.06-.26 0-.49.29-.54a.39.39 0 01.48.38 11.45979 11.45979 0 01.29 3.93c-1-.5-.62-1.33-.79-1.95s-.13-1.17-.27-1.77zm4.07 11.63a.12.12 0 000 .07 4.44 4.44 0 01-.92 2.67c-.76 1.18-1 2.59-1.68 3.83a2.4 2.4 0 01-.73.76c-.25-.14-.5-.23-.28-.51 1-1.25 1.1-2.79 1.73-4.16a3.08993 3.08993 0 01.73-1.17 1.37005 1.37005 0 00.39-1 1.54987 1.54987 0 01.08-.64c.14-.28.32-.74.69-.63s.22.54-.01.82zm.67-3.52a2.07 2.07 0 01-.18.53c0 .12-.14.16-.27.16a.25623.25623 0 01-.25-.26v-1.45c0-.84-.11-1.9-.18-3 0-.23 0-.48.3-.52s.37.28.4.45a19.80093 19.80093 0 01.18 4.13zm0-16.83a2.18 2.18 0 00.07-.95 3.45012 3.45012 0 00-.28-1.92c-.13-.25-.21-.67.16-.79s.56.25.64.47a4.27 4.27 0 01.14 3.44c-.12.25-.25.58-.63.44s-.21-.44-.1-.65zm.28 4.92a.83.83 0 01.17-.67c.08-.15.19-.33.39-.27a.48.48 0 01.28.36 11.75043 11.75043 0 00.4 2.54c0 .25 0 .55-.28.62s-.5-.31-.56-.52c-.19-.66-.28-1.38-.4-2.02zm.6 17.51c.72-.8.51-1.79.75-2.68.1-.35.22-.71.6-.68s.39.52.32.8c-.2.83-.47 1.64-.74 2.45a.88.88 0 01-.52.47c-.32.01-.63-.07-.41-.32zm4.18 14.68a3.1 3.1 0 01-2.12.39 1.45 1.45 0 01-1.51-1.18 7.61 7.61 0 01-.56-3 4.85 4.85 0 012.24-4.36 2.91 2.91 0 014.33 1.4 6.44 6.44 0 01-2.38 6.79zm3.2-25c-.31 1.51.08 3.09-.56 4.57-.1.23-.22.43-.5.35s-.07-.34 0-.46c.38-1.29-.06-2.64.38-3.91-.31-.34.12-.48.19-.72s.18-.12.3-.12a.21.21 0 01.19.35zm-.13-4.39c.5-.93.38-2 .81-2.93.15-.33.06-.69.25-1s.12-.47.42-.42.12.32.15.49a1.26933 1.26933 0 010 .24 10.19983 10.19983 0 01-1.14 4c-.06.12-.14.27-.31.2a.39.39 0 01-.18-.52zm2.11 10.86c-.46 1.12-.38 2.37-1 3.45-.11.19-.17.41-.47.44a.2987.2987 0 01-.3-.44c.64-1 .48-2.13.88-3.16a1.24 1.24 0 01.36-.54.44.44 0 01.42-.09.23.23 0 01.11.4zm.42-2.82a.58.58 0 01-.48-.17c-.23-.28.12-.36.22-.53a8.25007 8.25007 0 00.41-2.36 3.32993 3.32993 0 01.33-.91c.1-.19.21-.34.47-.25s.11.28.14.42c-.19 1.12-.37 2.23-.59 3.33-.05.24-.12.54-.5.53zm2.68 2c-.31 1.24-.59 2.49-.94 3.73-.14.51-.58.71-1.3.55a5.32 5.32 0 001.15-3.45 1.39 1.39 0 01.57-1.13.54.54 0 01.42-.06.458.458 0 01.1.47zm-.2-5c-.62 0-.57-.34-.44-.55a5.68 5.68 0 00.43-2.4c0-.33.13-.67.6-.63s.18.4.21.62a15.349 15.349 0 01-.21 2.16.7.7 0 01-.59.92zm1.42 4.12a1 1 0 01-.93.44 3.00007 3.00007 0 00.48-2.19c0-.33-.11-.83.45-.79s.28.52.28.82a2.68 2.68 0 01-.28 1.84zm0-21.4c-.56 0-.34-.68-.29-1 .14-1.15-.46-2.14-.77-3.19a1.51 1.51 0 01-.15-.62c0-.26.08-.59.43-.62s.27.33.3.53c.18 1.31.85 2.53.91 3.92-.17.41-.09 1.11-.48 1.09zm.94 8.26c.07-1 .15-2 .18-3a1.38 1.38 0 01.94-1.33 19.08986 19.08986 0 00-.38 4.29.42.42 0 01-.51.55c-.26 0-.3-.19-.28-.4zm.81 8.16a.41.41 0 01-.45.31c-.24-.05-.26-.29-.22-.48a19.71017 19.71017 0 00.57-3 .33.33 0 01.41-.33c.41.13.29.48.31 1-.05.85-.67 1.66-.67 2.61z"/><path fill="#fff" d="M70.08912 113.21a12.90009 12.90009 0 00-4.66 2.41c-1.25 1.06-1.48 2.76-2.56 3.77-.47-1.22-1.2-4.59-2.3-5.6a3.21979 3.21979 0 01-.94.41.93.93 0 00-.7.69c-.24 1.26-.94 2.39-1.26 3.65-.41 1.64-1 3.28-1.53 4.91a46.7789 46.7789 0 01-1.47 4.51c-1.13 2.57-2.05 5.2-3.19 7.77-.14.32.07.33.34.33.51 0 1.14.11 1.27.5.29.86 1 .58 1.47.46 2.22-.56 4-1.91 6-2.82 1.29-.59 2.35-1.46 3.59-2.1a18.69978 18.69978 0 004.42-2.7c1.75-1.69 3.91-3 5.42-4.88a3.10047 3.10047 0 01.49-.57c.35-.26.68-.54 1-.83a8.14 8.14 0 001.46-5.2c-.18-3.96-2.76-5.57-6.85-4.71zm-10.12 6.8q-1.45.68-1.45-.82a3.22 3.22 0 011.23-2.23.51.51 0 01.78 0c.51.5.11 2.74-.56001 3.05zm10.66 1.75c-.35.26-.74.72-1.33.39s-.31-.72-.2-1.15c.24-.94.46-1.88 1.69-2.2a1.13 1.13 0 011.45 1 3.78 3.78 0 01-1.61 1.96z"/><path d="M103.11911 52.39c-1.25-1.23-1.78-3-3-4.29a10.79013 10.79013 0 00-3.59-2.89 1.68 1.68 0 00-1.9.18c-1.13.86-2.08 1.89-3.22 2.74a4.47 4.47 0 01-4.12.84c-1.1-.4-2.11-1.11-3.28-1.51a18.48075 18.48075 0 01-3.08-1.75c-.8-.46-1.06-.94-.64-1.7a3.32005 3.32005 0 00.31-.65 22.72043 22.72043 0 00.47-2.6 16 16 0 00.43-3.45c-.1-2.47-.29-4.95-.61-7.42-.34-2.63-.88-5.24-1.29-7.86a9.99934 9.99934 0 00-.54-2c-.48-1.25-1-2.49-1.47-3.75a29.00052 29.00052 0 00-2.3-4.69 24.67008 24.67008 0 00-5.36-5.56 39.221 39.221 0 00-4.59-2.33 13.63035 13.63035 0 00-4.9-.94 17.31051 17.31051 0 00-3.59.56 23.2201 23.2201 0 00-6.61 2 24.63046 24.63046 0 00-4.16 2.94 13.25 13.25 0 00-2.91 3.63 11.42984 11.42984 0 00-.83 2.77 9.46984 9.46984 0 00-.43 3.78 32.299 32.299 0 003 5.56c.91.57 1.28 1.52 2 2.2a12.18984 12.18984 0 004.54 2.24 6.91 6.91 0 004.22-.28 10.2401 10.2401 0 004.48-2.68 8.16009 8.16009 0 001.88-3.19c.32-1.06 1.4-2 .85-3.26-.07-.16.16-.28.29-.39a1.29 1.29 0 012.09.56 37.91243 37.91243 0 011.79 4.85 5.23008 5.23008 0 01.52 1.94c-.11 1.7.19 3.38.06 5.1a26.92978 26.92978 0 01-1.6 7.47c-.87 2.31-2.47 4.4-2.45 7a1.4799 1.4799 0 01-.2.52 34.50015 34.50015 0 00-2.05 5.44c-.31 1.27-.72 2.53-1.1 3.78-1 2.45-2.79 12.81-3.06 14.26-.34 1.82-.54 3.67-.87 5.49-.28 1.51-.29 6.81-.33 7.93-.14 3.47.39 6.91.36 10.37 0 .57.44 6.49.89 8.85.14.73.46 3.18-.12 3.46a3 3 0 00-1.71 2.46 4.71 4.71 0 001.39 3.88 3.57 3.57 0 01.87 3.82c-.69 2.15-1.43 4.28-2.08 6.44s-1.3 4.25-2.15 6.33c-.34.82-.78 1.61-1.05 2.44a44.00131 44.00131 0 01-2.03 5.01c-.22.47-.49 1-.24 1.38a2 2 0 001.29.78 7.88 7.88 0 004.65-.59c.95-.5 1.91-1 2.86-1.49.3-.16.51-.24.71.13.45.83 1.36 1.33 1.93 2.08.19.25.54.61 1 .3a.57.57 0 00-.11-.94c-.95-.59-1.44-1.56-2.39-2.14l3.85-2.2 2.45-1.43c.38-.21.67-.23.75.28.1.71.28 1.41.34 2.12.13 1.44.38 2.9-.81 4.15a.74.74 0 000 1c.25.28.58.14.91 0a4.6995 4.6995 0 01.87-.15.353.353 0 01.07.14c.12 1.27.19 1.32 1.47.73a.36.36 0 01.47.09 1.25 1.25 0 002.11-.39 11.19979 11.19979 0 00.9-2.24 49.00151 49.00151 0 001-5.29c.31-2.25.82-4.48 1.24-6.73.3-1.6.36-1.88 1.94-1.88a.46987.46987 0 00.18 0 52.62013 52.62013 0 015.66-1.9c1.46-.42 1.74-.25 2.31 1s0 2.8.28 4.21a17.79048 17.79048 0 01.06 5.38 14.42005 14.42005 0 01-1.66 6.14c-.2.32-.82.82-.16 1.29s.9-.27 1.22-.47c.57-.35.64-.25.77.26a1.29 1.29 0 002 .37c.33-.4.56-.36.83 0 .58.69 1.07.39 1.4-.14s.5-.46.9-.23a.59.59 0 00.93-.4 16.34988 16.34988 0 00.59-3.89 18.71992 18.71992 0 01.33-4.29c.33-1.77.5-3.56.83-5.33s.5-3.86.73-5.79.54-3.69.59-5.53a32.16094 32.16094 0 01.55-4.61c.35-2 .81-4.05 1.17-6.08.07-.37.09-.95.14-1.4.13-1.1.28-2.21.5-3.27a43.50968 43.50968 0 00.9-8.94c0-5.68 0-11.35.07-17a27.00023 27.00023 0 01.73-7.19 33.23 33.23 0 00.7-4.42c0-.3 0-.57.45-.35 1.16.55 1.39.45 1.64-.75.09-.43.46.14.93.3a.57.57 0 00.81-.38c.05-.13.16-.63.33-.46.57.57 1.1.35 1.26.16s-1-6.22-2.45-7.65zm-24.44-30.18c.45 2.32.83 4.64 1.24 7a11.24093 11.24093 0 01.07 1.53c0 .58-.5.21-.7.1a10.21989 10.21989 0 00-3.54-1 11.60988 11.60988 0 00-4.11.44 14.87144 14.87144 0 00-2.39.88c-.16.07-.29.2-.48 0s-.05-.31 0-.43c.67-1.25 1.2-2.59 2.8-3.2a16.70073 16.70073 0 012.87-1 4.23 4.23 0 012.6.27 5.13984 5.13984 0 001.46.13c-.32-1.18-1.3-1.27-2.2-1.34a9.86 9.86 0 00-6.31 1.91c-.17.11-.36.19-.52.31s-.36.27-.56.16-.13-.33 0-.5-.07-.3-.11-.44-.24-.46-.17-.61c.34-.71.12-1.53.49-2.19a5.00015 5.00015 0 011.77-1.47 11.81009 11.81009 0 014.88-1.83 8.46068 8.46068 0 012.08 0c.86001.02.73001.78.83 1.28zm-22.76-17.53c.26 0 .51-.13.78-.15l3.79-.36a14.00007 14.00007 0 00-1.62 5.7 6.54988 6.54988 0 00.68 3c.07.19.33.39.09.58s-.44 0-.68 0a9.93128 9.93128 0 00-1.62-.25 2.93 2.93 0 01-2.85-2.44c-.14-1.24-.54-2.51 0-3.76a10.37988 10.37988 0 011.43001-2.32zm-1.35 10.16c-.06-.3-.44-.08-.65-.24a2.29 2.29 0 012.21-.51 4.81983 4.81983 0 001.34.11 2.91 2.91 0 013.3 2.43 5.27 5.27 0 00-3-.8 4.71 4.71 0 00-2.45.64c-.41.26-.64.26-.81-.16a1 1 0 00-.8-.6c.25001-.41.98001-.32.86001-.87zm-9-4.41a15.3301 15.3301 0 017.94-5.15 1.49011 1.49011 0 01.52-.1 1.62086 1.62086 0 01.25.07 7.84 7.84 0 00-.65 4.51 15.29987 15.29987 0 00.86 3c.09.31.33.35-.21.3a4.20994 4.20994 0 01-2.58-1.59 3.45 3.45 0 01-.9-3.89c.07-.21.37-.45 0-.61a.66.66 0 00-.83.35 2.00008 2.00008 0 00-.25.93 4.9 4.9 0 001.42 3.85 6.86 6.86 0 001.64 1.34c.46.22.4.51 0 .82a1.8 1.8 0 01-2.5.15 6.31 6.31 0 01-2.73-2.59c-.1-.25-.3-.47-.25-.76a.42.42 0 00-.31325-.50465l-.02675-.00535c-.29-.08-.45.11-.61.27s-.1.36 0 .58a8.78 8.78 0 004 4 3.48 3.48 0 01-3.78.63c-.77-.23-1.67-.43-1.93-1.33a.40056.40056 0 00-.6-.18.43.43 0 00-.21.64 2.66 2.66 0 001.19 1.17 8.12 8.12 0 003.76.76c1.32.65.55 2.42-.66 2.72a7.52 7.52 0 01-2.39.19c-.57-.16-2.34-.81-2.65-1.4s0-1 0-1.56a9.47 9.47 0 012.45-6.61zm.77 13.49c-.57-.47-.55-.8.16-1 1.62-.44 3.21-.94 4.79-1.48.55-.19.76 0 .52.49a4.35 4.35 0 01-2.89 2.6c-.11 0-.2.13-.42 0a4.50832 4.50832 0 01-2.15999-.61zm9.06 2a2.83 2.83 0 01-2.91 1.68 9.99987 9.99987 0 01-4.22-1.68.38.38 0 01-.12-.28c0-.19.17-.19.32-.19 2.07 0 3-1.44 4-2.7.19-.23.08-.66.55-.73a1.67 1.67 0 011.24.39 2.89 2.89 0 011.15 3.53zm3.94-1.06c-.8.59-1.58 1.22-2.45 1.75-.29.18-.71.36-.86.24s-.08-.6.07-.86a2.49 2.49 0 00.11-2.61 4.6501 4.6501 0 00-1.61-1.71c-.51-.34-1.16-.49-.29-1.26a6.25 6.25 0 011.66-.85c1.81.28 3.38.69 4.38 2.07.08.11.24.3.21.33-.76999.8-.05999 2.05-1.21999 2.9zm2.35-4.34c-.21.47-.37.7-.9.22a8.32 8.32 0 00-4.22-1.98 2.78022 2.78022 0 00-1 0c-.29.05-.63.27-.77-.06a.82.82 0 01.15-.92 3.52 3.52 0 013-1.19 1.92 1.92 0 011.43.37c.32.36 2.84 2.39 2.33 3.55zm3.2-3.69c-.9-.46-1.67-1.13-2.56-1.54s-1.09-1.26-1.59-1.92c-1.33-1.76-1-3.59-.7-5.47a9.70992 9.70992 0 01.86-2.6 1.82 1.82 0 012.33-1 25.47036 25.47036 0 013.59 1.2c-.74.72-1.44 1.45-2.2 2.13a7.29 7.29 0 00-2.16 4.36 3.78 3.78 0 000 2.46c.11.23.19.56.61.47s.15-.38.13-.61a7.73 7.73 0 012.66-6.78c.7-.62 1.29-1.4 2.38-1.06a7.49028 7.49028 0 011.82 1.13 9.10347 9.10347 0 011 .81c-3.97 1.6-6.19 4.28-6.15 8.41zm1.87 2.67c-.32 0-.27-.22-.34-.39-.92-2.32-1-4.69.55-6.74a7.45 7.45 0 014-3 2.37 2.37 0 00.72-.3.57.57 0 01.79637.125l.00365.005c.86 1.31 2.21 2.37 2.47 4a.87988.87988 0 00.15.27c-.05.38-.38.4-.65.47a14.31 14.31 0 00-3.7 1.31 10.35 10.35 0 00-3.5 3.87c-.16.21-.17.38-.49.37zm1.36 0a12.44 12.44 0 011.76-2.52 7.77 7.77 0 014.21-2c.34-.07.66-.32 1-.17a.9.9 0 011.09.58c.51 1.27 1.07 2.53 1.6 3.8.32.76.22.87-.72.87a10.86 10.86 0 00-7.72 2.82c-.78.72-1.26.64-1.49-.32a3.86 3.86 0 01.29-3.08zm-.27 19.77a14.58 14.58 0 016.11-1.74 7.06 7.06 0 014 .79 1.43 1.43 0 001.37.17.47888.47888 0 00.18-.66c-.19-.49-.69-.5-1.15-.59-.87-.17-1.71-.42-2.59-.56a12.99992 12.99992 0 00-3.68.13 10.62994 10.62994 0 00-3.59 1.17c-.24.12-.65.48-.83.22a.84.84 0 01.27-1 6.72018 6.72018 0 012.15-1.29 13.21994 13.21994 0 015.25-1.27 7.53 7.53 0 013.34 1.12 1.21 1.21 0 00.76.18c.47-.06.64-.31.34-.67a1.79013 1.79013 0 00-.62-.47 9.85 9.85 0 00-7.69-.36 17.7 17.7 0 00-3.13 1.23 13.58987 13.58987 0 01.57-2.42c.61-2 2.5-2 4-2.38a7.44 7.44 0 014.66.28c.71.28 1.3 1 2.28.56.22-.1.17.28.19.44.22 1.5.13 3 .32 4.53a11.18994 11.18994 0 01-.2 2.58 1.52021 1.52021 0 01-.27.57.31.31 0 01-.25 0c-.53-.69-1.38.22-2-.37-1-1-1.37-.9-2.24.14-.23.27-.47.42-.81.17-.89-.65-1.22-.65-2 .05-.13.12-.31.21-.37.35-.28.63-.58.44-1 .07s-.53-.7-1.1-.62a1.36 1.36 0 00-1 .5 1.08 1.08 0 01-1.88-.17c-.11-.41.4-.6.62-.7zm31.21 23.76a54.26 54.26 0 01-1.72 6.65c0 .07-.09.19-.07.2 1.27.7.41 1.81.6 2.71a11.58924 11.58924 0 010 2.32v5.5q0 5.22-.07 10.43c0 1-.09 2.08-.16 3.12a27.67071 27.67071 0 01-.67 4.45 20.77954 20.77954 0 00-.61 3.87c-.05 1.33-.44 2.6-.6 3.91-.23 1.95-.9 3.81-1.16 5.76s.11 3.94-.39 5.86c-.45 1.75-.23 3.53-.55 5.28-.09.52-1.19 1.38-1.76 1.2-1.15-.36-1.59.14-1.86 1.11-.42-.47.08-1.09-.62-1.24-.86-.19-.59.58-.87.88a10.42909 10.42909 0 00-.71.92.82.82 0 01-.4-.79 7 7 0 00-1.2-3.66c-.54-1-1-1.1-2.17-.83a53.92344 53.92344 0 00-6.57 2.08c.15-.76.85-1.13 1.14-1.7a4.00033 4.00033 0 01.85-.94c.23-.23.39-.46.07-.69a.59.59 0 00-.81.05 19.94044 19.94044 0 00-1.41 1.62 13.62045 13.62045 0 01-1.87 2 15.26978 15.26978 0 01-2.67 2.89c-2.12 1.84-4.3 4.11-6.63 5.56-2 1.23-14.22 8.86-15.38 5-.25-.84 1.22-3.2 1.52-4.09.45-1.35 1-2.66 1.55-4 1.14-2.68 1.49-5.59 2.68-8.24.63-1.4.66-3.08 1.33-4.45l.43-.64c.88-1.72 1.62-1.9 2.24-1.34a2.67 2.67 0 001-1.09c.84-1.68 1.81-3.35 1.21-5.29-.15-.5-.35-1.12-.87-1.27-1.32-.37-1.22-1.41-1.45-2.26a3.69 3.69 0 01-.22-1.6c0-.14.07-.34-.19-.39a.43.43 0 00-.46.19c-.19.28-.39.61-.23.91s.09.69.24 1a1.17 1.17 0 010 1.09h-.42c-.47-.2-.5-.61-.56-1a58.34923 58.34923 0 01-.83-5.81 47.72177 47.72177 0 01-.42-4.77 36.44042 36.44042 0 00-.24-4.94 15.12012 15.12012 0 01-.09-2.8 45.82131 45.82131 0 00-.32-5.92 34.70983 34.70983 0 01.59-4.64c.2-2 .82-3.84.93-5.81a38.81044 38.81044 0 01.82-6.14c.29-1.34.66-2.65 1-4 .5-1.72.93-3.45 1.49-5.15.92-2.74 1.6-5.55 3.14-8.2.49.78-.06 1.46 0 2.14a17.51831 17.51831 0 010 1.88.44.44 0 10.87 0 34.6201 34.6201 0 01.23-4.1 1.06 1.06 0 00-.39-1.07c-.45-.36 0-1 .14-1.52a5.35979 5.35979 0 011-1.5c.39-.51.79-.47 1.13.06s.23 1.15 1 1 .54-.77.66-1.26a1 1 0 01.84-.82c.42-.07.56.29.82.51s.42 1.07 1.1.92.7-.7.9-1.16c.38-.88.59-.9 1.25-.19a.9999.9999 0 01.17.19c.17.33.41.69.81.67s.68-.51.8-.87.11-.75.61-.77.42.41.55.67c.32.64.77.73 1.35.24.32-.27.68-.29.79.08.2.67.69 1.34.24 2.09-.34.55-.25 1.25-.81 1.75-.34.31.06 1.11.55 1.12a3 3 0 011.66.73 13.47 13.47 0 003.87 2 3.32005 3.32005 0 011.32.66 3.36 3.36 0 003.46.43c1.36-.39 2.78-.75 3.69-2a10.29037 10.29037 0 012.05-1.7c.36-.28 1.66.16 1.74.58a35.15122 35.15122 0 011 3.54 2.6001 2.6001 0 01-.15 1.61 1.08993 1.08993 0 00-.18.53 14.25978 14.25978 0 00.67 4.28 11.2899 11.2899 0 01.67 6.39z"/><path d="M51.42911 20.4a1.67 1.67 0 00-.91-.93c-.45-.16-.55.27-.82.39-1.5.63-3 1.46-4.8.52-.13-.07-.29-.15-.38 0a.38.38 0 000 .3c.73 1.49.89 2.65 2 3.45 1.35.72 3.62.58 4.36-.13a2.89 2.89 0 00.55-3.6z" class="cls-4"/><path d="M73.98912 124.53c-1.52 1.88-3.67 3.19-5.42 4.88a18.69978 18.69978 0 01-4.42 2.7c-1.24.64-2.3 1.52-3.59 2.1-2 .92-3.8 2.26-6 2.82-.48.12-1.18.41-1.47-.46-.13-.39-.76-.5-1.27-.5-.27 0-.48 0-.34-.33 1.14-2.56 2.06-5.2 3.19-7.77.64-1.45.95-3 1.47-4.51s1.11-3.26 1.53-4.91c.32-1.26 1-2.38 1.26-3.65a.93.93 0 01.7-.69 3.21979 3.21979 0 00.94-.41c-.62-.56-1.36-.38-2.24 1.34l-.43.64c-.67 1.37-.7 3-1.33 4.45-1.2 2.65-1.55 5.56-2.68 8.24-.57 1.35-1.1 2.67-1.55 4-.3.89-1.77 3.25-1.52 4.09 1.16 3.86 13.42-3.77 15.38-5 2.32-1.45 4.5-3.72 6.63-5.56a15.27011 15.27011 0 002.67-2.89c-.32.29-.65.57-1 .83a3.09962 3.09962 0 00-.51.59zm-24.65 3.76a11.84989 11.84989 0 00-3.17-1.41c-.27.07-.53-.08-.61.2s.23.35.42.43a8.88 8.88 0 012.71 1.46c.32.32 1.06.46 1.31.15.34-.45-.37-.62-.66-.83zm-2.36-2.99c-.3.43.09.75.44.9a15.77087 15.77087 0 012.13 1 .70988.70988 0 00.31.06c.42 0 .69 0 .75-.34s-.27-.48-.54-.55a6.00025 6.00025 0 01-2.15-.93c-.22001-.17-.58001-.68-.94-.14zm4.17.85c.27.19.59.27.76-.1 0-.1 0-.17-.05-.2a16.46065 16.46065 0 00-2.84-2.19.39.39 0 00-.47.14.33.33 0 000 .51c.17.14.39.24.57.37.69.49 1.34 1 2.03 1.47zm12.74 10.35a3.26992 3.26992 0 01-1.07-.57 2.74 2.74 0 00-1.25-.6c-.19 0-.46-.1-.55.16a.48.48 0 00.23922.63527l.01078.00473a6.99991 6.99991 0 012.14 1.25c.17.17.68.25.83-.1s.16-.68-.35-.78zm-.38-1.9c-.4-.21-.46.17-.5.39 0 .47 1.41 1.4 1.9 1.34s.34-.27.21-.47a3.99985 3.99985 0 00-1.61001-1.26zm13.21-29.13a4.85 4.85 0 00-2.24 4.36 7.60983 7.60983 0 00.56 3 1.45 1.45 0 001.51 1.18 3.1 3.1 0 002.12-.39 6.44 6.44 0 002.39-6.8 2.91 2.91 0 00-4.34-1.35z"/><path d="M70.78911 118.81c-1.23.32-1.44 1.26-1.69 2.2-.11.43-.35.85.2 1.15s1-.13 1.33-.39a3.78005 3.78005 0 001.6-1.92 1.13 1.13 0 00-1.44-1.04zm7.01-62.41c-.07-.3-.35-.35-.65-.31s-.27.34-.23.52a7.136 7.136 0 01.32.91c.11.8.94 1.64-.11 2.41a.40482.40482 0 000 .46 5.34 5.34 0 01.54 3.64c0 .06-.19.34.21.41s.49-.15.6-.37a2.5606 2.5606 0 00.07-.48c.33-1.35-.63-2.62-.1-4.08.29-.88-.4-2.06-.64999-3.11zm-4.89 39.71c-.37-.11-.55.35-.69.63a1.55 1.55 0 00-.08.64 1.37 1.37 0 01-.39 1 3.08991 3.08991 0 00-.73 1.17c-.63 1.37-.76 2.91-1.73 4.16-.22.28 0 .37.28.51a2.39994 2.39994 0 00.73-.76c.68-1.24.92-2.65 1.68-3.83a4.44 4.44 0 00.92-2.67.12.12 0 010-.07c.26999-.27.44-.66.01001-.78zm-13.17 20.85a3.22 3.22 0 00-1.23 2.23q0 1.49 1.45.82c.66-.31 1.07-2.55.55-3.06a.51.51 0 00-.77.01zm1.5-17.74a8.00033 8.00033 0 01-.23-1.77c.09-.92-.47-1.72-.43-2.63a.55.55 0 00-.67-.6.53.53 0 00-.36091.65692l.00091.00308c.38 1.61.8 3.21 1.13 4.82.06.29.21.5.41.47s0-.3.06-.47a2.62774 2.62774 0 00.09001-.48zm8.43-25.02c.42.17.38-.24.45-.43.61-1.68.41-3.46.88-5.24a.39107.39107 0 00-.27-.31.35435.35435 0 00-.42.21 2.11983 2.11983 0 00-.39.88c0 1.11-.33 2.2-.23 3.31a1 1 0 01-.19.93.42.42 0 00.17.65zm-10.09 10.99c0-.48.2-.93.21-1.43 0-1.31-.65-2.58-.2-3.91.08-.23-.15-.39-.44-.42s-.48 0-.46.33a.68.68 0 01-.16.57c.33.74.06 1.56.31 2.34a7.08019 7.08019 0 01.19 2.49c0 .18 0 .38.23.4s.32-.17.32-.37zm-.68-9.52c0 .34.2.49.57.48s.36-.32.33-.53c-.16-1 .13-2 0-2.95a2.6 2.6 0 01.31-1.32c.1-.23.47-.52.14-.71s-.63.19-.86.41a.81.81 0 00-.31.65c.11.92-.35 1.81-.2 2.62.02.54.02.95.02 1.35zm14.38-15.01c0 .25-.06.55.22.6a.55.55 0 00.63-.55v-1.26c.28-1-.44-2.06-.38-3.21a.48.48 0 00-.65-.49c-.43.12-.28.48-.2.69.55001 1.38.23001 2.81.38001 4.22zm-10.06 25.35a.42.42 0 00-.49984-.32086q-.02034.00442-.04016.01087a.31961.31961 0 00-.31.42c.33 1.52.28 3.08.66 4.59.07.29.09.56.5.54s.15-.43.38-.56a12.64015 12.64015 0 01-.58-3.8 5.57943 5.57943 0 00-.11-.88001zm3.83-20.15c.28 0 .39-.15.49-.38a3.22978 3.22978 0 00.17-1.26 26.701 26.701 0 01.11-3c0-.39.12-.63-.38-.7s-.44.32-.44.59c0 1.43-.24 2.86-.14 4.3 0 .12-.19999.42.19001.45zm4.65 14.29c-.51 0-.58.27-.58.64v3.6h.11c0 .08.07.17 0 .23-.11.29-.05.68.22.71s.3-.37.37-.61a18.15014 18.15014 0 00.17-4c.05001-.18.24001-.55-.28999-.57zm-5.13 2.61a.42.42 0 00-.56.38c-.07.61.12 1.25-.13 1.7.1 1.17.2 2.2.28 3.23 0 .24 0 .42.39.41s.37-.23.33-.45a13.90024 13.90024 0 010-4.76.40007.40007 0 00-.31-.51zm11.08 18.29a.53.53 0 00.66372-.34824l.00628-.02176c.05-.27.26-.41.41-.61a5.16 5.16 0 001-3.19c-.1-.41.21-.85-.38-.78-.38 0-.44.38-.44.69a4.80991 4.80991 0 01-.3 1.82 8.73959 8.73959 0 01-1 1.76c-.16999.24-.33999.54.04001.68zm-13.75-42.71c-.08.17-.3.3-.33.47-.23 1.07-.42 2.14-.63 3.26.2.17-.2.59.26.64s.43-.35.51-.62l.93-3.39c.05-.19.25-.43-.13-.51-.16999-.05-.46999-.14-.61.15zm18.2 5.03c-.45.06-.28.53-.3.84a2.55981 2.55981 0 00.07.56 7.22029 7.22029 0 01.25 2.37.31.31 0 000 .39c.1.16-.47.46.12.53.35 0 .58-.07.64-.42 0-.15.18-.32.14-.45-.31-1 .11-2.12-.47-3.11-.14-.25.1-.78-.45-.71zm-10.46 27.13a.42.42 0 00-.52.22 2.92078 2.92078 0 00-.18.58c-.2 1.2.16 2.42-.24 3.61-.07.2-.06.52.22.55a.47.47 0 00.48957-.44958q.00044-.0102.00042-.02042a27.669 27.669 0 00.39-3.23v-.87c.00002-.27.08002-.32-.15998-.39zm1.39-1.62c-.27 0-.32.29-.3.52.06 1.06.13 2.12.18 3v1.45c0 .15 0 .27.25.26s.23 0 .27-.16a2.07 2.07 0 00.18-.53 19.79981 19.79981 0 00-.18-4.05c-.01999-.21-.08999-.53-.39999-.49zm-10.14-15.07c-.39-1.22.16-2.39.18-3.58 0-.26.21-.6-.09-.73s-.43.34-.69.49c-.07 0-.07.2-.07.3a15.86931 15.86931 0 01-.2 3v.73c0 .16-.13.6.39.55a.51.51 0 00.48-.76zm17.87-19.94c-.05.67.23 1.32.19 2 0 .27.14.75.57.67s.46-.41.39-.84a8.48975 8.48975 0 01-.26-1.94 2.63 2.63 0 00-.31-1.2c-.1-.22-.21-.4-.5-.39s-.19.33-.28.55a4.44989 4.44989 0 01.20001 1.15zm-20.83 38.48a.38.38 0 00.27-.18 1.53015 1.53015 0 00.21-.68c-.08-1-.2-2.08-.3-3.11 0-.32 0-.73-.49-.72s-.4.45-.44 1a30.60058 30.60058 0 01.55 3.42c.03.1-.02.28.2.27zm8.71-40.03c.2-.92.32-1.85.47-2.77-.16-.29.21-.78-.27-.84s-.7.33-.68.77a.43.43 0 010 .16c-.28.81-.06 1.68-.36 2.49-.09.25-.28.63.15.76s.63-.3.69-.57zm-5.09 27.1c.39 0 .39-.44.42-.68.18-1.2.28-2.42.45-3.62 0-.2 0-.31-.16-.37a.4.4 0 00-.48.11 1.01994 1.01994 0 00-.31.65c.09.84-.35 1.64-.2 2.37a4.81071 4.81071 0 000 .85c.06999.24-.24001.68.28.69zm23.3 14.6a.54.54 0 00-.42.06 1.39 1.39 0 00-.57 1.13 5.32 5.32 0 01-1.15 3.45c.72.16 1.16 0 1.3-.55.35-1.23.64-2.48.94-3.73.03-.13.06-.31-.1-.36zm.49-27.38c-.34 0-.39.36-.43.62a1.51007 1.51007 0 00.15.62c.31 1.05.91 2 .77 3.19 0 .36-.26 1 .29 1 .39 0 .31-.68.42-1-.05-1.39-.72-2.61-.91-3.92-.02-.18.17999-.56-.29-.51zm-11.2.9a.45.45 0 00.47.42c.28 0 .25-.33.26-.55a20.11866 20.11866 0 00-.86-3.5c-.06-.17 0-.5-.37-.45s-.43.26-.42.53 0 .33 0 .49c.12001 1.06.98001 1.95.92 3.06zm-.6 8.41c0 .28-.11.72.33.72s.6-.45.56-.79a11.35955 11.35955 0 00-.2-1.68c-.14-.53 0-1.09-.29-1.58-.08-.13-.05-.33-.31-.32a.41.41 0 00-.43.35 3.797 3.797 0 000 .49c.06.94.35001 1.86.34 2.81zm6.11 12.45c-.11 0-.26 0-.3.12s-.5.38-.19.72c-.44 1.27 0 2.62-.38 3.91 0 .12-.28.37 0 .46s.4-.12.5-.35c.64-1.48.24-3.06.56-4.57a.21.21 0 00-.19-.29zm3.36-21.46c-.41 0-.29.29-.28.47a8.36477 8.36477 0 010 3.38c0 .34.12.78.52.83s.4-.39.42-.66a15.27 15.27 0 00-.19-3.68.4.4 0 00-.44963-.34327zm-17.24 13.67a8.1999 8.1999 0 01.08-3.31c0-.22.24-.42-.06-.55s-.44.13-.57.27a1.7 1.7 0 00-.31.9 17.00228 17.00228 0 000 2.72c0 .3-.14.77.39.75s.52001-.56.47001-.78zm9.17-29.15c0 .15-.12.4.15.49s.43-.16.49-.34a6.89994 6.89994 0 00.45-2.43 1.72 1.72 0 00-.37-1.32c-.11-.18-.25-.45-.49-.38a.45.45 0 00-.29269.56509l.01269.0349a5.88993 5.88993 0 01.05 3.38001zm-2.6 25.3a4.27 4.27 0 00-.12-3.37c-.07-.22-.35-.57-.64-.47s-.29.54-.16.79a3.45 3.45 0 01.28 1.92 2.18006 2.18006 0 01-.07.95c-.11.22-.24.51.08.62s.49-.22.63001-.44zm6.56-.19c.34 0 .42-.19.49-.46a5.69009 5.69009 0 00.14-2v-1.52a.51.51 0 00-.34-.57c-.45-.12-.38.3-.42.46-.29 1.19.13 2.4 0 3.61.00001.07-.26999.44.13.48zm1.34 8.09a10.20016 10.20016 0 001.14-4 1.26933 1.26933 0 000-.24c0-.17.12-.44-.15-.49s-.31.23-.42.42-.1.69-.25 1c-.44.94-.31 2-.81 2.93a.39.39 0 00.19.57c.16001.08.24-.09.3-.19zm-16.9 11.02c.15-.6-.08-.79-.56-.81s-.38.3-.34.51c.16.95.36 1.89.51 2.84.05.33.11.68.54.55s.38-.41.31-.8a15.99781 15.99781 0 00-.45999-2.29zm18.37-18.79c.17.06.28-.08.37-.17a2.59 2.59 0 00.79-2.15 4.21984 4.21984 0 00-.17-1.66c-.1-.23-.2-.41-.49-.38s-.24.33-.24.51c0 1.18.23 2.38-.36 3.52a.23.23 0 00.07483.31654zm-6.44 13.08a.32.32 0 00.39-.35c-.1-.58.3-1.14.12-1.68.28-.71-.26-1.35-.1-2 .07-.29 0-.69-.44-.64s-.5.38-.42.74a20.55014 20.55014 0 01.27 3.53c.00001.19-.09999.37.18001.4zm.83-10.3c.23 0 .29-.1.39-.25a3.87006 3.87006 0 00.34-2.14c-.12-.48.17-1.08-.15-1.66-.1-.17 0-.49-.35-.43a.5.5 0 00-.41.48v.49c-.07 1 .44 2.08 0 3.13a.25.25 0 00.18.38zm-17.88-12.69c.47 0 .37-.29.35-.51a7.33014 7.33014 0 01.51-3.29c.09-.21 0-.32-.18-.4a.39.39 0 00-.5 0 2.27034 2.27034 0 00-.36.64 10.00044 10.00044 0 00-.21 3c-.16999.51.1.55.39.56zm26.54-6.01a.42.42 0 00.38.55c.39.06.45-.27.49-.46a7.00173 7.00173 0 000-1.19c.18-.62-.15-1.27-.16-1.94 0-.24.07-.51-.38-.49a.46.46 0 00-.49.55 9.31975 9.31975 0 01.16 2.98zm-3.05 33.84a.44.44 0 00-.42.09 1.24006 1.24006 0 00-.36.54c-.4 1-.24 2.18-.88 3.16-.1.15-.11.46.3.44s.35-.25.47-.44c.66-1.07.58-2.33 1-3.45a.23.23 0 00-.11-.34zm-10.25-42.37c.52 0 .53-.43.54-.78v-2.44c0-.21.14-.51-.32-.53a.5.5 0 00-.56.51 12.00121 12.00121 0 000 1.46 6.3505 6.3505 0 000 1.06c.02001.26-.31999.75.34001.72zm.34 13.23a3.82977 3.82977 0 00-.07.68 24.80653 24.80653 0 00.72 3c0 .22.09.38.38.32s.22-.19.23-.41c.07-1.23-.58-2.35-.58-3.57a.23.23 0 00-.26-.26.4.4 0 00-.41999.24zm11.54 22.85c0-.14.08-.34-.14-.42s-.37.07-.47.25a3.33017 3.33017 0 00-.33.91 8.24971 8.24971 0 01-.41 2.36c-.09.17-.44.25-.22.53a.58.58 0 00.48.17c.38 0 .45-.29.49-.48.24-1.08.42-2.2.60001-3.32zm-3.72-26.76c.09.22.16.47.45.4s.35-.31.22-.6a10.78035 10.78035 0 01-1-3.14c0-.3-.34-.35-.64-.32s-.27.29-.34.39a4.43024 4.43024 0 00.15.53c.36001.89.78001 1.79 1.16 2.74zm-11.69 27.28a11.46005 11.46005 0 00-.29-3.93.39.39 0 00-.48-.38c-.34.05-.35.27-.29.54.14.6.11 1.25.27 1.82s-.19001 1.45.79 1.95zm-.67-31.54a9.47937 9.47937 0 01-.11 1.46c-.08.35-.28.81.13.92s.51-.45.66-.76c.07-.14 0-.33 0-.48.21-.79-.15-1.59.07-2.37.06-.21.23-.41-.09-.52a.46.46 0 00-.64.38 9.75054 9.75054 0 00-.02 1.37zm-5.92 24.1c-.06-.21 0-.52-.39-.49s-.44.31-.42.63a9.52989 9.52989 0 00.63 2.46c.1.24 0 .72.51.63s.35-.54.29-.83c-.16999-.82-.40999-1.61-.61999-2.4zm23-.91a.43791.43791 0 00.48-.38 24.90677 24.90677 0 01.6-2.83c-.13-.27.18-.63-.32-.7s-.52.27-.62.54c-.37.94-.05 1.93-.29 2.88-.02999.21-.19.43.15001.49zm-15.93-29.11a.56.56 0 00.64.2.29.29 0 00.19-.46 5.68009 5.68009 0 01-.34-2.71.41.41 0 00-.36-.41c-.35-.08-.39.21-.48.38a1.65989 1.65989 0 00-.09.57 10.8201 10.8201 0 01.21 1.92c-.00999.16.16001.34.23001.51zm19.37 28.76a19.09 19.09 0 01.38-4.29 1.38 1.38 0 00-.94 1.33c0 1-.11 2-.18 3 0 .21 0 .44.27.44a.42005.42005 0 00.47-.48zm-21.52 18.81c-.23 0-.29.12-.39.25a1.23 1.23 0 00-.32.64 18.24141 18.24141 0 01-.42 2.44c-.08.3-.1.48.22.56a.42.42 0 00.57-.37l.57-3.12c-.09999-.08.12001-.34-.23-.4zm6.63.19a.88.88 0 00.52-.47c.27-.81.54-1.62.74-2.45.07-.28.18-.76-.32-.8s-.5.33-.6.68c-.24.89 0 1.88-.75 2.68-.21.25.1.33.41.36zm-9-31.26a8.99972 8.99972 0 01-.22 2.51c0 .4-.07.75.32.8s.35-.34.48-.56a1.00006 1.00006 0 00.12-.46 7.64965 7.64965 0 01.18-2.32.38.38 0 00-.39-.52c-.4-.02-.47.3-.49.55zm21.67 18.35c0-.22.32-.58-.21-.62s-.55.3-.6.63a5.67987 5.67987 0 01-.43 2.4c-.13.21-.18.56.44.55a.7.7 0 00.59-.79 15.349 15.349 0 00.21-2.17zm-24.64-30.38a1 1 0 00.59-.46c.31-.82.57-1.66.82-2.38-.07-.3.07-.54-.21-.61a.45.45 0 00-.55.31c0 .07-.09.14-.13.21-.46.85-.25 1.88-.94 2.67-.16.14.06.4.42001.26zm.08 11.91c.61 0 .53-.43.49-.76a8.10935 8.10935 0 01.25-1.91c0-.21.35-.46-.1-.57a.54.54 0 00-.68375.34011l-.00625.01989a4.38978 4.38978 0 00-.36 1.68v.39c.02.35-.10999.78.41001.81zm12.51 18.01c-.43 0-.46.59-.53.91-.16.73.09 1.52-.3 2.23-.17.3-.18.57.16.67s.56-.33.56-.5c0-.82.5-1.55.46-2.45-.13999-.24.25001-.83-.34999-.86zm-.67-1.92c.31-.06.33-.37.28-.62a11.75043 11.75043 0 01-.4-2.54.48.48 0 00-.28-.36c-.2-.07-.31.12-.39.27a.83.83 0 00-.17.67c.12.64.21 1.36.4 2.06.06.23.16.61.56.52zm-4.56-16.75c.53 0 .54-.53.55-1a4.44979 4.44979 0 01.13-1.6.6.6 0 00-.45-.81c-.56-.11-.6.53-.54.63.35.64-.13 1.21-.06 1.89.09002.29-.23998.88.37002.89zm.18 11.27c.46 0 .6-.48.56-.79a3.82016 3.82016 0 01.11-1.82.41.41 0 00-.28-.54c-.3-.11-.39.12-.53.3a2.31993 2.31993 0 00-.27 1.49 4.209 4.209 0 010 .57c-.05998.36.05002.78.41002.79zm-2.62 11.6c-.32-.09-.41.22-.44.48a7.00041 7.00041 0 00-.17 1.62v.9c0 .3.28.32.51.3s.46-.14.38-.43a5.33012 5.33012 0 01.11-2.19.52006.52006 0 00-.39-.68zm8.78 1.84a.54.54 0 00-.58886.48625l-.00113.01375a8.8392 8.8392 0 000 1.14v.9c0 .3-.14.52.32.53s.57-.19.59-.55a10.06027 10.06027 0 01.08-1.94.48.48 0 00-.36349-.5733zm2.26-11.17a.48.48 0 00-.59.47 11.8975 11.8975 0 000 1.47v1.23c0 .41 0 .59.45.58s.27-.36.28-.56v-2.64c-.03999-.19.43001-.45-.13999-.55zm11.3 4.18a.33.33 0 00-.41.33 19.70918 19.70918 0 01-.57 3c0 .19 0 .42.22.48a.41.41 0 00.45-.31c0-1 .63-1.78.63-2.54-.02999-.48.09001-.83-.31998-.96zm-25.66 5.92c-.15.5.13.92.2 1.36a.40142.40142 0 00.52.42c.38-.11.44-.35.25-.64a1.62 1.62 0 01-.15-1.13c0-.45.32-.84.27-1.28 0-.13 0-.29-.15-.34s-.33-.05-.38.11c-.15.52-.87999.87-.55999 1.5zm4.16 3.91c0-.21.17-.53-.23-.6s-.48.28-.6.51a1.79966 1.79966 0 00-.1.6c.07.49.14.94.19 1.39 0 .28-.09.74.35.7a.7.7 0 00.5-.82 9.46969 9.46969 0 01-.10998-1.78zm16.36-11.86a5.68 5.68 0 01-.27 2c.32.24 0 .88.51.87s.45-.53.45-.91v-1.87c0-.21.34-.46-.08-.58s-.55998.26-.60998.49zm-20.04 17.88c0-.25 0-.55-.35-.55a.56.56 0 00-.56.54v.81a3.43019 3.43019 0 000 .89.67.67 0 00.81.49c.46-.08.31-.48.22-.66a3.80987 3.80987 0 01-.11998-1.52zm6.34-55.11c.46 0 .26-.35.29-.56.07-.61-.58-1-.55-1.64 0-.24-.08-.58-.47-.56s-.42.37-.43.67c0 .59.54 1.06.55 1.66.02.31.28.43.61001.43zm7 24.48a13.66032 13.66032 0 00.17 2.86.29594.29594 0 00.26.3c.13 0 .26-.17.29-.35a3.37008 3.37008 0 00.07-1.4 8.06264 8.06264 0 00-.07-1.4.35.35 0 00-.4-.35.36.36 0 00-.31999.34zm-7-9.26a.7.7 0 000 .52 6.83993 6.83993 0 00.38 2 .41.41 0 00.49.28.21.21 0 00.2-.29 14.36 14.36 0 01-.33-2.48c0-.24-.12-.33-.38-.33s-.26.08-.35999.3zm-4.18 14.52c.71-.08.12-.72.35-1-.09-.47.08-.93-.17-1.37-.1-.17-.09-.37-.39-.32a.4.4 0 00-.37.4 4.126 4.126 0 000 1.36c.15001.36-.16 1.01.58001.93zm2.3-28.84c-.28-.86-1.09-1.41-.95-2.31.06-.42-.31-.28-.55-.16-.66.35-.24.88-.1 1.22.25001.59.48001 1.4 1.60001 1.25zm15.88 12.73c0-.18-.06-.32-.3-.31s-.39 0-.41.21a6.11992 6.11992 0 00.7 3.19 9.70974 9.70974 0 00.01001-3.09zm2.82 31.57c-.55 0-.43.46-.45.79a3 3 0 01-.48 2.19 1 1 0 00.93-.44 2.68 2.68 0 00.28-1.74c0-.27.19001-.76-.27999-.8zm-21.94-35.72a.68.68 0 00-.39-.29c-.11 0-.23.14-.25.29-.13.79-.27 1.57-.42 2.48a2.13 2.13 0 001.06-2.48zm10.19-11.71c0-.21.16-.52-.3-.56s-.57.29-.59.56v2a1.66 1.66 0 00.89001-2zm3.19 26.13a.33.33 0 00.41.33.4.4 0 00.33-.53q-.18-.78-.34-1.55c-.06-.28-.07-.67-.48-.64s-.31.41-.24.76c-.24998.54.31001 1.04.32001 1.63zm-4.34-14.62c0 .33 0 .71.49.68s.42-.38.42-.67v-.32c0-.44.06-1-.51-1.05s-.28.62-.41.9.01.33.01.46zm-4.05-2.08c-.6 0-.21.51-.32.77a.63.63 0 000 .24v.65c0 .22 0 .66.49.59s.44-.39.42-.7-.17-.5-.19-.77.3-.81-.4-.78z"/><path d="M38.75911 20.1h14.58a3.18 3.18 0 001-2.2 2.48008 2.48008 0 00-1-1.8h-14.17" class="cls-2"/><path d="M2.18457 151.77355h3.085v12.10938h7.37158v2.65429H2.18457zm16.62402 8.12305a4.53315 4.53315 0 001.14014-.25.85938.85938 0 00.61523-.81152.95961.95961 0 00-.47167-.92676 2.991 2.991 0 00-1.38624-.25488 1.82175 1.82175 0 00-1.45166.5 2.068 2.068 0 00-.40625 1.002h-2.75439a4.178 4.178 0 01.80469-2.35352q1.13671-1.44287 3.90332-1.44238a6.96494 6.96494 0 013.19873.71094 2.72851 2.72851 0 011.39844 2.68457v5.00781q0 .52149.02 1.26172a1.593 1.593 0 00.16992.76172 1.02378 1.02378 0 00.4209.33008v.42089h-3.105a3.17112 3.17112 0 01-.18018-.62109q-.05053-.29-.08008-.66113a5.90749 5.90749 0 01-1.37012 1.0918 4.14653 4.14653 0 01-2.0957.53125 3.61577 3.61577 0 01-2.46338-.84668 3.00979 3.00979 0 01-.97217-2.39844 3.1082 3.1082 0 011.564-2.915 6.99161 6.99161 0 012.52246-.70117zm1.74561 1.332a3.2112 3.2112 0 01-.55371.27539 4.59583 4.59583 0 01-.7666.19531l-.64942.12012a4.28817 4.28817 0 00-1.312.39063 1.30481 1.30481 0 00-.6748 1.21191 1.26674 1.26674 0 00.41211 1.05664 1.56128 1.56128 0 001.002.32617 2.98483 2.98483 0 001.72363-.541 2.292 2.292 0 00.81885-1.97364zm14.66064-4.29684a6.2773 6.2773 0 011.22461 4.00683 7.01986 7.01986 0 01-1.208 4.2168 3.92326 3.92326 0 01-3.37256 1.67187 3.93209 3.93209 0 01-2.18457-.54 4.35659 4.35659 0 01-1.06739-1.12207v1.37207h-2.81445v-14.7432H28.647v5.24805a4.17952 4.17952 0 011.19968-1.16211 3.5803 3.5803 0 011.97559-.501 4.08127 4.08127 0 013.39257 1.55276zm-2.38623 6.65039a4.04294 4.04294 0 00.61621-2.34375 5.24063 5.24063 0 00-.30322-1.92285 2.11024 2.11024 0 00-2.1206-1.44239 2.14112 2.14112 0 00-2.15088 1.41211 5.25775 5.25775 0 00-.30323 1.94336 4.0432 4.0432 0 00.62647 2.32422 2.14834 2.14834 0 001.9082.9209 1.9795 1.9795 0 001.72705-.8916zm12.70801-7.74121a4.43968 4.43968 0 011.88672 1.61523 5.36113 5.36113 0 01.86966 2.25683 13.90212 13.90212 0 01.09424 2.167h-7.95169a2.621 2.621 0 001.1416 2.30371 2.90394 2.90394 0 001.57422.41016 2.21743 2.21743 0 002.17236-1.252h2.91455a3.56577 3.56577 0 01-1.05859 1.97364 5.304 5.304 0 01-4.10694 1.59179 5.9511 5.9511 0 01-3.8457-1.34277 5.292 5.292 0 01-1.666-4.3711 5.914 5.914 0 011.5039-4.35058 5.26481 5.26481 0 013.9043-1.51367 6.21875 6.21875 0 012.56737.51176zm-4.27051 2.46582a2.968 2.968 0 00-.76025 1.69043h4.918a2.38462 2.38462 0 00-.76074-1.72559 2.50068 2.50068 0 00-1.69288-.58887 2.26327 2.26327 0 00-1.70413.62403zm11.47901 8.23046h-2.8545v-14.76367h2.8545zm10.9375-4.55761a2.99883 2.99883 0 00.5625 1.51269 3.27814 3.27814 0 002.6289.91114 5.67045 5.67045 0 001.81055-.24024 1.71775 1.71775 0 001.31836-1.71289 1.26116 1.26116 0 00-.64648-1.13184 7.00848 7.00848 0 00-2.04883-.69042l-1.59961-.35059a9.96694 9.96694 0 01-3.23682-1.13184 3.60039 3.60039 0 01-1.49267-3.19531 4.242 4.242 0 011.46-3.29492 6.22171 6.22171 0 014.28906-1.3125 6.57971 6.57971 0 014.03125 1.2373 4.39963 4.39963 0 011.748 3.59082H69.542a2.11207 2.11207 0 00-1.1914-1.89355 4.07748 4.07748 0 00-1.83789-.37012 3.50189 3.50189 0 00-1.95118.48047 1.5194 1.5194 0 00-.72851 1.3418 1.26779 1.26779 0 00.71875 1.18261 9.00591 9.00591 0 001.96094.61036l2.59179.61132a6.58425 6.58425 0 012.55274 1.07129 3.612 3.612 0 011.32031 3.01465 4.2369 4.2369 0 01-1.56445 3.36133 6.604 6.604 0 01-4.418 1.33691 7.22528 7.22528 0 01-4.58643-1.31738 4.35768 4.35768 0 01-1.67041-3.62109zm10.10644-4.22656v-2.03321h1.52246v-3.04492h2.8252v3.04492h1.77246v2.03321h-1.77246v5.76953a1.30064 1.30064 0 00.16992.83593 1.87444 1.87444 0 001.042.165c.08594 0 .17871-.001.27539-.00488a6.7022 6.7022 0 00.28516-.01465v2.13379l-1.35254.04981a3.62838 3.62838 0 01-2.76367-.70118 2.08394 2.08394 0 01-.48145-1.51269v-6.7207zm10.79785-2.13282v6.58008a3.47208 3.47208 0 00.21875 1.40234 1.51781 1.51781 0 001.52539.83106 1.99156 1.99156 0 001.99317-1.18164 4.30536 4.30536 0 00.2793-1.69238v-5.93946h2.89453v10.917h-2.77442v-1.542c-.02636.03321-.09375.13282-.20019.29981a1.9812 1.9812 0 01-.37891.44043 3.96868 3.96868 0 01-1.29394.82226 4.40437 4.40437 0 01-1.46289.21973 3.25979 3.25979 0 01-3.25586-1.74219 6.67923 6.67923 0 01-.46973-2.835v-6.58008zm15.47364.17477a3.45449 3.45449 0 011.25195 1.207v-5.208h2.8945v14.74316h-2.77441v-1.51269a4.01336 4.01336 0 01-1.3916 1.41211 3.91021 3.91021 0 01-1.94336.44141 4.05449 4.05449 0 01-3.21973-1.54786 5.93886 5.93886 0 01-1.30762-3.97168 6.83241 6.83241 0 011.28711-4.39648 4.18777 4.18777 0 013.44043-1.60254 3.52363 3.52363 0 011.76273.43557zm.70117 7.77734a3.9804 3.9804 0 00.63086-2.334 3.58091 3.58091 0 00-1.01074-2.86426 2.18306 2.18306 0 00-1.44239-.52051 2.00469 2.00469 0 00-1.83789.94629 5.10392 5.10392 0 00.00977 4.76758 2.0157 2.0157 0 001.80762.90625 2.10872 2.10872 0 001.84277-.90131zm8.97461-9.25484h-2.89453v-2.63379h2.89453zm-2.89453 1.30273h2.89453v10.917h-2.89453zm14.76367 9.58106a6.01494 6.01494 0 01-8.39356 0 6.77515 6.77515 0 010-8.20117 5.9543 5.9543 0 018.39356 0 6.77133 6.77133 0 010 8.20117zm-2.2832-1.57715a5.09773 5.09773 0 000-5.05567 2.5364 2.5364 0 00-3.85157 0 5.06572 5.06572 0 000 5.05567 2.52915 2.52915 0 003.85157 0z"/></svg>