<svg xmlns="http://www.w3.org/2000/svg" role="img" viewBox="-4.98 -4.98 284.70 71.20"><title>Labelbox logo</title><path d="M8.69531 5.71875v46.58203h15.96094V60H.50391V5.71875h8.1914zm44.56094 20.03906h7.94531V60h-7.94531v-3.58594c-3.25783 3.0469-6.7617 4.57032-10.51172 4.57032-4.7344 0-8.64842-1.71092-11.74219-5.13282-3.07032-3.4922-4.60546-7.85153-4.60546-13.07812 0-5.13284 1.53514-9.41014 4.60546-12.83203 3.07033-3.4219 6.91404-5.13282 11.53125-5.13282 3.9844 0 7.55858 1.64061 10.72266 4.92188V25.7578zM34.48281 42.77344c0 3.28126.8789 5.95311 2.63672 8.01562 1.8047 2.08595 4.07811 3.1289 6.82031 3.1289 2.9297 0 5.29687-1.0078 7.10157-3.02343 1.8047-2.08595 2.70703-4.73436 2.70703-7.94531 0-3.21095-.90234-5.85937-2.70703-7.94531-1.8047-2.03908-4.14843-3.0586-7.03125-3.0586-2.71877 0-4.99218 1.03124-6.82032 3.09375-1.8047 2.08595-2.70703 4.66405-2.70703 7.73438zM76.1961.62109v29.10938c3.16408-3.28127 6.74998-4.92188 10.75782-4.92188 4.6172 0 8.46092 1.72264 11.53125 5.16797 3.07032 3.4219 4.60546 7.68748 4.60546 12.79688 0 5.27346-1.54685 9.6328-4.64062 13.07812-3.07033 3.4219-6.9492 5.13282-11.63672 5.13282-3.96096 0-7.49998-1.52343-10.61719-4.57032V60h-7.91015V.6211h7.91015zM95.0047 43.125c0-3.28127-.89062-5.95312-2.67188-8.01563-1.8047-2.10938-4.06639-3.16406-6.78515-3.16406-2.90627 0-5.27343 1.01952-7.10157 3.0586-1.8047 2.01563-2.70703 4.6406-2.70703 7.875 0 3.32814.89062 5.98827 2.67188 7.98047 1.78126 2.03907 4.12498 3.05859 7.03125 3.05859 2.7422 0 5.01561-1.01952 6.82031-3.0586 1.82813-2.0625 2.74219-4.6406 2.74219-7.73437zm44.73672 1.61719h-24.53907c.21094 2.81251 1.125 5.05077 2.7422 6.71484 1.61719 1.64063 3.69138 2.46094 6.22265 2.46094 1.96876 0 3.59765-.46875 4.88672-1.40625 1.26563-.9375 2.70702-2.67186 4.32422-5.20313l6.67968 3.72657c-1.03125 1.75782-2.12109 3.26366-3.26953 4.51757-1.14844 1.25392-2.3789 2.28516-3.6914 3.09375-1.31251.8086-2.73047 1.4004-4.25391 1.7754-1.52345.375-3.17577.5625-4.95703.5625-5.1094 0-9.21093-1.64061-12.30469-4.92188-3.09377-3.3047-4.64062-7.68747-4.64062-13.14844 0-5.41409 1.49998-9.79686 4.5-13.14843 3.02345-3.3047 7.03122-4.95704 12.02343-4.95704 5.03909 0 9.02342 1.60546 11.95313 4.81641 2.90626 3.18752 4.35937 7.60544 4.35937 13.2539l-.03515 1.86329zm-8.1211-6.46875c-1.10157-4.21877-3.7617-6.32813-7.98047-6.32813-.96094 0-1.86327.14648-2.70703.43946-.84375.29297-1.61132.71484-2.30273 1.26562-.69141.55078-1.2832 1.21289-1.7754 1.98633-.49218.77344-.86718 1.65234-1.125 2.63672h15.89063zM153.4.62109V60h-7.91016V.6211H153.4zm15.02969 0v29.10938c3.16408-3.28127 6.74998-4.92188 10.75781-4.92188 4.61721 0 8.46092 1.72264 11.53125 5.16797 3.07033 3.4219 4.60547 7.68748 4.60547 12.79688 0 5.27346-1.54686 9.6328-4.64063 13.07812-3.07032 3.4219-6.9492 5.13282-11.63672 5.13282-3.96095 0-7.49998-1.52343-10.61718-4.57032V60h-7.91016V.6211h7.91016zm18.8086 42.50391c0-3.28127-.89063-5.95312-2.67188-8.01563-1.8047-2.10938-4.0664-3.16406-6.78516-3.16406-2.90627 0-5.27343 1.01952-7.10156 3.0586-1.8047 2.01563-2.70703 4.6406-2.70703 7.875 0 3.32814.89061 5.98827 2.67187 7.98047 1.78126 2.03907 4.12499 3.05859 7.03125 3.05859 2.7422 0 5.01562-1.01952 6.82031-3.0586 1.82814-2.0625 2.7422-4.6406 2.7422-7.73437zm11.93593-.49219c0-4.94533 1.76951-9.15232 5.3086-12.6211 3.53907-3.46876 7.85153-5.20312 12.9375-5.20312 5.1094 0 9.44529 1.74608 13.0078 5.23829 3.51565 3.4922 5.27344 7.78122 5.27344 12.86718 0 5.13284-1.76951 9.43358-5.3086 12.90235-3.56251 3.44533-7.93356 5.16797-13.11327 5.16797-5.13284 0-9.43358-1.7578-12.90235-5.27344-3.46876-3.46877-5.20312-7.8281-5.20312-13.07813zm8.08594.14063c0 3.42189.91405 6.1289 2.74218 8.1211 1.87501 2.01563 4.34764 3.02343 7.41797 3.02343 3.09377 0 5.5664-.99609 7.41797-2.98828 1.85157-1.9922 2.77734-4.65233 2.77734-7.98047 0-3.32814-.92577-5.98827-2.77734-7.98047-1.875-2.01563-4.34764-3.02344-7.41797-3.02344-3.02345 0-5.47265 1.0078-7.34765 3.02344-1.87501 2.01563-2.8125 4.61717-2.8125 7.80469zm42.80312-1.30078L237.7586 25.7578h9.42188l7.6289 9.98438 7.76954-9.98438h9.70312l-12.65625 15.71485L274.28594 60h-9.42188l-10.05469-12.79688L244.5086 60h-9.66797l15.22266-18.52734z" fill="#4A4A4A" fill-rule="evenodd"/></svg>