<svg xmlns="http://www.w3.org/2000/svg" role="img" viewBox="-15.12 -15.62 812.24 199.24"><title>Nebula Graph logo</title><defs><linearGradient id="a" x1="6.427%" x2="93.573%" y1="2.133%" y2="80.6%"><stop offset="0%" stop-color="#1D9FF6"/><stop offset="100%" stop-color="#22BAF7"/></linearGradient><linearGradient id="b" x1="11.232%" x2="138.768%" y1="68.361%" y2="115.913%"><stop offset="0%" stop-color="#21B5F7"/><stop offset="100%" stop-color="#27D4F9"/></linearGradient></defs><g fill="none" fill-rule="evenodd"><path fill="url(#a)" fill-rule="nonzero" d="M90.53942 14.40363c-28.78294-11.57012-56.44551-9.02081-71.4552 7.64914-19.41278 21.56007-12.95738 61.4437 15.54062 94.75756 1.25654 1.46887 1.0844 3.67825-.38448 4.93479-1.46887 1.25653-3.67825 1.0844-4.93479-.38448C-1.22635 85.66916-8.29466 41.99876 13.88221 17.36885 29.80474-.3149 57.19324-4.12317 85.9175 5.27465c.86845.17112 1.8813.4222 3.03853.75324 7.49035 2.1427 13.68568 3.31825 18.586 3.52663C108.6294 9.19473 109.79196 9 111 9c6.07513 0 11 4.92487 11 11s-4.92487 11-11 11c-2.56522 0-4.92536-.87808-6.79624-2.35006l-.06074.17536a66.20263 66.20263 0 00-.29376-.4664c-1.39858-1.19755-2.49308-2.74-3.1517-4.49558-3.12366-4.02422-6.5097-7.17745-10.15814-9.45969z"/><path fill="url(#b)" fill-rule="nonzero" d="M64.3423 142.83937c34.9176 22.92973 73.98051 25.18624 93.13631 3.91157 22.2972-24.76354 10.06788-73.01844-28.24043-107.5114-2.0495-1.84538-4.14113-3.62193-6.27049-5.327-1.50887-1.20822-1.7526-3.41085-.54438-4.91972 1.20821-1.50887 3.41085-1.7526 4.91972-.54439 2.23475 1.78946 4.42927 3.65342 6.57906 5.5891 40.84338 36.77555 54.13338 89.21571 28.75854 117.39733-20.92933 23.24437-61.02099 22.054-97.34426.28797-.53526-.25554-1.1129-.5479-1.73293-.87707-8.52042-4.52349-15.407-7.18373-20.65977-7.9807l.03085-.05115C37.8669 141.86322 34 137.3832 34 132c0-6.07513 4.92487-11 11-11 5.82798 0 10.59738 4.5323 10.9758 10.2645 2.31896 4.71425 5.1078 8.57254 8.3665 11.57487z"/><path fill="#1EA3F6" fill-rule="nonzero" d="M43 45c2.76142 0 5-2.23858 5-5s-2.23858-5-5-5-5 2.23858-5 5 2.23858 5 5 5zm15.10124-12.39259c-2.4458.92192-3.81437 3.2803-4.10573 7.07516C53.9985 39.788 54 39.89383 54 40c0 .40114-.02147.79727-.06333 1.18729a24.14136 24.14136 0 00-.00027.11372l-.01094-.01354C53.28795 46.75596 48.6396 51 43 51c-6.07513 0-11-4.92487-11-11s4.92487-11 11-11c.34557 0 .68742.01594 1.02485.04711L44 29.01638c2.22332.29227 4.8122.06721 7.76666-.67517 17.75502-7.26564 44.86398 1.1964 66.84224 20.9857 16.51269 14.8681 27.2001 33.49647 28.93366 49.94292.15168 1.43897.23365 2.85483.24507 4.24365.01362 1.6568-1.31843 3.01094-2.97523 3.02456-1.6568.01363-3.01095-1.31843-3.02457-2.97522-.0098-1.19272-.08059-2.41528-.21221-3.66404-1.56583-14.85518-11.50327-32.17633-26.9815-46.113C95.8722 36.9285 73.46618 29.02312 58.10124 32.60742zM139 127c2.76142 0 5-2.23858 5-5s-2.23858-5-5-5-5 2.23858-5 5 2.23858 5 5 5zm-15.97133.2507c2.80694-.91816 4.46407-2.65654 4.97139-5.21514A11.3877 11.3877 0 01128 122c0-6.07513 4.92487-11 11-11s11 4.92487 11 11-4.92487 11-11 11c-1.51276 0-2.9542-.30537-4.26603-.85782-2.19359-.58076-4.2171-.60832-6.07051-.08269l-.03973-.00784c-17.8379 5.65212-43.52725-3.02236-64.44131-21.85346C47.72918 95.38362 37.05745 76.83442 35.26715 60.4268c-.17972-1.64708 1.00981-3.128 2.6569-3.30771 1.64707-.17972 3.12798 1.0098 3.3077 2.65689 1.61774 14.82617 11.54183 32.07584 26.96545 45.96333 17.95539 16.1671 39.42737 24.20578 54.83147 21.51139z"/><path fill="#1D9BF6" d="M74 89.60674v-4.80117h9.36264v4.80117H74zm0 2.40059h9.36264V98H74v-5.99267zm20.02864-2.40059l-3.7502-4.80117h19.66881v4.80117H94.02864zm1.8751 2.40059h14.04351V98h-9.36263l-4.68089-5.99267zM74 82.40498v-4.80117h9.36264v4.80117H74zm14.40334 0l-3.7502-4.80117h10.91224l3.75469 4.80117H88.40334zm21.54391 0h-9.36263v-4.80117h9.36263v4.80117zM74 75.20322v-4.80117h15.93334l3.7547 4.80117H74zm35.94725 0h-9.36263v-4.80117h9.36263v4.80117zM74 68.00147V62h9.36264l4.69336 6.00147H74zm26.58461 0V62h9.36264v6.00147h-9.36263z"/><g><path fill="#1D9BF6" d="M273.89746 105.00586h-15.60059L229.6006 68.26758v36.73828H214V45.0205h15.60059l28.69628 36.69433V45.02051h15.6006v59.98535zm53.94623-17.7539h-30.32226c0 6.12307 2.95895 9.18456 8.87695 9.18456 3.0176 0 5.33202-1.28905 6.94336-3.86718h13.93066c-1.11328 3.69142-2.7539 6.54784-4.92187 8.56933-3.9258 3.66213-9.18454 5.49317-15.77637 5.49317-8.37895 0-14.67771-2.5488-18.89648-7.64649-3.16408-3.80861-4.7461-8.45212-4.7461-13.93066 0-6.50394 1.97752-11.79197 5.93262-15.86426 3.9551-4.07229 9.5361-6.1084 16.74316-6.1084 8.877 0 15.21971 3.22263 19.02832 9.66797 2.13869 3.63283 3.20801 7.85154 3.20801 12.65625v1.8457zm-13.44726-8.26173c-1.0254-4.51174-3.76463-6.76757-8.21778-6.76757-2.46095 0-4.45311.71776-5.97656 2.15332-1.20118 1.14258-1.96289 2.68065-2.28516 4.61425h16.4795zm68.71185 5.58106c0 6.8555-2.35837 12.36326-7.0752 16.52344-3.95509 3.48634-8.46676 5.22949-13.53515 5.22949-3.13478 0-5.9326-.68847-8.39355-2.06543-1.49415-.82032-2.88574-2.08007-4.1748-3.7793v4.52637H335.5155V39h14.41406v29.22363c1.55274-1.61133 3.06152-2.76855 4.52637-3.47168 2.54884-1.23047 5.27342-1.8457 8.17383-1.8457 4.9805 0 9.38963 1.65526 13.22754 4.96582 4.834 4.16018 7.25097 9.72653 7.25097 16.69922zm-14.98535.04394c0-2.25587-.74706-4.26268-2.2412-6.0205-1.84572-2.16798-4.2041-3.25196-7.0752-3.25196-2.57814 0-4.77539.90087-6.5918 2.70264-1.81642 1.80177-2.72461 3.99169-2.72461 6.56982 0 2.57814.9082 4.76806 2.7246 6.56983 1.81642 1.80177 4.01367 2.70264 6.5918 2.70264 2.90041 0 5.25878-1.08398 7.0752-3.25196 1.49415-1.78712 2.24121-3.79393 2.24121-6.0205zm66.11909 5.49317c0 7.58793-3.58884 12.62694-10.7666 15.11719-2.9883 1.0254-6.63573 1.53808-10.94239 1.53808-8.46684 0-14.54588-2.08006-18.2373-6.24023-2.34377-2.63673-3.51563-6.10838-3.51563-10.41504V64.2246h14.41406v23.11524c0 2.54884.61523 4.42383 1.8457 5.625 1.31837 1.28907 3.1494 1.9336 5.49317 1.9336 2.31446 0 4.13085-.64453 5.44922-1.9336 1.23047-1.20117 1.8457-3.07616 1.8457-5.625V64.22461h14.41406V90.1084zm23.6679 14.89746h-14.41406V39h14.41407v66.00586zm55.2646 0h-14.41407v-4.52637c-1.37696 1.72853-2.76854 2.98828-4.1748 3.7793-2.46095 1.37696-5.25877 2.06543-8.39355 2.06543-5.06839 0-9.58006-1.74315-13.53516-5.2295-4.71682-4.16017-7.0752-9.66793-7.0752-16.52343 0-6.9727 2.41697-12.53904 7.25098-16.69922 3.83791-3.31056 8.24705-4.96582 13.22754-4.96582 2.9004 0 5.62499.61523 8.17383 1.8457 1.46485.70313 2.97362 1.86035 4.52636 3.47168v-3.99902h14.41407v40.78125zM499.1999 84.61523c0-2.57813-.9082-4.76805-2.72461-6.56982-1.81642-1.80177-4.01366-2.70264-6.5918-2.70264-2.8711 0-5.22948 1.08398-7.0752 3.25196-1.49414 1.75782-2.2412 3.76463-2.2412 6.0205 0 2.25587.74706 4.2627 2.2412 6.02051 1.81642 2.16798 4.1748 3.25196 7.0752 3.25196 2.60744 0 4.812-.89355 6.61377-2.68067 1.80177-1.78712 2.70264-3.98436 2.70264-6.5918z"/><path fill="#FFF" d="M583.8418 71.69531c0 6.50394-.73242 11.80662-2.19727 15.9082-2.22657 6.24027-5.9033 11.04491-11.03027 14.41407-4.9512 3.22267-10.81051 4.83398-17.57813 4.83398-11.01568 0-19.46774-3.74996-25.35644-11.25C523.22654 89.91794 521 83.13578 521 75.25488c0-8.73051 2.6074-16.0693 7.82227-22.0166 5.918-6.76761 14.17963-10.15137 24.78515-10.15137 7.08988 0 13.09568 1.8164 18.01758 5.44922 3.51564 2.57814 6.51854 6.3867 9.00879 11.42578l-14.80957 6.1084c-1.25977-2.81251-2.7246-4.92187-4.39453-6.32812-2.40236-1.9922-5.25878-2.98828-8.56934-2.98828-6.76761 0-11.48436 3.50094-14.15039 10.50293-.9961 2.57813-1.49414 5.24412-1.49414 7.99804 0 5.71292 1.80174 10.47362 5.40527 14.28223 2.66603 2.84181 6.22557 4.2627 10.67872 4.2627 3.9551 0 7.08983-1.15722 9.4043-3.47169 1.52344-1.52344 2.51952-3.77928 2.98827-6.76757H552.9043V71.6953h30.9375zm38.49713 5.84473c-2.0215-.9668-4.07226-1.4502-6.15235-1.4502-4.74612 0-7.82226 1.93358-9.22852 5.80079-.52734 1.40625-.79101 3.29588-.79101 5.66894v17.44629h-14.41406V64.2246h14.41406v6.67969c1.52344-2.37306 3.16405-4.08691 4.92188-5.1416 2.37305-1.40626 5.18552-2.10938 8.4375-2.10938.76172 0 1.6992.04395 2.8125.13184v13.75488zm51.7686 27.46582h-14.41406v-4.52637c-1.37696 1.72853-2.76854 2.98828-4.1748 3.7793-2.46095 1.37696-5.25877 2.06543-8.39356 2.06543-5.06838 0-9.58005-1.74315-13.53515-5.2295-4.71682-4.16017-7.0752-9.66793-7.0752-16.52343 0-6.9727 2.41697-12.53904 7.25098-16.69922 3.8379-3.31056 8.24705-4.96582 13.22754-4.96582 2.9004 0 5.62499.61523 8.17383 1.8457 1.46485.70313 2.97362 1.86035 4.52636 3.47168v-3.99902h14.41407v40.78125zm-13.9746-20.39063c0-2.57813-.9082-4.76805-2.72461-6.56982-1.81642-1.80177-4.01366-2.70264-6.5918-2.70264-2.8711 0-5.22948 1.08398-7.0752 3.25196-1.49414 1.75782-2.2412 3.76463-2.2412 6.0205 0 2.25587.74706 4.2627 2.2412 6.02051 1.81642 2.16798 4.1748 3.25196 7.0752 3.25196 2.60744 0 4.812-.89355 6.61377-2.68067 1.80177-1.78712 2.70264-3.98436 2.70264-6.5918zm70.79693.04395c0 6.9727-2.41697 12.53904-7.25098 16.69922-3.8379 3.31056-8.24704 4.96582-13.22754 4.96582-2.9004 0-5.62498-.61523-8.17382-1.8457-1.46485-.70313-2.97363-1.86035-4.52637-3.47168v24.38964h-14.41406V64.22461h14.41406v4.52637c1.28907-1.69923 2.68066-2.95898 4.1748-3.7793 2.46095-1.37696 5.25878-2.06543 8.39356-2.06543 5.06838 0 9.58006 1.74315 13.53515 5.2295 4.71683 4.16017 7.0752 9.66793 7.0752 16.52343zm-14.98535-.04395c0-2.31446-.73242-4.32128-2.19727-6.0205-1.84571-2.16798-4.21873-3.25196-7.11914-3.25196-2.60743 0-4.812.89355-6.61377 2.68067-1.80176 1.78712-2.70263 3.98436-2.70263 6.5918 0 2.57813.90819 4.76805 2.7246 6.56982 1.81642 1.80177 4.01366 2.70264 6.5918 2.70264 2.9004 0 5.25878-1.08398 7.0752-3.25196 1.49415-1.75782 2.2412-3.76464 2.2412-6.0205zm65.61138 20.39063h-14.41406v-20.6543c0-3.63283-.41015-6.03515-1.23047-7.20703-1.20118-1.72852-3.00292-2.59277-5.40527-2.59277-2.22658 0-4.07226.74706-5.53711 2.2412-1.34766 1.37697-2.02148 3.50097-2.02148 6.37208v21.84082h-14.41407V39h14.41407v30.36621c1.66993-1.9336 3.208-3.2959 4.61425-4.08691 2.31447-1.31837 5.17088-1.97754 8.56934-1.97754 4.33596 0 7.91014 1.20116 10.72266 3.60351 3.13478 2.69533 4.70214 6.73826 4.70214 12.12891v25.97168z"/></g></g></svg>