<svg xmlns="http://www.w3.org/2000/svg" role="img" viewBox="-5.05 -4.80 249.86 177.61"><title>O-DEF logo</title><path fill="#007F9E" fill-rule="evenodd" d="M97.76778 106.751h-24.423l.532-2.028c6.371-.385 7.222-.579 8.921-4.148l22.424-51.966c-5.096 2.41-9.207 6.128-12.818 10.177l-1.326-1.21c2.09-2.514 6.75-7.983 15.069-11.953 3.932-1.875 8.55-2.76 12.945-2.636 10.403.3 15.738 6.586 15.738 15.456 0 17.547-17.2 28.631-26.969 28.631-2.973 0-7.968-1.057-10.093-2.986-.851 2.598-7.324 16.583-7.324 18.031 0 2.407 4.886 2.598 8.07 2.598zm8.5-21.5c11.572 0 20.811-20.152 20.811-28.83 0-7.713-4.465-11.546-12.764-10.289l-15.591 36.129c1.912 1.636 4.886 2.99 7.544 2.99zm60.28-11.28c-3.821 5.683-10.833 13.106-18.794 13.106-6.158 0-9.663-3.953-9.663-9.445 0-11.279 16.139-34.327 29.63-34.327 3.821 0 7.432 1.83 7.432 5.69 0 9.352-19.753 17.158-26.653 20.434-1.275 1.74-2.655 8.101-2.655 9.836 0 2.506.634 4.826 3.821 4.826 6.049 0 12.216-7.038 15.508-11.09zm3.187-25.744c0-1.64-.535-3.088-2.658-3.088-1.906 0-4.245 1.544-5.514 2.604-4.997 3.858-10.093 13.494-12.216 19.183 6.368-2.884 20.388-11.66 20.388-18.7zm5.539 37.797c2.018-5.212 16.669-33.554 16.669-36.734 0-.582-.105-1.643-.635-1.643-2.441 0-7.862 7.908-11.365 11.569l-1.587-.77c3.292-4.53 11.043-15.138 17.727-15.138 2.447 0 2.976 2.124 2.976 3.954 0 4.148-4.675 12.728-6.584 16.389l.217.194c4.245-6.074 15.393-20.537 24.314-20.537 3.292 0 5.204 1.255 5.204 4.34 0 6.169-15.288 31.235-15.288 33.648 0 .478.21.965.848.965 2.017 0 9.026-7.424 10.195-9.066l1.489 1.063c-2.764 4.148-12.318 12.82-17.947 12.82-1.488 0-2.763-1.449-2.763-2.891 0-4.626 15.61-30.271 15.61-34.61 0-.87-.318-2.025-1.593-2.025-9.66 0-26.654 29.405-30.16 38.468h-7.327zm-30.716 34.915c0 1.182.171 2.063.815 2.368.101.134.101.407-.036.507-.374 0-.985.101-1.629.269-2.105.475-4.648.917-6.586.917-4.069 0-7.905-1.085-10.45-3.723-2.004-2.067-2.989-4.907-2.989-7.753 0-2.84.985-5.751 3.124-7.952 2.408-2.538 6.106-3.992 10.828-3.992 1.594 0 3.324.27 4.513.509.779.168 1.764.303 2.171.303.035 1.016.273 2.741.443 5.381-.17.338-.919.374-1.088.069-.745-3.282-3.153-4.907-6.516-4.907-5.972 0-8.855 4.297-8.855 10.048 0 2.709.61 5.62 2.443 7.786 1.833 2.164 4.547 2.876 6.55 2.876 1.63 0 2.611-.273 3.019-.777.204-.305.305-.913.305-2.133v-1.217c0-2.405-.032-2.607-2.309-2.98l-1.22-.204c-.236-.235-.236-.812.031-.982 1.324.069 2.957.101 5.296.101a80.98 80.98 0 004.142-.101c.339.17.371.747.066.982l-.611.105c-1.255.17-1.459.474-1.459 2.537v1.963zm7.269-13.741c0-3.249-.032-3.656-1.629-3.824l-.88-.101c-.24-.237-.24-.778.032-.947 2.138-.205 5.025-.306 7.808-.306 2.644 0 4.953.338 6.447 1.152 1.73.913 2.985 2.504 2.985 4.939 0 3.116-2.408 4.672-4.069 5.348-.204.101-.139.37 0 .573 2.713 4.569 4.408 7.448 6.007 8.765.949.812 1.934 1.016 2.339 1.051.17.135.17.508.069.678-.408.101-1.054.2-2.243.2-3.255 0-5.022-1.32-7.091-4.465-.916-1.424-1.866-3.282-2.68-4.601-.614-1.019-.985-1.154-2.105-1.154-1.018 0-1.054.036-1.054.747v4.33c0 3.587.305 3.688 1.899 3.892l.749.104c.236.235.2.848-.069.979a103.708 103.708 0 00-9.095 0c-.27-.131-.375-.744-.066-.979l.745-.104c1.594-.204 1.899-.305 1.899-3.892v-12.385zm3.936 4.872c0 1.084 0 1.15 1.629 1.15 3.328 0 4.852-1.625 4.852-4.838 0-2.672-1.73-5.008-4.683-5.008-1.764 0-1.8.101-1.8 1.66v7.036zm39.056 1.284c0 6.668-5.092 11.644-11.947 11.644-7.67 0-12.08-5.381-12.08-11.405 0-6.903 5.022-12.013 12.149-12.013 7.841 0 11.878 5.618 11.878 11.774zm-19.413-.741c0 4.673 2.004 11.032 7.805 11.032 3.872 0 6.99-2.876 6.99-9.678 0-5.111-2.305-11.032-7.702-11.032-3.391 0-7.093 2.47-7.093 9.678zm24.165-5.618c0-3.587-.305-3.69-1.899-3.925l-.578-.105c-.236-.237-.204-.812.069-.947a98.39 98.39 0 008.925 0c.273.135.305.71.065.947l-.745.105c-1.594.235-1.899.338-1.899 3.925v7.749c0 4.669 1.425 8.594 6.142 8.594 4.447 0 6.28-3.349 6.28-8.492v-4.231c0-2.537-.035-5.682-.647-6.666-.306-.51-.847-.745-1.695-.879l-.68-.105c-.305-.237-.269-.846.066-.947 1.153.07 2.444.101 3.771.101a57.59 57.59 0 003.594-.101c.273.17.339.71.069.947l-.745.17c-.648.136-1.259.271-1.495.812-.475 1.016-.475 3.994-.475 6.666v4.026c0 3.083-.476 5.925-2.243 7.818-1.764 1.897-4.309 2.541-6.652 2.541-3.189 0-5.428-.678-6.99-2.167-1.524-1.455-2.24-3.823-2.24-7.242v-8.594zm25.659.203c0-3.079-.035-3.587-1.458-3.79l-1.186-.137c-.239-.237-.239-.81.032-.946 2.378-.271 4.412-.307 7.502-.307 3.222 0 5.566.475 7.094 1.354 1.764 1.05 2.884 2.842 2.884 5.075 0 5.145-4.921 6.566-7.604 6.566-.302 0-.575 0-.847-.036-.239-.2-.269-.642-.104-.844 3.088-.612 4.207-2.844 4.207-5.618 0-2.743-1.764-5.145-4.848-5.145-1.698 0-1.734.101-1.734 1.423v14.787c0 3.587.306 3.688 1.899 3.857l1.258.139c.201.235.167.847-.069.978a152.843 152.843 0 00-5.022-.101c-1.494 0-3.022.036-4.378.101-.27-.131-.305-.743-.069-.978l.545-.07c1.593-.238 1.898-.338 1.898-3.926zM102.83178 3.859c0-1.422-.036-1.49-.918-1.49h-1.9c-3.123 0-4.04.374-5.294 3.115-.238.202-.951.1-1.086-.237a55.726 55.726 0 001.326-5.109c.067-.103.202-.136.372-.136.137 0 .272.035.34.136.168.846.642.878 2.95.878h13.846c1.665 0 2.174-.101 2.58-.88.135-.067.272-.136.407-.136.204 0 .374.069.442.17-.339 1.387-.613 4.296-.511 5.381-.167.27-.744.338-1.049.101-.444-2.638-1.086-3.283-4.717-3.283h-1.936c-.882 0-.916.068-.916 1.49v14.619c0 3.587.305 3.688 1.901 3.858l1.221.138c.237.235.205.847-.068.978a147.88 147.88 0 00-4.988-.1c-1.496 0-3.09.035-5.26.1-.272-.13-.307-.812-.069-.978l1.426-.174c1.594-.134 1.901-.235 1.901-3.822V3.859zm23.244 8.664c-1.732 0-1.833.066-1.833.982v4.975c0 3.587.305 3.688 1.9 3.857l1.017.138c.238.236.203.848-.067.979a127.42 127.42 0 00-4.785-.1c-1.494 0-3.022.035-4.312.1-.27-.131-.305-.743-.067-.979l.475-.069c1.594-.238 1.901-.338 1.901-3.926V5.89c0-3.586-.307-3.689-1.901-3.892l-.745-.101c-.24-.17-.206-.848.067-.982 1.493.069 3.088.1 4.582.1 1.493 0 3.021-.031 4.345-.1.269.134.305.81.067.982l-.577.1c-1.595.204-1.9.307-1.9 3.894v4.097c0 .946.101 1.012 1.833 1.012h7.941c1.731 0 1.832-.066 1.832-1.012V5.89c0-3.587-.306-3.69-1.901-3.893l-.745-.101c-.238-.17-.204-.848.067-.982 1.562.069 3.09.1 4.582.1 1.493 0 3.021-.031 4.376-.1.272.134.306.81.07.982l-.611.1c-1.593.204-1.9.307-1.9 3.894v12.59c0 3.587.307 3.688 1.9 3.891l.747.104c.238.236.204.848-.067.979a103.91 103.91 0 00-9.097 0c-.27-.131-.303-.743-.067-.979l.745-.104c1.595-.203 1.901-.304 1.901-3.891v-4.975c0-.916-.101-.982-1.832-.982zm22.41-6.634c0-3.587-.305-3.69-1.903-3.925l-.541-.069c-.238-.237-.204-.847.068-.982 1.29.07 2.883.101 4.378.101h6.482c2.171 0 4.139-.032 4.579-.1.136.574.339 3.248.545 4.703-.137.27-.813.338-1.087.136-.541-1.963-1.052-2.81-2.138-3.08-.779-.238-1.798-.305-2.715-.305h-2.273c-1.459 0-1.459.067-1.459 1.998v5.719c0 .877.035.913.814.913h1.628c2.953 0 3.529-.035 3.769-1.49l.236-1.149c.272-.237.916-.237 1.086.034-.034.913-.101 2.132-.101 3.383 0 1.287.067 2.47.101 3.557-.17.236-.814.236-1.086.032l-.236-1.352c-.238-1.424-.815-1.49-3.769-1.49h-1.629c-.779 0-.815.066-.815.913v4.297c0 1.729.069 2.944.577 3.521.406.475.985.744 3.835.744 4.31.069 5.056-.914 6.245-3.653.305-.239.883-.134 1.086.204-.203 1.42-.951 3.992-1.425 4.903-1.493-.065-4.41-.1-8.382-.1h-3.868c-1.495 0-3.564.035-5.092.1-.27-.13-.305-.743-.067-.978l1.254-.138c1.598-.17 1.903-.27 1.903-3.858z" clip-rule="evenodd"/><path fill="#009181" fill-rule="evenodd" d="M68.01878 22.568c-8.098-3.44-15.176-1.78-19.32 3.811 0 0-.063.076-.012.115.047.028.102-.032.102-.032 1.75-1.77 7.084-6.141 14.976-3.426 8.86 3.053 10.045 13.549 9.682 19.082-1.409 21.173-18.272 62.981-43.31 64.579a26.265 26.265 0 01-13.33-2.443 26.229 26.229 0 01-10.33-8.763s-.041-.08-.09-.057c-.05.025-.018.099-.018.099 3.661 9.009 13.685 14.761 24.913 14.997 30.87.665 54.276-32.84 52.663-60.552-.975-16.723-9.516-24.688-15.925-27.41z" clip-rule="evenodd"/><path fill="#009181" fill-rule="evenodd" d="M14.65778 98.49c10.43 4.196 17.13-1.082 18.5-2.314 0 0 .048-.032.016-.074-.035-.044-.09 0-.09 0-11.747 5.727-22.347-.757-22.972-15.178-.873-20.177 19.295-67.438 44.441-67.73 9.549-.112 15.945 3.23 20.955 8.597 0 0 .067.083.118.042.051-.045-.003-.121-.003-.121-2.7-4.96-11.082-12.014-23.193-12.014-29.894.002-53.415 29.962-52.398 60.797.576 17.337 7.71 25.222 14.625 27.995z" clip-rule="evenodd"/><path d="M72.41831 137.77539c-2.0052 0-3.86068.33855-5.5664 1.01563-1.69271.67708-3.11198 1.65364-4.25782 2.92968-1.19791 1.34115-2.10937 2.95573-2.73437 4.84375-.625 1.875-.9375 3.9974-.9375 6.36719 0 2.40885.3125 4.55078.9375 6.42578.63802 1.875 1.54297 3.45704 2.71484 4.7461 1.17188 1.28906 2.59115 2.27213 4.25782 2.94921 1.67968.67708 3.54166 1.01563 5.58593 1.01563 2.09636 0 3.95834-.33203 5.58594-.99609 1.64063-.66406 3.0599-1.65365 4.25781-2.96875 1.15886-1.26302 2.0573-2.83855 2.69531-4.72657.65105-1.90104.97657-4.04948.97657-6.44531s-.31901-4.53775-.95703-6.42578c-.625-1.88802-1.52995-3.48308-2.71485-4.78516-1.15885-1.26302-2.57161-2.23307-4.23828-2.91015-1.65365-.6901-3.52213-1.03516-5.60547-1.03516zm37.85157.60547v29.08203h7.34374c2.66928 0 4.81771-.18229 6.44532-.54687 1.64062-.36458 3.125-.95703 4.45312-1.77735 1.91406-1.1849 3.44401-2.85156 4.58985-5 1.15886-2.14844 1.73828-4.54427 1.73828-7.1875 0-2.82552-.55339-5.26692-1.66016-7.32422-1.10677-2.05729-2.64974-3.70442-4.62891-4.9414-1.15885-.71615-2.57812-1.27604-4.25781-1.67969-1.66666-.41667-3.91927-.625-6.75781-.625zm30.85937 0v29.08203h19.16016v-3.4375h-15.29297v-10.80078h15.29297v-3.4375h-15.29297v-7.96875h15.29297v-3.4375zm25.3125 0v29.08203h3.86719v-14.00391h12.63672v-3.4375h-12.63672v-8.20312h14.70703v-3.4375zm-94.0039 2.73437c2.92968 0 5.24088 1.02865 6.93359 3.08594 1.6927 2.04427 2.53906 4.95442 2.53906 8.73047 0 3.8151-.85937 6.73828-2.57812 8.76953-1.70573 2.01823-4.00391 3.02735-6.89454 3.02735-2.89062 0-5.1953-1.00912-6.91406-3.02735-1.71875-2.03125-2.57812-4.95443-2.57812-8.76953 0-3.77605.83984-6.6862 2.51953-8.73047 1.6927-2.05729 4.01692-3.08594 6.97265-3.08594zm41.69921.58594h3.63282c1.79688 0 3.33984.13021 4.6289.39063 1.28906.2474 2.50651.69661 3.65234 1.34765 1.57553.89844 2.76042 2.12891 3.55469 3.69141.79428 1.5625 1.19141 3.48307 1.19141 5.76172 0 2.26562-.36458 4.15364-1.09375 5.66406-.71615 1.51041-1.79688 2.72786-3.24219 3.65234-1.15885.74219-2.43489 1.25-3.82812 1.52344-1.38021.27344-3.0013.41016-4.86328.41016h-3.63282zM91.14878 152.9707v3.53516h12.1875v-3.53516z"/></svg>