<svg xmlns="http://www.w3.org/2000/svg" role="img" viewBox="-3.95 -3.95 176.16 205.66"><title>Palisade logo</title><path d="M0 175.055c2.459-.306 4.785-.459 6.974-.459 2.211 0 4.113.153 5.705.459s2.9.787 3.927 1.44c1.027.654 1.783 1.486 2.268 2.497s.728 2.221.728 3.63c0 2.738-1.004 4.76-3.013 6.066-2.009 1.308-5.124 1.961-9.344 1.961-.474 0-.971-.01-1.49-.031-.52-.02-1.095-.05-1.727-.092v7.047H0v-22.518zm7.854 12.684c1.422 0 2.618-.092 3.588-.275.97-.184 1.755-.48 2.353-.889.598-.408 1.033-.935 1.303-1.578.271-.643.406-1.435.406-2.375 0-.919-.135-1.7-.406-2.344-.271-.643-.711-1.174-1.32-1.593s-1.405-.72-2.387-.904c-.982-.184-2.172-.275-3.572-.275-.655 0-1.337.021-2.048.061-.711.042-1.292.092-1.744.153v9.712c.18.041.417.077.711.107.293.031.615.062.965.092s.711.056 1.083.076c.374.022.73.032 1.068.032zm11.579 9.59l9.344-22.427h6.094l9.344 22.427v.245H40.22l-2.607-6.281H26l-2.573 6.281h-3.995v-.245zm17.096-9.008l-2.776-6.587-1.761-4.351h-.372l-1.727 4.381-2.776 6.556h9.412zm10.867-13.42h4.029v19.823h12.188v2.849H47.396v-22.672zm19.704 0h4.029v22.672H67.1v-22.672zm17.334 23.01c-.609 0-1.275-.021-1.998-.061-.723-.042-1.467-.103-2.234-.184-.768-.082-1.541-.178-2.319-.291-.779-.112-1.529-.24-2.251-.383v-3.002c3.408.654 6.274.98 8.599.98 3.949 0 5.925-1.093 5.925-3.278 0-.654-.142-1.2-.423-1.639-.283-.439-.677-.807-1.185-1.103-.508-.296-1.106-.536-1.794-.72-.688-.184-1.438-.347-2.251-.49-1.513-.265-2.805-.597-3.876-.996-1.072-.398-1.947-.873-2.624-1.425-.677-.551-1.174-1.195-1.49-1.93s-.474-1.583-.474-2.543c0-.98.22-1.864.66-2.65.44-.786 1.078-1.46 1.913-2.022.835-.562 1.833-.99 2.996-1.287 1.163-.296 2.477-.444 3.944-.444 1.038 0 2.138.066 3.301.199 1.162.133 2.544.342 4.147.628v3.002c-1.129-.286-2.325-.505-3.589-.659-1.264-.153-2.415-.229-3.453-.229-1.783 0-3.171.301-4.164.904-.994.603-1.49 1.425-1.49 2.466 0 .531.096.991.288 1.379s.508.74.948 1.057c.44.317 1.016.598 1.727.843s1.596.48 2.658.705c1.241.266 2.381.562 3.419.889 1.038.327 1.93.74 2.674 1.241s1.326 1.118 1.744 1.854c.417.735.626 1.634.626 2.696 0 2.145-.835 3.764-2.505 4.856-1.672 1.091-4.154 1.637-7.449 1.637zm11.239-.582l9.344-22.427h6.094l9.344 22.427v.245h-3.995l-2.607-6.281h-11.612l-2.573 6.281h-3.995v-.245zm17.097-9.008l-2.776-6.587-1.761-4.351h-.373l-1.727 4.381-2.776 6.556h9.413zm18.146 9.529c-.768 0-1.523-.011-2.269-.031-.745-.021-1.438-.051-2.082-.092-.643-.042-1.219-.092-1.727-.153s-.909-.123-1.202-.184v-22.458c.699-.041 1.422-.077 2.167-.107.745-.03 1.478-.061 2.201-.092.722-.031 1.405-.056 2.048-.077.643-.02 1.202-.03 1.676-.03 4.808 0 8.333.934 10.58 2.803 2.246 1.869 3.369 4.805 3.369 8.809 0 2.022-.282 3.769-.846 5.239-.564 1.471-1.445 2.676-2.641 3.615-1.197.94-2.726 1.635-4.587 2.083-1.863.45-4.092.675-6.687.675zm1.388-2.942c1.625 0 3.024-.163 4.198-.49 1.173-.327 2.133-.842 2.878-1.547.745-.705 1.292-1.603 1.642-2.696.35-1.093.524-2.405.524-3.937 0-3.023-.733-5.213-2.201-6.572-1.467-1.358-3.848-2.037-7.143-2.037-.587 0-1.292.021-2.116.061-.824.042-1.631.092-2.42.153v16.729c.834.123 1.602.209 2.302.26.699.051 1.478.076 2.336.076zm18.079-20.007h17.571v2.88h-13.542v6.863h12.628v2.911h-12.628v7.139h13.847v2.88h-17.875v-22.673z" fill="#0B435B"/><path fill="#5CC0EB" d="M74.891 0l-10.16 13.574 4.909 6.557zm37.253 0l-10.16 13.574 4.909 6.557z"/><path fill="none" d="M103.166 39.589l-3.643 13.963-3.193 7.758 6.836 15.814 6.836-15.814-3.193-7.758zM69.192 53.552l-3.643-13.963-3.642 13.963-3.193 7.758 6.835 15.814 6.837-15.814zm8.789 52.328l6.377 14.751 6.376-14.751-6.376-15.49z"/><path fill="#5CC0EB" d="M.309 141.024c-.556 3.728 2.689 8.236 7.969 10.669 3.214 1.484 6.521 1.88 9.176 1.333 2.273-.472 4.072-1.636 4.914-3.433L46.741 90.39 34.77 61.31.309 141.024zM58.714 61.31l3.193-7.758 3.642-13.963-4.956-19.001-13.852 18.508 5.609 7.493zm37.616 0l3.193-7.758 3.643-13.963-4.957-19.001-13.851 18.508 5.608 7.493zm37.616 0l3.194-7.758L151.042.261l-29.067 38.835 5.608 7.493z"/><path fill="#0B435B" d="M168.406 141.024l-40.824-94.435L92.907.261l13.901 53.292 39.539 96.041c.842 1.797 2.641 2.96 4.914 3.433 2.655.547 5.962.151 9.176-1.333 5.28-2.434 8.524-6.943 7.969-10.67zm-59.675 8.569c.842 1.797 2.641 2.96 4.914 3.433 2.656.547 5.963.151 9.177-1.333 5.28-2.433 8.524-6.941 7.969-10.669l-15.193-35.144-12.432 30.195 5.565 13.518zM89.966 46.589L55.291.261l13.901 53.291 21.542 52.328 12.432-28.756zm-14.424 94.435l8.816-20.393-6.377-14.751-12.432 30.195 5.565 13.518c.842 1.797 2.641 2.96 4.914 3.433 2.422.5 5.387.203 8.329-.978-.283-.114-.566-.225-.847-.355-5.279-2.433-8.523-6.942-7.968-10.669zM52.35 46.589L17.674.261l13.901 53.291 21.543 52.328 12.431-28.756z"/><path fill="#5CC0EB" d="M72.386 61.31L65.55 77.123 53.118 105.88l-15.193 35.144c-.555 3.728 2.689 8.236 7.969 10.669 3.213 1.484 6.521 1.88 9.177 1.333 2.272-.472 4.071-1.636 4.914-3.433l5.565-13.518 12.432-30.195 6.377-15.49-11.973-29.08zm37.616 0l-6.836 15.813-12.432 28.757-6.376 14.751-8.816 20.393c-.555 3.728 2.689 8.236 7.969 10.669.281.13.564.241.847.355 2.941 1.181 5.906 1.478 8.329.978 2.273-.472 4.072-1.636 4.914-3.433l5.565-13.518 12.432-30.195 6.377-15.49-11.973-29.08z"/></svg>