<svg xmlns="http://www.w3.org/2000/svg" role="img" viewBox="-4.76 -4.76 247.52 58.02"><title>Parquet logo</title><path fill="#50abf1" d="M28.27983 45.9631c-2.45176-2.6157-2.525-2.72897-2.0843-3.22357.69858-.784 30.4958-28.05978 30.92358-28.30682.3701-.21373 4.02345 1.5502 4.82164 2.328.306.29819-2.06818 2.83579-15.02077 16.0547-8.46132 8.6353-15.54507 15.73612-15.74165 15.7796-.1966.0435-1.50091-1.1409-2.8985-2.63191zm131.65097-.2703c-.23373-.23374-.32537-1.68906-.32537-5.16725 0-2.66303-.0701-4.84187-.15575-4.84187-.08566 0-.76756.53519-1.51533 1.18933-1.78244 1.55923-3.3413 2.06787-5.95358 1.94258-5.8204-.27915-9.29949-5.31125-9.29949-13.45066 0-5.08481 1.2015-8.60575 3.76348-11.02877 2.68027-2.5349 6.45401-3.20562 9.5888-1.70426.87312.41818 1.93719 1.13246 2.3646 1.5873.4274.45483.86737.82698.97769.82698.11032 0 .23687-.56555.28123-1.25677l.08064-1.25678 3.37541-.0741 3.37541-.0741-.06811 16.74282-.06812 16.7428-3.04807.074c-2.14562.0521-3.1444-.0223-3.37344-.25134zm-3.18332-13.348c3.74926-1.91542 4.09003-10.825.51823-13.54933-1.30011-.99164-3.5428-1.1135-4.79774-.26068-1.8473 1.25535-2.9167 3.74662-2.9167 6.79465 0 5.56815 3.4485 8.92999 7.19621 7.01536zM21.51602 39.01418c-1.3218-1.32871-2.15786-2.37251-2.07445-2.5899.15068-.39266 17.28079-14.23912 17.60106-14.22713.39482.0148 4.42634 3.07772 4.42634 3.3629 0 .30012-17.2206 15.67988-17.55665 15.67988-.10016 0-1.17849-1.0016-2.3963-2.22575zm185.78086-.29215c-2.26151-.49128-4.0262-1.51306-5.7693-3.34052-2.44792-2.5664-3.56093-5.68693-3.55366-9.96346.0099-5.84428 2.5115-10.42514 6.86295-12.56735 1.62077-.7979 1.89076-.84723 4.63695-.84723 2.61206 0 3.07415.0741 4.43358.71124 4.14237 1.94139 6.70312 7.04215 6.49737 12.94213l-.07747 2.22163-7.5316.0704c-4.1424.0387-7.63445.17319-7.76013.29887-.36888.36888.85854 2.87147 1.82416 3.7193 2.10954 1.8522 5.10352 1.73514 7.95465-.31103l1.2082-.8671 1.04634 1.19064c.57548.65484 1.36231 1.59397 1.74852 2.08694l.7022.89633-1.18367 1.06013c-2.08802 1.8701-5.49238 3.13352-8.29738 3.0793-.5986-.0116-1.83237-.18264-2.7417-.38018zm6.09727-15.53992c.4042-.30106.40991-.459.06372-1.7607-.93748-3.525-4.14485-5.00237-6.52045-3.00343-.93729.78867-1.4221 1.67069-1.84798 3.36203-.26194 1.04024-.2529 1.29788.05227 1.49112.59456.37649 7.7308.2995 8.25243-.089zM104.24083 38.49629c-3.5207-1.31-5.46004-5.21278-4.69279-9.44392.53451-2.94764 1.85317-4.71384 4.3626-5.84323 1.78701-.80426 6.01496-1.00495 8.14238-.3865.80523.23409 1.5223.42562 1.59347.42562.34445 0 .426-.9625.16493-1.94656-.32712-1.23302-1.05525-2.13511-2.22787-2.76014-1.18765-.63305-4.15508-.53951-6.46689.20383-1.088.34984-1.98604.50923-2.10526.37366-.2938-.3341-1.6143-4.1989-1.6143-4.7247 0-1.00553 4.59387-2.28305 8.31952-2.31358 4.3985-.036 7.26048 1.05552 9.00636 3.43506 1.8113 2.4687 1.8564 2.79484 1.8564 13.42097v9.525l-3.0204.0752c-1.66122.0414-3.12621-.0306-3.25553-.15991-.12933-.12932-.2846-.6259-.34504-1.10351-.06044-.4776-.16903-.9275-.2413-.99977-.07227-.0723-.55374.2394-1.0699.6926-1.61392 1.41704-2.45545 1.72026-5.0324 1.81328-1.58294.0571-2.71407-.0379-3.37398-.28342zm7.84435-5.26436c1.37265-.78696 2.01191-2.04232 2.01191-3.95096 0-1.8887-.3313-2.11604-3.30729-2.26946-1.89357-.0976-2.21386-.0429-3.03885.51915-1.26518.86194-1.63281 1.66767-1.51497 3.32027.1531 2.14709 1.08596 2.93692 3.49549 2.95954.90277.008 1.65028-.17526 2.3537-.57854zm64.76382 5.291c-1.46037-.46732-3.37784-2.4045-4.06543-4.10722-.6-1.4858-.60985-1.67452-.61014-11.69662l-.00026-10.18646 3.36016-.074 3.36016-.0739.07942 8.8052c.07064 7.83173.13122 8.9.54795 9.6626 1.38122 2.52764 4.99759 2.50835 6.3577-.0339.56007-1.04687.58534-1.41634.66753-9.76092l.08543-8.67287 3.35416.0739 3.35413.0739.06873 12.66978c.05043 9.29616-.01281 12.76802-.23753 13.03878-.23673.28525-1.00314.35217-3.37602.29482l-3.06977-.0742-.08285-1.19062c-.04557-.65485-.18225-1.2916-.30373-1.41498-.12148-.1234-.73904.2811-1.37236.89889-1.6605 1.61976-2.86906 2.09623-5.25252 2.07076-1.0914-.0117-2.38055-.14797-2.86476-.30292zm53.33775.0843c-1.56532-.49732-2.55608-1.35978-3.29825-2.87112l-.74036-1.50766-.0866-8.00365-.0866-8.00364h-1.00551c-1.4562 0-1.63161-.3653-1.5436-3.2145.07475-2.41942.09104-2.47568.7379-2.54812 1.95868-.21933 1.85208-.0284 1.85208-3.31764 0-1.96869.10808-3.09283.3175-3.30225.45031-.45031 6.18747-.4386 6.4799.01323.11773.1819.27358 1.69995.34635 3.37344l.13229 3.0427 2.45624.0762 2.45625.0762-.075 2.83424-.075 2.83422-2.4474.0761-2.44739.0761v6.73695c0 8.48436-.17402 8.18618 4.36562 7.48064.49453-.0769.53413.0873.60502 2.50803l.0759 2.59028-1.26648.57806c-1.38243.631-5.37452.91018-6.75287.47226zm-156.71079-.3357c-.07126-.18641-.0987-7.89938-.06098-17.13996l.06857-16.80104 7.14375.01566c6.6968.01468 7.25135.05286 8.86354.61029 4.70414 1.62649 7.27433 5.08194 7.60317 10.22197.33583 5.24915-2.04585 9.55628-6.35883 11.49956-2.24872 1.0132-3.96972 1.33273-7.17809 1.33273-1.94532 0-2.8165.10097-3.02354.35043-.18189.21916-.3179 2.17657-.36312 5.22552l-.07229 4.87509-3.2463.0743c-2.45018.0561-3.2781-.009-3.37588-.26458zM86.9773 21.16067c1.9527-.90124 3.05197-2.70784 3.0311-4.98154-.03363-3.66426-1.84923-5.2641-6.30134-5.55255-3.63934-.23578-3.47663-.48538-3.47663 5.33329 0 2.6751.07227 5.05217.1606 5.28235.24764.64534 5.14263.58473 6.58627-.0816zm39.32044 17.07244c-.216-.26025-.2804-3.89554-.23084-13.03072l.06873-12.66978 3.28642-.0747c2.45142-.0557 3.34111.0115 3.50168.26458.1184.18658.21708.96432.2193 1.7283.004 1.35955.35054 1.85232.64663.91942.2075-.65377 1.94327-2.39616 2.8586-2.8695.41834-.21633 1.34952-.46307 2.0693-.54832l1.3087-.155v7.43554l-1.12448.18724c-1.87053.31147-3.07327.9242-4.0469 2.06167-1.5137 1.7684-1.70779 2.89377-1.70779 9.90156 0 3.75893-.10749 6.38792-.2739 6.69885-.24607.45979-.57867.51177-3.27489.51177-2.21206 0-3.07975-.0949-3.30057-.36096zM15.2569 32.63014c-1.03474-1.15615-1.68452-2.08962-1.54513-2.21974.7219-.67391 8.17024-5.8387 8.41597-5.83577.40037.005 3.9954 3.08705 3.9954 3.42553 0 .41622-8.06625 6.62516-8.60697 6.62516-.26047 0-1.27714-.89783-2.25927-1.99518zm-5.13251-5.26842c-1.48244-1.49905-1.65932-1.77866-1.32291-2.09124.48226-.44811 24.15956-15.73335 24.6434-15.90893.37882-.13747 3.65847 1.84833 3.65847 2.21518 0 .26222-24.27268 17.26019-24.86354 17.41175-.23462.0602-1.12204-.62225-2.11542-1.62676zm15.79169-2.41373c-.97752-.81138-1.77202-1.61506-1.76556-1.78594.006-.17087.86968-.91362 1.91823-1.65054 1.04856-.73692 5.74979-4.10043 10.44717-7.47448 4.69738-3.37404 8.73407-6.13463 8.9704-6.13463.6322 0 3.83254 1.85035 3.73039 2.1568-.1484.44516-20.68696 16.35704-21.11781 16.36064-.22302.002-1.2053-.66046-2.18282-1.47185zM5.35647 22.56534c-1.16667-1.23358-1.33631-1.53156-1.03056-1.81025.26442-.24102 14.93094-8.9035 16.70498-9.86646.29295-.15902 3.40232 2.08357 3.30281 2.3821-.12863.3859-16.66927 10.77042-17.15603 10.77087-.23356.0002-1.05309-.6641-1.8212-1.47626zm35.46205.0987c-1.0735-.77011-1.99321-1.52478-2.04382-1.67704-.0722-.21722 9.65735-8.30344 11.86437-9.86048.42906-.3027.76662-.20188 2.6067.77857 1.1626.61946 2.11213 1.25218 2.11007 1.40606-.0053.39367-11.58555 10.58162-12.13481 10.6758-.2479.0425-1.32902-.5528-2.40251-1.32291zm-39.40783-4.2842l-1.41104-1.4288.62633-.40587c.34448-.22324 7.33677-4.03737 15.53841-8.47586L31.07648-.00066l1.42593.69934c.78427.38464 1.42594.8296 1.42594.98878 0 .21785-30.65948 18.12117-31.03255 18.12117-.0407 0-.70904-.64296-1.48511-1.4288zm22.92651-7.20356c-.69122-.51884-1.25604-1.08078-1.25516-1.24873.00079-.16796 2.7958-1.9511 6.21095-3.96252l6.20936-3.65713 1.59425.84972c.87684.46735 1.59425.93999 1.59425 1.0503 0 .31366-12.17573 7.92877-12.66282 7.91975-.23873-.004-.9996-.43254-1.69083-.95139zm12.43542-1.58247c-.83674-.51713-1.51902-1.07949-1.51617-1.24969.005-.28836 4.23388-3.1214 4.92767-3.30106.31903-.0826 3.16523 1.41865 3.39527 1.79087.0693.11219-.0795.38698-.33072.61065-.85926.76502-4.38703 3.10364-4.67108 3.09654-.156-.0039-.96822-.43018-1.80497-.94731z"/></svg>