<svg xmlns="http://www.w3.org/2000/svg" role="img" viewBox="-14.78 -13.78 1028.56 264.56"><title>RCloud logo</title><defs><linearGradient id="linear-gradient" x1="99.345" x2="99.345" y1="229.848" y2="6.666" gradientUnits="userSpaceOnUse"><stop offset="0" stop-color="#48c8f5"/><stop offset="1" stop-color="#087bb6"/></linearGradient><style>.cls-1{fill:none}</style></defs><path d="M599.78355 107.123C589.52149 98.8781 577.825 94.73822 564.693 96.72368c-27.01164 4.084-42.97142 24.0715-42.87976 53.2712a65.98154 65.98154 0 00.052 8.61571c2.58072 19.42791 11.31355 34.74614 29.9014 42.96773 17.59663 7.78317 34.08111 4.36925 48.57867-7.14465 24.86829-19.75067 24.29796-67.33759-.56176-87.31067zM125.46918 63.60028a28.61835 28.61835 0 01-10.9623-6.41077C96.6938 40.16571 75.34242 44.045 64.461 66.34283c-2.03479 4.16943-4.14833 6.982-8.98186 8.16145-10.37 2.53007-14.6015 9.70835-13.3763 20.175 1.142 9.75438 7.18725 14.98163 18.75576 15.46055 9.3327.38633 18.694.07821 28.04282.07821l.00026-.172c10.42495 0 20.89185.58576 31.26364-.15709A22.24586 22.24586 0 00141.02 89.98646c1.44713-12.4079-4.3019-22.49968-15.55082-26.38618zM964.647 140.00124c-.06714-19.055-9.24552-33.21995-25.71759-39.69812-17.34973-6.82334-38.1222-2.94752-50.10961 9.35-18.73571 19.22016-19.74473 59.62525-1.99325 79.81909 13.20048 15.01671 29.82318 19.28757 48.76623 12.52978 17.15927-6.12152 28.36347-21.69207 28.98141-40.40918.14245-4.31372.021-8.63615.021-12.95449h.05316c-.00001-2.87908.00882-5.75814-.00135-8.63708z" class="cls-1"/><path d="M964.647 140.00124c-.06714-19.055-9.24552-33.21995-25.71759-39.69812-17.34973-6.82334-38.1222-2.94752-50.10961 9.35-18.73571 19.22016-19.74473 59.62525-1.99325 79.81909 13.20048 15.01671 29.82318 19.28757 48.76623 12.52978 17.15927-6.12152 28.36347-21.69207 28.98141-40.40918.14245-4.31372.021-8.63615.021-12.95449h.05316c-.00001-2.87908.00882-5.75814-.00135-8.63708z" class="cls-1"/><path fill="#c5c5c5" d="M993.87349 24.167c-.04366-2.87314-.47443-6.19749-1.93811-8.66544-4.63357-7.81271-13.146-7.573-20.88933-6.02536-7.97706 1.59452-6.3319 8.55939-6.37766 14.056-.15855 19.06255.02743 38.128-.15525 57.19a55.56124 55.56124 0 01-.75142 11.02666c-1.62327-1.40313-5.14231-3.77571-6.69052-5.21986-27.157-25.333-72.39061-20.7759-95.58288 8.72795-28.47241 36.22116-24.79061 126.657 40.41485 135.3294 8.56862 1.13973 15.32166 1.37306 23.856 0 15.10627-2.43035 27.20567-11.35984 36.33169-23.893 1.1363.908 1.02366 3.35535 1.068 3.812 1.84235 19.00609 2.8705 16.93477 22.10531 16.8952 3.21593-.0066 6.43174-.0641 9.64754-.098-.00005-67.71183-.00005-134.87241-1.03822-203.13555zm-29.29928 137.4258c-.61794 18.71711-11.82214 34.28766-28.98141 40.40918-18.943 6.75779-35.56575 2.48693-48.76623-12.52978-17.75148-20.19384-16.74246-60.59893 1.99325-79.81909 11.98741-12.29751 32.75988-16.17333 50.10961-9.35 16.47207 6.47817 25.65045 20.64309 25.71759 39.69812.01015 2.87894.00132 5.758.00132 8.63707h-.05316c0 4.31835.12148 8.64078-.02097 12.9545zm-575.72172 5.77594c-8.84086-4.43309-10.28263 3.2898-13.34148 8.04578-22.5101 34.99978-80.07 35.2798-104.51843-.32816-20.82616-30.33205-21.61372-63.23412-4.72182-95.17307 20.66815-39.07886 80.07551-44.11855 106.3228-10.22315 3.2009 4.13355 5.51716 10.08729 12.58729 7.30635 6.94178-2.73042 11.19048-7.58545 11.28057-15.48574.11739-10.30558-5.3019-17.71851-12.621-23.97733-24.55452-20.9967-53.58077-23.31349-83.57661-18.27063-24.86329 4.18-44.46161 17.668-58.93252 38.53279-12.07069 17.40407-17.45899 36.92971-19.08094 57.71542-3.717 47.632 18.53483 97.6356 71.04762 112.44919 3.43423.96879 7.18316 1.26213 10.70668 1.88825a106.23322 106.23322 0 0036.1192.42656 102.89143 102.89143 0 0012.21823-2.73754c14.86991-4.292 27.83482-11.6214 38.058-23.43365 4.53412-5.23885 8.42023-10.91244 9.56141-17.86953 1.51151-9.21377-3.26186-14.93076-11.109-18.86554zM536.0192 77.31133c-51.36858 24.214-52.96467 96.04993-23.81589 129.01677 11.44083 12.93932 26.38447 21.6124 42.89928 24.25827a88.91488 88.91488 0 0029.216 0c13.46019-2.19953 25.98363-7.16681 36.43022-16.82173 20.94222-19.3551 27.91725-43.56378 26.247-71.24969-3.35409-55.59657-60.55651-88.97031-110.97661-65.20362zm64.3261 117.12234c-14.49756 11.5139-30.982 14.92782-48.57867 7.14465-18.58785-8.22159-27.32068-23.53982-29.9014-42.96773a65.98154 65.98154 0 01-.052-8.61571c-.09166-29.1997 15.86812-49.18725 42.87976-53.2712 13.132-1.98546 24.82847 2.15442 35.09053 10.39936 24.85975 19.97304 25.43008 67.55996.56178 87.31063zM798.527 73.67913c-8.99808.07531-16.13679-.04247-15.79583 12.64242.71488 26.60658.17806 53.24614.22514 79.872.01042 5.84611-.71119 11.31183-3.93913 16.49292-10.09362 16.20142-28.99763 24.281-46.40433 19.48132-15.708-4.33113-24.90154-18.14441-25.06021-38.48162-.20194-25.90489-.60594-51.82745.132-77.71229.37511-13.15616-7.52966-11.93966-16.0992-12.27745-9.27335-.36536-14.924 1.18022-14.61073 12.66919q1.01495 37.21263.08006 74.47195c-.83215 33.24079 8.33305 64.11731 44.446 69.74882a69.84679 69.84679 0 0022.733 0c14.679-2.3677 27.05873-10.21483 36.47928-22.23878 2.83923 4.775 2.55763 6.35075 4.06615 9.1152 4.37518 8.01742 10.52809 12.9351 20.052 11.14195 9.32493-1.7557 8.40731-9.39509 8.41035-16.23638.01912-42.09773-.31841-84.19969.21275-126.29069.149-11.81491-5.9985-12.47322-14.9273-12.39856zM461.19614 34.56756a38.01352 38.01352 0 00-3.46641-16.76277c-4.19647-8.73072-11.89416-9.85937-20.17142-8.40243-8.07756 1.42186-6.6619 8.29387-6.6801 13.83319-.10552 32.02166-.05144 64.044-.05184 96.06615-.00026 31.66237.45241 63.33449-.23214 94.98209-.25905 11.9762 5.36535 13.55422 15.1523 13.30744 9.07379-.22884 15.77619-.18057 15.66895-12.7664-.51176-60.08202-.24665-120.17089-.21934-180.25727z"/><path fill="url(#linear-gradient)" d="M155.2826 154.75613c-6.13774-7.36584-6.81517-10.44856 3.05608-15.05245 24.11068-11.24483 33.9471-32.53237 34.665-57.82366.72926-25.68924-6.38386-48.34218-30.29168-62.70943-10.71948-6.442-22.761-8.63087-34.36773-12.2917-38.41725 0-76.83727.234-115.24938-.21038-7.12263-.08243-8.09419 2.0795-8.07348 8.4416.23 70.73014.145 141.46147.145 212.1924 17.627.08692 35.26516-.17358 52.8763.39939 9.60072.3122 12.43771-3.72151 12.41173-12.80532-.0434-15.08.96483-30.1644 1.59267-45.24429.14838-3.56454-.07439-7.54245 4.53544-8.72162 4.02974-1.03065 6.92781 1.032 9.26741 4.058 2.20019 2.84583 4.285 5.78149 6.50851 8.60819 11.54647 14.67866 20.459 31.40675 34.14481 44.40832 16.14352 15.33631 43.4584 15.80573 60.15483 1.24591 8.67611-7.5658 9.17258-11.6971 2.19491-20.90147-11.08156-14.61788-21.83823-29.51362-33.57042-43.59349zM141.02 89.98646a22.24586 22.24586 0 01-20.85465 19.90248c-10.37179.74285-20.83869.15709-31.26364.15709l-.00026.172c-9.34879 0-18.71012.30812-28.04282-.07821-11.56851-.47892-17.61378-5.70617-18.75576-15.46055-1.2252-10.46663 3.00635-17.64491 13.3763-20.175 4.83353-1.17943 6.94707-3.992 8.98186-8.16145C75.34242 44.045 96.6938 40.16571 114.50688 57.18951a28.61835 28.61835 0 0010.9623 6.41077c11.24892 3.8865 16.99795 13.97828 15.55082 26.38618z"/></svg>