<svg xmlns="http://www.w3.org/2000/svg" role="img" viewBox="-4.83 -5.83 589.16 246.16"><title>Ray logo</title><path fill="#02a3e9" d="M186.40482 90.10913c-2.14118 1.05646-2.14624 1.06159-3.79578-.58746q-17.98818-17.98267-35.97235-35.9693c-1.92151-1.92157-1.85742-1.89533-.7503-4.36444 4.8833-10.891 4.20044-21.445-2.84339-31.09967-7.03009-9.636-16.82275-13.80286-28.69848-12.23456a30.41134 30.41134 0 1017.67913 57.34308c2.1496-1.06629 2.152-1.06879 3.76648.54553q18.15564 18.15454 36.30951 36.31085a10.38587 10.38587 0 00.85248.84284 1.25505 1.25505 0 01.29877 1.86236 23.89268 23.89268 0 00-2.48017 5.9596c-.27557 1.07049-.907 1.32153-1.92822 1.287-1.99737-.06751-3.99859-.01935-5.99823-.01941-4.39917-.00013-8.79858-.0271-13.19732.01794-1.11237.01135-1.86133-.24573-2.03913-1.45312a5.35949 5.35949 0 00-.272-.91846 30.45791 30.45791 0 00-57.90351.67383c-.31237.9848-.548 1.71649-1.85571 1.70495-6.55823-.058-13.11731-.03882-19.676-.01343-.95557.00367-1.50672-.30535-1.66846-1.28442a8.48865 8.48865 0 00-.43982-1.36725 30.4354 30.4354 0 10-27.67382 40.45934c12.97785-.4541 23.6615-8.65826 27.87012-21.008.65125-1.91107.65125-1.92865 2.62018-1.93177q8.75831-.0139 17.51666-.00317c2.74848.00031 2.74848.00134 3.63068 2.53949a30.40484 30.40484 0 0042.83264 16.93457 29.94307 29.94307 0 0014.82751-17.4787c.67163-1.98041.66724-1.989 2.79944-1.99377 2.95941-.00684 5.91889-.00177 8.87836-.00128 3.27936.00048 6.55951.04113 9.83771-.02289a1.60717 1.60717 0 011.8905 1.34546 24.29312 24.29312 0 001.93469 4.89581c.97119 1.94177.97858 1.95734-.47668 3.41357q-18.40338 18.41565-36.81543 36.82276c-1.60065 1.60083-1.36347 1.30841-3.0105.46112a29.72969 29.72969 0 00-19.322-2.92224 30.53244 30.53244 0 00-24.85572 33.79718c1.93573 15.3103 16.19538 29.17486 34.89979 26.19342 20.76446-3.30982 31.70214-25.11835 22.39025-43.93653-.87182-1.76184-.88311-1.77313.54987-3.20684q18.40421-18.41281 36.81775-36.81629c1.32373-1.32306 1.33819-1.31622 2.99585-.48181a30.43 30.43 0 10.47467-54.2959zm-68.07947-38.611a15.57015 15.57015 0 1115.68854-15.39862 15.49045 15.49045 0 01-15.68854 15.3986zm-81.18689 81.4834a15.58307 15.58307 0 01-15.59625-15.51795 15.5443 15.5443 0 0131.08813-.16754 15.69912 15.69912 0 01-15.49188 15.68547zm81.39551.00024a15.56268 15.56268 0 11-.09235-31.12512 15.40574 15.40574 0 0115.57209 15.47443 15.60472 15.60472 0 01-15.47971 15.65067zm.038 81.34461a15.55033 15.55033 0 1115.44165-15.59479 15.39127 15.39127 0 01-15.44162 15.59477zm81.17951-81.34461a15.63581 15.63581 0 01-15.37948-15.78029 15.56972 15.56972 0 0131.13727.35589 15.703 15.703 0 01-15.75777 15.42438z"/><path fill="#362f2e" d="M339.38932 133.53369c9.75091-3.97412 16.51294-10.76947 19.61334-20.93988a44.30633 44.30633 0 001.56579-17.32855c-1.23114-12.76318-7.44976-22.04657-19.22857-27.38782a50.58147 50.58147 0 00-20.52661-4.22387c-13.83747-.1587-27.67786-.06989-41.517-.06739-1.6366.00025-1.63788.047-1.68274 1.78717-.00824.31977-.00128.64-.00128.9599q0 50.99734.00024 101.99469c0 .55994.01044 1.12.00525 1.67987-.00641.69159.31769 1.00635 1.0191 1.00415q5.15955-.0162 10.31934-.00158c.70874.00165 1.00116-.33948.98267-1.025-.01514-.55951.00231-1.11981.00231-1.67981q.00056-14.27921.00074-28.55847c.00006-.55993.01928-1.12018.00634-1.67969-.01605-.69262.29212-1.02319.99708-.99633.47906.01825.95971-.00312 1.43963-.00653 10.63855-.07654 21.27942.19073 31.91492-.18824a2.28117 2.28117 0 012.27514 1.29737c1.525 2.43994 3.125 4.833 4.69373 7.2456 5.18573 7.97522 10.39539 15.93506 15.52991 23.94318a3.07517 3.07517 0 003.0672 1.68439c2.47387-.12159 4.95807-.03339 7.43792-.03339h4.57294c-8.51056-12.36047-16.74-24.3125-24.99206-36.29767a6.96877 6.96877 0 012.50467-1.1821zm-19.73639-8.264c-9.27637.10889-18.55481.04554-27.83246.03895-1.85321-.00129-1.87311-.03254-1.87543-2.06763q-.01327-11.51706-.00354-23.03406.00009-11.39712.004-22.79419c.00232-1.92114.02435-1.94495 1.96228-1.94556 9.43756-.00293 18.87524-.01947 28.31262.02564a40.707 40.707 0 0113.8725 2.352c9.36578 3.41785 14.14563 10.24036 14.839 20.06348a30.452 30.452 0 01-.58624 8.59027c-1.6814 7.79541-6.31678 13.09491-13.67658 16.0747a40.85138 40.85138 0 01-15.01615 2.69636zm128.56976-32.87125c-4.00922-8.96942-8.05829-17.92133-11.9978-26.92127a2.68056 2.68056 0 00-3.02576-1.94024 58.71246 58.71246 0 01-8.1521-.01428c-1.98157-.16492-2.75909.68542-3.496 2.33349Q398.56556 117.2642 375.5 168.63642a3.9938 3.9938 0 00-.7052 2.377c3.41919 0 6.85437-.10864 10.27777.04462a2.97359 2.97359 0 003.37433-2.1366c3.2508-7.6438 6.71869-15.19537 9.96674-22.84033a3.22041 3.22041 0 013.5393-2.31385c17.83759.08521 35.67579.05042 53.51374.05048a10.96976 10.96976 0 001.19909-.006 1.728 1.728 0 011.95807 1.34045c.67914 1.70563 1.47162 3.36609 2.21338 5.04688 2.83795 6.43066 5.70484 12.84887 8.48291 19.3053a2.10541 2.10541 0 002.29474 1.53753c3.754-.07922 7.51068-.02862 11.42249-.02862a5.98572 5.98572 0 00-.89295-2.69819q-16.95156-37.96245-33.92172-75.91665zm-43.51746 39.56824c7.919-18.03089 15.77491-35.91809 23.63941-53.82477 1.13074 1.16345 23.40124 50.834 24.1347 53.82477zm168.30277-68.388c-3.23023 0-6.43744.15191-9.621-.05677-1.92206-.126-2.8244.68061-3.74286 2.18561q-15.73545 25.78382-31.58325 51.499a5.15206 5.15206 0 01-1.59656 2.07575c-.499-.77521-.93591-1.43427-1.35339-2.10541q-8.67453-13.9443-17.34443-27.89136-7.46951-12.0115-14.94519-24.0192c-.5329-.855-.90686-1.76691-2.29229-1.725-3.672.111-7.34949.03766-11.47907.03766.74854 1.29279 1.25848 2.18182 1.77612 3.06628q19.25172 32.89344 38.527 65.77289a8.8427 8.8427 0 011.30829 4.73535c-.06067 10.39661-.03 20.79377-.02966 31.19074 0 .55981.01184 1.11975.00488 1.67944-.00861.69251.30566.996 1.01471.99249q5.03833-.02471 10.0769-.00366c.67487.002 1.05762-.24518 1.04548-.96661-.0094-.55963.00433-1.11957.00439-1.67938.00037-10.71692.01733-21.43384-.0202-32.15058a7.038 7.038 0 011.00964-3.84228c2.2243-3.69611 4.33814-7.45868 6.49835-11.19348q15.96177-27.59666 31.908-55.20227c.40259-.69798 1.18353-1.33031.83414-2.39921z"/></svg>