<svg xmlns="http://www.w3.org/2000/svg" role="img" viewBox="-4.22 -5.72 505.44 139.44"><title>Samza logo</title><defs><style>.cls-1{fill:#ed242c}.cls-2{fill:#5a5a5a}</style></defs><path d="M491.92605 98.01635c-.40377.03057-.80721.082-1.21135.08866-9.32128.15438-9.32128.15348-10.75314-8.42438-2.61317 2.35983-4.89912 4.87272-7.6072 6.78893-9.65943 6.83492-21.67214 3.049-25.81089-7.96739-5.30148-14.11124.27406-28.30945 12.575-31.47836 5.758-1.48332 11.64425-.77438 17.44738.21268 1.32993.22621 2.55193 1.07237 3.37639-1.02134 3.38269-8.59058-2.01352-16.72671-11.34886-16.56383-4.83153.0843-9.65914.74251-14.474 1.27286-2.08529.22969-3.90178.123-3.51718-2.52742.36022-2.48279-1.9199-6.32664 2.14582-7.15279 8.32476-1.69161 16.78044-2.78224 25.28309-1.03581 7.8642 1.61528 11.47022 7.41337 13.895 14.33081zm-11.89242-25.58408c.00723-6.044.01747-6.13113-6.13933-6.85442a25.13224 25.13224 0 00-7.20973-.00951c-9.049 1.60456-13.26174 13.80862-7.27223 20.89509a7.34373 7.34373 0 008.09917 2.55331c5.36969-1.45656 14.14425-9.78553 12.52212-16.58447z" class="cls-1"/><path d="M41.01453 123.53964c-4.72718-1.51385-4.92821-6.42233-7.88772-10.383-2.805-3.754-8.00254-6.82231-11.1944-10.17091a37.795 37.795 0 00-3.1984-2.53564s2.67809-1.87009 3.61638-2.46956c1.04389-.667 2.90836-2.09526 2.90836-2.09526a12.11153 12.11153 0 012.962 2.5447 49.61032 49.61032 0 004.65665 4.77889c2.95043 2.67728 5.59588 5.31256 10.50595 3.4636 3.70651-1.39573 7.55483.78817 9.04556 4.39042 1.52758 3.69126 4.1715 4.54544 7.426 5.06328 29.90771 4.75892 58.01523-17.55733 60.10269-47.79523.2169-3.142.58816-6.2604-1.83976-9.18354-2.236-2.692-1.27173-5.88068 1.13046-8.21165a6.11 6.11 0 018.31977-.60179c2.703 1.92731 3.97061 4.73563 2.26526 7.94147-1.39556 2.62347-1.52387 5.32079-1.64612 8.17258-1.21089 28.24648-17.88561 49.9063-45.38669 56.48072a30.99606 30.99606 0 01-5.43981 1.16645c-9.55326.49156-14.44917 1.03214-23.50825-1.34332-3.59246-.94203-6.90855 2.68665-12.83793.78779zm3.56714-2.48253c3.32405-.42084 5.71737-2.19857 5.50808-5.76739-.17925-3.05651-2.02046-5.31291-5.50679-5.12195-3.46591.18982-5.84924 1.98288-5.62062 5.64.19539 3.12565 2.13981 5.0914 5.61933 5.24934zm82.31414-65.20517a3.12484 3.12484 0 10-6.23644-.00256 2.83058 2.83058 0 003.08989 2.9317c1.89632-.02499 2.85852-1.13373 3.14655-2.92914zM95.62358 5.62639c6.78061 2.36682 4.99588 9.6753 7.42029 12.53773 4.24411 5.01091 4.81189 6.39956 9.72932 11.39877a43.23855 43.23855 0 00-5.63537 3.44181s-2.00154-3.04942-3.87007-5.29335c-2.01465-2.41942-5.24061-5.88027-5.24061-5.88027s-2.21965.57892-3.87483 1.13064c-3.39324 1.13109-8.79113-1.18143-10.056-4.63785-1.40191-3.83078-4.2455-4.49207-7.4115-5.09548-30.556-5.82374-60.46541 18.63722-61.01348 49.89145-.03483 1.986-.22624 3.91474 1.45945 5.63747 3.0099 3.076 3.20609 6.6614.06541 9.66294-2.91147 2.78248-6.14769 3.12032-9.25674.76937a7.46457 7.46457 0 01-2.015-2.42 9.41088 9.41088 0 01.95952-7.31914c1.81206-2.63882.69331-3.09858.7363-5.14787.5787-27.58447 16.91456-49.292 43.2155-57.24724 1.57811-.47737 4.95323-1.4999 6.91873-2.06866 6.8908-1.994 14.95284-.3014 24.052.63968 4.32825.44761 9.74827-1.42024 13.81708 0zm-2.66144 13.60469a4.93068 4.93068 0 004.68248-5.5023 5.14264 5.14264 0 00-5.52953-5.23926c-3.43734.08479-5.94371 2.02-5.76452 5.592.15136 3.0173 1.99259 5.24092 6.61157 5.14956zM15.68049 73.4263c-.22909-1.8095-1.24355-2.98874-3.07052-2.94524a3.14268 3.14268 0 10.39067 6.27277c1.83224-.15034 2.65744-1.50465 2.67985-3.32753z" class="cls-2"/><path d="M297.81376 39.10278c16.00614-13.708 26.13245-13.16485 34.30829 1.55742 2.42831-2.35717 4.68763-4.89081 7.28818-7.00466 5.631-4.577 12.0919-5.67031 18.774-2.926 7.73167 3.17541 10.43679 10.13087 10.65577 17.654.44732 15.36853.08761 30.759.23493 46.13869.05316 5.5478-3.94157 3.30594-6.43456 3.51764-2.54555.21616-5.71226 1.22343-5.6241-3.68374.24365-13.55517.0941-27.11785.0592-40.67744-.02385-9.25632-2.70107-13.18947-8.82107-13.1204-6.95626.07851-14.51279 7.43125-14.56219 14.41338-.08883 12.54714-.351 25.10767.12351 37.63746.20975 5.53875-2.40126 5.43316-6.4583 5.65762-4.62328.2558-5.76582-1.21421-5.65629-5.73.314-12.94478.1162-25.90235.091-38.85484-.01713-8.82133-2.584-12.85657-8.26023-13.10307-6.808-.29566-15.14582 6.99446-15.22974 13.72342-.16153 12.95052-.347 25.91455.08988 38.8523.18871 5.5887-2.89282 4.83376-6.3866 5.04948-3.8931.24038-5.70261-.44748-5.6327-5.08354.28067-18.61492.13672-37.23659.09744-55.85565-.00732-3.47652-.66094-6.51 4.94068-6.42513 5.12118.07759 7.02531 1.47541 6.16367 6.45508a8.37839 8.37839 0 00.23923 1.80798zm-44.1571 49.37027a55.45664 55.45664 0 01-3.66178 4.88238c-5.52623 5.64583-12.123 8.25076-19.78591 5.38953-7.71281-2.87985-10.7158-9.45146-11.3811-17.14472-1.64906-19.069 9.2758-28.23423 30.08668-24.5868 5.07706.88984 5.25192-.636 5.21359-4.57336-.09851-10.11925-2.8075-13.03689-12.99816-12.79683-4.22109.09944-8.42939.76712-12.64193 1.19211-1.94861.19659-4.58616 1.013-4.00521-2.34441.436-2.51977-2.47526-6.51866 2.54026-7.37379 6.3636-1.085 12.74809-2.19981 19.25263-1.57983 13.77846 1.31327 19.34371 7.1877 19.537 21.1788.19833 14.356-.11333 28.72019.17951 43.073.08606 4.21836-1.76933 4.73166-5.03109 4.339-2.98867-.35983-7.52176 1.70817-6.80959-4.43218.12858-1.10895-.19578-2.27052-.4949-5.2229zm.41351-17.00942c1.60188-4.26176-1.42908-5.53634-5.66024-5.79487a43.15781 43.15781 0 00-6.04093-.3075c-4.38932.35546-8.40706 1.67186-10.37319 6.11376-2.18047 4.92616-2.05408 9.90094.92607 14.4284a7.08125 7.08125 0 008.44643 3.10535c6.71769-1.92595 12.67676-9.6591 12.70186-17.54514zM407.34739 98.127q-7.589.00162-15.17805.00075c-7.49807-.00251-9.77809-4.03316-5.95921-10.827 1.88044-3.34538 4.09536-6.50395 6.1838-9.731 6.70162-10.35534 13.34419-20.75 20.16076-31.02925 2.48053-3.74058 2.15139-5.20076-2.70248-5.0221-6.46684.238-12.96846-.26307-19.41928.13518-4.65357.28729-4.59883-2.17912-4.77538-5.54472-.203-3.869.86834-5.25925 4.9822-5.14469 10.51531.29283 21.0449.03151 31.56715.14521 2.53123.02735 6.47421-1.32607 7.31073.93983a11.93558 11.93558 0 01-1.47682 10.91888c-8.50094 12.80394-16.66524 25.832-24.895 38.81453-1.01636 1.60333-3.43235 3.20053-2.08332 5.1255.67665.96551 3.35487.67764 5.13071.69687 6.67759.07232 13.36427.238 20.03214-.02334 4.88175-.19137 3.58791 3.11335 3.76 5.70524.18256 2.75043.36312 5.14324-3.82159 4.92414-6.25649-.32756-12.54275-.08509-18.81636-.08403zm-226.59152 1.9154c-4.3619-.6727-8.13454-1.35572-11.935-1.80157-2.17286-.2549-3.05133-1.07308-3.23539-3.39172-.50612-6.37621.20254-7.12781 6.51632-6.40688a91.26634 91.26634 0 0012.66484.93359c4.3225-.11348 9.35151.13889 10.538-5.80452 1.39748-6.99989-.552-10.33916-7.51523-13.13785-3.93391-1.58114-7.99207-2.86236-11.88719-4.52893-9.24569-3.9559-12.19716-8.71528-11.94262-18.80164.24945-9.885 5.50655-15.78693 15.28143-17.219 5.85649-.858 11.68844-.30146 17.54564.03933 5.56387.32372 4.89164 4.1016 4.76438 7.75345-.1787 5.12815-3.43647 2.22425-5.608 2.18764-4.44516-.075-8.90386-.37227-13.33162-.12485-3.41995.1911-6.18259 1.74479-6.86838 5.648-.6904 3.92947-.22537 7.35189 3.845 9.17729 4.78662 2.14665 9.63461 4.15706 14.46477 6.20588 13.2585 5.62389 15.47116 15.02509 11.89587 27.78827-1.8322 6.54058-7.40989 9.39058-13.65426 10.53337-3.94633.72217-8.03153.68542-11.53856.95014z" class="cls-1"/><path d="M53.43621 87.97878c-16.81-8.50718-18.36085-33.60641-3.20678-45.24629a29.34206 29.34206 0 0113.12383-5.91732c4.11717-.69648 8.256-.82813 12.34631-2.43278 4.15651-1.63063 8.37947.46487 9.93353 4.72718 1.42477 3.90766 3.81348 6.9836 5.97962 10.34733 11.1735 17.35094.21533 40.3316-20.54943 43.2521-2.36331.33239-5.06815 1.13027-5.18623-2.85887-.08843-2.98721-.24389-5.0646 4.11191-5.52711C84.32 82.80127 92.26868 67.86411 85.746 55.566c-1.40061-2.6408-2.73673-4.56847-6.53716-3.53047a7.61908 7.61908 0 01-9.20737-4.21134c-1.77933-3.71157-4.375-3.48381-7.49494-2.61334-12.68491 3.53913-18.91671 18.78056-11.631 29.68413 2.75114 4.11713 3.27235 8.01685 2.56068 13.0838zM83.15338 43.1001c-.29892-3.197-2.00036-5.483-5.21659-5.61158-3.51068-.14039-5.66094 1.96772-5.65348 5.62554.00669 3.27378 1.88666 5.64868 5.039 5.72749 3.3729.08432 5.49631-2.14945 5.83107-5.74145z" class="cls-2"/><path d="M67.80458 108.92545c-2.68755.3277-5.602-.69749-8.59177-1.1691-4.13942-.653-3.76-3.79359-3.32059-6.53024.59-3.67407 3.04458-1.22855 4.70008-1.00958 14.53955 1.92312 27.09309-1.78035 35.99952-13.87852 8.43852-11.46263 10.00443-24.07092 3.91781-37.23066-1.59318-3.44456-3.09429-6.84573-7.78859-7.58991-3.00462-.47632-4.5479-3.26241-4.405-6.46232a6.29637 6.29637 0 014.92822-6.18291c2.76688-.75151 5.7116-.06115 6.87809 2.55819 4.21963 9.47508 10.96848 17.68283 11.92232 28.80111 2.18333 25.45037-18.35701 48.71594-44.24009 48.69394zm30.22256-73.9063c-.433-1.79783-1.57109-2.8251-3.42187-2.64778a2.82464 2.82464 0 00-2.70893 3.316 2.72579 2.72579 0 003.31644 2.65834c1.88484-.22145 2.6997-1.49441 2.81436-3.32656zm-19.62661-13.0899c-1.01738 5.58545-3.96945 6.99909-9.41712 6.84336a35.74855 35.74855 0 00-33.464 51.80622c1.62 3.24823 3.04895 6.40227 7.6884 6.638 3.10479.15774 4.76738 2.95668 4.95253 6.04627.18961 3.164-1.54854 5.35935-4.38836 6.61548a5.42037 5.42037 0 01-7.03574-1.89247c-6.49555-9.94376-13.09664-19.741-13.04885-32.53564.11646-31.17558 29.58867-51.29915 54.71314-43.52122zM44.6259 93.27405a2.89292 2.89292 0 00-3.313-2.68954 2.70483 2.70483 0 00-2.77638 3.2085 2.8242 2.8242 0 003.23478 2.81459 3.04142 3.04142 0 002.8546-3.33355z" class="cls-1"/></svg>