<svg xmlns="http://www.w3.org/2000/svg" role="img" viewBox="-1.56 -1.56 81.38 62.51"><title>Schema.org logo</title><g image-rendering="optimizeQuality" shape-rendering="geometricPrecision" text-rendering="geometricPrecision"><path fill="#FFF" fill-rule="evenodd" d="M3.842 0h72v48h-72z" clip-rule="evenodd"/><path fill="#005A9C" d="M21.959 8.006l5.759 19.58 5.759-19.58h15.614v1.946L43.212 20.08c2.065.663 3.627 1.868 4.686 3.615 1.059 1.748 1.589 3.799 1.589 6.155 0 2.914-.775 5.363-2.324 7.348-1.549 1.985-3.555 2.978-6.017 2.978-1.854 0-3.469-.589-4.845-1.767-1.377-1.178-2.396-2.773-3.058-4.786l3.256-1.35c.477 1.218 1.106 2.178 1.887 2.879.781.702 1.701 1.052 2.76 1.052 1.112 0 2.052-.622 2.82-1.866.768-1.245 1.152-2.74 1.152-4.489 0-1.933-.411-3.429-1.231-4.488-.954-1.244-2.45-1.867-4.489-1.867H37.81v-1.906l5.56-9.612h-6.712l-.382.65-8.163 27.548h-.397l-5.958-19.937-5.957 19.937h-.397L5.874 8.006h4.17l5.759 19.58 3.892-13.185-1.906-6.395z"/><path fill-rule="evenodd" d="M70.762 8.006c-.819 0-1.554.295-2.111.861-.591.6-.92 1.376-.92 2.178s.313 1.545.887 2.128c.583.591 1.334.912 2.145.912.793 0 1.562-.321 2.161-.903.574-.557.887-1.3.887-2.136 0-.811-.321-1.57-.878-2.136-.584-.592-1.344-.904-2.171-.904zm2.643 3.065c0 .701-.271 1.351-.768 1.832-.524.507-1.174.777-1.892.777-.675 0-1.342-.278-1.84-.785s-.777-1.157-.777-1.849.287-1.368.802-1.891c.481-.49 1.131-.751 1.84-.751.726 0 1.376.271 1.883.785.49.489.752 1.147.752 1.882zm-2.559-1.807h-1.3v3.445h.65V11.24h.642l.701 1.469h.726l-.769-1.57c.498-.102.785-.439.785-.929 0-.625-.472-.946-1.435-.946zm-.118.422c.608 0 .886.169.886.591 0 .405-.278.549-.87.549h-.549v-1.14z" clip-rule="evenodd"/><g><path d="M65.649 7.825l.676 4.107-2.391 4.575s-.918-1.941-2.443-3.015c-1.285-.905-2.122-1.102-3.431-.832-1.681.347-3.587 2.357-4.419 4.835-.995 2.965-1.005 4.4-1.04 5.718-.056 2.113.277 3.362.277 3.362s-1.452-2.686-1.438-6.62c.009-2.808.451-5.354 1.75-7.867 1.143-2.209 2.842-3.535 4.35-3.691 1.559-.161 2.791.59 3.743 1.403 1 .854 2.01 2.721 2.01 2.721zm.295 23.238s-1.057 1.889-1.715 2.617c-.659.728-1.837 2.01-3.292 2.651-1.455.641-2.218.762-3.656.624-1.437-.138-2.772-.97-3.24-1.317-.468-.347-1.664-1.369-2.34-2.322-.676-.953-1.733-2.859-1.733-2.859s.589 1.91.958 2.721c.212.467.864 1.894 1.789 3.136.863 1.159 2.539 3.154 5.086 3.604 2.547.451 4.297-.693 4.73-.97.433-.277 1.346-1.042 1.924-1.66.603-.645 1.174-1.468 1.49-1.962.231-.36.607-1.092.607-1.092z"/></g></g><path d="M16.4006 46.58398v10.13086h1.22265v-5.42968c.3342-.25608.68424-.46789 1.04883-.63282.36458-.16493.71463-.24609 1.04883-.24609.32552 0 .58897.04557.79296.13672.204.0868.36025.22005.46875.40234.10417.16493.17579.39627.21485.6914.03906.2908.05859.6033.05859.9375v4.14063h1.2246v-4.7207c0-.88975-.2068-1.57183-.61913-2.04492-.41233-.4731-1.01129-.70899-1.79688-.70899-.42968 0-.84787.08963-1.25586.26758-.40798.17795-.8036.42535-1.18554.74219v-3.66602zm-12.70313.25977c-1.05469 0-1.92361.26042-2.60938.78125-.68576.5165-1.0293 1.18056-1.0293 1.99219 0 .70746.20682 1.28385.61915 1.72656.41666.43837 1.05469.7474 1.91406.92969.42535.0868.82552.15841 1.20312.21484.38195.05642.73699.12804 1.0625.21484.4297.11285.7487.27258.95704.47657.21267.20399.31836.51953.31836.94922 0 .49913-.22288.89974-.66993 1.19922-.4427.29947-1.06467.44921-1.86328.44921-.56423 0-1.16623-.11067-1.8086-.33203C1.14887 55.22396.58246 54.90798.092 54.5H.0002v1.61523c.57726.25608 1.14367.44988 1.69922.58008.5599.13021 1.1899.19532 1.88867.19532.65104 0 1.20595-.07814 1.66602-.23438.4644-.15625.86957-.37457 1.2168-.65234.31684-.25608.56271-.56858.73632-.9375.17796-.36893.26758-.74154.26758-1.11914 0-.69445-.18229-1.23481-.54687-1.6211-.36458-.38628-.90842-.67426-1.6289-.86523-.35591-.09115-.78864-.18078-1.30079-.26758-.51215-.0868-.90777-.15994-1.18555-.2207-.52517-.12153-.89127-.29731-1.0996-.52735-.20834-.23003-.3125-.54752-.3125-.95117 0-.45139.20833-.82096.625-1.10742.421-.28646.9759-.42969 1.666-.42969.62935 0 1.24285.10417 1.8418.3125.6033.204 1.09007.4629 1.459.7754h.09179v-1.52345c-.43837-.19097-.94315-.3522-1.51172-.48242-.56858-.1302-1.19358-.19531-1.875-.19531zm24.16015 2.39648c-1.05902 0-1.9134.35005-2.56445 1.04883-.6467.69879-.9707 1.6428-.9707 2.83203 0 1.20226.33854 2.12978 1.01562 2.78516.67708.65104 1.61958.97656 2.82618.97656.47308 0 .92382-.05859 1.35351-.17578.42969-.11719.85135-.26194 1.26367-.43555V54.9375H30.717c-.21267.19097-.57075.38628-1.07422.58594-.49913.19531-.9974.29297-1.49219.29297-.37326 0-.71484-.05208-1.02734-.15625-.30816-.10417-.57509-.26042-.80078-.46875-.23438-.21268-.42014-.4846-.55469-.81446-.13455-.3342-.20117-.72483-.20117-1.17187h5.35742v-.66406c0-1.05469-.26693-1.8685-.80078-2.44141-.52951-.57292-1.28472-.85938-2.26563-.85938zm8.50391 0c-.42969 0-.8368.08963-1.21875.26758-.3776.17795-.75673.42535-1.13867.74219v-.8086H32.7795v7.27344h1.2246v-5.42968c.33421-.25608.66776-.46789 1.00196-.63282.33854-.16493.67557-.24609 1.00977-.24609.35156 0 .62.04709.80664.14258.18663.09114.32986.22938.42969.41601.09115.17361.14974.40647.17578.69727.03038.28646.04687.59093.04687.9121v4.14063h1.22265V52.0586c0-.1302-.003-.26041-.01172-.39062-.0087-.13455-.02018-.25174-.0332-.35156.34289-.26476.68642-.48112 1.0293-.6504.34288-.1736.68446-.25976 1.02735-.25976.35156 0 .62196.04709.80859.14258.18663.09549.32986.2372.42969.42383.09115.1736.14974.40451.17578.6953.03038.2908.04492.59376.04492.90626v4.14062h1.2246v-4.7207c0-.86805-.19227-1.54362-.57421-2.02539-.3776-.48611-.96506-.72852-1.76367-.72852-.46441 0-.90061.09266-1.3086.2793-.40798.1823-.85872.48177-1.35351.89844-.16927-.36892-.42817-.6569-.7754-.86524-.34288-.20833-.76106-.3125-1.25585-.3125zm25.09766 0c-1.02865 0-1.84744.34506-2.45508 1.03516-.6033.68576-.9043 1.62175-.9043 2.80664 0 1.1849.301 2.11893.9043 2.80469.60764.68576 1.42643 1.0293 2.45508 1.0293 1.01996 0 1.83377-.34354 2.4414-1.0293.60764-.68576.91016-1.6198.91016-2.80469 0-1.1849-.30252-2.12088-.91016-2.80664-.60763-.6901-1.42144-1.03516-2.4414-1.03516zm13.67187 0c-.3993 0-.80143.08615-1.20508.25977-.40364.16927-.74717.40864-1.0293.7168-.30381.32986-.5447.722-.72265 1.17773-.1736.45139-.25976.99024-.25976 1.61524 0 1.14149.2539 2.0269.76171 2.65625.51216.625 1.20226.9375 2.07032.9375.52083 0 .949-.07162 1.2832-.21485.33854-.14757.69162-.36892 1.06055-.66406v.66406c0 .29514-.03255.56207-.09766.80078-.0651.23872-.17427.44206-.32618.61133-.1519.17795-.36328.31814-.63671.41797-.27344.09983-.6185.14844-1.03516.14844-.43403 0-.8687-.0586-1.30273-.17578-.43403-.11285-.75153-.20703-.95118-.28516h-.06445v1.25c.3559.09982.7155.17448 1.08008.22656a7.48167 7.48167 0 001.13281.08594c1.1632 0 2.02605-.28993 2.58594-.86719.5599-.57725.83985-1.4822.83985-2.71484v-6.44531h-1.14649l-.07813.3125c-.31684-.17361-.61784-.30035-.9043-.38281-.28211-.08681-.63368-.13086-1.05468-.13086zm-26.89453.0254c-.43837 0-.88455.03905-1.33594.11718-.45138.07812-.79644.14974-1.03515.21485v1.24414h.0664c.42101-.1606.8277-.28277 1.22266-.36524.39497-.0868.75304-.1289 1.07422-.1289.26476 0 .51867.01606.76172.05078.24306.03472.4514.1033.625.20312.1823.10417.32248.2474.41797.42969.09983.18229.14844.41167.14844.68945v.18945c-.7118.03472-1.37739.08681-1.99805.15625-.62066.06944-1.153.20118-1.5957.39649-.43837.19531-.77691.46376-1.01563.80664-.23437.33854-.35156.78472-.35156 1.33594 0 .67274.22787 1.22613.6836 1.66015.45572.43403 1.01258.6504 1.66796.6504.3559 0 .66493-.03408.92969-.10352.26476-.0651.49913-.14822.70312-.24805.17362-.07813.35287-.1823.53516-.3125.18663-.13455.3329-.23871.4414-.3125v.7754h1.21876v-4.93556c0-.46874-.07162-.8609-.21485-1.17773-.14323-.31684-.35156-.57574-.625-.7754-.27777-.20398-.60829-.34721-.99023-.42968-.3776-.0868-.82183-.13086-1.33399-.13086zm-35.74219.0078c-1.07204 0-1.93641.33854-2.5918 1.01562-.65103.67708-.97656 1.6096-.97656 2.79883 0 .63802.08616 1.1964.25977 1.67383.17361.47742.41949.87109.73633 1.18359.3125.3125.68858.54687 1.12695.70312.43837.15191.92014.22852 1.44531.22852.41233 0 .79948-.0536 1.16407-.16211.36892-.1085.75803-.26172 1.16601-.45703v-1.34766h-.06445c-.09115.0738-.21484.16341-.3711.26758-.15624.09983-.324.19596-.50194.28711-.204.10416-.43338.1888-.68946.2539-.25607.06512-.50846.09767-.75586.09767-.7118 0-1.26519-.23438-1.66015-.70313-.39063-.47309-.58594-1.14865-.58594-2.02539 0-.90277.2003-1.58637.5996-2.05078.40365-.46875.95205-.70313 1.6465-.70313.3776 0 .76323.07813 1.1582.23438.3993.15625.78689.37912 1.16015.66992h.06445v-1.35936c-.3342-.16927-.70378-.3125-1.10742-.4297-.3993-.11718-.806-.17577-1.22266-.17577zm54.21875.16796v7.27344h1.22266v-5.16406c.32552-.26476.66406-.4796 1.01563-.64453.35156-.16927.71614-.25391 1.09375-.25391.23437 0 .4362.0115.60546.0332.17361.01737.35287.0484.53516.0918h.06445v-1.25781c-.19097-.03038-.3342-.04991-.42969-.0586-.09549-.01301-.25021-.01952-.46289-.01952-.38628 0-.7654.08312-1.13867.24804-.36892.1606-.7971.43555-1.2832.82618V49.4414zM27.79317 50.25c.65104 0 1.13433.17578 1.45117.52734.32119.35156.48395.84788.48829 1.49024H25.5666c.05208-.57292.27192-1.05317.6582-1.43946.39063-.38628.91298-.57812 1.56836-.57812zm33.66602.04492c.65538 0 1.16623.22938 1.53515.68945.36893.45573.5547 1.15582.5547 2.09766 0 .92014-.1873 1.61328-.56056 2.08203-.36892.4644-.87825.69727-1.5293.69727-.65971 0-1.17404-.23438-1.54296-.70313-.36892-.47309-.55469-1.16471-.55469-2.07617 0-.94184.1823-1.64193.54688-2.09766.36892-.46007.88672-.68945 1.55078-.68945zm13.88672.04492c.27777 0 .55425.03255.83203.09766.28211.06076.58659.16493.9121.3125v3.96484c-.29947.23004-.62999.4158-.99023.5547-.3559.13454-.7105.20116-1.0664.20116-.66406 0-1.13933-.20985-1.42579-.63086-.28645-.421-.42968-1.0395-.42968-1.85547 0-.85937.19184-1.5154.57812-1.9668.38629-.45138.9171-.67773 1.58985-.67773zm-25.16407 2.5586v2.02538c-.30382.23438-.63238.4362-.98828.60547-.3559.16493-.75.24805-1.17968.24805-.5165 0-.90061-.10417-1.15235-.3125-.25173-.21267-.37695-.52865-.37695-.94531 0-.36893.10916-.6569.32617-.86524.21701-.21267.5-.36892.85156-.46875.29514-.08247.69575-.14605 1.19922-.18945.50781-.04341.94705-.07596 1.32031-.09766zm4.03125 1.96093v1.85547h1.5547v-1.85547z"/></svg>