<svg xmlns="http://www.w3.org/2000/svg" role="img" viewBox="11.52 -2.98 345.96 570.96"><title>seaborn logo</title><path fill="#fff" d="M95.335 30.556h177.513v286.31H95.335z"/><path fill="#57068c" d="M346.77068 332.614H22.58487V8.41143h324.18581V332.614zm-173.31477-37.876c.38665 2.25145 5.2882 3.37657 6.41452 0l11.32689-89.83578h-27.55643l9.815 89.83578zm27.34519-96.326v-13.61432H154.013V198.412zm-13.47387-20.245c59.30014 2.13377 63.52206-51.92379 63.76821-72.164 0-1.16595-.56316-1.26562-.87887-.4575-1.7244 4.22192-9.45257 19.30722-30.85273 28.4547-19.08988 8.21329-30.59328 26.81205-32.57576 43.522a.52969.52969 0 00.53915.6448zm-6.519-3.91692c9.39244-45.029 46.0256-46.12526 49.2965-54.66756 5.1249-13.30336-4.23272-36.94416-6.62466-39.75877-.23415-.281-.55115-.10447-.66883.14769-5.018 10.93424-13.05119 21.2945-18.94938 26.06157-8.27933 6.6895-40.1034 30.28828-23.82813 68.24709a.39527.39527 0 00.77451-.03001zm-6.47337 1.794c-19.87638-42.4317 19.85237-69.83572 26.34985-75.78075.91369-.83813.66753-1.61864.67954-2.56244 0-13.33818-7.63331-34.99051-10.13212-38.06929-.36263-.48631-.66763-.275-.80812.19332-3.41259 13.2097-21.495 32.80991-25.11775 37.13149-30.68805 36.44584-23.65282 58.64932 8.36107 79.61.39857.24613.91367-.03005.66754-.52236zm-8.88811 1.47214c-33.24458-19.84156-29.91364-48.14256-16.14679-68.95075a3.15484 3.15484 0 00.30389-2.00529c-.562-4.96039-5.96784-17.47844-8.21938-20.861-.598-.897-1.0903-.82613-1.12632-.20533-.17532 5.664-6.64859 19.85236-16.49861 36.16366-10.48275 17.44362-10.51877 55.16107 41.54672 56.632.48032.036.62081-.45631.1405-.77332zM22.58487 364.67337H44.8532l51.45549 67.59028v-67.59028h23.82693v109.78181H99.59169L46.425 404.66029v69.79489H22.58487zm151.83286 66.48797l-42.17953-66.488h28.21335l26.20814 44.06715 26.65345-44.06715H240.764L198.57366 430.693v43.76214h-24.15593zm76.71254-3.76442v-62.72355h24.14513v62.09074c0 17.90592 8.935 27.14706 23.69844 27.14706 14.72867 0 23.66362-8.94816 23.66362-26.37256v-62.86524h24.15594v61.93824c0 33.25539-18.66841 49.57869-48.14737 49.57869-29.49217 0-47.51576-16.46379-47.51576-48.79338z"/><path fill="#231f20" d="M62.621 544.00322a6.4438 6.4438 0 001.33057 3.667q1.80689 1.93361 6.685 1.93458a10.23686 10.23686 0 004.55323-.84864 2.71845 2.71845 0 001.68847-2.5459 2.74654 2.74654 0 00-1.35986-2.47851q-1.36084-.84814-10.12109-2.91895-6.30689-1.56151-8.88623-3.90332a8.4629 8.4629 0 01-2.58008-6.65332 11.53024 11.53024 0 014.03125-8.80957q4.03125-3.68262 11.34472-3.68262 6.93971 0 11.311 2.76661 4.37109 2.76708 5.01807 9.55566h-9.67421a5.72461 5.72461 0 00-1.05518-2.95312q-1.60034-1.96875-5.44677-1.96875a7.842 7.842 0 00-4.50977.98437 2.83155 2.83155 0 00-1.34473 2.30762 2.52379 2.52379 0 001.43018 2.41015q1.429.78224 10.10059 2.68164 5.781 1.35792 8.667 4.10743a9.32779 9.32779 0 012.85156 6.959 11.23487 11.23487 0 01-4.09912 8.97852q-4.09863 3.479-12.66943 3.47949-8.7422 0-12.9087-3.68262a11.97141 11.97141 0 01-4.1665-9.38672zm55.273-24.4375a15.04789 15.04789 0 016.394 5.47364 18.18674 18.18674 0 012.94776 7.64941 47.232 47.232 0 01.31884 7.34375h-26.94823q.22485 5.56641 3.86914 7.80664a9.82024 9.82024 0 005.334 1.39258 7.51412 7.51412 0 007.36328-4.24317h9.87695a12.07906 12.07906 0 01-3.58643 6.68653q-4.97168 5.39794-13.92041 5.39746a20.16734 20.16734 0 01-13.03271-4.55274q-5.647-4.55127-5.64649-14.81347 0-9.61377 5.09717-14.74414 5.09693-5.12988 13.23145-5.13086a21.0584 21.0584 0 018.70168 1.73437zm-14.47266 8.35742a10.05327 10.05327 0 00-2.57763 5.72754h16.66748a8.071 8.071 0 00-2.57719-5.84668 8.477 8.477 0 00-5.7378-1.99511 7.6724 7.6724 0 00-5.77489 2.11425zm43.68015 5.3877a15.26439 15.26439 0 003.86426-.84863 2.91058 2.91058 0 002.08593-2.75 3.25144 3.25144 0 00-1.60009-3.13965 10.1129 10.1129 0 00-4.69678-.86524q-3.47535 0-4.92041 1.69727a6.99423 6.99423 0 00-1.37647 3.39453h-9.335a14.15524 14.15524 0 012.727-7.97754q3.85254-4.88819 13.22852-4.88769a23.592 23.592 0 0110.84131 2.41015q4.738 2.40967 4.73828 9.09668v16.97266q0 1.7666.06787 4.27734a5.37531 5.37531 0 00.57715 2.58008 3.46176 3.46176 0 001.42578 1.12012v1.42578H154.206a10.7753 10.7753 0 01-.61133-2.10449q-.16992-.98437-.27148-2.24024a19.98259 19.98259 0 01-4.64356 3.7002 14.03487 14.03487 0 01-7.102 1.79883 12.25283 12.25283 0 01-8.34765-2.86817q-3.29591-2.86816-3.29493-8.12988 0-6.82324 5.3003-9.87891a23.68481 23.68481 0 018.54931-2.376zm5.91553 4.51465a10.68286 10.68286 0 01-1.87549.93359 15.92606 15.92606 0 01-2.59766.66211l-2.20215.40723a14.47813 14.47813 0 00-4.44678 1.32422 4.41759 4.41759 0 00-2.28564 4.10742 4.292 4.292 0 001.396 3.58105 5.30481 5.30481 0 003.395 1.10254 10.10539 10.10539 0 005.84228-1.833q2.67188-1.83252 2.77442-6.68652zM202.704 523.263q4.15136 5.26172 4.15136 13.57812 0 8.62208-4.09472 14.291a14.86306 14.86306 0 01-18.834 3.83594 14.72883 14.72883 0 01-3.6167-3.80176v4.65039h-9.53857v-49.96776h9.67432V523.636a14.17473 14.17473 0 014.06543-3.9375 12.143 12.143 0 016.69628-1.69727q7.34551.00004 11.4966 5.26177zm-8.08643 22.54a13.71068 13.71068 0 002.08789-7.94336 17.77218 17.77218 0 00-1.02685-6.51758 7.15012 7.15012 0 00-7.187-4.88867 7.25832 7.25832 0 00-7.29052 4.78711 17.8283 17.8283 0 00-1.02686 6.585 13.70212 13.70212 0 002.12207 7.875 7.28372 7.28372 0 006.46875 3.12305 6.70936 6.70936 0 005.85255-3.02055zm49.81497 5.48733q-4.68456 5.78173-14.22265 5.78223-9.54054 0-14.22364-5.78223a22.95665 22.95665 0 010-27.79492q4.68457-5.86669 14.22364-5.86719 9.53758 0 14.22265 5.86719a22.95665 22.95665 0 010 27.79492zm-7.73926-5.34668q2.27345-3.01758 2.27442-8.57617 0-5.55908-2.27442-8.55859a8.5989 8.5989 0 00-13.05273 0q-2.291 3-2.291 8.55859 0 5.55909 2.291 8.57617a8.56992 8.56992 0 0013.05273 0zm39.90235-27.99316c.124.01172.40234.02832.832.05078v9.91211q-.917-.10107-1.62988-.13574-.71191-.03369-1.15332-.03418-5.83887 0-7.8418 3.80273a14.78072 14.78072 0 00-1.12012 6.585v17.68551h-9.74219v-37.001h9.2334v6.4502a20.42967 20.42967 0 013.90332-5.05762 10.62552 10.62552 0 017.06055-2.27441c.18069.00002.33401.00588.45804.01662zm36.33789 2.9873q3.63281 3.0044 3.63379 9.96289v24.916h-9.91211v-22.50584a10.33487 10.33487 0 00-.77539-4.48047q-1.41651-2.85206-5.3916-2.85156-4.88673 0-6.70606 4.1748a14.44321 14.44321 0 00-.94336 5.63575v20.02734H283.165v-36.93262h9.36817v5.39746a16.37944 16.37944 0 013.51562-4.10742 12.177 12.177 0 017.53809-2.24023 14.183 14.183 0 019.34664 3.0039z"/></svg>