<svg xmlns="http://www.w3.org/2000/svg" role="img" viewBox="-1.81 -4.31 796.12 335.12"><title>Semantic Segmentation Editor logo</title><path fill-rule="evenodd" d="M601.29124 13.59044v41.42583h55.23757s-.43213-41.42583 0-41.42583h27.18666v103.13315h-27.18666v-45.308h-55.23757v45.308h-27.61832s.43213-103.13315 0-103.13315zm-259.3484 0V31.282h-41.86032v85.44163h-27.18619V31.282H231.036V13.59044zm106.15388 103.13315h-30.20687l-9.0607-22.00578H357.4761l-8.63092 22.00578h-30.639l48.33288-103.13315h33.22944l48.32822 103.13315zM383.36867 31.282l-18.98792 46.6062h37.97584L383.36867 31.282zM705.294 13.59h27.186v103.134h-27.186V13.59zm-615.367 0v41.426h55.235V13.59h27.186v103.134h-27.186V71.416H89.927v45.308H62.738V13.59h27.189zm103.997 0h27.619v103.134h-27.619V13.59zm253.31312 74.65524a62.08472 62.08472 0 01-3.88448-22.00813c0-10.78871 2.156-21.14576 7.33683-30.20876a47.1103 47.1103 0 0123.30222-19.41769 84.53277 84.53277 0 0164.73037 1.72617 32.89682 32.89682 0 0119.41769 23.73431q.64812 3.23674 1.29588 6.47256h-28.91472a24.53655 24.53655 0 00-1.29169-7.769 21.16808 21.16808 0 00-12.94984-12.0809 54.30779 54.30779 0 00-12.08081-1.72614 35.15993 35.15993 0 00-13.37731 2.58809 23.9193 23.9193 0 00-15.1058 15.10343 68.57722 68.57722 0 00-3.45234 21.57789 65.794 65.794 0 002.58808 18.12365 26.36682 26.36682 0 0014.67366 16.39744c4.74874 1.29408 9.49749 2.59048 14.67371 2.59048a40.07276 40.07276 0 0012.51295-2.15831 18.86222 18.86222 0 0012.08557-10.78682c1.72382-3.02257 2.15595-6.90709 2.15595-10.78918h28.91472a39.146 39.146 0 01-1.29593 9.92492c-2.58855 9.92491-9.49325 18.55578-18.986 22.44026a88.07168 88.07168 0 01-35.38723 7.33683 97.49484 97.49484 0 01-27.61884-4.3119c-13.37722-4.32132-25.026-13.81411-29.34261-26.75924zM38.14133 145.63877l-24.16644 2.16066v3.44765h.86426c9.49279 1.29636 9.49279 1.29636 9.49279 8.20109v50.91626h14.6713v-65.15779l-.86191.43213zm51.78523 18.98557c-9.063 0-14.67366 6.04043-17.26174 9.92962v-9.92962h-.86427l-19.84982 3.02489v3.44767h.86191c6.47256.43214 7.7666 1.72853 7.7666 7.3368v31.93073h12.08558v-23.29751c0-6.04039 6.04043-14.24149 12.08086-14.24149 6.04279 0 6.475 4.744 6.475 12.94513v24.59387h12.08083V178.4337c0-8.63323-4.74639-13.80936-13.37491-13.80936zm47.89844 17.69858c-4.74639-2.16066-9.06065-4.32132-9.06065-7.769 0-3.45706 4.74639-3.88919 6.47256-3.88919A21.451 21.451 0 01146.888 174.554l2.15831 1.287v-9.48807h-1.72618a33.78473 33.78473 0 00-11.22131-1.72853c-11.65109 0-18.55578 5.17613-18.55578 13.37726 0 7.33683 7.33683 10.79389 13.80939 14.24153 4.74639 2.16066 9.49282 4.744 9.49282 8.20109 0 3.44764-3.02025 5.17617-8.19642 5.17617-5.613 0-10.79153-3.01551-13.37962-4.744l-1.72617-.86429v9.49752l1.29639.43213a59.264 59.264 0 0013.37491 1.71911c12.51535 0 19.85218-5.1762 19.85218-13.80942 0-8.62382-7.33683-12.08084-14.24152-15.52848zm54.37327-17.69858c-4.74639 0-9.06065 2.16066-13.37726 6.47256v-6.47256h-.86191l-19.42005 3.02489v3.44767h.86191c6.04279.43214 7.33683 1.72853 7.33683 7.3368v50.92571H178.821v-23.30689c2.15831 3.02493 6.04279 5.6083 12.94748 5.6083 12.513 0 19.4177-8.63322 19.4177-24.16173 0-14.67366-6.9047-22.87475-18.98792-22.87475zm-3.88444 6.9047c8.63083 0 9.4951 9.06532 9.4951 15.97 0 11.64874-3.02022 17.257-9.063 17.257-8.19874 0-9.92491-7.33683-9.92491-13.8094v-3.87981c0-4.744.86191-15.53788 9.49282-15.53788zm31.50323-3.87981v3.44767h.86431c6.04039.43214 7.33443 1.72853 7.33443 7.3368v31.93073h12.08326v-45.74009h-.862l-19.42005 3.02489zm14.24153-8.63323c4.31426 0 7.76661-3.01547 7.76661-6.47256a7.19394 7.19394 0 00-7.33683-6.90467c-4.31426 0-7.76661 3.02493-7.76661 6.90467 0 3.45709 3.45235 6.47256 7.33683 6.47256zm57.82519 15.97009v-9.49752l-.86426-.4321c-2.15784 0-3.884-.43213-5.61019-.43213-7.33494 0-10.78729 5.17613-12.513 9.06536v-9.06536h-1.29451l-19.41958 3.02489v3.44767h.86427c6.04043.43214 7.3364 1.72853 7.3364 7.3368v31.93073h12.51342v-22.86534c0-3.88919.86191-12.94513 12.513-12.94513a15.306 15.306 0 014.31614.86426l2.15831.42272v-.85485zm48.76266 8.19168c0-12.08087-6.90465-18.55343-20.71409-18.55343-15.10344 0-22.87 7.33679-22.87 22.01049 0 15.53789 9.92487 25.026 26.75448 25.026 7.33448 0 12.94513-2.15124 15.10344-2.58337l.43213-.43217v-5.61769l-.86427.43213a46.17684 46.17684 0 01-9.92491 1.2964c-12.94513 0-17.69152-10.78447-18.12365-20.7141h30.20687v-.86426zm-21.14387-13.3773c6.90234 0 8.63087 4.75349 8.63087 9.0654h-17.69387c.43213-3.44765 2.156-9.0654 9.063-9.0654zm133.34285-5.17613c-9.0606 0-14.24153 5.6083-17.26174 9.92962v-30.64375h-.86427l-19.41769 2.59279v3.44764h.86426c6.04048.4321 7.33683 1.72853 7.33683 7.33683v53.07692h12.08087v-22.8653c0-8.20109 6.47256-14.67366 11.65344-14.67366 6.9047 0 6.9047 5.17617 6.9047 9.49749v28.04151h12.513v-29.3379c0-4.74408 0-16.40219-13.80939-16.40219zm69.04697 18.55343c0-12.08087-6.90464-18.55343-20.282-18.55343q-23.30688 0-23.30212 22.01049c0 15.53789 9.92486 25.026 26.75447 25.026 7.33212 0 12.94513-2.15124 15.10109-2.58337l.86426-.43217v-5.61769l-1.2964.43213a45.57059 45.57059 0 01-9.49278 1.2964c-13.37726 0-18.126-10.78447-18.55343-20.7141h30.20687v-.86426zm-20.71409-13.3773c6.47257 0 8.20109 4.75349 8.20109 9.0654h-17.69387c.42742-3.44765 2.58808-9.0654 9.49278-9.0654zm-117.3775-18.12126v14.24152h-8.19874v5.17617h8.19874v27.61879c0 12.08084 7.33448 12.94513 16.8273 12.94513a47.93586 47.93586 0 007.33679-.86429h.43213v-5.60827h-.86427a10.68954 10.68954 0 01-3.88448.43213c-7.33447 0-7.76425-2.16066-7.76425-8.20109v-26.3224h13.80939v-5.17617H395.884v-14.24152zm242.08901-5.17621h-12.513v48.765c-2.58809-3.88922-31.9354-48.765-31.9354-48.765h-28.47835v3.44764l2.58809.4321c7.33683 1.29643 7.769 1.72856 7.769 8.63322v51.34843h13.37726v-50.91622c2.58808 3.87974 33.65922 50.91626 33.65922 50.91626h16.39748V146.503zm55.66971 36.67477c0-12.08087-6.47257-18.55343-20.282-18.55343-15.10579 0-22.87 7.33679-22.87 22.01049 0 15.53789 9.92492 25.026 26.75453 25.026a43.0322 43.0322 0 0015.10108-2.58337l.43214-.43217v-5.61769l-.86427.43213a50.52605 50.52605 0 01-9.92491 1.2964c-12.94513 0-18.126-10.78447-18.126-20.7141h29.77945v-.86426zm-20.71409-13.3773c6.47256 0 8.19638 4.75349 8.62852 9.0654h-17.69388c.43684-3.44765 2.16066-9.0654 9.06536-9.0654zm88.8968-18.12126v14.24152h-8.20109v5.17617h8.20109v27.61879c0 12.08084 7.33683 12.94513 16.82961 12.94513a48.00354 48.00354 0 007.33683-.86429h.42742v-5.60827h-.85955a10.70242 10.70242 0 01-3.88448.43213c-7.33683 0-7.769-2.16066-7.769-8.20109v-26.3224h13.80939v-5.17617H761.8231v-14.24152zm-25.03071 28.48305l12.94513-14.24153h-13.37726l-11.64873 13.8094-10.78918-13.8094h-18.99027v3.44765h.86426c6.47257.43209 8.2011 1.72852 12.08558 6.91407l7.76425 9.92024-12.94513 14.67366h13.37726l5.613-6.47256 12.08087 15.96064h14.6737l-23.30689-30.20217z"/><path fill="#e92d3c" fill-rule="evenodd" d="M749.31 151.679h-12.945l15.965-18.121h12.945l-15.965 18.121z"/><path fill="#231f20" d="M23.72412 292.63379a7.71033 7.71033 0 001.44824 3.89453q1.97535 2.34814 6.76807 2.34766a14.57454 14.57454 0 004.66064-.61914q3.39771-1.18653 3.39747-4.41016a3.25213 3.25213 0 00-1.66407-2.915 18.07088 18.07088 0 00-5.27832-1.7793l-4.11572-.90238q-6.06738-1.34179-8.33691-2.915-3.84375-2.63087-3.84278-8.22754a10.9275 10.9275 0 013.75926-8.48539q3.76026-3.37793 11.04443-3.37793a16.9367 16.9367 0 0110.37793 3.18457q4.29492 3.186 4.50391 9.24609H38.812a5.44256 5.44256 0 00-3.06689-4.874 10.51238 10.51238 0 00-4.73291-.9541 9.00885 9.00885 0 00-5.02393 1.2373 3.91771 3.91771 0 00-1.87743 3.456 3.26168 3.26168 0 001.85107 3.04394 22.97931 22.97931 0 005.05079 1.57325l6.67138 1.57324a16.9601 16.9601 0 016.5752 2.75976 9.30091 9.30091 0 013.39941 7.7627 10.90829 10.90829 0 01-4.02832 8.65332q-4.02759 3.44238-11.37842 3.44336-7.50805 0-11.80908-3.3916a11.2223 11.2223 0 01-4.30127-9.32422zm47.23145-15.80762a11.43842 11.43842 0 014.85791 4.15918 13.81574 13.81574 0 012.23974 5.81153 35.95844 35.95844 0 01.24219 5.5791h-20.4751q.17139 4.23046 2.93994 5.93261a7.466 7.466 0 004.05274 1.05664 5.70691 5.70691 0 005.59424-3.22363h7.50439a9.17519 9.17519 0 01-2.7251 5.08106q-3.77709 4.10008-10.57617 4.10058a15.32057 15.32057 0 01-9.90234-3.459q-4.28981-3.45851-4.28955-11.25488 0-7.30372 3.87256-11.20215a13.55218 13.55218 0 0110.05273-3.89844 16.01024 16.01024 0 016.61182 1.3174zM59.959 283.17578a7.6378 7.6378 0 00-1.958 4.35156h12.66355a6.13467 6.13467 0 00-1.9585-4.44238 6.44407 6.44407 0 00-4.35937-1.51562 5.83131 5.83131 0 00-4.38768 1.60644zm57.12938-6.8164a8.17945 8.17945 0 013.27539 2.52832 8.08064 8.08064 0 011.59912 3.61035 24.97266 24.97266 0 01.25781 4.15234l-.05127 17.71875h-7.53125v-17.89941a5.88142 5.88142 0 00-.51562-2.63086 3.66707 3.66707 0 00-3.61084-1.96 4.2254 4.2254 0 00-4.2041 2.52734 7.9425 7.9425 0 00-.59326 3.22461v16.73828H98.3125v-16.73824a9.40379 9.40379 0 00-.51611-3.63672 3.5998 3.5998 0 00-3.63623-2.03711q-3.14723 0-4.23 2.03711a7.84919 7.84919 0 00-.59327 3.45606v16.91894H81.8833v-28.06055h7.144v4.10059a11.84117 11.84117 0 012.57911-3.12109 10.20417 10.20417 0 0110.75488-.23145 8.25992 8.25992 0 012.4248 3.37793 9.34615 9.34615 0 013.585-3.63672 10.94056 10.94056 0 015.05469-1.16015 9.804 9.804 0 013.6626.72168zm23.02441 10.91015a11.63125 11.63125 0 002.93555-.64453 2.212 2.212 0 001.585-2.08887 2.46957 2.46957 0 00-1.21582-2.38574 7.68226 7.68226 0 00-3.56836-.6582 4.68373 4.68373 0 00-3.73877 1.29 5.31023 5.31023 0 00-1.04541 2.5791h-7.09277a10.7545 10.7545 0 012.07226-6.06153q2.92677-3.71337 10.0503-3.71386a17.92133 17.92133 0 018.2373 1.83105q3.60058 1.83252 3.6001 6.91211v12.89551q0 1.3418.05176 3.25a4.08089 4.08089 0 00.43847 1.96 2.62924 2.62924 0 001.083.85156v1.083h-7.99512a8.18614 8.18614 0 01-.46435-1.59863q-.12891-.74854-.20606-1.70313a15.17066 15.17066 0 01-3.52832 2.81153 10.66309 10.66309 0 01-5.396 1.36718 9.31 9.31 0 01-6.34278-2.17968 7.74921 7.74921 0 01-2.50341-6.17676q0-5.18409 4.02734-7.50488a17.98365 17.98365 0 016.49561-1.80567zm4.49463 3.43067a8.18737 8.18737 0 01-1.42529.709 12.09447 12.09447 0 01-1.97363.50293l-1.67334.30957a11.00274 11.00274 0 00-3.37842 1.00586 3.3555 3.3555 0 00-1.73682 3.12012 3.26131 3.26131 0 001.06055 2.72168 4.03239 4.03239 0 002.57959.83789 7.67978 7.67978 0 004.439-1.39258q2.03028-1.39307 2.1084-5.08106zm36.41651-12.83204q2.76049 2.28369 2.76074 7.57032v18.93066h-7.53076v-17.09961a7.85313 7.85313 0 00-.58887-3.4043q-1.07593-2.16649-4.09668-2.167a5.077 5.077 0 00-5.09473 3.17285 10.96865 10.96865 0 00-.71679 4.28125v15.2168h-7.35059v-28.06054h7.11816v4.10059a12.47079 12.47079 0 012.6709-3.12109 9.25521 9.25521 0 015.72754-1.70215 10.77687 10.77687 0 017.10108 2.28222zm6.70654 3.88184v-5.23535h3.92041v-7.84082h7.273v7.84082h4.56543V281.75h-4.56543v14.85645a3.346 3.346 0 00.43847 2.15332q.43873.4248 2.68262.42578.33472 0 .709-.01367c.249-.00782.49414-.02149.73535-.03809v5.49321l-3.48194.12891q-5.21044.18018-7.11865-1.80566a5.3747 5.3747 0 01-1.23779-3.89454V281.75zm28.03564-8.8457H208.312v-6.78321h7.4541zm-7.4541 3.35254h7.4541v28.1123H208.312zm31.38819 10.08398a6.51609 6.51609 0 00-1.06006-2.83691 4.44892 4.44892 0 00-3.852-1.70215 5.07125 5.07125 0 00-5.09327 3.68847 15.30217 15.30217 0 00-.72363 5.19629 14.06456 14.06456 0 00.72363 4.96485 4.91548 4.91548 0 004.96387 3.50781 4.38133 4.38133 0 003.67139-1.39258 6.92141 6.92141 0 001.31836-3.61035h7.50537a12.2871 12.2871 0 01-2.42681 6.34375q-3.46 4.82373-10.249 4.82324-6.79029 0-9.99121-4.02344-3.20142-4.02246-3.20166-10.43359 0-7.23194 3.53662-11.25683 3.53687-4.02247 9.75927-4.02344a14.70506 14.70506 0 018.66163 2.373q3.3684 2.37306 3.98877 8.38184zm33.55419 6.29297a7.71033 7.71033 0 001.44825 3.89453q1.97533 2.34814 6.76806 2.34766a14.57461 14.57461 0 004.66065-.61914q3.39769-1.18653 3.39746-4.41016a3.25214 3.25214 0 00-1.66406-2.915 18.071 18.071 0 00-5.27832-1.7793l-4.11573-.90238q-6.06738-1.34179-8.33691-2.915-3.84375-2.63087-3.84277-8.22754a10.92753 10.92753 0 013.75927-8.48535q3.76026-3.37793 11.04444-3.37793a16.93672 16.93672 0 0110.37793 3.18457q4.29492 3.186 4.5039 9.24609h-7.63427a5.44259 5.44259 0 00-3.0669-4.874 10.51238 10.51238 0 00-4.73291-.9541 9.00887 9.00887 0 00-5.02393 1.2373 3.91771 3.91771 0 00-1.87744 3.45606 3.26168 3.26168 0 001.85108 3.04394 22.97916 22.97916 0 005.05078 1.57325l6.67139 1.57324a16.96 16.96 0 016.57519 2.75976 9.30091 9.30091 0 013.39941 7.7627 10.90829 10.90829 0 01-4.02832 8.65332q-4.02758 3.44238-11.37841 3.44336-7.50806 0-11.80909-3.3916a11.22229 11.22229 0 01-4.30126-9.32422zm47.23145-15.80762a11.43831 11.43831 0 014.85791 4.15918 13.81575 13.81575 0 012.23975 5.81153 35.95869 35.95869 0 01.24218 5.5791h-20.47509q.17137 4.23046 2.93994 5.93261a7.466 7.466 0 004.05273 1.05664 5.70691 5.70691 0 005.59424-3.22363h7.50439a9.17516 9.17516 0 01-2.72509 5.08106q-3.7771 4.10008-10.57618 4.10058a15.32057 15.32057 0 01-9.90234-3.459q-4.28979-3.45851-4.28955-11.25488 0-7.30372 3.87256-11.20215a13.55219 13.55219 0 0110.05273-3.89844 16.01024 16.01024 0 016.61182 1.3174zm-10.99658 6.34961a7.63781 7.63781 0 00-1.958 4.35156h12.66357a6.13466 6.13466 0 00-1.95849-4.44238 6.4441 6.4441 0 00-4.35938-1.51562 5.83127 5.83127 0 00-4.3877 1.60644zm35.96045-6.94531a8.8335 8.8335 0 014.32715 4.07519v-4.04882h7.16992v26.668q0 5.44189-1.83106 8.20118-3.14721 4.74609-12.07031 4.74609a16.445 16.445 0 01-8.79492-2.11523 7.80389 7.80389 0 01-3.76563-6.31836h7.99561a3.306 3.306 0 001.00586 1.85644 6.20853 6.20853 0 003.99756 1.00586q3.97119 0 5.313-2.65625a13.4552 13.4552 0 00.877-5.72558v-1.80567a8.96282 8.96282 0 01-2.26953 2.708 9.1252 9.1252 0 01-5.7002 1.67676 10.7861 10.7861 0 01-8.65283-3.80371q-3.23658-3.80421-3.23682-10.30372a17.38534 17.38534 0 013.1167-10.53613 10.29294 10.29294 0 018.835-4.26855 9.68387 9.68387 0 013.6835.6445zm2.50341 20.15625q1.77247-1.94678 1.77247-6.20313a9.51739 9.51739 0 00-1.68262-6.08593 5.488 5.488 0 00-4.50733-2.08985 5.31321 5.31321 0 00-5.3164 3.63672 12.94661 12.94661 0 00-.77051 4.77149 10.91453 10.91453 0 00.82178 4.35839 5.35652 5.35652 0 005.34228 3.55957 5.64273 5.64273 0 004.34033-1.94726zm50.92969-20.02734a8.21915 8.21915 0 014.875 6.13867 24.97266 24.97266 0 01.25781 4.15234l-.05078 17.71875h-7.53125v-17.89941a5.88142 5.88142 0 00-.51562-2.63086 3.66706 3.66706 0 00-3.61084-1.96 4.2254 4.2254 0 00-4.2041 2.52734 7.9425 7.9425 0 00-.59326 3.22461v16.73828h-7.40186v-16.73824a9.40379 9.40379 0 00-.51611-3.63672 3.5998 3.5998 0 00-3.63623-2.03711q-3.14723 0-4.23 2.03711a7.84919 7.84919 0 00-.59327 3.45606v16.91894h-7.45361v-28.06055h7.144v4.10059a11.84117 11.84117 0 012.57911-3.12109 10.20417 10.20417 0 0110.75488-.23145 8.25992 8.25992 0 012.4248 3.37793 9.34615 9.34615 0 013.585-3.63672 10.94056 10.94056 0 015.05469-1.16015 9.79905 9.79905 0 013.66164.72168zm30.20899.46679a11.43681 11.43681 0 014.8584 4.15918 13.80236 13.80236 0 012.23925 5.81153 35.77342 35.77342 0 01.24219 5.5791H415.957q.17139 4.23046 2.93945 5.93261a7.46715 7.46715 0 004.05274 1.05664 5.707 5.707 0 005.59473-3.22363h7.50488a9.17938 9.17938 0 01-2.72559 5.08106q-3.77783 4.10008-10.57617 4.10058a15.32152 15.32152 0 01-9.90234-3.459q-4.29053-3.45851-4.29-11.25488 0-7.30372 3.873-11.20215a13.55145 13.55145 0 0110.05274-3.89844 16.00953 16.00953 0 016.61136 1.3174zm-10.9961 6.34961a7.6378 7.6378 0 00-1.958 4.35156h12.66308a6.13435 6.13435 0 00-1.958-4.44238 6.44407 6.44407 0 00-4.35937-1.51562 5.83056 5.83056 0 00-4.38771 1.60644zm44.72364-5.30762q2.76123 2.28369 2.76074 7.57032v18.93066h-7.53125v-17.09961a7.85313 7.85313 0 00-.58887-3.4043q-1.0752-2.16649-4.0957-2.167a5.07824 5.07824 0 00-5.09571 3.17285 10.97769 10.97769 0 00-.71679 4.28125v15.2168h-7.35059v-28.06054h7.11914v4.10059a12.47058 12.47058 0 012.6709-3.12109 9.25125 9.25125 0 015.72656-1.70215 10.77824 10.77824 0 017.10157 2.28222zm6.70703 3.88184v-5.23535h3.91992v-7.84082h7.27344v7.84082h4.56445V281.75h-4.56445v14.85645a3.3428 3.3428 0 00.43847 2.15332q.438.4248 2.68164.42578.33546 0 .71-.01367c.249-.00782.49415-.02149.73438-.03809v5.49321l-3.48145.12891q-5.21045.18018-7.11816-1.80566a5.37477 5.37477 0 01-1.23828-3.89454V281.75zm31.6123 5.51953a11.652 11.652 0 002.93653-.64453 2.212 2.212 0 001.585-2.08887 2.47126 2.47126 0 00-1.21582-2.38574 7.684 7.684 0 00-3.56934-.6582 4.68391 4.68391 0 00-3.73828 1.29 5.32447 5.32447 0 00-1.0459 2.5791H488.999a10.75406 10.75406 0 012.07129-6.06153q2.92823-3.71337 10.05078-3.71386a17.92281 17.92281 0 018.23731 1.83105q3.60058 1.83252 3.60058 6.91211v12.89551q0 1.3418.05079 3.25a4.09259 4.09259 0 00.43847 1.96 2.63574 2.63574 0 001.084.85156v1.083h-7.99512a8.18892 8.18892 0 01-.46484-1.59863q-.12891-.74854-.20606-1.70313a15.18108 15.18108 0 01-3.52832 2.81153 10.6613 10.6613 0 01-5.39551 1.36718 9.30657 9.30657 0 01-6.34277-2.17968 7.74638 7.74638 0 01-2.50391-6.17676q0-5.18409 4.02735-7.50488a17.98353 17.98353 0 016.49609-1.80567zm4.49512 3.43067a8.20022 8.20022 0 01-1.42481.709 12.09659 12.09659 0 01-1.9746.50293l-1.67286.30957a11.01564 11.01564 0 00-3.3789 1.00586 3.35685 3.35685 0 00-1.73633 3.12012 3.26128 3.26128 0 001.06055 2.72168 4.03377 4.03377 0 002.58007.83789 7.6794 7.6794 0 004.43848-1.39258q2.03028-1.39307 2.1084-5.08106zm10.8584-8.9502v-5.23535h3.91992v-7.84082h7.27344v7.84082H532.25V281.75h-4.56445v14.85645a3.3428 3.3428 0 00.43847 2.15332q.438.4248 2.68164.42578.33546 0 .71-.01367c.249-.00782.49415-.02149.73438-.03809v5.49321l-3.48145.12891q-5.21044.18018-7.11816-1.80566a5.37477 5.37477 0 01-1.23828-3.89454V281.75zm28.03515-8.8457h-7.4541v-6.78321h7.4541zm-7.4541 3.35254h7.4541v28.1123h-7.4541zm38.01563 24.67285q-3.55811 4.39453-10.80567 4.39355-7.248 0-10.80664-4.39355a17.43949 17.43949 0 010-21.11719q3.5581-4.459 10.80664-4.459 7.24659 0 10.80567 4.459a17.43949 17.43949 0 010 21.11719zm-5.87989-4.0625a13.12707 13.12707 0 000-13.01856 6.53313 6.53313 0 00-9.917 0 13.044 13.044 0 000 13.01856 6.5096 6.5096 0 009.917 0zm37.37012-18.99903q2.76123 2.28369 2.76074 7.57032v18.93066h-7.53125v-17.09961a7.8533 7.8533 0 00-.58886-3.4043q-1.0752-2.16649-4.09571-2.167a5.07824 5.07824 0 00-5.0957 3.17285 10.97749 10.97749 0 00-.7168 4.28125v15.2168h-7.35058v-28.06054h7.11914v4.10059a12.47038 12.47038 0 012.6709-3.12109 9.25125 9.25125 0 015.72656-1.70215 10.77823 10.77823 0 017.10156 2.28222zm52.97656-4.78416h-20.11718v8.07325h18.46679v6.60254h-18.46679v9.77441h21.0459v6.835h-28.8086v-38.0166h27.87988zm21.43262 3.624a8.93758 8.93758 0 013.22363 3.10742V266.4043h7.45409v37.96484h-7.14454v-3.89453a10.37239 10.37239 0 01-3.585 3.63672 10.0711 10.0711 0 01-5.0039 1.13476 10.44788 10.44788 0 01-8.292-3.98437 15.307 15.307 0 01-3.36523-10.22656q0-7.19532 3.31445-11.32227a10.78112 10.78112 0 018.8584-4.127 9.06742 9.06742 0 014.5401 1.12211zm1.80469 20.02734a10.25125 10.25125 0 001.625-6.00976q0-5.15772-2.60449-7.376a5.60642 5.60642 0 00-3.71387-1.3418 5.16363 5.16363 0 00-4.7334 2.4375 13.13778 13.13778 0 00.02637 12.27637 5.18894 5.18894 0 004.65527 2.334 5.427 5.427 0 004.74515-2.3203zm23.10937-23.83104h-7.4541v-6.78321h7.4541zm-7.4541 3.35254h7.4541v28.1123h-7.4541zm11.68457 5.49316v-5.23535h3.91992v-7.84082h7.27344v7.84082h4.56445V281.75h-4.56445v14.85645a3.34278 3.34278 0 00.43848 2.15332q.438.4248 2.68164.42578.33545 0 .71-.01367c.249-.00782.49414-.02149.73437-.03809v5.49321l-3.48144.12891q-5.21044.18018-7.11816-1.80566a5.37473 5.37473 0 01-1.23829-3.89454V281.75zm43.92188 19.17969q-3.5581 4.39453-10.80567 4.39355-7.248 0-10.80664-4.39355a17.43949 17.43949 0 010-21.11719q3.55811-4.459 10.80664-4.459 7.24659 0 10.80567 4.459a17.43949 17.43949 0 010 21.11719zm-5.87989-4.0625a13.12707 13.12707 0 000-13.01856 6.53313 6.53313 0 00-9.917 0 13.044 13.044 0 000 13.01856 6.5096 6.5096 0 009.917 0zm30.31739-21.26856c.09472.00879.30469.02246.63183.03907v7.5313q-.69579-.07764-1.23828-.10352c-.36035-.0166-.65332-.02539-.877-.02539q-4.43555 0-5.957 2.88867a11.23465 11.23465 0 00-.85156 5.00293v13.4375h-7.40235v-28.1123h7.01563v4.90039a15.52965 15.52965 0 012.96582-3.84278 8.07213 8.07213 0 015.36425-1.72851c.13772-.00005.25393.00483.34866.01264z"/></svg>