<svg xmlns="http://www.w3.org/2000/svg" role="img" viewBox="-9.46 -9.46 902.92 1271.92"><title>Spark-NLP logo</title><defs><clipPath id="clip-path"><path fill="none" d="M340.88908 670.77547c1.48407 19.95355 8.39936 38.09314 21.40515 53.00836 25.567 29.32055 58.71747 40.54419 97.1178 37.9945 44.473-2.95312 83.86249-37.07141 90.62976-78.84625l.00019-.00049c6.36554-22.01117 2.151-169.31585 3.42852-191.551l-173.71832.252c-18.61139.0094-38.8631-.252-38.8631-.252"/></clipPath><style>.cls-104{fill:#3f449a}.cls-105{fill:#1898d5}</style></defs><path fill="#848484" d="M171.84036 1196.11945a43.57564 43.57564 0 0020.78756 5.47917c10.024 0 15.63451-4.71048 15.63451-11.74255 0-6.49372-4.35525-10.32163-15.23981-14.27118-14.20908-5.03918-23.28386-12.66264-23.28386-24.98882 0-14.09 11.78007-24.69376 30.43951-24.69376 9.32389 0 16.1392 1.98254 20.61739 4.25237L217.037 1142.829a37.25253 37.25253 0 00-17.18223-4.08413c-9.97418 0-14.20584 5.307-14.20584 10.363 0 6.59726 4.97447 9.70048 16.45366 14.08225 14.94088 5.70563 22.125 13.20228 22.125 25.56469 0 13.83508-10.42128 25.83643-32.61421 25.83643-9.10326 0-18.54815-2.58817-23.25021-5.46622zm60.29504-24.4013c0-8.05569-.22776-14.74741-.51051-20.5915h13.795l.77322 9.54259h.25493c4.56619-7.014 11.80013-10.94538 21.29808-10.94538 14.23884 0 26.061 12.19806 26.061 31.59 0 22.53393-14.101 33.34085-28.25055 33.34085-7.815 0-14.2919-3.265-17.4637-8.29381h-.25559v32.15676H232.1354zm15.7018 15.52646a19.72611 19.72611 0 00.43352 4.28213 14.23966 14.23966 0 0013.79432 10.98809c9.96576 0 15.81244-8.27957 15.81244-20.47375 0-11.00362-5.34587-19.94187-15.44751-19.94187a14.71418 14.71418 0 00-14.026 11.63125 16.3051 16.3051 0 00-.56681 3.9612zm90.7288 26.00596l-1.07474-6.92077h-.37788c-3.76579 4.90329-10.266 8.32486-18.30744 8.32486-12.60505 0-19.586-9.00426-19.586-18.47827 0-15.67656 13.96643-23.6119 36.84912-23.52132v-1.0275c0-4.08155-1.61632-10.87292-12.61411-10.83151a33.11709 33.11709 0 00-16.70213 4.63542l-3.11228-10.19481c4.693-2.85217 12.7364-5.51281 22.51775-5.51281 19.92505 0 25.61257 12.563 25.61257 26.19231v22.36958a93.20377 93.20377 0 00.966 14.96482zm-2.0796-30.42527c-11.08385-.14623-21.68566 2.18959-21.68566 11.65066 0 6.08092 3.99032 8.94732 8.95443 8.94732a12.788 12.788 0 0012.29318-8.59662 11.86276 11.86276 0 00.438-3.4151zm29.7186-11.72442c0-8.32228-.17341-14.43813-.51052-19.97423h13.60344l.58169 11.80724h.44193c3.06116-8.75061 10.30352-13.21 17.00559-13.21a14.93147 14.93147 0 013.68686.34164v14.7927a21.30155 21.30155 0 00-4.60566-.44516c-7.48241 0-12.67687 4.76353-14.0816 11.88359a26.05887 26.05887 0 00-.40181 4.73636v32.21758H366.205zm59.85145 7.27147h.25559c1.47655-2.42771 3.27533-5.06765 4.89876-7.29477l15.15311-19.95093h18.871l-23.036 25.35892 26.28161 36.765h-19.2748l-17.85839-27.45922-5.29088 6.29961v21.15961h-15.7018V1122.649h15.7018zm74.98715-4.49566v10.8108h-32.53528v-10.8108zm11.55684 39.37388V1127.243h17.9561l22.21817 36.91253a241.43278 241.43278 0 0114.63612 28.82837l.30929-.08153c-1.11033-11.42161-1.40667-22.50158-1.40667-35.64691V1127.243h14.52612v86.00759h-16.2809l-22.44335-37.83521a295.34091 295.34091 0 01-15.41775-29.67082l-.40634.08153c.63022 11.17314.83469 22.53134.83469 36.6563v30.7682zm82.13461-86.00757h15.71927v72.82473h35.37v13.18286h-51.08927zm63.53217 1.09737a142.55443 142.55443 0 0124.05837-1.76772c11.47078 0 19.84482 2.41218 25.324 7.03724 5.12846 4.2019 8.41933 10.95574 8.41933 19.04119 0 8.14628-2.54547 14.86388-7.32712 19.48377-6.32291 6.26209-16.04538 9.2579-27.19135 9.2579a38.36228 38.36228 0 01-7.68946-.603v32.46087h-15.59377zm15.59375 40.09469a31.0331 31.0331 0 007.69593.71821c11.74125 0 18.91049-5.84927 18.91049-15.9315 0-9.47918-6.63608-14.57271-17.51158-14.57271a45.24939 45.24939 0 00-9.09484.748z"/><path fill="#0197d9" d="M704.00932 237.33082c.01435-5.67651.45032-12.47558.45032-12.47558l-114.43341 12.56622s.27887 13.29743.37128 20.80573c.70276 57.08746.25671 114.18914.236 171.28558-.02777 76.29688.655 152.60242-.27289 228.88837-1.1236 92.373-85.07886 158.91174-175.38184 140.46985-39.20282-8.006-57.01674-20.59548-82.82576-48.3666-12.0766-11.3103-24.14952-36.28679-27.52354-49.88188-8.38379-31.20117-6.13263-63.106-6.15314-94.84-.07525-116.21411-.19629-232.42895.22077-348.6416.02087-5.82336.168-15.64776.168-15.64776s-9.03034-.54145-14.78559-.8667c-28.19671-1.59351-84.44879-7.06207-84.44879-7.06207l-13.82917-1.21038s.06634 9.4035.07727 13.15216c.40393 137.93982-.76709 275.89172.63818 413.81842.85755 84.16815 36.05115 154.04706 103.90357 203.4566 84.16784 61.29023 176.85 70.53211 270.10968 23.59461 91.29-45.94641 140.48541-123.95874 142.4895-226.141 2.76361-140.9191.63306-281.9321.98956-422.90397z"/><path fill="#3e4094" d="M320.46517 188.78674c3.85815-15.35167 14.90372-20.33981 29.379-20.3445 29.80194-.00967 59.625-.6553 89.39577.30821 12.49093.40425 15.61183-3.97344 14.76155-15.42722a279.857 279.857 0 01-.01046-34.8329c.87786-17.27249 10.75046-26.65375 28.12178-26.95287 17.6738-.30434 35.36245-.35193 53.034.0087 14.03758.28649 22.81845 8.40424 23.40817 22.44159a461.84368 461.84368 0 01-.1399 48.468c-1.25393 19.81735-14.89479 31.98421-34.7328 32.8044-32.9994 1.36433-33.01152 1.36433-33.00564 34.77619.00338 19.19425.36187 38.39535-.066 57.5794-.17557 7.87152 2.34431 10.70745 10.332 10.418 14.12431-.51175 28.28513-.32938 42.42351-.05927 18.52482.3539 27.73456 9.6155 27.89334 28.2058q.31068 36.36577.00078 72.73623c-.135 19.67765-9.13641 29.04658-28.42911 29.24922-24.748.26-49.501.10793-74.25156.03456-12.17667-.03609-21.52871-4.39384-24.99321-17.19729-2.57216-19.47433-1.3415-39.06445-.80633-58.54179.32325-11.76409-3.70243-14.02055-14.57136-13.98571-30.55955.098-61.15842 1.73354-91.69779-.83844-7.70728-2.75324-14.14417-6.76535-15.58523-15.728.11395-44.375.99388-88.75269-.46051-133.12231z"/><g clip-path="url(#clip-path)"><path fill="#fff" d="M340.889 762.129h215.518v2.199H340.889zm0-2.791h215.518v2.791H340.889z"/><path fill="#feffff" d="M340.889 756.547h215.518v2.791H340.889z"/><path fill="#fdfeff" d="M340.889 753.755h215.518v2.791H340.889z"/><path fill="#fcfeff" d="M340.889 750.964h215.518v2.791H340.889z"/><path fill="#fbfeff" d="M340.889 748.173h215.518v2.791H340.889z"/><path fill="#fafdff" d="M340.889 745.382h215.518v2.791H340.889z"/><path fill="#f9fdff" d="M340.889 742.59h215.518v2.791H340.889z"/><path fill="#f8fdff" d="M340.889 739.799h215.518v2.791H340.889z"/><path fill="#f7fcff" d="M340.889 737.008h215.518v2.791H340.889z"/><path fill="#f6fcfe" d="M340.889 734.217h215.518v2.791H340.889z"/><path fill="#f5fbfe" d="M340.889 731.426h215.518v2.791H340.889z"/><path fill="#f4fbfe" d="M340.889 728.634h215.518v2.791H340.889z"/><path fill="#f3fbfe" d="M340.889 725.843h215.518v2.791H340.889z"/><path fill="#f2fafe" d="M340.889 723.052h215.518v2.791H340.889z"/><path fill="#f1fafe" d="M340.889 720.261h215.518v2.791H340.889z"/><path fill="#f0fafe" d="M340.889 717.469h215.518v2.791H340.889z"/><path fill="#eff9fe" d="M340.889 714.678h215.518v2.791H340.889z"/><path fill="#eef9fe" d="M340.889 711.887h215.518v2.791H340.889z"/><path fill="#edf9fe" d="M340.889 709.096h215.518v2.791H340.889z"/><path fill="#ecf8fe" d="M340.889 706.305h215.518v2.791H340.889z"/><path fill="#ebf8fe" d="M340.889 703.513h215.518v2.791H340.889z"/><path fill="#eaf8fe" d="M340.889 700.722h215.518v2.791H340.889z"/><path fill="#e9f7fe" d="M340.889 697.931h215.518v2.791H340.889z"/><path fill="#e8f7fe" d="M340.889 695.14h215.518v2.791H340.889z"/><path fill="#e7f7fe" d="M340.889 692.348h215.518v2.791H340.889z"/><path fill="#e6f6fd" d="M340.889 689.557h215.518v2.791H340.889z"/><path fill="#e5f6fd" d="M340.889 686.766h215.518v2.791H340.889z"/><path fill="#e4f5fd" d="M340.889 683.975h215.518v2.791H340.889z"/><path fill="#e3f5fd" d="M340.889 681.184h215.518v2.791H340.889z"/><path fill="#e2f5fd" d="M340.889 678.392h215.518v2.791H340.889z"/><path fill="#e1f4fd" d="M340.889 675.601h215.518v2.791H340.889z"/><path fill="#e0f4fd" d="M340.889 672.81h215.518v2.791H340.889z"/><path fill="#dff4fd" d="M340.889 670.019h215.518v2.791H340.889z"/><path fill="#def3fd" d="M340.889 667.227h215.518v2.791H340.889z"/><path fill="#ddf3fd" d="M340.889 664.436h215.518v2.791H340.889z"/><path fill="#dcf3fd" d="M340.889 661.645h215.518v2.791H340.889z"/><path fill="#dbf2fd" d="M340.889 658.854h215.518v2.791H340.889z"/><path fill="#daf2fd" d="M340.889 656.063h215.518v2.791H340.889z"/><path fill="#d9f2fd" d="M340.889 653.271h215.518v2.791H340.889z"/><path fill="#d8f1fd" d="M340.889 650.48h215.518v2.791H340.889z"/><path fill="#d7f1fd" d="M340.889 647.689h215.518v2.791H340.889z"/><path fill="#d6f0fc" d="M340.889 644.898h215.518v2.791H340.889z"/><path fill="#d5f0fc" d="M340.889 642.106h215.518v2.791H340.889z"/><path fill="#d4f0fc" d="M340.889 639.315h215.518v2.791H340.889z"/><path fill="#d3effc" d="M340.889 636.524h215.518v2.791H340.889z"/><path fill="#d2effc" d="M340.889 633.733h215.518v2.791H340.889z"/><path fill="#d1effc" d="M340.889 630.942h215.518v2.791H340.889z"/><path fill="#d0eefc" d="M340.889 628.15h215.518v2.791H340.889z"/><path fill="#cfeefc" d="M340.889 625.359h215.518v2.791H340.889z"/><path fill="#cdeefc" d="M340.889 622.568h215.518v2.791H340.889z"/><path fill="#ccedfc" d="M340.889 619.777h215.518v2.791H340.889z"/><path fill="#cbedfc" d="M340.889 616.986h215.518v2.791H340.889z"/><path fill="#caedfc" d="M340.889 614.194h215.518v2.791H340.889z"/><path fill="#c9ecfc" d="M340.889 611.403h215.518v2.791H340.889z"/><path fill="#c8ecfc" d="M340.889 608.612h215.518v2.791H340.889z"/><path fill="#c7ecfc" d="M340.889 605.821h215.518v2.791H340.889z"/><path fill="#c6ebfc" d="M340.889 603.029h215.518v2.791H340.889z"/><path fill="#c5ebfb" d="M340.889 600.238h215.518v2.791H340.889z"/><path fill="#c4eafb" d="M340.889 597.447h215.518v2.791H340.889z"/><path fill="#c3eafb" d="M340.889 594.656h215.518v2.791H340.889z"/><path fill="#c2eafb" d="M340.889 591.865h215.518v2.791H340.889z"/><path fill="#c1e9fb" d="M340.889 589.073h215.518v2.791H340.889z"/><path fill="#c0e9fb" d="M340.889 586.282h215.518v2.791H340.889z"/><path fill="#bfe9fb" d="M340.889 583.491h215.518v2.791H340.889z"/><path fill="#bee8fb" d="M340.889 580.7h215.518v2.791H340.889z"/><path fill="#bde8fb" d="M340.889 577.908h215.518v2.791H340.889z"/><path fill="#bce8fb" d="M340.889 575.117h215.518v2.791H340.889z"/><path fill="#bbe7fb" d="M340.889 572.326h215.518v2.791H340.889z"/><path fill="#bae7fb" d="M340.889 569.535h215.518v2.791H340.889z"/><path fill="#b9e7fb" d="M340.889 566.744h215.518v2.791H340.889z"/><path fill="#b8e6fb" d="M340.889 563.952h215.518v2.791H340.889z"/><path fill="#b7e6fb" d="M340.889 561.161h215.518v2.791H340.889z"/><path fill="#b6e6fb" d="M340.889 558.37h215.518v2.791H340.889z"/><path fill="#b5e5fa" d="M340.889 555.579h215.518v2.791H340.889z"/><path fill="#b4e5fa" d="M340.889 552.787h215.518v2.791H340.889z"/><path fill="#b3e4fa" d="M340.889 549.996h215.518v2.791H340.889z"/><path fill="#b2e4fa" d="M340.889 547.205h215.518v2.791H340.889z"/><path fill="#b1e4fa" d="M340.889 544.414h215.518v2.791H340.889z"/><path fill="#b0e3fa" d="M340.889 541.623h215.518v2.791H340.889z"/><path fill="#afe3fa" d="M340.889 538.831h215.518v2.791H340.889z"/><path fill="#aee3fa" d="M340.889 536.04h215.518v2.791H340.889z"/><path fill="#ade2fa" d="M340.889 533.249h215.518v2.791H340.889z"/><path fill="#ace2fa" d="M340.889 530.458h215.518v2.791H340.889z"/><path fill="#abe2fa" d="M340.889 527.666h215.518v2.791H340.889z"/><path fill="#aae1fa" d="M340.889 524.875h215.518v2.791H340.889z"/><path fill="#a9e1fa" d="M340.889 522.084h215.518v2.791H340.889z"/><path fill="#a8e1fa" d="M340.889 519.293h215.518v2.791H340.889z"/><path fill="#a7e0fa" d="M340.889 516.502h215.518v2.791H340.889z"/><path fill="#a6e0fa" d="M340.889 513.71h215.518v2.791H340.889z"/><path fill="#a5dff9" d="M340.889 510.919h215.518v2.791H340.889z"/><path fill="#a4dff9" d="M340.889 508.128h215.518v2.791H340.889z"/><path fill="#a3dff9" d="M340.889 505.337h215.518v2.791H340.889z"/><path fill="#a2def9" d="M340.889 502.545h215.518v2.791H340.889z"/><path fill="#a1def9" d="M340.889 499.754h215.518v2.791H340.889z"/><path fill="#a0def9" d="M340.889 496.963h215.518v2.791H340.889z"/><path fill="#9fddf9" d="M340.889 494.172h215.518v2.791H340.889z"/><path fill="#9eddf9" d="M340.889 491.381h215.518v2.791H340.889z"/></g><path fill="#3e4093" d="M413.91081 79.80584c-32.36545.05839-33.74235-1.13518-33.77769-29.27983-.0434-34.53309.74244-35.49991 28.87634-35.52518 35.0844-.03151 35.99954.69047 36.00828 28.40683.01138 36.34203.01143 36.34203-31.10693 36.39818z"/><path d="M42.50057 991.85423h16.61262v58.9547c0 25.07375-12.14739 33.4164-30.1536 33.4164a45.61016 45.61016 0 01-13.936-2.14729l2.04142-13.40832a32.48533 32.48533 0 0010.2387 1.648c9.44868 0 15.19688-4.27244 15.19688-20.0666zm89.80985 57.41888c0 24.13206-16.93493 34.95222-33.7245 34.95222-18.51811 0-32.84916-12.78258-32.84916-33.8209 0-21.53445 14.18249-34.79421 33.96784-34.79421 19.53571.00002 32.60582 13.76378 32.60582 33.66289zm-49.51234.7126c0 12.63248 6.30754 22.17912 16.32187 22.17912 9.51818 0 16.12912-9.188 16.12912-22.39717 0-10.31614-4.56633-22.09695-16.02166-22.09695-11.65127 0-16.42933 11.37-16.42933 22.315zm56.46456-62.98538h16.60945v39.04767h.27175a23.76471 23.76471 0 0119.59574-10.43779c11.16145 0 22.94543 7.4041 22.94543 28.47719v38.65423H182.0724v-36.834c0-9.515-3.43184-16.758-12.6151-16.758a13.6931 13.6931 0 00-12.86152 9.31121 14.13636 14.13636 0 00-.72366 5.01033v39.27045h-16.60948zm70.39422 49.61503c0-7.58264-.24332-13.83647-.54039-19.52147h14.50482l.8153 9.85633h.38555c2.90728-5.09407 10.01433-11.34 20.923-11.34 11.4427 0 23.33411 7.37091 23.33411 28.13746v38.99394h-16.61263v-37.03943c0-9.42023-3.45715-16.59682-12.52346-16.59682-6.60775 0-11.17725 4.66589-12.91534 9.741a16.32628 16.32628 0 00-.76158 5.26472v38.63057h-16.60938zm91.81333 28.02212a46.03563 46.03563 0 0021.96583 5.78929c10.59266 0 16.52094-4.97557 16.52094-12.40811 0-6.86212-4.60108-10.90548-16.10381-15.08-15.01361-5.32634-24.60448-13.38141-24.60448-26.40574 0-14.88878 12.44761-26.09447 32.1666-26.09447 9.85314 0 17.055 2.09517 21.78566 4.49207l-3.96909 13.394a39.371 39.371 0 00-18.15788-4.3151c-10.53892 0-15.01045 5.60758-15.01045 10.95129 0 6.97119 5.25523 10.24978 17.38684 14.87931 15.78782 6.02945 23.37836 13.9518 23.37836 27.01563 0 14.62017-11.01295 27.30162-34.464 27.30162-9.61932 0-19.59893-2.73507-24.56971-5.77506zm62.87007-28.02212c0-7.58264-.24334-13.83647-.54041-19.52147h14.50478l.81528 9.85633h.38554c2.90731-5.09407 10.01433-11.34 20.923-11.34 11.44267 0 23.33412 7.37091 23.33412 28.13746v38.99394H407.15v-37.03943c0-9.42023-3.45715-16.59682-12.52343-16.59682-6.60774 0-11.17724 4.66589-12.91531 9.741a16.32622 16.32622 0 00-.7616 5.26472v38.63057h-16.6094zm132.75868 12.65775c0 24.13206-16.935 34.95222-33.7245 34.95222-18.51817 0-32.84917-12.78258-32.84917-33.8209 0-21.53445 14.18252-34.79421 33.96778-34.79421 19.53571.00002 32.60589 13.76378 32.60589 33.66289zm-49.51238.7126c0 12.63248 6.30757 22.17912 16.3219 22.17912 9.51822 0 16.12912-9.188 16.12912-22.39717 0-10.31614-4.56633-22.09695-16.02166-22.09695-11.65126 0-16.42936 11.37-16.42936 22.315zm65.26544-32.89179l6.86058 29.77283c1.57371 7.00908 3.04319 14.10982 4.244 21.27217h.316c1.3367-7.07389 3.40342-14.4021 5.2837-21.14733l8.61124-29.89765h13.43041l8.19411 29.14237c2.02881 7.6253 3.86163 14.7845 5.24256 21.90261h.30024c1.03969-7.08493 2.566-14.282 4.37356-21.91525l7.28081-29.12975h16.284L572.701 1082.7417h-15.42444l-7.86546-26.7328a202.25342 202.25342 0 01-4.96448-21.01146h-.2686a171.57235 171.57235 0 01-5.01188 20.99723l-8.3522 26.747h-15.46549l-19.42508-65.64772z" class="cls-104"/><path d="M619.66633 991.85423h11.7998v80.98054h38.8565v9.90687h-50.6563z" class="cls-105"/><path d="M691.59319 1054.176l-9.39183 28.56563h-12.16953l30.91205-90.88744H715.06l31.03844 90.88744h-12.5519l-9.73624-28.56563zm29.847-9.17689l-9-26.15452c-1.96875-5.94887-3.337-11.3621-4.68012-16.581h-.31907c-1.29879 5.31212-2.7177 10.86439-4.50628 16.423l-8.95255 26.31252zm31.19652-51.89664a110.07958 110.07958 0 0121.43807-1.95609c11.784 0 19.31136 1.99559 24.95213 6.59511 4.699 3.563 7.5937 8.97148 7.5937 16.09437 0 8.78347-5.85247 16.51622-15.36752 19.90542v.36025c8.64915 2.08091 18.76778 9.21008 18.76778 22.80166a23.87336 23.87336 0 01-7.777 18.10259c-6.25383 5.87778-16.48935 8.53541-31.37658 8.53541a159.36938 159.36938 0 01-18.23059-1.01281zm11.72708 37.23379h10.757c12.28642 0 19.56413-6.53983 19.56413-15.35331 0-10.53418-7.98242-14.80188-19.86437-14.80188a47.46789 47.46789 0 00-10.45671.84532zm0 43.46865a54.28968 54.28968 0 009.888.60043c12.19161 0 23.39417-4.46205 23.39417-17.68547 0-12.35281-10.70006-17.53534-23.51107-17.559h-9.771zm53.10535-5.36899a40.89261 40.89261 0 0020.97038 5.88884c12.00523 0 19.06485-6.26963 19.06485-15.4734 0-8.4264-4.92974-13.39247-17.19085-17.98409-14.83349-5.26157-24.03565-13.06382-24.03565-25.78 0-14.14778 11.76189-24.64872 29.4615-24.64872 9.23058 0 16.088 2.141 20.05075 4.39252l-3.27387 9.62407a34.49766 34.49766 0 00-17.16243-4.31511c-12.48558 0-17.20039 7.39778-17.20039 13.59 0 8.43742 5.527 12.60245 18.07262 17.44845 15.41809 6.0484 23.18242 13.4462 23.18242 26.77231 0 13.94075-10.27033 26.20666-31.80632 26.20666-8.78819 0-18.36963-2.65291-23.22038-5.92991z" class="cls-105"/><path d="M42.50057 991.85423h16.61262v58.9547c0 25.07375-12.14739 33.4164-30.1536 33.4164a45.61016 45.61016 0 01-13.936-2.14729l2.04142-13.40832a32.48533 32.48533 0 0010.2387 1.648c9.44868 0 15.19688-4.27244 15.19688-20.0666zm96.76207-4.8539h16.60945v39.04767h.27175a23.76471 23.76471 0 0119.59574-10.43779c11.16145 0 22.94543 7.4041 22.94543 28.47719v38.65423H182.0724v-36.834c0-9.515-3.43184-16.758-12.6151-16.758a13.6931 13.6931 0 00-12.86152 9.31121 14.13636 14.13636 0 00-.72366 5.01033v39.27045h-16.60948zm162.20755 77.63715a46.03563 46.03563 0 0021.96583 5.78929c10.59266 0 16.52094-4.97557 16.52094-12.40811 0-6.86212-4.60108-10.90548-16.10381-15.08-15.01361-5.32634-24.60448-13.38141-24.60448-26.40574 0-14.88878 12.44761-26.09447 32.1666-26.09447 9.85314 0 17.055 2.09517 21.78566 4.49207l-3.96909 13.394a39.371 39.371 0 00-18.15788-4.3151c-10.53892 0-15.01045 5.60758-15.01045 10.95129 0 6.97119 5.25523 10.24978 17.38684 14.87931 15.78782 6.02945 23.37836 13.9518 23.37836 27.01563 0 14.62017-11.01295 27.30162-34.464 27.30162-9.61932 0-19.59893-2.73507-24.56971-5.77506z" class="cls-104"/><path d="M619.66633 991.85423h11.7998v80.98054h38.8565v9.90687h-50.6563z" class="cls-105"/><path d="M691.59319 1054.176l-9.39183 28.56563h-12.16953l30.91205-90.88744H715.06l31.03844 90.88744h-12.5519l-9.73624-28.56563zm29.847-9.17689l-9-26.15452c-1.96875-5.94887-3.337-11.3621-4.68012-16.581h-.31907c-1.29879 5.31212-2.7177 10.86439-4.50628 16.423l-8.95255 26.31252zm31.19652-51.89664a110.07958 110.07958 0 0121.43807-1.95609c11.784 0 19.31136 1.99559 24.95213 6.59511 4.699 3.563 7.5937 8.97148 7.5937 16.09437 0 8.78347-5.85247 16.51622-15.36752 19.90542v.36025c8.64915 2.08091 18.76778 9.21008 18.76778 22.80166a23.87336 23.87336 0 01-7.777 18.10259c-6.25383 5.87778-16.48935 8.53541-31.37658 8.53541a159.36938 159.36938 0 01-18.23059-1.01281zm11.72708 37.23379h10.757c12.28642 0 19.56413-6.53983 19.56413-15.35331 0-10.53418-7.98242-14.80188-19.86437-14.80188a47.46789 47.46789 0 00-10.45671.84532zm0 43.46865a54.28968 54.28968 0 009.888.60043c12.19161 0 23.39417-4.46205 23.39417-17.68547 0-12.35281-10.70006-17.53534-23.51107-17.559h-9.771zm53.10535-5.36899a40.89261 40.89261 0 0020.97038 5.88884c12.00523 0 19.06485-6.26963 19.06485-15.4734 0-8.4264-4.92974-13.39247-17.19085-17.98409-14.83349-5.26157-24.03565-13.06382-24.03565-25.78 0-14.14778 11.76189-24.64872 29.4615-24.64872 9.23058 0 16.088 2.141 20.05075 4.39252l-3.27387 9.62407a34.49766 34.49766 0 00-17.16243-4.31511c-12.48558 0-17.20039 7.39778-17.20039 13.59 0 8.43742 5.527 12.60245 18.07262 17.44845 15.41809 6.0484 23.18242 13.4462 23.18242 26.77231 0 13.94075-10.27033 26.20666-31.80632 26.20666-8.78819 0-18.36963-2.65291-23.22038-5.92991z" class="cls-105"/></svg>