<svg xmlns="http://www.w3.org/2000/svg" role="img" viewBox="-7.55 -7.55 392.34 113.59"><title>SQLFlow logo</title><defs><linearGradient id="a" x1="87.957%" x2="6.191%" y1="25.351%" y2="91.415%"><stop offset="0%" stop-color="#1BA6FF"/><stop offset="100%" stop-color="#2574FF"/></linearGradient><linearGradient id="b" x1="0%" x2="65.084%" y1="37.531%" y2="99.962%"><stop offset="0%" stop-color="#C2E2FF"/><stop offset="100%" stop-color="#8CBCFA"/></linearGradient><linearGradient id="c" x1="100%" x2="32.869%" y1="61.06%" y2=".016%"><stop offset="0%" stop-color="#359EFF"/><stop offset="100%" stop-color="#76B2FF"/></linearGradient></defs><g fill="none" fill-rule="evenodd"><path fill="url(#a)" d="M25.015 1.176v.009L62.34 38.496v23.815H38.524L1.205 25.027v74.604H99.66V1.176z" transform="translate(-1 -1)"/><path fill="#FFF" d="M24.005.176l.01.009V.176z"/><path fill="url(#b)" fill-opacity=".9" d="M25.015 24.998l13.509 13.498H62.34L25.015 1.186z" transform="translate(-1 -1)"/><path fill="#FFF" d="M.176 23.998l.029.029v-.029z"/><path fill="url(#c)" fill-opacity=".95" d="M1.205 24.998v.029l37.319 37.284V38.496l-13.51-13.498z" transform="translate(-1 -1)"/><g fill="#111"><path d="M218.414 27.753h6.614v37.381h24.037l-2.788 6.256h-27.863zm35.622 0h30.651l-2.788 6.256H260.65v12.869h20.924l-2.788 5.866H260.65V71.39h-6.614zm33.88538.00002h6.2546v35.61654c0 1.41625.77921 2.12437 2.33485 2.12437h4.9429l-2.78787 5.89636h-2.7837c-2.2749 0-4.14975-.56873-5.62594-1.70618-1.55703-1.15697-2.33484-3.10291-2.33484-5.83643V27.75302zm35.17285 28.13346c0-2.21497-.10036-3.83055-.2997-4.84812-.19933-.97715-.60915-1.83582-1.22666-2.5746-.46-.69837-1.13746-1.24619-2.03516-1.64625-.85866-.41818-1.85533-.62867-2.99278-.62867-1.058 0-2.03515.21049-2.93285.62867-.85867.40006-1.55703.94788-2.0951 1.64624-.53945.73879-.92836 1.59746-1.16811 2.5746-.23837 1.01758-.35825 2.61364-.35825 4.78819 0 2.15503.11988 3.73158.35825 4.72824.23975 1.01758.62866 1.91667 1.16812 2.69449.53806.598 1.23642 1.1277 2.09509 1.5863.8977.4391 1.87485.65794 2.93285.65794 1.13745 0 2.13412-.21885 2.99278-.65794.8977-.4586 1.57516-.9883 2.03516-1.5863.61751-.77782 1.02733-1.67691 1.22666-2.69449.19934-.99666.2997-2.5537.2997-4.6683m-19.3646-.05994c0-3.27158.27042-5.78624.80848-7.5426.55897-1.71455 1.41624-3.16146 2.57321-4.33934.85867-1.0371 2.05606-1.96545 3.59218-2.7837 1.5166-.77782 3.46116-1.18624 5.83643-1.22666 2.45333.04042 4.4383.44884 5.9563 1.22666 1.4957.81825 2.65267 1.7466 3.4709 2.7837 1.23643 1.17788 2.11462 2.62479 2.63456 4.33933.49763 1.75637.74715 4.27103.74715 7.5426 0 3.27298-.24952 5.76674-.74715 7.48268-.51995 1.71594-1.39813 3.20187-2.63455 4.4592-.39867.45861-.88794.90746-1.46642 1.34655-.51855.49903-1.18764.92837-2.00449 1.28661-1.518.85867-3.50297 1.30751-5.9563 1.34794-2.37528-.04043-4.31982-.48927-5.83643-1.34794-1.53612-.77782-2.73351-1.656-3.59218-2.63315-1.15697-1.25734-2.01424-2.74327-2.57321-4.45921-.53806-1.71594-.80849-4.2097-.80849-7.48267M355.573 49.631h-.12l-6.494 21.758h-5.508l-9.936-31.065h6.615l5.956 21.758h.12l7.063-21.758h4.519l7.063 21.758h.12l5.926-21.758h6.614l-9.907 31.065h-5.537zM155.73034 65.1347c5.66636-.07945 8.53927-2.10484 8.62012-6.07617.03903-3.25206-1.85673-5.20776-5.68727-5.8657-1.75637-.23976-3.6814-.50879-5.77649-.80848-3.75109-.61752-6.60448-2.00449-8.55878-4.15952-2.01564-2.21497-3.02346-4.90806-3.02346-8.08067 0-3.81103 1.2671-6.88466 3.80127-9.21812 2.45334-2.31533 5.9354-3.49182 10.4448-3.53224 5.4266.11988 10.14648 1.62673 14.15684 4.51915l-5.85733 4.42576c-3.27297-2.15503-4.69758-2.24982-8.62849-2.33067-2.03515 0-3.73157.50879-5.08788 1.52637-1.41763 1.058-2.14527 2.63454-2.1857 4.72963 0 1.25594.48928 2.3934 1.46643 3.41097.97855 1.03849 2.54533 1.75637 4.70036 2.15503 1.196.20073 2.83249.42934 4.90806.6886 4.08982.55898 7.11188 2.0254 9.06758 4.39928 1.93618 2.33485 2.90358 5.04885 2.90358 8.1406-.22025 8.34134-5.32764 12.57055-15.32358 12.69043-6.4651 0-12.02133-1.99473-16.67012-5.98557l6.01764-4.08982c3.4709 2.8534 5.92424 3.42212 10.71242 3.46115m37.1779-5.95603l5.98-2.84084 3.02903 2.36133c.41818-1.47618.62866-4.51915.62866-9.12752 0-4.29054-.15054-7.21363-.44885-8.76927-.3206-1.47618-.90884-2.68333-1.76612-3.62145-.65933-.8977-1.53751-1.64625-2.63454-2.24425-1.15697-.57987-2.52443-.88793-4.09958-.92836-1.55703.04043-2.89382.34849-4.01036.92836-1.13746.598-2.05606 1.34655-2.75443 2.24425-.85727.93812-1.426 2.14527-1.70618 3.62145-.3192 1.55564-.47812 4.47873-.47812 8.76927 0 4.29055.15891 7.19273.47812 8.70934.28018 1.5166.84891 2.74327 1.70618 3.6814.69837.89769 1.61697 1.62672 2.75443 2.1843 1.11654.65793 2.45333.9883 4.01036.9883 2.03515 0 3.66049-.50879 4.87879-1.52637l-5.5674-4.42994zm10.98424 8.76928c-2.5746 2.45472-6.00649 3.72042-10.29564 3.80127-3.43188-.08085-6.29503-.9186-8.58945-2.51467-2.33485-1.53612-4.03127-3.312-5.08788-5.32763-.3206-.65794-.60915-1.2866-.86843-1.8846-.23975-.61892-.43909-1.39674-.59939-2.33486-.2983-1.75497-.44885-5.1283-.44885-10.11582 0-5.06836.15055-8.45981.44885-10.17575.31921-1.71594.80849-3.10291 1.46782-4.16091 1.0566-2.01424 2.75303-3.81103 5.08788-5.38758 2.29442-1.59606 5.15757-2.4129 8.58945-2.45333 3.47091.04042 6.36473.85727 8.67867 2.45333 2.29442 1.57655 3.95042 3.37334 4.968 5.38758.73879 1.058 1.24757 2.44497 1.52776 4.1609.25788 1.71595.3889 5.1074.3889 10.17576 0 4.52891-.10036 7.69176-.2997 9.48716-.25926 1.79539-.6886 3.19212-1.2866 4.19018l6.49994 5.27885-5.98 2.87151-4.20133-3.4514z"/></g></g></svg>