<svg xmlns="http://www.w3.org/2000/svg" role="img" viewBox="-7.16 -7.16 372.06 148.31"><title>Stream Registry logo</title><defs><style>.cls-1{fill:#004da4}</style></defs><g id="Layer_2"><g id="Layer_1-2"><path d="M138.22 49.94l4.45-5.45a14.23 14.23 0 0010.67 5.45c4.57 0 6.91-2 6.91-5 0-3.63-2.75-4.8-8-6.67-6.32-2.23-12.59-5-12.59-12.66 0-6.5 6-11.6 13.18-11.6a21.58 21.58 0 0113.76 5.1l-4.21 5.57c-3.4-2.82-6.74-4.28-9.55-4.28-3.22 0-5.8 1.76-5.86 4.86s2.75 4.1 7.79 6c7.12 2.81 12.86 4.74 12.86 12.74 0 8.61-7.67 12.47-14.35 12.47a20.67 20.67 0 01-15.06-6.53zM175 47V33h-3.52v-5.55H175V18l6.56-.7v10.15h8.38V33h-8.38v13.37c0 2.93.88 4 2.75 4a9.6 9.6 0 004.22-1.23l1.7 5.68a13.29 13.29 0 01-7.27 1.7C178 56.5 175 53.4 175 47zm37.14-20v7.32c-.76-.06-1.52-.12-2-.12-5 0-7.79 3.58-7.79 8.26V56h-6.55V27.45h6.56v4.33h.06a11 11 0 018.9-4.74zm30.58 17h-20.86a7.89 7.89 0 008.15 6.5 8.87 8.87 0 007.14-3.34l4.57 3.92c-2.4 3.11-6.44 5.39-12.07 5.39-8.31 0-14.58-5.85-14.58-14.76S221 27 229 27c8.44 0 13.88 6 13.88 14.35a24.49 24.49 0 01-.16 2.65zM222 38.75h14.29c-.82-3.45-3.16-5.8-6.91-5.8a7.23 7.23 0 00-7.38 5.8zm55.22-11.3V56H271v-3.8h-.12a10.81 10.81 0 01-9.08 4.27c-7.91 0-13.82-5.8-13.82-14.64 0-8.61 5.91-14.82 13.76-14.82a11.22 11.22 0 018.85 3.86h.12v-3.42zM271 41.92c0-5.1-3.46-9-8.14-9s-8.21 3.46-8.21 9c0 5 3.34 8.61 8.21 8.61 4.4 0 8.14-3.46 8.14-8.61zm58.93-2.4V56h-6.56V41.16c0-5.16-1.69-8.21-5.56-8.21-3.69 0-6.68 3.23-6.68 8.85V56h-6.56V41.16c0-5.16-1.82-8.21-5.68-8.21S292 36.18 292 41.8V56h-6.56V27.45H292v4h.06A11.53 11.53 0 01301 27c3.86 0 6.85 1.52 8.55 4.74h.12A12.55 12.55 0 01319.92 27c6.26 0 10.01 4 10.01 12.52zM163.47 111l-10-14.82h-5.57V111h-7.08V69.39h15.38c9.9 0 14.24 5.74 14.24 13.47 0 6.86-3.52 11-9.14 12.54v.17L172 111zm-15.53-21.23h6.74c5.68 0 8.44-2.92 8.44-7 0-4.4-2.87-7-8-7h-7.21zM204.06 99h-20.85a7.88 7.88 0 008.14 6.5 8.93 8.93 0 007.15-3.33l4.56 3.92c-2.4 3.1-6.44 5.39-12.06 5.39-8.32 0-14.59-5.86-14.59-14.76S182.39 82 190.35 82c8.44 0 13.89 6 13.89 14.36a23.79 23.79 0 01-.18 2.64zm-20.74-5.3h14.3c-.82-3.46-3.17-5.8-6.92-5.8a7.23 7.23 0 00-7.38 5.8zm55.06-11.31v25.66c0 8.67-4 14.94-14.58 14.94a22.92 22.92 0 01-11.66-3l1.58-5.74c3.11 1.64 5.62 2.81 9.73 2.81 5.62 0 8.49-3.22 8.49-7v-3h-.06a11.88 11.88 0 01-8.73 3.51c-8 0-13.94-5.62-13.94-14.12S214.89 82 222.8 82a12.94 12.94 0 018.91 3.46h.11v-3zm-6.26 13.71A7.83 7.83 0 00224 88c-4.86 0-8.14 3.4-8.14 8.26 0 5.1 3.51 8.26 8.14 8.26s8.12-3.52 8.12-8.42zm13.76-22.32a4.37 4.37 0 014.39-4.33 4.37 4.37 0 11-4.39 4.33zm1.12 8.61h6.56V111H247zm13.11 24.9l3.28-4.92a10.92 10.92 0 008.26 3.34c2.52 0 4-1.11 4-2.81 0-1.47-1.87-2.17-5.62-3.46-4.69-1.64-8.73-3.75-8.73-9.37 0-4.69 4.22-8.09 10.08-8.09a15.18 15.18 0 0110.07 3.58l-3.28 5.15a10.48 10.48 0 00-7.15-3c-1.28 0-3.1.7-3.1 2.46 0 1.4 1.76 2.4 4.51 3.45 6.09 2.4 9.9 3.52 9.9 9.2 0 4.8-3.4 8.67-10.66 8.67a17 17 0 01-11.56-4.2zm29.23-5.29V88h-3.52v-5.61h3.52V72.9l6.56-.7v10.19h8.37V88h-8.37v13.36c0 2.92.88 4 2.75 4a9.63 9.63 0 004.22-1.23l1.7 5.68a13.29 13.29 0 01-7.27 1.7c-4.92-.06-7.96-3.17-7.96-9.51zm37.19-20v7.33c-.76-.06-1.52-.12-2-.12-5 0-7.79 3.57-7.79 8.26V111h-6.56V82.39h6.56v4.34h.06a11 11 0 018.9-4.75zm31.34.39l-15.7 40.19h-6.91l5.15-13.24-11.6-26.95h6.91l7.91 19.34L351 82.39zM42.31 47.78c-6.26 0-13.76-2.73-21.62-11.58-5.92-6.66-12.07-10-18.28-10h-.13a2.28 2.28 0 010-4.55h.15c7.57 0 14.86 3.89 21.68 11.56 10.14 11.42 19.22 11 25.05 8.69a31.57 31.57 0 0011.51-8.69c6.82-7.67 14.12-11.56 21.69-11.56S97.2 25.5 104 33.17c5.92 6.66 12.07 10 18.28 10a2.28 2.28 0 010 4.56c-7.57 0-14.87-3.9-21.68-11.57-5.92-6.66-12.07-10-18.28-10S70 29.54 64.06 36.2a36 36 0 01-13.22 9.88 22.84 22.84 0 01-8.53 1.7zm-.77 86.41c-10.65 0-17.76-7.47-22.49-12.43-1.14-1.19-2.12-2.22-3-3a2.28 2.28 0 013-3.43c1 .87 2 2 3.25 3.23 4.49 4.71 10.64 11.16 19.54 11h.17c9 .14 15.08-6.3 19.57-11 1.21-1.27 2.26-2.37 3.26-3.24a2.28 2.28 0 113 3.43c-.85.73-1.83 1.76-3 3-4.79 5-12 12.6-22.91 12.42h-.47zM66.38 19.37a2.26 2.26 0 01-1.5-.56c-1-.87-2-2-3.25-3.24C57.14 10.86 51 4.41 42.09 4.56h-.17c-9-.15-15.08 6.3-19.57 11-1.21 1.27-2.26 2.37-3.26 3.24a2.28 2.28 0 01-3-3.43c.85-.74 1.83-1.76 3-3C23.84 7.41 31.05-.18 42 0h.09c10.83-.19 18.05 7.41 22.83 12.43 1.14 1.19 2.12 2.22 3 3a2.28 2.28 0 01-1.5 4zm16.1 50.06C71.84 69.43 64.72 62 60 57c-1.13-1.19-2.11-2.22-3-3a2.28 2.28 0 013-3.43c1 .87 2 2 3.26 3.24 4.49 4.71 10.64 11.15 19.54 11h.2c8.94.16 15.08-6.3 19.57-11 1.21-1.27 2.26-2.37 3.26-3.24a2.28 2.28 0 013 3.43c-.84.74-1.82 1.76-3 3-4.78 5-12 12.61-22.9 12.43h-.48z" class="cls-1"/><path d="M2.41 69.37h-.15a2.28 2.28 0 010-4.55h.13c6.21 0 12.36-3.38 18.28-10 6.72-7.59 13.9-11.48 21.33-11.61a2.28 2.28 0 01.08 4.56c-6.12.1-12.17 3.48-18 10-6.81 7.71-14.08 11.6-21.67 11.6zM42.31 91c-6.26 0-13.76-2.73-21.62-11.58a43 43 0 00-4.21-4.14 2.28 2.28 0 012.95-3.48 47.77 47.77 0 014.66 4.59c10.14 11.42 19.22 11 25.05 8.68a31.42 31.42 0 0011.51-8.68c6.82-7.67 14.12-11.56 21.69-11.56S97.2 68.71 104 76.38c5.92 6.66 12.07 10 18.28 10a2.28 2.28 0 010 4.56c-7.57 0-14.87-3.9-21.68-11.57-5.92-6.66-12.07-10-18.28-10S70 72.75 64.06 79.41a36 36 0 01-13.22 9.88A22.84 22.84 0 0142.31 91z" class="cls-1"/><path d="M82.34 112.58c-7.57 0-14.87-3.89-21.69-11.57a31.64 31.64 0 00-11.51-8.68C43.31 90 34.23 89.6 24.09 101c-6.86 7.73-14.22 11.62-21.83 11.57a2.28 2.28 0 010-4.55h.13c6.21 0 12.36-3.38 18.28-10 11.89-13.39 23-12.77 30.15-9.89A36.16 36.16 0 0164.06 98c5.91 6.66 12.06 10 18.28 10s12.36-3.38 18.28-10a46.64 46.64 0 014.83-4.74 2.28 2.28 0 012.93 3.5A41.34 41.34 0 00104 101c-6.8 7.69-14.09 11.58-21.66 11.58z" class="cls-1"/></g></g></svg>