<svg xmlns="http://www.w3.org/2000/svg" role="img" viewBox="-45.55 -45.55 2368.60 708.60"><title>Stroom logo</title><style>path { fill: #fff; }</style><style>path{fill:#fff}</style><style>path{fill:#fff}</style><style>path{fill:#fff}</style><style>path{fill:#fff}</style><style>path{fill:#fff}</style><path d="M121.99991 205.98497C54.99996 205.98497 0 259.98493 0 327.98487c0 66.99994 54.99996 121.99989 121.99991 121.99989h167.99987c24.99998 0 44.99996 20.99998 44.99996 44.99996 0 24.99998-19.99998 44.99996-44.99996 44.99996H109.20929C65.98413 553.87219 27.10084 581.57313.01094 617.98462h289.98884c66.99994 0 121.99991-54.99996 121.99991-122.9999 0-66.99994-54.99997-121.99989-121.99991-121.99989H121.99991c-24.99998 0-44.99997-19.99999-44.99997-44.99996 0-24.99998 19.99999-44.99996 44.99997-44.99996h228.79045c26.9905-35.88325 65.47093-63.18547 108.21554-76.99994H121.99991z"/><path d="M601.44485-.00078C572.6583 8.3698 546.49491 22.82296 524.44491 41.9023V205.7897l.002.19528h-.002c-65.11.00048-123.03145 30.0199-160.74675 76.99994h160.74675v334.99971h76.99994V282.98491h144.85298c27.16134-36.05885 65.96411-63.39275 109.02184-76.99994H601.44485V-.00078z"/><path d="M919.42586 205.98497c-113.99519 0-205.99537 92.00648-206.00296 205.99982-.00015 68.67178 0 137.32749 0 205.99983h77.99994c-.012-68.6493.0176-137.46869 0-205.99983.0846-70.92785 57.05747-128.99988 128.00462-128.99988 5.28623 0 10.49823.32864 15.62183.95311 18.2219-24.51229 41.78461-45.0838 68.42501-60.15146-25.65065-11.43799-54.08662-17.80159-84.04684-17.80159z"/><path d="M1109.4153 205.98457c-113.99994 0-205.99983 91.99993-205.99983 205.99984 0 112.9999 91.99989 205.9998 205.99983 205.9998 114 0 205.9999-92.9999 205.9999-205.9998 0-113.99991-91.9999-205.99984-205.9999-205.99984zm0 333.99974c-70.9999 0-128.99994-56.99996-128.99994-127.9999 0-70.99995 58.00004-128.9999 128.99994-128.9999 71 0 128.9999 57.99995 128.9999 128.9999 0 70.99994-57.9999 127.9999-128.9999 127.9999z"/><path d="M1444.4737 205.98457c-113.9999 0-205.9998 91.99993-205.9998 205.99984 0 112.9999 91.9999 205.9998 205.9998 205.9998s205.9999-92.9999 205.9999-205.9998c0-113.99991-92-205.99984-205.9999-205.99984zm0 333.99974c-70.9999 0-128.9999-56.99996-128.9999-127.9999 0-70.99995 58-128.9999 128.9999-128.9999 71 0 128.9999 57.99995 128.9999 128.9999 0 70.99994-57.9999 127.9999-128.9999 127.9999zm294.0571-159.99984c0-53 43-97 95.9999-97 53 0 97 44 97 97v237.9997h76.9999v-237.9997c0-53 43-97 96.9999-97 53 0 95.9999 44 95.9999 97v237.9997h77v-237.9997c0-96-77-173.9999-172.9999-173.9999-54.9999 0-103.9999 24.99998-135.9999 64.99995-31.9999-39.99997-79.9999-64.99995-134.9999-64.99995-95.9999 0-173.9998 77.9999-173.9998 173.9999v237.9997h77.9999z"/></svg>