<svg xmlns="http://www.w3.org/2000/svg" role="img" viewBox="-0.57 0.43 887.64 414.14"><title>TensorBoard logo</title><defs><style>.cls-1{fill:#4095d1}.cls-2{fill:#ef4637}</style></defs><path d="M16.89238 125.449c0-59.528 50.045-107.993 109.574-107.993 32.925 0 56.367 12.907 74.014 29.764l-20.808 20.808c-12.643-11.852-29.764-21.07-53.206-21.07-43.46 0-77.439 35.031-77.439 78.49 0 43.462 33.978 78.494 77.439 78.494 28.183 0 44.25-11.327 54.523-21.6 8.43-8.428 13.96-20.544 16.067-37.138h-70.59v-29.5h99.3a96.10908 96.10908 0 011.581 18.438c0 22.125-6.059 49.518-25.55 69.01-18.964 19.754-43.198 30.29-75.331 30.29-59.529 0-109.574-48.465-109.574-107.993z" class="cls-1"/><path d="M307.59839 94.368c-38.457 0-69.8 29.237-69.8 69.537 0 40.037 31.343 69.536 69.8 69.536 38.455 0 69.799-29.5 69.799-69.536.00001-40.3-31.34399-69.537-69.799-69.537zm0 111.68c-21.073 0-39.247-17.383-39.247-42.143 0-25.023 18.174-42.144 39.247-42.144 21.071 0 39.245 17.121 39.245 42.144-.00001 24.76-18.17402 42.143-39.245 42.143z" class="cls-2"/><path fill="#ffc20e" d="M459.86636 94.368c-38.457 0-69.8 29.237-69.8 69.537 0 40.037 31.343 69.536 69.8 69.536 38.455 0 69.801-29.5 69.801-69.536 0-40.3-31.346-69.537-69.8-69.537zm0 111.68c-21.071 0-39.247-17.383-39.247-42.143 0-25.023 18.176-42.144 39.247-42.144s39.245 17.121 39.245 42.144c0 24.76-18.17401 42.143-39.245 42.143z"/><path d="M646.76736 98.582v11.328h-1.053c-6.849-8.166-20.019-15.54-36.613-15.54-34.768 0-66.64 30.553-66.64 69.8 0 38.983 31.872 69.272 66.64 69.272 16.594 0 29.764-7.374 36.613-15.803h1.053v10.01c0 26.603-14.223 40.825-37.14 40.825-18.7 0-30.29-13.433-35.03-24.758l-26.604 11.062c7.638 18.438 27.92 41.09 61.635 41.09 35.822 0 66.113-21.072 66.113-72.434V98.583zm-35.031 107.466c-21.072 0-38.72-17.647-38.72-41.88 0-24.495 17.648-42.407 38.72-42.407 20.808 0 37.138 17.912 37.138 42.407 0 24.233-16.33002 41.88-37.138 41.88z" class="cls-1"/><path fill="#30b455" d="M696.81235 24.832h30.554v204.396h-30.554z"/><path d="M811.12735 206.048c-15.541 0-26.604-7.111-33.715-21.07l92.98-38.457-3.16-7.902c-5.796-15.54-23.443-44.25-59.53-44.25-35.822 0-65.584 28.183-65.584 69.536 0 38.983 29.499 69.536 69.009 69.536 31.87 0 50.309-19.49 57.947-30.817l-23.706-15.803c-7.901 11.59-18.7 19.227-34.241 19.227zm-2.371-84.813c12.117 0 22.389 6.059 25.813 14.75l-62.16 25.813c-.79195-26.867 20.80705-40.563 36.34703-40.563z" class="cls-2"/><path fill="none" d="M15.40538 17.285h856v279.846h-856z"/><path d="M219.84872 330.56934v11.61425h-19.62549V396.165h-13.79541v-53.98141h-19.71435v-11.61425zm31.87598 18.07128a19.72563 19.72563 0 018.38232 7.17579 23.83344 23.83344 0 013.86475 10.02832 62.00972 62.00972 0 01.418 9.62695h-35.3291q.29515 7.29932 5.07226 10.23535a12.88229 12.88229 0 006.99317 1.82422 9.849 9.849 0 009.65283-5.5625h12.94873q-.512 4.31689-4.70166 8.7666-6.51783 7.07666-18.24951 7.07617a26.44183 26.44183 0 01-17.08594-5.96777q-7.40259-5.96924-7.40186-19.4209 0-12.60351 6.68213-19.33008 6.68115-6.72508 17.34619-6.72558a27.612 27.612 0 0111.40769 2.27343zm-18.97412 10.95606a13.1811 13.1811 0 00-3.37842 7.50879h21.85059q-.34644-5.05079-3.37891-7.665a11.11468 11.11468 0 00-7.522-2.61523q-4.88376-.00004-7.57126 2.77144zm77.16842-9.15723q4.76367 3.9375 4.76367 13.06055v32.665h-12.99459v-29.50484a13.54942 13.54942 0 00-1.01563-5.874q-1.85669-3.73827-7.06836-3.73828-6.40648 0-8.7915 5.47363a18.92471 18.92471 0 00-1.23682 7.3877V396.165h-12.6831v-48.418h12.28271v7.0752a21.50953 21.50953 0 014.6084-5.38477 15.96952 15.96952 0 019.88233-2.93652q7.489.00009 12.25289 3.93854zm26.39212 30.23926a8.443 8.443 0 001.74366 4.80567q2.37012 2.5371 8.76416 2.5371a13.40829 13.40829 0 005.96972-1.11328 3.72658 3.72658 0 00.43018-6.58593q-1.78346-1.11183-13.26855-3.82715-8.26758-2.04639-11.64991-5.11817-3.38232-3.0249-3.38183-8.72168a15.11654 15.11654 0 015.28466-11.54882q5.28442-4.82812 14.87354-4.82813 9.09668 0 14.82812 3.62695 5.73048 3.627 6.57862 12.52735h-12.68311a7.49649 7.49649 0 00-1.3833-3.87207q-2.09838-2.57959-7.14013-2.58106-4.15064 0-5.9126 1.291a3.71179 3.71179 0 00-1.7627 3.02539 3.31015 3.31015 0 001.87451 3.16015q1.87354 1.02393 13.24219 3.51563 7.57838 1.77978 11.36182 5.38477a12.22489 12.22489 0 013.73828 9.123 14.72812 14.72812 0 01-5.37354 11.77057q-5.37378 4.56153-16.60986 4.56152-11.46021 0-16.92236-4.82812a15.69275 15.69275 0 01-5.46289-12.30469zm81.30518 9.55176q-6.14136 7.582-18.64648 7.581-12.50538 0-18.646-7.581a30.09324 30.09324 0 010-36.4375q6.14136-7.6919 18.646-7.69238 12.50536 0 18.64648 7.69238a30.09324 30.09324 0 010 36.4375zm-10.14648-7.00977q2.98095-3.95508 2.98193-11.24218 0-7.2876-2.98193-11.22071a11.27248 11.27248 0 00-17.11084 0q-3.00439 3.93311-3.00391 11.22071 0 7.28758 3.00391 11.24218a11.23085 11.23085 0 0017.11084 0zm52.31298-36.69824c.16211.01563.52637.03809 1.08985.06738V359.584q-1.20117-.13329-2.13574-.17773-.93458-.04395-1.51368-.04492-7.6538 0-10.27929 4.98437-1.46924 2.80371-1.46875 8.63379V396.165h-12.77246v-48.50777h12.10449v8.456a26.80871 26.80871 0 015.11816-6.63086 13.93147 13.93147 0 019.25586-2.98144q.35597.00007.60156.02153zm58.46778-8.9668a16.68676 16.68676 0 013.01074 10.0127q0 6.00879-3.03711 9.65723a15.67243 15.67243 0 01-5.00391 3.73828 14.60758 14.60758 0 017.57715 5.78515 17.3528 17.3528 0 012.55567 9.61231 19.18569 19.18569 0 01-2.91992 10.458 18.06531 18.06531 0 01-12.05762 8.45605 45.405 45.405 0 01-9.26856.88965h-29.55664v-65.5957h31.7002q11.99706.17725 17 6.98633zm-35.61719 4.40528v14.46386h15.94336a13.17237 13.17237 0 006.93652-1.625q2.66456-1.623 2.665-5.76269 0-4.58349-3.52344-6.05176a24.69054 24.69054 0 00-7.752-1.02441zm0 25.32226v17.48926h15.92578a15.46065 15.46065 0 006.64258-1.15723q4.311-2.13573 4.31152-8.18847 0-5.11671-4.17871-7.03125a16.59579 16.59579 0 00-6.55566-1.11231zm91.94238 22.94727q-6.14062 7.582-18.64648 7.581-12.50538 0-18.64649-7.581a30.09706 30.09706 0 010-36.4375q6.1421-7.6919 18.64649-7.69238 12.50536 0 18.64648 7.69238a30.09324 30.09324 0 010 36.4375zm-10.14648-7.00977q2.981-3.95508 2.98144-11.24218 0-7.2876-2.98144-11.22071a11.273 11.273 0 00-17.11133 0q-3.00292 3.93311-3.00391 11.22071 0 7.28758 3.00391 11.24218a11.23137 11.23137 0 0017.11133 0zm44.57812-16.56054a20.07229 20.07229 0 005.06641-1.11231q2.73341-1.15722 2.73438-3.60449a4.26358 4.26358 0 00-2.09766-4.11719 13.26674 13.26674 0 00-6.15723-1.13476q-4.55566 0-6.45117 2.22558a9.17929 9.17929 0 00-1.80469 4.4502h-12.2373a18.5532 18.5532 0 013.57519-10.458q5.05078-6.40869 17.3418-6.4082a30.92421 30.92421 0 0114.21286 3.15917q6.2124 3.16113 6.21192 11.92675v22.251q0 2.31445.08886 5.60742a7.0461 7.0461 0 00.75684 3.38184 4.53254 4.53254 0 001.86914 1.46875v1.86908h-13.7959a14.13456 14.13456 0 01-.80078-2.75879q-.22266-1.29053-.35547-2.9375a26.18643 26.18643 0 01-6.08789 4.85059 18.39769 18.39769 0 01-9.31055 2.35839 16.06358 16.06358 0 01-10.94433-3.75976q-4.31984-3.76026-4.31934-10.6582 0-8.9458 6.94824-12.9502 3.81153-2.17968 11.208-3.11523zm7.75586 5.91894a14.02641 14.02641 0 01-2.459 1.22363 20.82592 20.82592 0 01-3.40625.86817l-2.88672.5332a19.00542 19.00542 0 00-5.83008 1.73633 5.79255 5.79255 0 00-2.99609 5.38477q0 3.249 1.83008 4.69433a6.95287 6.95287 0 004.45117 1.44629 13.25861 13.25861 0 007.65918-2.40234q3.50244-2.40381 3.63769-8.76758zm50.66602-26.05664c.16211.01563.52637.03809 1.08984.06738V359.584q-1.20117-.13329-2.13574-.17773-.93457-.04395-1.51367-.04492-7.65381 0-10.2793 4.98437-1.46923 2.80371-1.46875 8.63379V396.165h-12.77246v-48.50777h12.10449v8.456a26.80869 26.80869 0 015.11817-6.63086 13.93144 13.93144 0 019.25586-2.98144q.35595.00007.60156.02153zm34.24414 1.91406a15.41284 15.41284 0 015.56348 5.36231V330.6582h12.86035v65.5068h-12.32617v-6.71973a17.88664 17.88664 0 01-6.18653 6.27442 17.35949 17.35949 0 01-8.63281 1.958 18.02363 18.02363 0 01-14.30762-6.875q-5.8081-6.876-5.80761-17.6455 0-12.416 5.71875-19.53614a18.60451 18.60451 0 0115.28613-7.12005 15.63736 15.63736 0 017.83203 1.93552zm3.11523 34.55567q2.80371-4.00488 2.80371-10.36914 0-8.89893-4.49414-12.72754A9.67921 9.67921 0 00696.69 357.582q-5.56347 0-8.167 4.20508a19.48566 19.48566 0 00-2.60254 10.43555q0 6.72069 2.64746 10.74707 2.647 4.02831 8.03223 4.02832a9.36526 9.36526 0 008.18851-4.00583z"/></svg>