<svg xmlns="http://www.w3.org/2000/svg" role="img" viewBox="5.16 5.16 485.68 125.18"><title>tsfresh logo</title><path d="M14.83594 57.62207V43.42383h10.63135V22.16162h19.72363v21.26221h12.37939v14.19824H45.19092V97.9082q0 4.68677 1.189 5.84034 1.188 1.15429 7.27393 1.15429.9082 0 1.92334-.03515 1.01293-.03442 1.99316-.105v14.89746l-9.44189.35009q-14.12916.48853-19.3042-4.896-3.35669-3.42627-3.35693-10.56153V57.62207zm70.99072 36.99902q.63282 5.31593 2.74121 7.55371 3.72437 3.98658 13.77393 3.98682a21.07693 21.07693 0 009.38183-1.74853 5.858 5.858 0 00.67676-10.35157q-2.803-1.74756-20.85351-6.01464-12.99463-3.21681-18.30958-8.04346-5.31591-4.75562-5.31542-13.7085 0-10.56006 8.30517-18.1499 8.3064-7.58862 23.376-7.58887 14.29761 0 23.30517 5.7002 9.00587 5.70117 10.33936 19.68847H113.314a11.78483 11.78483 0 00-2.17382-6.085q-3.29818-4.05537-11.22218-4.0566-6.52294 0-9.29248 2.02832a5.83585 5.83585 0 00-2.77052 4.75635 5.20079 5.20079 0 002.94629 4.96582q2.94434 1.60986 20.812 5.52539 11.91137 2.7979 17.85741 8.4629a19.21583 19.21583 0 015.875 14.33838 23.14753 23.14753 0 01-8.4458 18.49951q-8.44482 7.16822-26.10449 7.16895-18.01245 0-26.59668-7.58887a24.66345 24.66345 0 01-8.585-19.33887zm95.75098-79.69873q1.53735.10475 4.19629.31494v16.22657q-1.67871-.21021-5.63038-.31494-3.95214-.10475-5.45556 1.74853a6.34318 6.34318 0 00-1.50342 4.0918v6.43457h13.0791v14.0581h-13.0791v61.479h-19.79346v-61.479H142.2002v-14.0581h10.91113v-4.896q0-12.23877 4.12646-16.85595 4.33595-6.854 20.9126-6.8545 1.88818 0 3.42725.10498zm58.50586 26.01856q.38379.03588 1.71386.105v20.42283q-1.8889-.20948-3.35742-.27979-1.4685-.06883-2.37793-.06982-12.03076 0-16.15674 7.8335-2.30785 4.40625-2.3081 13.56836v36.43994h-20.07324V42.72412h19.02441v13.28906q4.61573-7.62231 8.04346-10.42138 5.59423-4.68458 14.54785-4.686.55884-.00004.94385.03512zm63.07275 3.32763a31.00974 31.00974 0 0113.17383 11.27833 37.47359 37.47359 0 016.07422 15.76074 97.21422 97.21422 0 01.65625 15.13037h-55.52539q.46581 11.47119 7.97265 16.08642a20.24635 20.24635 0 0010.99024 2.86768q6.81152 0 11.06836-3.49707a16.75213 16.75213 0 004.10351-5.24561h20.35156q-.80565 6.78516-7.39062 13.77881-10.24512 11.12037-28.68164 11.12061a41.55553 41.55553 0 01-26.85352-9.37983q-11.63379-9.38013-11.6333-30.522 0-19.80907 10.50244-30.37988 10.5-10.57032 27.26172-10.57129a43.41 43.41 0 0117.92969 3.57272zm-29.82031 17.21973q-4.22754 4.35571-5.31055 11.80078h34.3418q-.54492-7.93725-5.31055-12.04638a17.46923 17.46923 0 00-11.82226-4.11036q-7.67579 0-11.89844 4.35596zm75.26269 33.13281q.63282 5.31593 2.74024 7.55371 3.7251 3.98658 13.77441 3.98682a21.07553 21.07553 0 009.38184-1.74853 5.858 5.858 0 00.67676-10.35157q-2.80372-1.74756-20.85352-6.01464-12.99464-3.21681-18.30957-8.04346-5.31592-4.75562-5.31543-13.7085 0-10.56006 8.30566-18.1499 8.30567-7.58862 23.376-7.58887 14.29688 0 23.30469 5.7002 9.00585 5.70117 10.33886 19.68847H376.085a11.78448 11.78448 0 00-2.17285-6.085q-3.29883-4.05541-11.22266-4.05664-6.52294 0-9.293 2.02832a5.83587 5.83587 0 00-2.76953 4.75635 5.20079 5.20079 0 002.94629 4.96582q2.94288 1.60986 20.81153 5.52539 11.91064 2.79794 17.85741 8.46294a19.214 19.214 0 015.875 14.33838 23.14858 23.14858 0 01-8.44531 18.49951q-8.44629 7.16822-26.1045 7.16895-18.01319 0-26.59668-7.58887a24.66273 24.66273 0 01-8.58593-19.33887zM467.59473 43.146a22.38506 22.38506 0 019.43652 7.49072 19.96012 19.96012 0 013.8291 8.78613 108.59009 108.59009 0 01.69727 14.73486v44.80323h-20.35254V72.53711a20.57156 20.57156 0 00-2.083-9.94287q-2.70849-5.321-10.27539-5.32178-7.84424 0-11.90723 5.28711-4.062 5.28661-4.06054 15.08887v41.3125h-19.9336V16.21631h19.9336v36.36963q4.31689-6.6438 9.99218-9.26709a28.14324 28.14324 0 0111.94434-2.623 32.27806 32.27806 0 0112.77929 2.45015z"/></svg>