<svg xmlns="http://www.w3.org/2000/svg" role="img" viewBox="-22.74 -22.74 1182.48 169.48"><title>WANdisco logo</title><path fill="#f2591a" d="M179.09019 66.33787L120.48659 7.7336l-30.9435 30.9435L58.60013 7.7336 0 66.33787l58.60013 58.60484 30.94296-30.943 30.9435 30.943 58.6036-58.60484"/><path fill="#f2591a" d="M179.93417 7.6972L159.98 27.65403l29.30193 29.30074 9.33977 9.34616-9.33977 9.34924L159.98 104.94943l19.95417 19.95682 58.60387-58.60532L179.93417 7.6972"/><path fill="#100f0d" d="M1088.80745 66.92959v-.324c0-27.43264-19.97017-49.94661-47.38815-49.94661-27.44065 0-47.10016 22.20304-47.10016 49.63049v.31612c0 27.43892 19.97284 49.94514 47.40282 49.94514 27.43131 0 47.08549-22.19263 47.08549-49.62114zm-103.05076 0v-.324c0-30.27684 22.3541-57.3923 55.96527-57.3923 33.62182 0 55.64794 26.79933 55.64794 57.07618.16933.17453.16933.17453 0 .31612 0 30.29778-22.34611 57.40225-55.9506 57.40225-33.6245 0-55.66261-26.79101-55.66261-57.07825zm-107.49331 0v-.324c0-31.39655 23.4714-57.3923 55.50128-57.3923 19.8275 0 31.7152 7.29356 43.12958 17.76516l-5.86785 6.02545c-9.6851-9.36537-20.77681-16.34492-37.4244-16.34492-26.62866 0-46.7735 21.72439-46.7735 49.63049v.31612c0 28.06183 20.45283 49.94514 46.93617 49.94514 16.01426 0 26.94732-6.17583 38.2177-17.28342l5.5492 5.40253c-11.73304 11.57413-24.42605 19.338-44.09356 19.338-31.70321 0-55.17462-25.21132-55.17462-57.07825zm-94.16032 39.00582l5.37854-6.17745c12.21836 11.24652 23.47408 16.486 39.80567 16.486 16.64358 0 28.05796-9.35804 28.05796-22.05359v-.3c0-11.73717-6.16784-18.55993-31.39521-23.63433-26.63667-5.38627-37.41107-14.41938-37.41107-31.2247v-.33438c0-16.48919 15.06096-29.1634 35.66978-29.1634 16.17026 0 26.78866 4.44002 38.04971 13.47579l-5.21987 6.48784c-10.47307-9.01431-20.9288-12.51849-33.1445-12.51849-16.33826 0-27.10599 9.3519-27.10599 20.94748v.30412c0 11.74344 6.01852 18.87553 32.35252 24.2686 25.6767 5.22227 36.4631 14.41844 36.4631 30.59256v.31613c0 17.91409-15.38762 30.28723-36.79642 30.28723-17.75156 0-31.38988-5.87745-44.70422-17.75941zm-25.69269-94.82056h8.24646V122.0959h-8.24646zm-72.27819 103.36927c30.91123 0 50.41207-21.07653 50.41207-47.55453v-.324c0-26.31027-19.50084-47.8868-50.41207-47.8868H657.4249v95.76533zM649.1811 11.11485h36.95108c34.8698 0 58.96653 23.94727 58.96653 55.17462v.31612c0 31.25136-24.09674 55.4903-58.96653 55.4903H649.1811zM633.89482 53.9643v68.13159h-20.63949V61.87864c0-10.63826-1.54662-18.3766-4.67054-23.25928-4.75855-7.52221-12.48636-11.28518-23.17543-11.28518-9.0651 0-16.12093 3.06659-21.17413 9.18003-5.04521 6.13838-7.57181 14.59284-7.57181 25.36443v60.21726h-21.08348V11.12418h19.31819v11.76797c7.39448-9.77215 18.3302-14.6543 32.8445-14.6543 13.75433 0 24.90339 4.2275 33.39384 12.65542 8.51312 8.43046 12.75835 19.45671 12.75835 33.07104zM463.6684 105.915c10.49974 0 19.49151-3.80764 26.96732-11.41158 7.47448-7.58794 11.20506-16.78251 11.20506-27.55145 0-11.07319-3.69991-20.47135-11.09573-28.21649-7.41314-7.75447-16.42758-11.62264-27.07665-11.62264-10.50507 0-19.46618 3.8307-26.86466 11.50651-7.39449 7.67327-11.09573 17.0397-11.09573 28.1113 0 10.75853 3.73191 20.00776 11.21972 27.6685 7.45448 7.67488 16.37826 11.51585 26.74067 11.51585zm58.80653-94.79083V122.0959H503.3914v-17.30326c-3.55724 5.32387-7.53047 9.39408-11.98103 12.21537C482.82126 122.323 472.92018 125 461.6858 125c-16.15293 0-29.6166-5.55194-40.40699-16.65172-10.80906-11.11265-16.2036-24.86178-16.2036-41.28696 0-16.85945 5.5092-30.89763 16.5276-42.06295 11.02372-11.17586 24.8167-16.76052 41.39762-16.76052 8.44513 0 16.35293 1.7729 23.75141 5.27854 7.39315 3.51284 12.95301 8.12633 16.63958 13.81779v-16.21zm-135.38595 0h22.19411L368.22546 122.0959h-11.54904l-24.1994-74.57103-24.1714 74.57103h-11.54904L255.46961 11.12418h22.19545l24.84871 72.13833 23.09809-72.13833h13.75432l23.08743 72.13833 24.63538-72.13833m732.05236 7.26129c2.90393 0 5.1212-1.26664 5.1212-3.69631v-.1052c0-2.11181-1.84794-3.48525-4.8572-3.48525h-6.28385v7.28676zm-8.28912-9.45083h8.65978c2.3746 0 4.43456.73904 5.6492 1.95368.8453.84371 1.47729 2.11181 1.47729 3.58898v.10666c0 3.11459-2.16395 4.96241-5.27853 5.54266l6.44117 8.13207h-2.95726l-6.12385-7.76128h-5.59853v7.76128h-2.26927zm24.86871 10.18934v-.1052c0-9.66282-7.49848-17.53023-17.4769-17.53023-10.03175 0-17.58222 7.9742-17.58222 17.63543v.1068c0 9.66229 7.49714 17.53023 17.4769 17.53023 10.03174 0 17.58222-7.97474 17.58222-17.63703zm-36.64442.1068v-.1068c0-10.40134 8.44912-19.11406 19.16752-19.11406 10.7184 0 19.06086 8.60752 19.06086 19.00886v.1052c0 10.4024-8.44779 19.11419-19.16619 19.11419s-19.06219-8.60659-19.06219-19.0074"/></svg>