<?xml version="1.0" encoding="utf-8"?>
<!-- Generator: Adobe Illustrator 24.1.0, SVG Export Plug-In . SVG Version: 6.00 Build 0)  -->
<svg version="1.1" id="Layer_1" xmlns="http://www.w3.org/2000/svg" xmlns:xlink="http://www.w3.org/1999/xlink" x="0px" y="0px"
	 viewBox="0 0 627.5 212.6" style="enable-background:new 0 0 627.5 212.6;" xml:space="preserve">
<style type="text/css">
	.st0{clip-path:url(#SVGID_2_);}
	.st1{clip-path:url(#SVGID_4_);}
	.st2{fill:#D2E4F4;}
	.st3{fill:#FFCD05;}
	.st4{fill:#44AF59;}
	.st5{fill:#676767;}
	.st6{fill:#333333;}
</style>
<g>
	<defs>
		<circle id="SVGID_1_" cx="103.9" cy="103.5" r="90.5"/>
	</defs>
	<clipPath id="SVGID_2_">
		<use xlink:href="#SVGID_1_"  style="overflow:visible;"/>
	</clipPath>
	<g class="st0">
		<g>
			<defs>
				<rect id="SVGID_3_" x="5.3" y="5.1" width="199.3" height="199.3"/>
			</defs>
			<clipPath id="SVGID_4_">
				<use xlink:href="#SVGID_3_"  style="overflow:visible;"/>
			</clipPath>
			<g class="st1">
				<path class="st2" d="M-2.8,9v44.5h-43.3v29.7h43.4v71.3C13.9,141.1,30.5,127.6,47,114c4.4-3.6,7.4-3.6,11.4,0.7
					c16.2,16.7,33,32.9,49.4,49.4c3.4,3.6,6.2,3.6,10,0.7c9-7.2,18.3-13.9,27.1-21.2c4.7-3.9,8.3-3.8,13.1-0.2
					c15.5,11.7,31.2,23,47.1,34.4V9H-2.8z"/>
				<path class="st3" d="M136.6,99.7c15.6-0.2,28.1-12.9,27.9-28.5c-0.2-15.6-12.9-28.1-28.5-27.9S108,56.2,108.2,71.7
					c0.2,15.5,12.7,27.9,28.2,27.9C136.5,99.7,136.5,99.7,136.6,99.7z"/>
				<path class="st4" d="M165,193.7h44.7v-39c-15.8-11.3-31.5-22.7-47.1-34.4c-4.7-3.6-8.3-3.8-13.1,0.2
					c-8.8,7.4-18.1,14.1-27.1,21.2c-3.8,2.9-6.5,2.9-10-0.7c-16.3-16.5-33.2-32.7-49.4-49.4c-4.1-4.2-7-4.2-11.4-0.7
					c-16.5,13.6-33.1,27-49.8,40.5v62.2h133.5v40.8H165L165,193.7L165,193.7z"/>
			</g>
		</g>
	</g>
</g>
<path class="st5" d="M223.6,117.6h-7.6v57.7h35V169h-27.3L223.6,117.6L223.6,117.6z M291,145.5c-0.1-4.3-1.6-7.7-4.4-10.2
	c-2.8-2.5-6.7-3.7-11.6-3.7c-2.9,0-5.9,0.6-8.6,1.7c-2.4,1-4.6,2.7-6.2,4.7c-1.4,1.8-2.2,3.9-2.3,6.2h7.4c0-1.9,1-3.7,2.7-4.8
	c1.9-1.4,4.2-2.1,6.6-2c3,0,5.2,0.8,6.8,2.3c1.6,1.6,2.4,3.8,2.3,6.1v3.4h-7.1c-6.2,0-10.9,1.2-14.3,3.7c-3.3,2.4-5.3,6.3-5.1,10.4
	c-0.1,3.5,1.4,6.8,4.1,9.1c2.9,2.5,6.6,3.7,10.4,3.6c4.6,0,9.1-1.9,12.2-5.3c0.1,1.5,0.5,3.1,1,4.5h7.7v-0.6c-1.1-3-1.6-6.2-1.5-9.4
	V145.5z M283.7,163.3c-1,2-2.5,3.6-4.5,4.6c-2,1.2-4.2,1.8-6.5,1.8c-2.1,0.1-4.2-0.6-5.9-1.9c-1.6-1.3-2.4-3.3-2.3-5.4
	c0-5.3,4.5-7.9,13.5-7.9h5.7L283.7,163.3z M322.5,131.6c-5-0.1-9.8,2.2-12.8,6.2l-0.2-5.4h-6.9v42.9h7.3v-30.5c0.9-2,2.4-3.7,4.2-5
	c1.8-1.3,4-1.9,6.3-1.9c2.9,0,5.1,0.7,6.5,2.2c1.4,1.5,2.1,3.8,2.1,6.9v28.4h7.3v-28.3C336.2,136.7,331.6,131.6,322.5,131.6
	L322.5,131.6z M374.3,136.8c-2.9-3.4-6.9-5.1-11.9-5.1c-4.8-0.1-9.4,2.1-12.2,6c-3.1,4-4.7,9.3-4.7,15.9v0.6
	c0,6.5,1.6,11.9,4.7,15.9c2.8,3.9,7.3,6.2,12.1,6.1c5.2,0,9.3-1.8,12.2-5.4l0.4,4.6h6.7v-60.8h-7.3V136.8z M374.3,163.6
	c-1.8,4-5.8,6.4-10.2,6.3c-3.3,0.1-6.4-1.4-8.3-4.1c-2-2.7-3-6.5-3-11.4c0-5.4,1-9.5,3-12.3c1.9-2.7,5.1-4.3,8.4-4.2
	c4.3-0.2,8.2,2.2,10.1,6.1L374.3,163.6z M418.6,153.4c-2.8-1.3-5.8-2.3-8.9-2.9c-3.7-0.8-6.2-1.7-7.6-2.6c-1.4-0.9-2.2-2.4-2.1-4
	c0-1.8,0.8-3.5,2.3-4.6c1.8-1.3,4-1.9,6.3-1.7c2.3-0.1,4.6,0.7,6.4,2.2c1.6,1.2,2.5,3.2,2.6,5.2h7.4c0.1-3.7-1.6-7.3-4.5-9.6
	c-3-2.5-7-3.8-11.8-3.8c-4.1-0.2-8.1,1.1-11.4,3.6c-2.8,2.1-4.5,5.4-4.5,8.9c-0.1,1.9,0.5,3.8,1.6,5.5c1.3,1.7,2.9,3.1,4.8,4
	c2.8,1.3,5.8,2.3,8.8,2.9c3.7,0.8,6.3,1.7,7.8,2.8c1.5,1.1,2.3,2.8,2.2,4.6c0,1.8-0.9,3.6-2.5,4.5c-2,1.2-4.3,1.8-6.7,1.7
	c-2.6,0.1-5.2-0.6-7.3-2.2c-1.8-1.4-2.9-3.5-3-5.8h-7.3c0,2.5,0.8,5,2.2,7.1c1.6,2.2,3.7,4,6.2,5.1c2.9,1.3,6,1.9,9.1,1.8
	c4.9,0,8.9-1.2,11.9-3.5c3-2.1,4.7-5.6,4.6-9.2c0.1-2.1-0.5-4.1-1.6-5.8C422.4,155.8,420.6,154.3,418.6,153.4L418.6,153.4z
	 M443.4,141.6c2-2.7,5.3-4.2,8.7-4c2.6-0.1,5.1,0.9,7,2.7c1.9,1.8,3,4.2,3.1,6.8h6.9c-0.1-4.3-1.9-8.3-5.1-11.2
	c-3.3-2.9-7.6-4.5-12-4.3c-3.6-0.1-7.1,0.8-10.2,2.7c-2.9,1.8-5.2,4.5-6.6,7.6c-1.6,3.5-2.4,7.3-2.3,11.1v1.2c0,6.8,1.7,12.1,5.2,16
	c3.4,3.9,8.1,5.8,13.9,5.8c2.9,0,5.7-0.7,8.3-2c2.5-1.2,4.6-3,6.2-5.3c1.5-2,2.4-4.5,2.5-7h-6.9c-0.2,2.3-1.4,4.5-3.2,5.9
	c-1.9,1.6-4.4,2.4-6.9,2.4c-3.4,0.2-6.6-1.3-8.7-4c-2-2.7-3.1-6.5-3-11.4v-1.4C440.3,148.2,441.3,144.3,443.4,141.6L443.4,141.6z
	 M510,145.5c-0.1-4.3-1.6-7.7-4.4-10.2c-2.8-2.5-6.7-3.7-11.6-3.7c-2.9,0-5.9,0.6-8.6,1.7c-2.4,1-4.6,2.7-6.2,4.7
	c-1.4,1.8-2.2,3.9-2.3,6.2h7.4c0-1.9,1-3.7,2.7-4.8c1.9-1.4,4.2-2.1,6.6-2c3,0,5.2,0.8,6.8,2.3c1.6,1.6,2.4,3.8,2.3,6.1v3.4h-7.1
	c-6.2,0-10.9,1.2-14.3,3.7c-3.3,2.4-5.3,6.3-5.1,10.4c-0.1,3.5,1.4,6.8,4.1,9.1c2.9,2.5,6.6,3.7,10.4,3.6c4.6,0,9.1-1.9,12.2-5.3
	c0.1,1.5,0.5,3.1,1,4.5h7.7v-0.6c-1.1-3-1.6-6.2-1.5-9.4L510,145.5z M502.6,163.3c-1,2-2.5,3.6-4.5,4.6c-2,1.2-4.2,1.8-6.5,1.8
	c-2.1,0.1-4.2-0.6-5.9-1.9c-1.6-1.3-2.4-3.3-2.3-5.4c0-5.3,4.5-7.9,13.5-7.9h5.7L502.6,163.3z M540.9,131.6c-5.3,0-9.5,1.8-12.4,5.5
	l-0.4-4.8h-6.7v59.3h7.3v-20.6c3,3.3,7.1,5,12.3,4.9c4.8,0.2,9.3-2.1,12.1-6c3-4,4.5-9.2,4.5-15.8v-0.7c0-6.9-1.5-12.3-4.5-16.2
	C550.3,133.6,545.7,131.4,540.9,131.6L540.9,131.6z M547.2,165.9c-1.9,2.7-5.1,4.3-8.4,4.2c-4.2,0.2-8.1-2.1-10.1-5.9v-20.5
	c1.9-3.7,5.8-6,10-5.9c3.4-0.1,6.5,1.5,8.5,4.2c2.1,2.8,3.1,6.6,3.1,11.4C550.3,159,549.3,163.1,547.2,165.9L547.2,165.9z
	 M583.8,131.6c-3.4,0-6.7,1-9.5,2.8c-3,1.9-5.3,4.6-6.8,7.8c-1.7,3.6-2.5,7.5-2.4,11.4v1.3c0,6.4,1.8,11.5,5.5,15.3
	c3.6,3.8,8.4,5.7,14.2,5.7c7.2,0,12.6-2.8,16.2-8.3l-4.5-3.5c-1.3,1.7-2.9,3.1-4.7,4.2c-2,1.1-4.3,1.7-6.6,1.6
	c-3.4,0.1-6.7-1.3-9-3.9c-2.5-2.8-3.8-6.5-3.7-10.2h29v-3.1c0-6.8-1.5-12.1-4.6-15.8C593.7,133.4,589.4,131.6,583.8,131.6
	L583.8,131.6z M594.1,149.9h-21.5c0.5-3.9,1.7-6.9,3.7-9.1c1.9-2.1,4.6-3.3,7.4-3.2c2.8-0.1,5.4,1,7.3,3.1c1.8,2,2.8,4.9,3,8.7
	L594.1,149.9z"/>
<g>
	<g>
		<path class="st6" d="M216,31.2h22.7V86h32.6v18.9H216V31.2z"/>
		<path class="st6" d="M281,31.2h57v18.9h-34.3v9.2h29.4v17.5h-29.4v28.1H281V31.2z"/>
	</g>
	<g>
		<path class="st6" d="M408.3,67.6c0,12.3-3.2,21.5-9.6,27.8c-6.4,6.3-15.9,9.4-28.4,9.4h-17.5V31.8h19.8c11.7,0,20.5,3.1,26.6,9.1
			C405.3,47,408.3,55.9,408.3,67.6z M402.8,67.9c0-10.5-2.7-18.4-8-23.6c-5.3-5.3-13.1-7.9-23.4-7.9h-13.5v64.1H370
			C391.9,100.4,402.8,89.6,402.8,67.9z"/>
		<path class="st6" d="M460.2,79.1h-29.7l-10.2,25.8h-5.7L444,31.5h3.2l28.8,73.4h-5.7L460.2,79.1z M432.3,74.5h26.2l-10-26.4
			c-0.8-2.1-1.8-4.9-3-8.6c-0.9,3.2-1.9,6.1-3,8.7L432.3,74.5z"/>
		<path class="st6" d="M501,104.9h-5.2V36.6h-23.8v-4.8h52.7v4.8H501V104.9z"/>
		<path class="st6" d="M566.3,79.1h-29.7l-10.2,25.8h-5.7l29.4-73.4h3.2l28.8,73.4h-5.7L566.3,79.1z M538.5,74.5h26.2l-10-26.4
			c-0.8-2.1-1.8-4.9-3-8.6c-0.9,3.2-1.9,6.1-3,8.7L538.5,74.5z"/>
	</g>
</g>
</svg>
