<?xml version="1.0" encoding="utf-8"?>
<!-- Generator: Adobe Illustrator 24.1.0, SVG Export Plug-In . SVG Version: 6.00 Build 0)  -->
<svg version="1.1" id="Layer_1" xmlns="http://www.w3.org/2000/svg" xmlns:xlink="http://www.w3.org/1999/xlink" x="0px" y="0px"
	 viewBox="0 0 400 65" style="enable-background:new 0 0 400 65;" xml:space="preserve">
<style type="text/css">
	.st0{opacity:0.8;fill:#FFFFFF;}
	.st1{fill:#FFFFFF;}
	.st2{opacity:0.8;fill:#231F20;}
	.st3{fill:#231F20;}
	.st4{fill:#009ADE;}
	.st5{fill:#003764;}
	.st6{fill:#009BE3;}
</style>
<g>
	<g>
		<polygon class="st4" points="14.2,51.6 14.2,26.1 1.4,26.1 1.4,64.3 39.6,64.3 39.6,51.6 		"/>
		<polygon class="st5" points="65.1,0.6 1.4,0.6 1.4,19.7 14.1,19.7 14.1,13.4 52.4,13.4 52.4,51.6 46,51.6 46,64.3 65.1,64.3 		"/>
	</g>
	<g>
		<path class="st5" d="M81.9,0.6h19.6V48h28.2v16.3H81.9V0.6z"/>
		<path class="st5" d="M138.1,0.6h49.3v16.3h-29.6v7.9h25.4v15.2h-25.4v24.3h-19.6V0.6z"/>
	</g>
	<g>
		<path class="st6" d="M248.2,32.1c0,10.6-2.8,18.6-8.3,24.1c-5.6,5.4-13.7,8.2-24.5,8.2h-15.1V1.1h17.1c10.1,0,17.8,2.6,23,7.9
			C245.6,14.3,248.2,22,248.2,32.1z M243.4,32.3c0-9-2.3-15.9-6.9-20.4C231.9,7.3,225.1,5,216.2,5h-11.6v55.5h10.5
			C234,60.5,243.4,51.1,243.4,32.3z"/>
		<path class="st6" d="M293,42.1h-25.7l-8.8,22.3h-4.9L279,0.9h2.8l24.9,63.5h-5L293,42.1z M268.9,38.1h22.6l-8.6-22.8
			c-0.7-1.8-1.6-4.3-2.6-7.5c-0.8,2.8-1.6,5.3-2.6,7.5L268.9,38.1z"/>
		<path class="st6" d="M328.4,64.4h-4.5V5.3h-20.5V1.1h45.5v4.2h-20.5V64.4z"/>
		<path class="st6" d="M384.9,42.1h-25.7l-8.8,22.3h-4.9l25.4-63.5h2.8l24.9,63.5h-4.9L384.9,42.1z M360.8,38.1h22.6l-8.6-22.8
			c-0.7-1.8-1.6-4.3-2.6-7.5c-0.8,2.8-1.6,5.3-2.6,7.5L360.8,38.1z"/>
	</g>
</g>
</svg>
